<?xml version="1.0" encoding="UTF-8" standalone="no"?>
<!-- Created with Inkscape (http://www.inkscape.org/) -->

<svg
   xmlns:dc="http://purl.org/dc/elements/1.1/"
   xmlns:cc="http://creativecommons.org/ns#"
   xmlns:rdf="http://www.w3.org/1999/02/22-rdf-syntax-ns#"
   xmlns:svg="http://www.w3.org/2000/svg"
   xmlns="http://www.w3.org/2000/svg"
   version="1.1"
   width="2000"
   height="2000"
   id="svg">
  <defs
     id="defs4">
    <linearGradient
       x1="520.29034"
       y1="672.76587"
       x2="527.78705"
       y2="680.26257"
       id="havenGradient"
       gradientUnits="userSpaceOnUse"
       gradientTransform="matrix(1.0125,0,0,1.0125,-12.504738,-17.567779)"
       spreadMethod="repeat">
      <stop
         id="stop3816"
         style="stop-color:#ff62ad;stop-opacity:1"
         offset="0" />
      <stop
         id="stop3826"
         style="stop-color:#ff62ad;stop-opacity:1"
         offset="0.5" />
      <stop
         id="stop3828"
         style="stop-color:#ff62ad;stop-opacity:0"
         offset="0.5" />
      <stop
         id="stop3818"
         style="stop-color:#ff62ad;stop-opacity:0"
         offset="1" />
    </linearGradient>
    <linearGradient
       x1="520.29034"
       y1="672.76587"
       x2="527.78705"
       y2="680.26257"
       id="veniceGradient"
       gradientUnits="userSpaceOnUse"
       gradientTransform="matrix(1.0125,0,0,1.0125,-12.504738,-17.567779)"
       spreadMethod="repeat">
      <stop
         id="stop4110"
         style="stop-color:#ffd42a;stop-opacity:1"
         offset="0" />
      <stop
         id="stop4112"
         style="stop-color:#ffd42a;stop-opacity:1"
         offset="0.5" />
      <stop
         id="stop4114"
         style="stop-color:#ffd42a;stop-opacity:0"
         offset="0.5" />
      <stop
         id="stop4116"
         style="stop-color:#ffd42a;stop-opacity:0"
         offset="1" />
    </linearGradient>
  </defs>
  <metadata
     id="metadata7">
    <rdf:RDF>
      <cc:Work
         rdf:about="">
        <dc:format>image/svg+xml</dc:format>
        <dc:type
           rdf:resource="http://purl.org/dc/dcmitype/StillImage" />
        <dc:title></dc:title>
      </cc:Work>
    </rdf:RDF>
  </metadata>
  <path
     d="m 551.1099,624.40299 c -36.97045,0 -66.9375,29.96705 -66.9375,66.9375 0,36.97045 29.96705,66.9375 66.9375,66.9375 32.34914,0 59.35176,-22.93365 65.59375,-53.4375 0.18923,-0.92475 0.34933,-1.87429 0.5,-2.8125 0.008,-0.0522 0.0234,-0.10412 0.0312,-0.15625 0.17955,-1.19375 0.32455,-2.3655 0.4375,-3.4375 0.0946,-0.89753 0.17581,-1.67832 0.21875,-2.40625 0.0108,-0.15603 0.0215,-0.31242 0.0312,-0.46875 0.0872,-1.39829 0.15625,-2.7985 0.15625,-4.21875 0,-1.03988 -0.0469,-2.06546 -0.0937,-3.09375 l -0.5312,-0.8125 4.625,-6.625 0.125,-27.0625 c 3.11983,-0.0195 5.65662,-2.57077 5.65625,-5.6875 -3.7e-4,-3.11674 -2.53952,-5.62537 -5.65625,-5.625 l -5.09375,0.0312 -7.65625,8 2.5,2.40625 -2.78125,0.90625 -1.96875,5.09375 -1.21875,-4.03125 -1.75,-2.53125 -3.40625,-0.71875 -1.6875,-6.3125 2.0625,-5.1875 -3.6875,-5.1875 -2.3125,2.59375 -7.96875,-0.84375 -2.90625,3.5313 -6.625,-1.625 -4.125,-0.75 -6.5,-3.375 -1.5,-8.125 0.1875,-0.28125 c -0.38471,-0.0859 -0.76907,-0.17077 -1.15625,-0.25 -4.35769,-0.89171 -8.8787,-1.375 -13.5,-1.375 z"
     id="path3791"
     style="fill:url(#havenGradient);fill-opacity:1;stroke:none" />
  <path
     d="m 670.82865,669.93424 c 0,0.125 -0.28125,1.40625 -0.28125,1.40625 l 1.625,0.125 0.34375,-1.4375 z"
     id="path3009"
     style="fill:#00b0ff;fill-opacity:1;stroke:#000000;stroke-width:1px;stroke-linecap:butt;stroke-linejoin:miter;stroke-opacity:1" />
  <path
     d="m 688.20365,751.05924 c -0.0625,0.625 -1.1875,5 -1.1875,5 l 2,2.5625 3.5,2.25 2.1875,-2.0625 1.375,0.3125 c 0,0 5.125,-5.4375 4.875,-5.5625 -0.25,-0.125 -5,-2.6875 -5,-2.6875 l 0.875,-3.125 0.1875,-3.25 -4.25,1.5 -2.875,1.1875 -0.125,4 z"
     id="path3011"
     style="fill:#00b0ff;fill-opacity:1;stroke:#000000;stroke-width:1px;stroke-linecap:butt;stroke-linejoin:miter;stroke-opacity:1" />
  <path
     d="m 716.14115,750.74674 c -0.25,0.125 -1.9375,2.1875 -1.9375,2.1875 l 2.75,2 5,0.125 1.625,0.5625 1.75,-0.5625 -2.5625,-2 0.6875,-1.5625 -1.4375,-0.3125 -2.5625,-0.3125 z"
     id="path3013"
     style="fill:#00b0ff;fill-opacity:1;stroke:#000000;stroke-width:1px;stroke-linecap:butt;stroke-linejoin:miter;stroke-opacity:1" />
  <path
     d="m 787.70365,587.18424 c 1.9375,1.6875 7.3125,7 7.3125,7 l 3.5,-3.375 2.0625,0.375 c 0,0 2.8125,-2.75 2.5,-3 -0.3125,-0.25 -1.4375,-2.375 -1.4375,-2.375 l 2.0625,-2.3125 -0.125,-2.3125 -2.5625,-1.5 -0.5,-1.875 -2,-1.6875 1.375,-4.9375 3.5625,-2.625 -1.8125,-2.375 2.1875,-1.3125 1.8125,1.0625 2.1875,-0.25 2.3125,1.75 -1,0.875 0.5625,3.125 -2.4375,5.375 5.9375,-1.0625 0.25,-4 2.625,-2.625 1.6875,-2.1875 6,-5.0625 1,-4.125 2.25,-0.875 4.3125,-5.5 -4.8125,-2.9375 0,-10 1.5,-2 -0.125,-3.3125 -5.5625,-1.875 -0.8125,-2.125 2.125,-1.6875 2,1.6875 2.8125,-2.5625 2.25,-6.25 -4.1875,-2.0625 -2.5625,-4.4375 -2,-1.375 -1.4375,0.4375 -3.75,-2.6875 -1.375,0.5 -0.75,1.9375 -2.9375,1.5625 -2.0625,-2.8125 -3.375,0.375 -2.8125,0.625 -2.5,1.6875 -3.125,6.1875 -7.75,3.125 0.3125,3.3125 -1.625,1.625 1.25,2.25 -2.0625,2.125 0.25,1.625 1.5,1.1875 -0.6875,1.1875 -1.75,-0.5 -5.9375,1.125 -2.125,3.6875 2.9375,1.375 1.8125,-0.5625 2,2.1875 -2.1875,3.375 2.4375,5.4375 2.875,-1.375 0.6875,1.4375 -2.8125,2.125 0.9375,2 1.75,0 1.875,1.8125 -1.4375,0.6875 -1.9375,-0.625 -1.0625,-0.8125 -2.25,3.1875 3,3.875 3.3125,4 0.1875,2.1875 1.75,4 -2.0625,2.125 -2.75,-0.5625 -0.9375,1.25 2.8125,2.8125 -1.875,2 -0.1875,2.5625 2,0.875 z"
     id="path3015"
     style="fill:#00b0ff;fill-opacity:1;stroke:#000000;stroke-width:1px;stroke-linecap:butt;stroke-linejoin:miter;stroke-opacity:1" />
  <path
     d="m 700.01615,706.49674 0.9375,0.875 0.625,1 0,1.3125 -0.6875,0.75 0.8125,0.75 1,-0.5625 -0.625,-1.1875 0.1875,-1.0625 0.875,-0.25 0.125,-2.1875 0.0625,-1.5 -1.125,0.3125 -0.125,1.1875 z"
     id="path3017"
     style="fill:#00b0ff;fill-opacity:1;stroke:#000000;stroke-width:1px;stroke-linecap:butt;stroke-linejoin:miter;stroke-opacity:1" />
  <path
     d="m 626.76615,598.74674 2.9375,-0.75 -0.4375,2.25 -2.4375,0 z"
     id="path3019"
     style="fill:#00b0ff;fill-opacity:1;stroke:#000000;stroke-width:1px;stroke-linecap:butt;stroke-linejoin:miter;stroke-opacity:1" />
  <path
     d="m 949.41058,305.07466 2.65165,1.76777 2.91682,-1.85616 -2.03293,-1.94454 0.17677,-3.35876 -1.32582,-0.26516 -0.17678,3.88909 z"
     id="path3021"
     style="fill:#00b0ff;fill-opacity:1;stroke:#000000;stroke-width:1px;stroke-linecap:butt;stroke-linejoin:miter;stroke-opacity:1" />
  <path
     d="m 954.14053,296.39043 c 0.17677,0.53033 0.61872,6.27557 0.61872,6.27557 l 1.94454,2.56326 2.38648,2.20971 0.17678,2.74004 2.74004,1.23744 3.0052,-1.591 5.03814,-3.62392 2.47487,0.7955 4.94975,-2.47488 3.09359,-5.12652 -1.94454,-2.65165 0.53033,-2.03293 -3.27037,1.5026 -2.2981,-0.53033 -3.09359,4.77297 -4.06586,0.0884 -1.41422,-2.38649 -3.8007,2.56327 -3.71231,-2.2981 2.03294,-0.88389 -2.65165,-2.29809 z"
     id="path3023"
     style="fill:#00b0ff;fill-opacity:1;stroke:#000000;stroke-width:1px;stroke-linecap:butt;stroke-linejoin:miter;stroke-opacity:1" />
  <path
     d="m 959.75235,288.54671 c -0.97227,0.61872 -4.24264,2.38649 -4.24264,2.38649 l 0.35356,1.23743 4.41941,1.50261 1.85616,2.12132 3.8007,-0.35356 3.62392,3.00521 1.67938,-1.23744 2.65165,-4.94975 -2.03293,0.0884 -3.27037,3.18198 -2.47487,-1.59099 -2.74004,-1.41421 -2.12132,0.17677 z"
     id="path3025"
     style="fill:#00b0ff;fill-opacity:1;stroke:#000000;stroke-width:1px;stroke-linecap:butt;stroke-linejoin:miter;stroke-opacity:1" />
  <path
     d="m 964.35884,276.08721 0,1.8125 0.75,1.5625 -0.25,1.4375 1.25,0.5 1,-1.375 z"
     id="path3027"
     style="fill:#00b0ff;fill-opacity:1;stroke:#000000;stroke-width:1px;stroke-linecap:butt;stroke-linejoin:miter;stroke-opacity:1" />
  <path
     d="m 969.92875,272.56867 c 0,0.3125 -0.9375,2.25 -0.9375,2.25 l -1.75,1.4375 3.0625,4.25 -0.0625,3.875 -2.125,3.125 1.625,1.25 -0.5,1.125 0.8125,1.3125 3.6875,0.3125 2.125,2.0625 4.4375,-3.8125 7.1875,-0.625 4,3.875 2.56253,0.4375 3.4375,4.5 0.9375,3.8125 2.93752,1.125 2.875,-2.875 0,-27.25 -32.68755,0 z"
     id="path3029"
     style="fill:#00b0ff;fill-opacity:1;stroke:#000000;stroke-width:1px;stroke-linecap:butt;stroke-linejoin:miter;stroke-opacity:1" />
  <path
     d="m 734.26615,529.87174 -26.46875,26.46875 -21.1875,0 -2.09375,2.34375 0,3 1.125,2.125 -3.1875,-0.625 0.28125,-1.15625 -2.5625,-1.15625 -1,1.5 -6.5,-3.78125 -9.375,13.25 -4.59375,3.53125 -2.5625,-4.25 1.84375,-2.1875 -4.78125,-4.5 -5.8125,-1.53125 -4.34375,3.71875 -6.28125,0.375 -4.15625,-5.125 -7.5,5.5625 -2.46875,-2.125 -3.09375,2.125 -1.875,-2.5 -5.03125,6.90625 2.375,2.03125 -1.21875,4.96875 4.3125,3.09375 3.71875,0.6875 -2.03125,3.625 4.875,4.25 4.15625,-3.4375 -1,-2.125 0.875,-1.25 3.375,0.25 0.625,-2.125 -0.375,-3.625 0.625,-3.125 1.5,4.25 2.75,-0.125 0.25,3.5 6,5.25 3,6.25 5,2.125 8.875,-3.375 3.25,-2.375 3.75,-6.875 9.375,0.75 3.5,5.25 2.75,-4.375 3.875,0.375 c 0,0 -0.875,2.875 -1.375,3.125 -0.5,0.25 -4.375,1.875 -4.375,1.875 l 0.125,3.25 -8,-2.625 -2.25,3.75 -4.875,1.625 0.125,7 1.875,4 -2,3.625 -5.375,-0.125 -6.125,6.125 -5.875,-2.25 -2.125,-5.25 -4,-3 6.375,-3.625 3,1.125 3.5,-4 -1,-2.625 -7.25,0.125 -6.125,6 -3.25,-0.5 -0.125,3.25 -5.25,-3.5 -4.5,0 -4.375,3.5 -3.375,-2.5 -6.125,4.125 -7,-5.25 -5.375,3.5 -2.375,9.625 -12.125,-6.375 -2,1.125 -3.75,-1.25 -7.625,9.5 -3.5,0 -4.75,7.25 1.5,8.125 6.5,3.375 4.125,0.75 6.625,1.625 2.90625,-3.53125 7.96875,0.84375 2.3125,-2.59375 3.6875,5.1875 -2.0625,5.1875 1.6875,6.3125 3.40625,0.71875 1.75,2.53125 1.21875,4.03125 1.96875,-5.09375 2.78125,-0.90625 -2.5,-2.40625 7.65625,-8 5.09375,-0.0312 c 3.11673,-3.7e-4 5.65588,2.50826 5.65625,5.625 3.7e-4,3.11673 -2.53642,5.66805 -5.65625,5.6875 l -0.125,27.0625 -4.625,6.625 4.375,6.5 -3.90625,1.625 c -0.15473,3.27766 -0.93471,9.10241 -2.09375,13.28125 l 4.25,-0.625 1.59375,2.65625 2.90625,1.25 2.8125,-1.78125 4.0625,2.03125 2.84375,-1.59375 2.03125,0.90625 8.75,0.78125 3.375,-1.0625 3.96875,-1.15625 -0.0937,-3.625 2.03125,-3.6875 3.96875,-1.875 4.53125,3.09375 4.75,4.4375 3.09375,-3.09375 2.65625,2.125 0.4375,8.46875 -2.6563,3.0937 -4.59375,3.28125 -3.78125,2.71875 -1.59375,2.5 2.5625,1.59375 4.9375,-0.90625 3.09375,4 1.5,3.09375 -0.59375,3.53125 0.0625,2.46875 -2.71875,3.28125 0.875,1.3125 c 0,0 -0.89553,1.7768 -0.71875,2.21875 0.17677,0.44194 5.3125,7.25 5.3125,7.25 l 3.4375,-2.5 -0.34375,-4.21875 2.125,-2.5625 0.78125,-4 3.09375,-2.5625 3.71875,-0.53125 1.5,-3.78125 1.5,-1.78125 -1.0625,-2.21875 2.125,-1.84375 -2.46875,-6 -3.09375,0.0937 -0.4375,-1.0625 3,-1.0625 0.28125,-2.5 2.1875,-1.5625 0.53125,-2.5 -1.65625,-1.21875 -2.21875,-0.1875 0.875,-2.375 -0.4375,-1.6875 -0.28125,-2.03125 -2.71875,-0.71875 -2.125,-1.59375 -2.03125,-4.93745 c 0,0 5.1152,-5.21339 5.46875,-5.125 0.35355,0.0884 3.09375,-0.4375 3.09375,-0.4375 l 0.375,-2.21875 -1.875,-1.15625 -3.78125,-3.96875 -3.5625,-0.0937 -1.21875,4.0625 -4.15625,-3.875 -6.625,-4.34375 -9.125,-6.8125 0.625,-1.5 2.84375,1.5 1.3125,-4.59375 -4.25,-2.5625 -0.34375,-2.46875 -0.875,-1.59375 1.9375,-1.9375 -1.5,-0.625 -3.375,1.25 0.0937,-1.59375 0.96875,-1.78125 -2.1875,-3.625 0.96875,-1.125 2.1875,-0.375 1.59375,-1.5 2.75,-1.3125 2.3125,2.21875 -1,2.71875 -2.8125,1.25 -0.34375,2.46875 2.90625,2.3125 1.40625,0.59375 0.28125,1.875 -2.75,1.15625 2.375,2.5625 2.5,0.25 1.65625,-1.84375 -1.9375,-2.3125 -0.34375,-1.59375 1.40625,0.71875 1.59375,2.8125 0.78125,1.0625 1.78125,-1.40625 1.8125,-1.625 3.3125,0 -2.90625,-2 1.40625,-1.6875 3.09375,2.84375 1.84375,1.5 1.78125,4.59375 -0.625,3.71875 -1.3125,1.15625 0.875,2.03125 2.46875,0 2.125,2.90625 2.5625,0.625 2.75,-0.71875 -0.71875,-1.6875 0.96875,-1.65625 2.5625,1.3125 0.53125,2.5625 3.53125,2.21875 2.75,-0.28125 2.90625,4.59375 3.8125,5.3125 -1.25,1.78125 2.5,1.0625 2.625,0.25 0.28125,3.625 -2.21875,-0.25 -1.84375,2.375 5.3125,5.65625 3.53125,2.375 3.1875,0.375 3.53125,-2.5625 1.125,3 -2.46875,1.40625 -6.28125,1.59375 -3,8.5625 -4.75,-0.25 -3.46875,1.21875 0.96875,4 -1.9375,2.65625 -2.8125,5.46875 3.625,3.875 2.90625,-3.6875 3.28125,0.96875 5.03125,-3.90625 3.53125,-0.15625 -0.53125,1.9375 1.6875,2.8125 2.8125,1.59375 3,2.65625 2.03125,-1.6875 4.53125,-0.875 -2.75,-3.96875 6.53125,-7 0.625,-3.1875 1.59375,-1.75 0.1875,-2.03125 1.5,0.25 1.3125,2.03125 2.40625,-1.65625 -0.625,-2.75 -1.5,-1.5 -2.3125,0.53125 -1.5,-3.09375 0.4375,-2.65625 3.09375,-1.3125 1.25,-1.875 1.84375,-3 2.40625,0.1875 -1.78125,0.875 -0.28125,6 c 0,0 8.32323,8.92326 8.5,9.71875 0.17678,0.7955 0,6.375 0,6.375 l 4.59375,0.1875 9.375,-4.6875 5.03125,-5.5625 -4.0625,-5.59375 3.4375,-5.375 -6.09375,-6.46875 6.71875,-4.5 -9.375,-10.15625 -3.875,0 -2.75,-4.6875 -4.84375,-1.40625 -0.90625,-2.40625 2.5,-0.59375 -3.28125,-1.6875 -4.5,0.25 2.03125,-2.65625 2.65625,-0.0625 0.59375,-1.34375 2.3125,0.96875 3.1875,-4.0625 2.125,3.53125 1.21875,1.4375 -0.625,2.90625 3.28125,-0.28125 1.5,-2.90625 -2.65625,-3 1.59375,-3.375 2.5625,-1.125 c 0,0 -0.35355,-3.61963 0,-3.53125 0.35356,0.0884 1.6875,-1.78125 1.6875,-1.78125 l -1.59375,-2.90625 1.0625,-1.4375 2.8125,-0.25 0.375,2.03125 -1.25,0.4375 0.1875,4.25 6.625,0.1875 5.90625,-0.375 2.0625,0.96875 2.8125,-3.875 2.75,1.3125 -1.34375,3.625 6.1875,-0.78125 2.84375,-4.96875 -2.40625,-5.28125 -2.28125,-4.59375 -3.71875,-1.25 -5.65625,0.96875 7.59375,-8.03125 -0.4375,-2.3125 3.4375,-1.9375 1.875,-2.90625 2.5625,0.4375 1.75,2.375 1.53125,-0.875 -1.34375,-3 3.09375,-2.125 -1.75,-1.875 1.75,-2.09375 -2.125,-2.5625 0.96875,-2.75 -1.0625,-0.875 0.90625,-1.78125 1.3125,-4.5 -4.84375,-6.625 -2.9375,3.53125 -3,-1.78125 -1.9375,0.875 -2.125,-2.03125 -6,3.09375 0.4375,6.28125 -4.59375,1.875 -2.40625,-2.5 -8.90625,6.125 -10.25,0.6875 1.84375,-11.21875 8.40625,3.71875 5.5625,-3.4375 -1.78125,-4.625 3.90625,-5.125 -4.875,-3.625 -1.6875,0.375 -0.15625,1.21875 -2.5625,-0.34375 0.25,-3.8125 1.40625,-1.84375 4.53125,-0.625 0.53125,-2.65625 1.9375,-1.0625 -1.59375,-3.78125 -3.09375,1.9375 -8.21875,-14.3125 0.78125,-4.6875 -3.78125,-0.0937 -1.59375,-5.65625 2.46875,-3.28125 1.6875,0.8125 3.4375,1.15625 4.0625,-4.96875 -1.5,-5.90625 -3.7812,-1.78135 -2.84375,-1.84375 -3.34375,6.53125 -3.1875,0.1875 -2.21875,3.4375 -3.8125,-2.03125 -5.03125,1.6875 -1.40625,2.5625 -0.4375,-3.8125 6.34375,-1.59375 -0.15625,-2.5625 -1.0625,-2.46875 7.59375,-0.34375 0.28125,-2.65625 -1.6875,-1.0625 2.8125,-0.71875 1.15625,1.15625 1.78125,-0.71875 0.0625,-2.03125 2.84375,-4.15625 -1.3125,-3.625 -2.5,0 -1.3125,0.71875 -1.78125,-2.125 -1.9375,-0.53125 -1.3125,-2.46875 -1.6875,0 -2.125,-1.84375 -12.28125,0 z m 52.46875,132.03125 -3,3.96875 -2.1875,-1.15625 -2,1.875 2.28125,0.875 -0.84375,0.96875 1.34375,2.09375 2.21875,-0.96875 0.75,-4.28125 2.125,-2.4375 -0.6875,-0.9375 z m -8.125,2.28125 -2.71875,0.4375 -1,0.84375 2.15625,1.625 1.5625,-2.90625 z"
     id="path3007"
     style="fill:#00b0ff;fill-opacity:1;stroke:#000000;stroke-width:1px;stroke-linecap:butt;stroke-linejoin:miter;stroke-opacity:1" />
  <path
     d="m 595.75072,691.34518 a 44.627281,44.627281 0 0 1 -89.25456,0 44.627281,44.627281 0 1 1 89.25456,0 z"
     id="path3809"
     style="fill:#ff62ad;fill-opacity:1;stroke:none" />
  <path
     d="m 920.57865,614.18424 10.125,14.75 6.5,8.375 5.375,3.5 6.375,5 1.875,-1.375 2,1.25 -3,2.625 3,5.5 3.875,0.5 -0.625,2.125 -2.75,0 -0.25,3.875 3.75,2.25 -0.375,3.5 4.125,1.875 2.625,-1.625 2.5,1.25 7.25,-1.75 2.125,0.625 2.125,-1.25 -2.25,-1.75 2.125,-0.5 6.375,-4.5 -3.625,-2.125 0.75,-3.75 -6.625,-6.375 2,-1.75 1.125,-5.375 5.625,-4.5 5.875,-3.5 -2.25,-3.375 1.375,-4.375 2.5,-1.5 -0.375,-2.375 2.625,1.125 2.99994,-2.875 3.25,0.25 1.125,-4.25 3.75001,2.75 -1.5,2.625 2.625,0.625 1.75,-3.375 2.375,0.375 4.75,-4.875 1.5,-5.75 4,-3.625 -3.875,-8.5 -3.875,-1.5 2.375,-7.125 2.5,-4 3.25,-4.375 -3.25,-3.125 -5.125,1.375 0.875,-4.375 -4.25,0.375 -0.375,-3.375 -1.75,-1.125 -0.375,-1.5 -4.125,1.125 -1.75001,1.625 0,-2.25 -4.62494,-8.125 -2.75,-4.375 -3,2.375 -0.125,1.5 -1.625,3.25 -2.875,2.125 -3.25,5.625 -3.125,-4.25 -3.875,0.375 -3.5,6 -3.5,-1.375 -0.625,-1.875 2.625,-1 -2.125,-2 -2.375,0.875 0.875,1.625 -1.5,1.375 -3.375,-1.375 -6.375,2.5 -3,3.25 0.375,2.5 3.5,0.875 2,2.125 2.5,0.875 -0.25,4 3.125,1.25 1.125,-2.625 1.375,2.75 -0.625,1.5 0.625,1.5 -2.75,3 -0.625,3.875 -4,1 -0.375,1.625 -3.625,0 -5.75,0.25 -0.375,-2.875 0,-3.125 -2,0.25 0.25,5 -3.5,2.5 -1.5,-1.25 -1.75,2 -2.25,-3.25 -2.25,-1 -0.375,-1.5 -2,-2 -1.5,2.25 -1.75,0.5 -0.875,2.5 -4.125,-0.375 -1.875,2.625 1.875,2.875 2.125,1.125 -0.25,2.875 2.625,0.25 1.125,-1.375 2,2.125 -3.875,2 -3.25,3.125 -2.75,-0.75 z"
     id="path3845"
     style="fill:#940000;fill-opacity:1;stroke:#000000;stroke-width:1px;stroke-linecap:butt;stroke-linejoin:miter;stroke-opacity:1" />
  <path
     d="m 198.73334,793.41478 0.65542,-1.12358 1.87264,-1.12358 1.07676,-1.68537 1.31084,-0.65543 1.26403,-1.91945 1.73219,0.70224 1.68537,-1.17039 0.46816,-1.87264 0.60861,-1.779 1.31084,-0.93632 -0.14045,-1.26403 1.26403,-1.59174 2.80895,1.40448 0,2.01308 -1.07676,3.27711 -0.0936,2.71532 1.35766,0.84269 2.48124,2.62169 2.43442,0.0936 0.60861,1.40447 -0.0468,1.26403 0.74905,0.93632 -1.12358,3.97935 -1.82581,-0.79587 -1.49811,1.4981 -0.0468,1.77901 -2.20034,2.01308 -4.26025,-0.8895 -3.88571,-0.98314 -1.63856,-1.40447 0.2809,-1.82582 -2.01309,-0.98313 -1.07676,-1.21722 z"
     id="path5215"
     style="fill:#ffcc00;fill-opacity:1;stroke:#000000;stroke-opacity:1" />
  <path
     d="m 284.27122,757.48598 57.85149,-59.10843 59.83059,33.48709 15.52538,71.33673 -22.78921,20.08282 -19.681,-11.75054 -9.15957,1.18575 -19.71818,28.82088 -23.72989,22.97191 -14.41055,-24.91658 -19.84138,-12.86425 -1.23165,-9.99702 z"
     id="path3958"
     style="fill:url(#veniceGradient);fill-opacity:1;stroke:none" />
  <path
     d="m 265.07101,798.38594 0.92691,-2.25106 7.68008,-4.50212 1.45657,-5.1642 -4.10487,-1.32415 -2.64831,-3.4428 2.25106,-4.76694 -2.25106,-4.23729 4.3697,-9.40149 6.75318,-3.84004 4.76695,-1.32415 3.15296,2.86991 2.97779,-0.21859 1.61387,-1.84018 3.69951,-0.49301 3.13163,-3.91671 9.54697,2.12221 0.87979,-3.15044 4.69912,-3.27026 8.28756,-3.33565 -2.09148,-2.32919 1.11234,-1.93067 3.97246,-0.72829 10.47003,11.5872 -13.05182,17.51984 7.24876,0.83296 1.64171,2.96939 1.96836,-0.53143 2.78607,2.46146 17.86962,2.70031 3.70764,6.95179 -0.67589,2.75697 1.62649,0.2482 3.60087,2.75054 -2.99439,1.53046 3.60414,4.18334 2.59319,0.24529 0.85915,-1.64121 3.45666,1.18416 1.8416,4.309 -0.99848,2.82273 2.31463,3.59714 3.10688,-2.02534 7.48273,4.36616 6.65327,-1.54958 2.50857,2.85015 1.42102,-2.81298 4.91311,0.0266 1.31467,3.67168 -2.85681,1.30979 -1.94986,-2.59425 -1.88058,1.91578 1.26771,11.05717 -7.54767,-2.78072 -5.95869,0.26483 -2.38347,-5.29661 -4.3697,-3.04555 -2.25106,0.79449 -3.97246,0 -2.51589,4.10487 -0.26483,5.1642 -2.25106,2.38347 2.11864,4.23729 -3.31038,4.10487 -3.57521,2.11865 -3.17797,-1.19174 -3.84004,3.44279 -8.34216,5.42903 -2.94517,-4.59119 -2.82841,0.23653 -1.9065,2.89809 -1.84178,-3.68573 -7.92459,0.44099 -5.55127,-2.48797 -1.13374,-5.94506 1.14561,-2.75367 -2.42612,0.65724 -3.24129,-0.47934 -0.69674,-3.48939 -2.60211,0.0643 0.11456,3.68148 -2.53236,-1.8923 -1.92138,0.89323 -2.33096,-2.85934 -2.74345,0.0529 -0.0876,-2.01497 -3.56629,-1.66059 3.9466,-4.1233 -1.121,-2.16332 -4.10495,4.54831 -6.72397,5.87421 -7.35846,-3.31439 -3.84004,-2.78072 -3.97246,-4.3697 -7.28283,-2.38348 1.45656,-8.60699 z"
     id="path5217"
     style="fill:#ffcc00;fill-opacity:1;stroke:#000000;stroke-width:1px;stroke-linecap:butt;stroke-linejoin:miter;stroke-opacity:1" />
  <path
     d="m 354.84855,719.33403 0.92691,-2.25106 1.58898,-0.39725 0.92691,-2.11864 1.58898,-0.13241 0,-2.38348 2.91314,0.52966 0.66207,3.17797 -0.9269,0.52966 3.17796,1.05932 0.66208,4.10487 -1.85381,1.45657 -1.85382,-1.19174 -1.58898,0.92691 -3.97246,-2.38347 z"
     id="path5219"
     style="fill:#ffd42a;fill-opacity:1;stroke:#000000;stroke-opacity:1" />
  <path
     d="m 1850.9149,695.09068 11.3877,0.26483 2.7146,-0.19862 0.7282,-0.39724 0.4635,0 0.8607,0 1.4566,-0.39725 0.7282,0.33104 0.7945,0.19862 0.9269,-0.13241 0.7283,-0.99312 0.3973,-0.33104 1.2579,-0.46345 1.1917,-1.19174 -0.066,-1.25794 -0.066,-1.92002 -1.3241,-0.66208 -1.3904,-0.39725 -0.8607,0.39725 -0.7945,0.72828 -0.662,-0.66207 -0.927,-0.0662 -0.7282,-0.72828 -0.6621,-0.33104 -0.5959,-1.05932 -0.6621,-0.79449 -0.5958,0.26483 -0.2649,-0.26483 0.1987,-1.19174 0.331,-0.79449 0.1986,-0.92691 0.7945,-0.52966 0.9931,-0.19862 0.8607,0 0.5959,-0.92691 -0.4635,-0.52966 -0.7282,-0.59587 -0.4635,-0.79449 0.1986,-0.33104 0.5959,-1.05932 -0.7287,-0.39726 -0.1986,-0.39724 0.3972,-0.13242 0.5297,-0.13241 0,-0.7945 0,-1.39036 -0.3972,-0.9269 -0.1325,-0.79449 0.7283,-0.33104 0.2649,-0.79449 -0.1325,-0.92691 -0.9269,-0.46345 -0.066,-0.92691 -0.3972,-0.59587 -0.7945,-0.26483 -1.1917,0.19862 -0.7945,0.66208 -0.3311,0.79449 -0.4634,0.13242 -1.0594,0.59586 -0.1988,0.72829 -0.9269,-0.13242 -0.9269,-0.0662 -0.5297,0.72828 -0.3972,0.0662 -0.7945,-0.52966 -0.2648,-0.46346 -0.1324,-0.99311 -0.1987,-0.52966 -0.4634,-0.72829 -0.331,-0.33104 -0.5959,-0.79449 -0.3311,-0.13241 -0.4634,0.26483 -0.066,0.39724 -0.4635,0.7945 -0.1324,0.52966 -0.2648,-0.66208 -0.066,-0.46345 -0.1324,-0.19863 -0.7283,-0.13241 -0.4635,-0.26483 -0.1324,-0.72829 0.4635,-0.72828 0,-0.39725 -0.7283,-0.33103 -1.7876,-0.72829 -0.3311,0.13242 -0.5958,0.79449 0,0.0662 -0.5959,0.66207 0.2644,1.05935 0.2649,0.72828 0.1986,1.19174 0.2648,0.39724 0.3973,1.05932 -0.066,0.72829 -0.2648,0.92691 0,0.86069 0.3311,0.59587 0.5958,0.66208 0.1986,1.05932 0.1987,0.66208 0.066,0.8607 -0.2649,0.59587 -0.7282,0.86069 -0.8607,0.26484 -1.3242,0.46345 -0.331,0.26483 -0.1324,0.99311 0.331,0.52966 -0.7284,0.52967 -0.9269,0.59586 -0.4634,1.05933 0.7944,0.9269 0.3973,0.13242 0.6621,0.72828 -0.5297,0.72829 -0.7283,0.79449 -0.2648,0.52966 0.331,0.99311 0.3973,1.19174 0.1986,0.66208 0.2648,0.59587 0.7283,1.92002 0.066,0.39724 0.5959,1.19174 0.8607,0.13241 z"
     id="path4154"
     style="fill:#008000;fill-opacity:1;stroke:#000000;stroke-opacity:1" />
  <path
     d="m 1723.7817,525.82097 1.8539,-0.13241 1.1917,-0.92691 0.1324,-1.32415 -0.5297,-1.58898 -1.3241,0 -1.0593,-0.7945 -1.0594,0.66208 -0.2648,1.19174 -0.2648,1.32415 0.7945,1.19174 z"
     id="path4156"
     style="fill:#008000;fill-opacity:1;stroke:#000000;stroke-opacity:1" />
  <path
     d="m 1728.019,522.24576 2.5159,-0.79449 1.7214,-2.11864 1.4566,-0.52967 1.1917,-1.32415 -0.1324,-1.85381 -1.3241,-0.52966 -2.2511,-1.32416 0.1324,-0.79449 1.589,-0.39724 2.6483,-0.26483 1.1917,-0.66208 1.1918,0.26483 1.7214,0.66208 0.3972,2.25106 1.4566,1.19173 1.1917,-0.13241 3.0456,0.52966 3.0455,-0.13242 2.9132,0.39725 3.3103,1.7214 2.1187,1.19174 1.8538,1.45656 0.1324,1.32416 1.0593,1.85381 1.8538,0.26483 2.6484,-0.26483 2.6483,-0.13242 2.1186,0.92691 0.5297,2.78072 1.1917,1.19174 2.3835,1.05932 3.0455,1.05932 2.7807,-1.05932 0.7945,-1.85381 0.5297,-2.38348 0.9269,-0.13241 1.1917,-1.19174 1.3242,-0.39725 0.5297,-1.58898 -1.7214,-1.7214 -2.2511,-1.19173 -2.3835,-1.7214 -0.7945,-1.58899 2.3835,-1.98622 2.2511,-1.58899 1.589,-1.45657 -0.5297,-2.25105 -0.3973,-1.32416 1.1918,-1.19173 1.589,-2.11865 1.4565,-1.19174 0.9269,-2.51589 -0.7945,-1.58898 -0.9269,-1.32415 -2.1186,-1.85381 -1.589,-0.13242 -1.1917,-1.58898 -0.7945,-1.58899 -0.5297,-1.32415 -0.2648,-1.7214 -0.5297,-0.26483 0.3973,-0.66207 1.3241,-1.19174 1.8538,-0.26483 1.3242,-0.39725 2.1186,-0.79449 1.3242,0 1.7214,0 1.7214,-0.92691 2.251,-2.11864 -0.3972,-2.11864 1.4566,-1.45657 1.589,-0.92691 -0.3973,-2.91313 -1.7214,-0.13242 -1.0593,-1.32415 -1.0593,-0.79449 -1.4566,-0.26483 -0.9269,-0.26483 -0.7945,-0.66208 -0.1324,-1.58898 1.3241,-0.13242 1.7214,0 1.4566,-0.66207 1.0593,-0.52967 2.2511,-1.85381 1.1917,-1.32415 1.589,-0.92691 1.0593,0.13242 1.1918,0.26483 1.3241,1.32415 -0.1324,1.98623 0.3972,2.38347 -0.7944,0.79449 -1.4566,2.11865 -0.2648,1.19174 0.662,1.45656 0.9269,0.66208 2.1187,-1.45657 1.1917,-0.66207 0.9269,-1.32416 0.1324,-2.11864 0.6621,-3.04555 0.9269,-1.45657 1.0593,-0.79449 0.927,-1.58898 -0.1325,-2.11865 0,-1.98623 -0.2648,-1.19173 1.589,-0.52967 1.4566,-0.39724 1.1917,-1.19174 0.2648,-0.79449 -1.0593,-2.78072 -1.1917,-0.79449 -0.6621,-1.7214 -0.5297,-1.19174 1.1918,-1.58898 -0.3973,-1.05932 -0.7945,-1.32416 -1.4565,-1.19173 -1.8538,-1.05932 -1.7214,-0.92691 -0.927,-0.39725 -1.3241,0.92691 -1.589,0.92691 -1.589,1.05932 -0.2648,1.45657 -0.7945,0 -2.1186,0.52966 -1.0594,1.85381 -1.3241,0.39725 -0.9269,-0.26483 -1.3242,1.32415 -1.4565,1.05932 -0.3973,1.85381 -1.1917,0 -1.589,0.92691 -0.1324,1.19174 -0.1324,1.05932 -0.5297,0.92691 -1.1917,0.66207 -1.4566,1.32416 -0.3972,2.11864 0.5296,1.05932 -0.9269,1.05932 -1.9862,0 -1.8538,0 -0.3973,-0.79449 -0.6621,-1.32415 -0.662,-0.13242 -2.1187,0.39725 -1.1917,1.58898 -1.1918,0.66208 -1.4565,-0.39725 -1.589,-0.13241 -0.9269,0.79449 -1.1917,1.05932 -1.0594,1.19174 0.1324,1.45657 -0.2648,0.79449 -1.0593,1.98623 -0.7945,1.7214 -1.1917,2.38347 -0.2649,1.19174 0.2649,1.7214 0.662,0.26483 0.6621,0.39724 0.5297,1.19174 -0.9269,0.26483 -0.2649,0.92691 -0.2648,1.58898 -0.6621,1.05932 -0.662,1.05932 -0.927,1.05933 -0.7944,1.19173 -0.1325,1.19174 -1.1917,0.92691 -1.1917,-0.13242 -0.5297,0.92691 -1.1917,0.66208 -1.0594,0.79449 -2.3834,1.05932 -1.0593,0.52966 -1.589,0.66208 -1.589,0 -0.5297,-0.13242 -1.1917,-0.66207 -1.7214,0.39724 -0.7945,1.05932 -1.3242,0 -1.4565,0.13242 -2.2511,0.79449 -1.8538,0.26483 -1.9862,0.79449 -0.1324,0.79449 -0.6621,0.92691 -1.0593,0.79449 -3.9725,0.66208 -1.1917,-0.13242 -2.2511,-0.52966 -1.589,-0.79449 -1.4565,1.58898 -1.589,2.51589 -0.2649,2.78072 1.9863,2.38348 2.5159,2.11864 1.3241,0.92691 0.5297,1.45657 -0.9269,0.9269 -0.9269,2.11865 0.9269,0.9269 0.2648,0.92691 -1.0593,1.19174 -0.7945,1.45657 0.6621,0.66207 1.0593,1.05932 z"
     id="path4160"
     style="fill:#008000;fill-opacity:1;stroke:#000000;stroke-opacity:1" />
  <path
     d="m 1795.4184,511.25529 3.178,-1.98622 1.9862,0.39724 0.5296,0.52966 1.9863,-0.26483 1.1917,1.98623 0.9269,1.45657 -0.2648,2.11864 0.3972,1.7214 -0.1324,1.05932 -0.6621,1.85382 -0.5296,0.9269 -2.2511,0.52966 -1.1917,0 -0.7945,-1.72139 -0.3972,-1.85382 -0.6621,-0.39724 -1.4566,-0.52966 -1.3241,-0.26483 -0.3973,-1.05933 -1.1917,-2.11864 -0.2649,-1.05932 z"
     id="path4162"
     style="fill:#008000;fill-opacity:1;stroke:#000000;stroke-opacity:1" />
  <path
     d="m 1815.1483,454.71398 2.3834,0 -0.2648,-2.11864 -0.9269,-1.05932 -0.7945,-1.05933 0,-1.32415 -0.5296,-2.38347 -3.3104,0.9269 0.2648,0.79449 -0.5297,2.25106 1.0594,1.85382 z"
     id="path4164"
     style="fill:#008000;fill-opacity:1;stroke:#000000;stroke-opacity:1" />
  <path
     d="m 1815.1483,500.66207 7.8125,0 4.1048,1.32416 2.9132,2.78072 5.0318,3.97246 1.0593,1.05932 -1.9863,2.38347 0.3973,1.05932 0.1324,1.58899 -1.8538,0.52966 -1.4566,0 -1.3241,1.98623 -0.9269,1.85381 -2.1187,1.19174 -1.3241,-0.26483 -0.5297,-1.05932 -1.3241,-1.7214 -1.4566,0.13241 -1.3242,-0.13241 -1.9862,-0.26483 -0.6621,-0.52966 -1.1917,-1.45657 -1.3242,-0.92691 -1.4565,-0.52966 -1.3242,-1.58898 -1.0593,-1.32416 0.9269,-2.51589 0.6621,-1.05932 -0.7945,-0.9269 -0.2648,-1.45657 1.1917,-2.25106 0.6621,-1.19174 z"
     id="path4166"
     style="fill:#008000;fill-opacity:1;stroke:#000000;stroke-opacity:1" />
  <path
     d="m 1807.8654,500.66207 -1.1917,0.92691 1.4566,1.19174 0,0.52966 -0.6621,1.19174 -1.0593,0.13241 -1.1918,0.39725 -0.9269,0.13241 -0.9269,0.66208 -1.1917,0.39725 -1.1918,-1.05933 -1.1917,0.52966 -0.1324,1.45657 1.3241,1.05932 1.1918,0.13242 1.3241,0 1.8538,-0.13242 1.589,0 1.0593,0 1.8539,-0.26483 1.5889,-0.79449 -0.3972,-1.58898 -0.3973,-1.19174 -0.3972,-1.45657 0.1324,-1.05932 -0.9269,-1.05932 -1.1917,-0.13242 z"
     id="path4168"
     style="fill:#008000;fill-opacity:1;stroke:#000000;stroke-opacity:1" />
  <path
     d="m 1809.8517,510.19597 -1.4566,0.39725 0.6621,1.7214 1.5889,1.85381 0.7945,-0.39725 0,1.05933 0.5297,1.05932 1.0593,0.79449 0.7945,0.13242 1.0593,0.13241"
     id="path4170"
     style="fill:none;stroke:#000000;stroke-opacity:1" />
  <path
     d="m 1815.9428,515.625 -1.3242,1.19174 z"
     id="path4172"
     style="fill:none;stroke:#000000;stroke-opacity:1" />
  <path
     d="m 1816.2076,515.49258 -1.7214,-1.85381 -1.4566,-1.85381 -1.4565,-1.19174 -1.9863,-0.26483 -0.9269,0.52966 -0.1324,1.05932 1.4566,1.32415 1.3241,0.52966 0.5297,2.11865 0.9269,0.66208 1.589,0.26483 1.3241,-0.66208 z"
     id="path4174"
     style="fill:#008000;fill-opacity:1;stroke:#000000;stroke-opacity:1" />
  <path
     d="m 1882.2962,518.33328 -2.2472,2.80896 -1.4981,1.68537 -0.3745,-1.31085 -1.3108,0.18727 -2.0599,0.74905 0.3745,2.24716 -0.7491,2.43443 -2.0599,0.93631 -1.1236,1.49811 0,1.49811 0.1873,1.49811 0.5618,0.93631 1.4981,0 2.0599,1.12358 2.809,0 0.3745,1.49811 0.749,1.12358 0.1873,1.12358 -0.3745,0.93632 1.4981,1.12358 -0.7491,0.93632 -1.4981,0 -0.9363,2.0599 -1.1236,0.37452 -0.5618,1.12358 2.0599,2.43443 1.1236,1.12358 1.3109,-0.56179 0.749,1.68537 0.3745,1.31084 1.1236,1.49811 1.8727,2.0599 2.4344,0.93632 1.6853,-0.37453 -1.1235,-1.87263 -0.5618,-2.24717 1.8726,-1.12358 1.3109,-0.56179 1.8726,-1.12358 0.1873,-0.93631 1.4981,-1.31085 1.8726,-2.80895 z"
     id="path4176"
     style="fill:#008000;fill-opacity:1;stroke:#000000;stroke-opacity:1" />
  <path
     d="m 1728.9274,305.60201 -2.2471,2.43442 0.1872,2.62169 0.9363,1.31084 0.3746,1.68537 0.9363,2.24717 -1.8726,-0.93632 0.1872,-0.37453 -1.4981,0.18727 0.1873,0.74905 -1.6854,0.18726 -0.1873,0.93632 0.7491,1.49811 1.6854,1.12358 1.3108,1.12358 1.3109,0.18726 2.2471,-0.18726 0.7491,-0.74905 1.6853,-0.37453 1.8727,0 2.0599,-0.56179 0.3745,1.87263 0.7491,0 1.3108,0.37453 0.7491,-0.93632 0,-0.56179 z"
     id="path4178"
     style="fill:#008000;fill-opacity:1;stroke:#000000;stroke-opacity:1" />
  <path
     d="m 1761.6985,342.11838 -0.5618,3.37074 0.3746,1.87264 -1.6854,4.49432 -1.3108,1.49811 -1.8727,2.24716 -1.6854,-0.37453 -2.2471,2.0599 -0.3745,2.0599 -0.5618,0.93631 -0.7491,3.18348 -1.6854,1.12358 -1.3108,1.87264 -2.4344,0.56179 -2.6217,0.93631 -0.5618,0.74906 -0.5618,0.18726 -2.8089,-0.37452 -0.9364,-1.12359 0.5618,-1.12358 -2.4344,0 -2.8089,-0.37452 -1.4982,-1.31085 -0.5617,-1.31084 -0.5618,-1.87264 -0.3746,-1.12358 0.5618,-1.31084 -0.5618,-0.93632 -2.0599,-1.12358 -0.749,-3.558 -1.4981,-2.62169 -0.3746,-2.0599 0,-3.74527 0.7491,-2.0599 4.8689,-2.62169 0.5617,0 1.6854,0 1.6854,-1.12358 0.9363,-1.12358 0.1873,-1.87263 1.1235,-0.93632 3.3708,-2.0599 2.0599,-0.56179 0.5618,-3.37074 0.5618,-1.12358 3.3707,-0.56179 0.7491,-0.56179 z"
     id="path4180"
     style="fill:#008000;fill-opacity:1;stroke:#000000;stroke-opacity:1" />
  <path
     d="m 1726.8273,361.62606 -2.3835,0.26483 -1.0593,1.58898 3.4428,2.64831 1.3241,-0.26483 0.5297,-3.17797 z"
     id="path4182"
     style="fill:#008000;fill-opacity:1;stroke:#000000;stroke-opacity:1" />
  <path
     d="m 1644.2002,393.40572 -3.7077,-2.11864 -2.3834,-1.32416 -3.7077,-0.79449 -1.8538,1.58898 -3.1779,2.11865 -3.178,-1.05932 -1.0593,-2.64831 -2.3835,-1.85381 -3.7076,-2.91314 -1.0593,-1.85381 -2.1187,-5.82627 0,-2.91314 0.7945,-1.58898 -1.3242,-0.52966 -1.5889,0 -2.9132,1.85381 -2.6483,0.26483 -0.2648,-0.79449 -0.5297,-3.4428 -1.3241,-0.52966 -2.6483,0.26483 -2.3835,-0.52966 -0.7945,-0.52966 -0.2648,-1.32415 2.9131,-1.58898 1.3242,-0.26484 1.5889,-2.38347 3.7077,-1.05932 1.3241,-0.26483 1.0594,-2.91314 0,-2.91313 1.8538,-1.85382 1.5889,0.26483 0.7945,1.32416 0.7945,2.38347 -0.7945,3.4428 -0.2648,1.05932 1.589,1.32415 4.2373,1.32415 0.5296,1.32416 1.0594,1.32415 1.5889,-0.79449 1.8539,-2.38348 2.6483,-2.38347 1.5889,1.58898 2.9132,1.58898 -1.589,2.91314 1.0593,1.05932 2.3835,-1.05932 2.9131,-1.05932 1.8538,1.58898 1.0594,-2.38347 1.3241,-1.85382 1.0593,-2.6483 0.2649,-1.58898 1.589,-1.85382 1.3241,-1.85381 1.589,-1.05932 3.7076,-0.26483 0.5297,2.11864 -1.8538,2.91314 0.7945,1.58898 1.0593,0 1.8538,0.52966 0.2648,2.6483 -1.589,0.26483 -1.8538,-0.26483 -2.1186,2.38348 -0.2648,2.11864 0.7944,2.38348 -0.5296,2.6483 -0.2648,2.11865 2.3834,3.17796 1.8538,0.26483 0.7945,2.91314 -0.2648,1.58898 1.0593,1.85382 -0.2648,2.11864 -1.0593,1.32415 -0.5297,1.05932 -0.2648,3.4428 -1.0593,0 -2.6483,0.52966 -2.9132,-1.32415 z"
     id="path4188"
     style="fill:#008000;fill-opacity:1;stroke:#000000;stroke-opacity:1" />
  <path
     d="m 1723.9142,518.00847 -3.9725,-2.91313 -2.9131,-1.05932 0.5296,-2.78073 1.4566,-1.05932 -1.0593,-2.11864 -2.5159,-0.13242 -1.1918,2.64831 -3.1779,1.19174 -1.9863,-3.97246 -2.1186,-2.25106 -3.178,-3.17797 -1.0593,-1.7214 0.2648,-1.45656 1.7214,-1.58899 -0.3972,-3.17796 -2.3835,-1.7214 -3.3104,0.39725 -2.7807,1.98622 -1.9862,-0.52966 -1.3242,-1.32415 -4.2372,-0.39725 -0.7945,-1.32415 -2.7808,-1.58898 1.3242,-1.98623 2.1186,-0.13242 2.5159,-1.85381 3.3104,-1.7214 2.5159,-0.66207 0.7945,1.7214 0.9269,1.19173 2.1186,0.39725 2.2511,-1.45657 3.3104,-0.66208 2.3835,-1.05932 1.3241,-0.13241 1.1917,0.52966 1.7214,-0.39725 1.7214,-0.79449 0.7945,1.45657 0.5297,1.05932 1.3241,1.32415 1.589,0 1.589,1.58899 -2.251,1.85381 -1.1918,1.32415 -0.7945,1.05932 0.9269,0.7945 0.7945,0.26483 1.0593,-2.78072 0.927,-0.39725 1.3241,-0.13242 1.3242,0 2.9131,-1.32415 1.9862,0.13242 0.9269,1.98623 1.4566,-0.7945 1.0593,-1.72139 -0.1324,-0.92691 -1.3241,0 -2.1187,0 -3.178,-2.64831 -2.5158,-3.57521 -0.6621,-2.38347 -2.1187,-1.45657 0.1324,-2.25106 -1.1917,-1.98623 -1.589,0.52966 -1.4565,1.19174 -1.4566,-1.19174 -0.9269,-1.45656 -0.9269,-2.64831 0.5296,-2.6483 0.1325,-3.04556 1.3241,-1.85381 1.9862,-1.85381 2.6483,-3.04555 0.9269,0.9269 0.7945,1.45657 0,1.85381 1.3242,0.66208 1.7214,1.05932 1.1917,0.79449 -0.2648,1.19174 -1.3242,0.79449 -0.662,1.32416 -0.1324,1.19173 -0.2649,0.92691 0.5297,1.32415 1.3241,1.58899 1.0594,1.05932 0.7944,0.52966 0.3973,0.92691 1.0593,-0.52967 0.5297,-0.79449 1.589,0.52966 0.7945,0.7945 1.1917,-0.13242 1.3241,-1.58898 2.5159,0.26483 0.7945,1.05932 0,1.19174 -0.6621,1.05932 0,0.79449 0.2649,0.79449 1.0593,0.66208 0.9269,0.9269 1.3242,2.11865 0.2648,1.19174 1.4566,1.85381 1.3241,1.05932 1.3242,1.7214 1.4565,-1.19174 2.1187,-0.26483 0.2648,1.32415 -0.3972,2.25106 -0.6621,0.7945 -0.3973,1.58898 -1.4565,0.52966 -1.8538,0.39725 -2.1187,-0.39725 -2.1186,-0.13242 -0.7945,2.38348 -1.4566,0.66208 -0.2648,1.45656 -0.1324,0.52966 -1.1918,0.7945 -0.7945,-0.92691 -1.3241,-1.05932 -1.589,0.66207 -1.1917,-0.26483 -2.9132,-0.39724 -1.3241,1.45656 -2.2511,1.98623 -0.9269,1.19174 -0.2648,0.66208 0.5296,1.32415 0,1.19174 0.6621,1.7214 1.0593,1.05932 1.3242,1.32415 1.4566,0.79449 1.5889,1.19174 -0.2648,0.92691 -0.3972,1.19173 -1.7214,0.66208 1.0593,1.32415 0.7945,0.66208 0.2648,0.66207 -0.6621,1.85382 z"
     id="path4194"
     style="fill:#008000;fill-opacity:1;stroke:#000000;stroke-opacity:1" />
  <path
     d="m 1748.0137,492.05508 2.1187,-0.79449 1.1917,-1.7214 2.5159,-1.45656 2.3835,-2.64831 1.9862,0 1.4566,-1.32415 0.2648,-0.79449 1.3242,-0.66208 1.0593,1.98623 1.1917,-0.92691 0.5297,-1.45657 -0.5297,-2.25106 -0.6621,-1.72139 -1.9862,-1.58899 -0.2648,-1.19173 0.7945,-2.25106 1.0593,-1.7214 1.0593,-1.58898 1.0593,-0.92691 0.7945,-1.19174 0.6621,-2.11864 0.9269,-2.25106 -0.2648,-1.45657 -0.1324,-1.85381 1.0593,-1.45657 0.2648,-1.32415 -1.8538,-0.92691 -0.7945,-1.58898 -0.3972,-0.7945 -0.1324,-1.05932 0.3972,-0.79449 -0.1324,-1.32415 -0.6621,-3.04555 0.5297,-1.05932 -0.3973,-4.23729 -1.0593,-0.79449 -1.8626,-2.05465 -2.9962,0.37452 -1.3109,-2.62169 -5.0561,-4.30705 -0.7491,-1.31085 -0.749,-2.99621 -0.9363,-0.56179 -1.1236,-2.0599 -2.809,1.12358 -0.5618,0.93632 -1.1235,-0.93632 0,-2.24716 -1.4981,0 -2.9963,0.37452 -1.4981,2.43443 -2.6217,1.87263 -0.749,1.31085 0.5618,3.37074 -1.3109,2.0599 -2.0599,0 -0.9363,-1.12358 -2.8089,-1.68537 -1.6854,0.37452 -1.1236,-2.0599 -2.9962,0.18727 0.7491,2.24716 -0.1873,1.87263 0.9363,1.12358 1.4981,2.43443 -0.1872,1.68537 -0.5618,2.24716 -1.4981,2.43443 -1.4981,1.68537 -1.6854,0.56179 -2.0599,0.56179 -1.8727,-1.31085 -1.6853,-0.37452 -3.9326,-2.99622 0,-2.62169 -1.4981,-0.18726 -2.0599,-0.18726 -2.4344,-1.87264 -2.2471,-2.0599 1.3108,-4.86885 1.3108,-3.74526 1.4982,-1.31085 2.0598,-2.0599 2.4345,-1.87263 0.9363,-2.80895 1.4981,-2.62169 -0.3745,-2.62169 0.3745,-3.558 -0.3745,-0.74906 -1.8727,-1.87263 -1.1235,-1.68537 -2.9963,-2.43443 -3.3707,0 -0.7491,-0.93632 0,-2.62168 -1.1235,-2.43443 -1.4981,-0.93632 -2.2472,-3.558 -2.0599,0 -1.1236,-0.56179 -0.5618,-2.0599 -0.749,-2.0599 -0.5618,-0.37453 -0.9363,-0.74905 -1.4981,-0.74905 -1.6854,0.56179 -1.4981,-0.74906 -1.8727,-0.93631 -0.9363,-0.93632 -0.749,-1.49811 -0.7491,-2.24716 0.9363,-1.68537 1.3109,-2.62169 -2.0599,-0.18726 -0.3745,-0.93632 1.3108,-2.43442 1.8726,-1.49811 -0.9363,-3.37074 -1.8726,-0.93632 -4.6816,-1.87264 -2.809,-2.62168 -6.1796,-5.43064 -3.3708,-1.49811 -2.8089,-0.74906 -0.3746,2.0599 -0.9363,0.74906 -1.1236,2.05989 -0.749,-0.93631 -3.558,-0.93632 0.1872,2.0599 -0.749,2.0599 -1.3109,1.87263 -2.2471,0.56179 -1.6854,2.0599 0,2.24716 1.1236,1.49811 0.1873,1.87263 -0.7491,1.87264 0,2.43442 2.4344,0.37453 1.4981,2.43442 0,2.24716 -0.9363,2.43443 1.1236,1.49811 -0.7491,2.62168 -1.3108,4.1198 -1.8726,1.68537 -2.6217,0 -0.1873,25.46783 2.0599,1.68537 -1.3108,2.0599 1.1235,0.74905 2.0599,0.93632 -1.6853,1.68537 -1.1236,1.68537 0,1.31085 0.9363,1.31084 1.8726,0.18726 -1.8726,2.62169 -1.3108,2.43443 2.2471,2.0599 2.2472,0.56179 2.6217,-0.56179 0.749,-0.37453 1.4981,1.87263 1.3109,2.43443 1.6853,0.93632 2.0599,1.12358 2.9963,1.31084 0.5618,2.99622 2.0599,2.05989 0.3745,1.87264 1.3108,1.12358 0.7491,1.87263 0.9363,2.24716 0.749,0.93632 0.1873,0.74906 1.8726,-0.56179 0.5618,-0.93632 1.1236,0 1.6854,-0.18727 0.9363,-0.18726 1.1236,-0.37453 0.5618,-0.37452 -0.1873,-1.31085 -0.749,-1.31084 1.6853,-1.12358 0.9363,0.74905 0.1873,1.12358 0,1.12358 0.5618,0.93632 1.1236,0.37453 0.9363,1.49811 -0.7491,2.05989 -0.1872,1.31085 1.3108,0.74905 0,2.0599 2.4344,-0.74905 1.3109,1.31084 0,1.87263 0.749,1.12358 1.6854,-2.62168 1.4981,0.56179 2.2472,0.93631 1.4981,2.24717 -0.9363,2.99621 -1.8727,-0.18726 -0.5617,1.87263 -1.3109,2.0599 1.8726,0.93632 1.3109,1.68537 -0.1873,1.68537 1.8727,2.0599 1.4981,1.31084 2.6217,-0.56179 2.9962,-1.68537 5.2433,-0.18726 3.7453,-2.24717 -0.3745,-3.18347 -1.1236,-0.93632 -0.1873,-2.0599 -1.6853,-3.37074 -1.8727,-2.62169 1.3109,-3.37074 1.3108,-2.62169 5.4307,-6.55422 2.4344,0 1.4981,3.74527 3.7453,2.43442 0.749,2.99622 -2.4344,3.18348 0.9363,2.24716 1.8726,1.87263 2.0599,-0.93631 3.7453,0.93631 2.4344,-0.74905 2.9963,2.43442 0.5617,2.99622 0.5618,2.24716 2.809,2.99622 1.1236,3.18347 2.6217,-0.18726 1.4981,0.37453 1.1235,1.49811 0.1873,2.24716 -0.5618,1.68537 z"
     id="path4196"
     style="fill:#008000;fill-opacity:1;stroke:#000000;stroke-opacity:1" />
  <path
     d="m 1700.8379,395.67573 2.9962,-3.55801 3.3708,-0.18726 0.5618,-2.80896 -2.0599,-2.43442 -3.9326,-2.80895 -1.8726,-1.31085 -1.6854,0.37453 -1.4981,-1.12358 -1.4981,-0.56179 -2.2472,-0.74905 0,2.43442 -1.3108,1.68537 -0.5618,2.0599 2.0599,2.0599 0.5618,1.68537 1.6854,1.87263 2.9962,2.62169 z"
     id="path4198"
     style="fill:#008000;fill-opacity:1;stroke:#000000;stroke-opacity:1" />
  <path
     d="m 1689.2276,387.24887 0.9363,-1.49811 -2.6217,-2.62169 -0.9363,-1.68537 -1.3109,-0.56179 -1.3108,0.74906 0.5618,3.558 1.8726,1.12358 z"
     id="path4200"
     style="fill:#008000;fill-opacity:1;stroke:#000000;stroke-opacity:1" />
  <path
     d="m 1707.7667,432.56662 -2.6217,0.5618 -0.5618,2.05989 -0.7491,1.49811 1.6854,1.68537 3.1835,1.31085 1.8726,0.37452 0.9363,2.0599 1.8727,2.43443 5.4306,1.87263 1.8726,-1.49811 2.809,-1.12358 0.1873,-4.86885 -1.4982,-1.49811 -1.8726,-4.49432 1.3109,-1.87263 4.1197,-0.56179 2.2472,2.05989 1.8726,0 1.3109,2.24717 0.9363,0.74905 1.8726,-0.93632 0,-2.80895 -0.3745,-3.18348 0.5618,-2.43442 2.0599,0.56179 2.2472,-1.49811 0.3745,-1.68537 -1.4981,-1.87264 -1.4981,-2.05989 1.4981,-2.62169 1.6854,-2.24716 -1.6854,-6.74149 -3.1835,-1.68537 -4.1198,0.93632 0.5618,4.30706 -2.9962,1.87263 -2.6217,5.61791 -3.3707,-1.87264 -1.8727,2.43443 -2.2471,1.12358 -2.4345,1.68537 -2.0599,3.18348 -2.2471,0.93631 -2.9962,2.43443 z"
     id="path4202"
     style="fill:#008000;fill-opacity:1;stroke:#000000;stroke-opacity:1" />
  <path
     d="m 1740.725,418.14734 2.9962,0.93632 1.4981,-2.0599 3.1835,-2.80895 0.3746,-2.24716 1.3108,-3.55801 2.0599,-0.37453 1.6854,-1.31084 2.6217,-0.37453 3.558,-1.31084 3.558,-0.93632 -1.3109,-3.37074 -1.8726,-2.43443 -3.3708,-2.05989 -2.8089,-0.56179 -0.1873,-2.0599 1.4981,-2.0599 1.3109,-1.31084 -1.1236,-2.99622 -2.809,-1.68537 -2.9962,1.12358 -2.4344,-1.12358 -1.4981,0.74905 -4.8688,1.12358 -0.5618,2.24716 -3.3708,1.12359 -3.9325,1.12358 -2.6217,3.37074 0.7491,3.558 -3.3708,1.68537 -1.4981,5.05612 -3.3707,0.74905 -1.8727,3.37074 1.3109,3.18348 0.1872,-0.93631 1.3109,1.4981 -1.8727,2.0599 2.0599,2.24716 1.8727,-1.87263 2.6217,-4.68159 0.9363,-0.74905 0.9363,-3.37074 1.3108,-2.0599 1.6854,-0.18727 1.8726,1.31085 1.4982,1.12358 1.6853,1.31084 1.3109,2.99622 0.1872,2.99621 -0.749,2.43443 z"
     id="path4204"
     style="fill:#008000;fill-opacity:1;stroke:#000000;stroke-opacity:1" />
  <path
     d="m 1766.5674,445.86233 2.0599,1.12358 1.8726,-1.31084 -1.3108,-2.80896 -1.8727,-1.12358 -2.0599,-0.18726 1.4981,5.05611 z"
     id="path4206"
     style="fill:#008000;fill-opacity:1;stroke:#000000;stroke-opacity:1" />
  <path
     d="m 1761.6985,438.93358 1.8727,-1.49811 -2.2472,-0.93631 -1.4981,-0.56179 -0.5618,1.4981 0.9363,1.49811 z"
     id="path4208"
     style="fill:#008000;fill-opacity:1;stroke:#000000;stroke-opacity:1" />
  <path
     d="m 1743.9085,424.32703 -1.8726,-2.05989 -1.1236,-0.18727 -0.7491,1.31085 0.9364,1.12358 z"
     id="path4210"
     style="fill:#008000;fill-opacity:1;stroke:#000000;stroke-opacity:1" />
  <path
     d="m 1725.5567,402.60447 -0.3745,1.49811 -2.809,0.74905 -0.3745,1.49811 -1.3109,1.49811 -0.749,-0.18726 -0.9363,-0.74906 -0.1873,-2.0599 1.3108,-2.43442 1.8727,-2.0599 2.6217,-0.37453 1.4981,0.93632 z"
     id="path4212"
     style="fill:#008000;fill-opacity:1;stroke:#000000;stroke-opacity:1" />
  <path
     d="m 1727.0548,399.98278 2.8089,-1.87263 -0.749,-1.49811 -0.3745,-1.68537 -1.3109,-0.74905 -1.4981,1.68537 0.1873,1.87263 0.1872,0.18727 z"
     id="path4214"
     style="fill:#008000;fill-opacity:1;stroke:#000000;stroke-opacity:1" />
  <path
     d="m 1719.1897,409.15869 -1.6853,1.12358 -1.1236,-0.56179 0.1872,-2.62168 2.6217,-0.37453 0.7491,1.31084 z"
     id="path4216"
     style="fill:#008000;fill-opacity:1;stroke:#000000;stroke-opacity:1" />
  <path
     d="m 1710.0138,405.97521 1.4981,-2.05989 -2.0599,-1.87264 -1.1236,-1.68537 -1.8726,0.18726 0,3.18348 1.8726,1.31085 z"
     id="path4218"
     style="fill:#008000;fill-opacity:1;stroke:#000000;stroke-opacity:1" />
  <path
     d="m 1704.7704,399.42099 -1.4981,2.80896 0.7491,1.4981 1.6854,1.31085 -0.7491,-2.43443 0.5618,-1.68537 0.3745,-1.12358 z"
     id="path4220"
     style="fill:#008000;fill-opacity:1;stroke:#000000;stroke-opacity:1" />
  <path
     d="m 1697.4672,379.38381 0,-1.49811 -0.9363,-2.0599 -3.5581,-0.74905 -1.1235,3.558 3.7452,0.93632 z"
     id="path4222"
     style="fill:#008000;fill-opacity:1;stroke:#000000;stroke-opacity:1" />
  <path
     d="m 1686.7932,377.32391 1.3108,-1.68537 -0.7491,-1.12358 -1.8726,0.74905 -0.9363,2.80895 z"
     id="path4224"
     style="fill:#008000;fill-opacity:1;stroke:#000000;stroke-opacity:1" />
  <path
     d="m 1597.843,368.148 -3.9325,0.37453 -1.3109,-3.55801 -2.0599,-2.62169 -2.0599,-1.49811 -1.3108,0.74906 -2.0599,0.18726 -3.3707,-1.68537 -2.0599,-1.68537 -3.3708,-3.18348 -1.8726,-0.74905 -0.3745,-3.18348 0.9363,-2.24716 2.8089,1.31084 0.9363,0 -0.1872,-1.31084 2.8089,-1.87264 -0.1872,-3.18348 1.1235,-2.80895 2.809,-1.31084 2.6217,0 2.6217,-0.74906 1.4981,-0.37452 1.4981,-1.87264 0.9363,-1.31084 -1.3108,-1.68537 -1.3109,-1.49811 -0.749,-2.80895 2.6217,-0.56179 3.1834,-3.18348 2.0599,-2.62169 2.6217,-3.18348 2.2472,0 2.4344,0.56179 2.6217,-0.74905 3.3707,-0.93632 1.3109,-0.93632 -1.8727,-2.43442 -2.6216,-1.12358 -1.8727,-1.68537 3.7453,-2.43443 2.0599,-1.68537 1.8726,-0.18726 1.6854,2.24716 -0.5618,2.62169 2.0599,1.87263 1.1236,3.18348 0,3.37074 1.6854,-1.4981 -1.3109,-1.12359 1.3109,-3.18347 2.2471,-3.18348 1.6854,2.80895 2.0599,2.43442 -1.1236,2.43443 -0.9363,0.37453 0.1873,1.12358 2.9962,1.4981 1.4981,3.74527 0.1872,2.62169 -2.0599,1.31085 2.0599,2.62168 1.4981,1.31085 0,1.68537 -1.3108,2.24716 1.4981,1.12358 1.3109,-0.37453 1.6853,2.0599 1.3109,1.12358 1.8726,0.37453 1.4981,3.37074 1.8726,3.18348 1.3109,2.0599 0,1.87263 -1.1236,1.87264 -0.749,1.68537 -0.3746,1.49811 1.1236,1.87263 2.0599,3.18348 -0.9363,1.49811 -1.3109,2.24716 -1.4981,0 -1.1235,-1.31085 -0.3746,-1.68537 -1.3108,-1.68537 -1.8727,-0.37453 -2.0598,1.68538 -2.809,-2.80896 0.3745,-1.68537 -0.749,-4.30706 -1.1236,-1.4981 0.3745,-2.62169 -2.4344,-2.0599 -7.8651,-1.31084 -1.6853,-1.31085 -2.9963,0.56179 -3.9325,-1.31084 -0.1873,-1.12358 -2.2471,2.99621 -3.7453,1.68537 -2.8089,2.43443 -0.3746,2.80895 3.9326,0.56179 5.2433,1.12358 0.9364,2.43443 0,1.31084 -2.9963,0.37453 -2.0598,1.12358 -1.1236,0.93631 -2.0599,2.0599 -2.2472,2.0599 z"
     id="path4226"
     style="fill:#008000;fill-opacity:1;stroke:#000000;stroke-opacity:1" />
  <path
     d="m 1627.0561,361.21925 -2.0599,-2.0599 -1.8726,-1.12358 1.1236,-1.12358 2.0599,-0.18726 2.4344,1.12358 0.5618,1.87263 z"
     id="path4228"
     style="fill:#008000;fill-opacity:1;stroke:#000000;stroke-opacity:1" />
  <path
     d="m 1704.5832,282.94313 17.041,16.85371 -1.3109,1.87263 -2.6217,1.31085 -2.0599,0.56179 -4.1198,0.18726 -3.9325,-0.37453 -1.8726,-0.74905 -2.809,-1.12358 -1.4981,-1.31084 -1.6854,-1.87264 -1.6853,-2.99621 -0.5618,-3.37075 0.5618,-4.11979 1.1235,-2.99622 1.3109,-2.24716 1.8726,-1.68537 0.9363,-0.18726 z"
     id="path4232"
     style="fill:#008000;fill-opacity:1;stroke:#000000;stroke-opacity:1" />
  <path
     d="m 1587.3563,334.06605 2.2471,-0.37453 1.4981,-1.87263 -1.1236,-0.74905 -0.3745,-1.12359 1.4981,-1.87263 2.9962,-0.56179 3.1835,-4.30706 0.9363,-1.87263 2.809,-2.43443 3.1835,-0.74905 1.3108,0.93631 3.3708,-0.93631 0.749,-0.56179 -0.9363,-2.24716 -1.6854,-0.93632 -1.8726,-0.93632 -2.2472,-1.68537 -1.3108,-0.37453 -1.8727,-1.68537 -1.4981,-0.74905 0.3746,-4.1198 -2.809,-0.74905 -1.8726,1.12358 -0.5618,1.12358 -1.8726,1.12358 -1.8727,1.31084 -1.1236,0.74906 -2.2471,0.56179 -4.6816,3.18348 -1.4981,3.18348 -0.1873,0.37452 -0.5618,3.55801 2.4345,2.43442 1.4981,1.49811 0.749,2.43443 -0.749,4.86885 2.4344,1.87263 2.4344,0.18726 z"
     id="path4234"
     style="fill:#008000;fill-opacity:1;stroke:#000000;stroke-opacity:1" />
  <path
     d="m 1782.0116,1419.7812 -0.3706,-42.324 0.9264,-4.869 9.4489,-1.1237 8.7078,-0.9364 4.076,-5.0565 4.2613,-2.9963 4.2612,-2.6219 5.1877,2.2473 5.1876,-1.6855 4.2612,-2.2472 2.4087,-6.9292 -2.7792,-2.9964 -3.7055,-5.6182 -0.3705,-2.06 3.8907,-1.4982 3.7055,-2.6219 0.3705,-2.2473 2.2233,-0.3745 4.8171,4.8692 3.8908,3.5582 3.7053,-2.9964 1.8528,-3.7455 2.2232,-0.3745 1.4823,2.4345 2.2232,1.6855 2.9644,-1.8728 1.4821,-5.0564 3.1497,-2.9964 4.076,2.2474 2.9643,2.6217 -1.2968,4.1201 -2.038,1.6854 -1.4822,6.1801 0.741,2.8092 4.8172,0.749 3.3348,4.6819 6.2994,8.6146 3.1496,3.9328 -0.1853,2.9964 2.038,1.1236 2.2233,-0.1872 3.7054,2.809 -2.038,1.6855 4.8171,2.06 -0.7411,3.5583 5.0023,2.2473 9.2637,6.5546 2.4085,2.4345 3.7055,3.9327 1.8527,0.3747 3.1497,-2.9964 1.8526,4.6818 2.7792,1.3109 4.817,-2.06 -11.4868,24.9075 -17.2304,35.5822 -17.9714,34.6457 -44.836,-0.1872 -0.1853,-1.6855 -2.038,-1.6855 -2.4085,2.9964 -35.9429,-0.7491 -5.1877,-6.3674 -3.7053,0 -4.5393,4.4946 -5.4655,2.7156 -2.1306,-1.8729 1.4821,-3.6518 -2.5938,-2.9963 -3.7054,-2.8092 -4.4466,2.5282 -3.5202,-1.9664 -3.3348,0.2809 -2.8718,-0.8427 -0.8337,-0.8428 13.9881,-13.2964 -0.8338,0 -0.1852,-2.5282 1.8527,-1.4046 1.5748,-0.749 0.6485,-1.4046 -5.0024,-4.6819 -3.3349,-3.1837 0.5558,-1.8727 3.1497,-2.2473 -3.7055,-4.4009 4.076,-3.1837 -2.6864,-5.5246 7.5961,-4.4009 -2.5938,-3.6519 6.2066,-3.5582 2.038,0.9364 z"
     id="path3371"
     style="fill:#000000;fill-opacity:1;stroke:#000000;stroke-opacity:1" />
  <path
     d="m 1189.0777,1110.4365 0,3.1366 -3.0415,0 0,2.2058 -0.3292,0.088 0,3.5112 -0.6554,0 0,2.1535 -7.1629,0 -2.8089,2.0599 -2.3408,0.1873 -1.5894,2.3625 -2.2107,-1.5917 1.4593,-2.2221 -1.4192,-2.8052 -3.043,4e-4 -1.9048,-2.3914 -2.7153,-2.6685 0,-10.2058 2.3876,-0.4682 2.2472,-1.4513 1.7322,-0.094 1.5917,-2.8558 -1.1573,-0.7316 2.4496,-4.2373 -2.0524,-3.5752 2.5159,-1.9863 c 0,0 -1.92,-4.0386 -2.3173,-4.2372 -0.3972,-0.1987 -2.8469,-0.7945 -2.8469,-0.7945 0,0 -4.2373,-4.1711 -4.5021,-4.3035 -0.2648,-0.1324 -3.1118,5.429 -3.1118,5.429 l -4.6345,-2.5821 -0.9269,-3.178 -1.92,-1.6552 -0.9931,-4.3035 -3.6415,-1.92 -0.8607,-4.8993 2.0892,-0.4518 2.1067,0.7725 1.4045,-1.1938 -0.2341,-0.9364 1.6386,0.1171 0.7022,-1.0768 -1.2874,-1.1236 2.1067,-2.013 1.6854,-3.1367 1.6619,1.6385 2.1067,-1.6151 -0.07,-3.5112 c 0,0 2.3876,-1.0768 2.5983,-1.1002 0.2107,-0.023 1.6151,0.1873 1.6151,0.1873 l 0.8193,1.7088 -1.1472,0.5852 0.7491,2.0365 2.0131,-0.398 1.4278,3.3708 2.294,0.8192 0.6086,3.4644 4.4241,1.8492 2.8324,-1.2406 2.2003,-0.094 5.1498,6.7649 1.0065,-0.6086 1.5449,2.0833 1.9429,0.2107 -0.7491,1.779 1.2407,2.3408 1.1704,-0.8895 2.1769,0.749 -0.3511,1.3811 1.7322,0.1404 1.0299,1.8258 -1.4747,0.6789 0.1405,1.3576 -1.4279,1.3343 1.1704,1.3108 -2.6685,2.9026 -1.8258,0.094 -0.5618,1.0768 0.4213,1.3109 -0.9129,2.4812 -2.5515,1.662 0.4916,1.2406 -1.8258,2.4812 -0.1186,1.6977 -0.8607,1.1255 0.7283,0.9931 0.033,1.7876 0,2.8801 1.6883,0.7614 1.4897,2.0193 z"
     id="path5972"
     style="fill:#008626;fill-opacity:1;stroke:#000000;stroke-width:1px;stroke-linecap:butt;stroke-linejoin:miter;stroke-opacity:1" />
  <path
     d="m 464.50699,501.61151 c 0.28089,-1.49811 0.93631,-4.21343 0.93631,-4.21343 l 6.46059,-2.90258 -1.12358,-2.62169 3.08985,-3.65163 c 0,0 -8.42686,0 -8.89502,-0.2809 -0.46815,-0.28089 -2.05989,-1.59174 -2.05989,-1.59174 l -3.18348,1.12358 -5.8988,-4.77522 -3.37074,1.49811 -3.74527,-3.18348 1.49811,-2.34079 -7.77144,-7.11601 -4.77522,-0.0936 -5.14974,2.99621 -1.49811,2.90259 4.1198,1.779 c 0,0 -4.21343,2.24716 -3.65164,2.24716 0.56179,0 2.43443,2.62169 2.43443,2.62169 l -4.49433,0.46816 1.40448,5.24337 4.58795,2.71532 -1.59174,5.14975 2.90259,3.46437 6.74148,-4.77522 5.6179,5.61791 4.49433,-6.36696 3.65163,0.93632 2.62169,-2.3408 2.62169,4.02617 -0.74905,2.62169 1.87263,1.779 z"
     id="path6485"
     style="fill:#ffe23f;fill-opacity:1;stroke:#000000;stroke-width:1px;stroke-linecap:butt;stroke-linejoin:miter;stroke-opacity:1" />
  <path
     d="m 465.90307,442.06832 c -0.13241,0.26483 -8.34216,13.57256 -8.34216,13.57256 l 1.05932,1.65519 1.85382,-1.72139 3.84004,5.16419 8.54078,-0.99311 -0.79449,-4.96558 3.31038,-4.43591 -3.84004,-4.96557 -3.04555,0.92691 1.58898,-2.91314 z"
     id="path6487"
     style="fill:#ffe23f;fill-opacity:1;stroke:#000000;stroke-width:1px;stroke-linecap:butt;stroke-linejoin:miter;stroke-opacity:1" />
  <path
     d="m 479.40943,457.29607 -4.89936,4.23729 0.19862,3.50901 2.97934,0.72828 4.83316,7.08422 -3.37659,1.65519 4.63453,4.03866 4.03867,-0.72828 c 0,0 0.13241,-2.05244 0.39724,-1.85381 0.26483,0.19862 2.44969,2.18485 2.44969,2.18485 l 1.7876,-0.39725 c 0,0 0.59587,2.51589 0.99312,2.51589 0.39724,0 2.31726,-0.79449 2.31726,-0.79449 l -2.97934,-5.82627 1.05932,-2.71451 -1.98623,-0.7945 -1.92002,-3.509 0.66208,-0.92691 -1.39036,-1.65519 -3.04555,0 z"
     id="path6489"
     style="fill:#ffe23f;fill-opacity:1;stroke:#000000;stroke-width:1px;stroke-linecap:butt;stroke-linejoin:miter;stroke-opacity:1" />
  <path
     d="m 474.44386,383.54078 c -0.52966,0.26483 -2.91314,3.04555 -2.91314,3.04555 l 14.23464,6.0911 0.13242,3.57521 -7.68009,5.49524 -3.84004,-2.11865 -0.79449,2.31727 3.90625,3.24417 -1.78761,0.8607 1.12553,1.78761 3.77384,0.79449 3.77383,-1.65519 -0.39724,-1.45657 1.58898,-1.45657 1.45657,1.39036 2.25106,-0.33104 3.97245,3.97246 -3.11175,3.31038 -3.4428,0.33104 -9.40148,7.28284 -3.04556,-2.91313 -5.36281,-2.18486 -2.11865,6.22352 1.19174,1.12553 4.76695,0.33104 5.76006,3.90625 1.92002,7.8125 2.38348,0.8607 4.17108,5.2304 -1.19174,1.05932 2.31727,0.59587 1.58898,-2.51589 1.98623,0.26483 0.66208,1.39036 -2.18485,3.24418 3.64141,1.92002 -1.72139,2.31726 -2.64831,0.99312 6.0911,6.02489 2.78072,0.26483 7.34905,9.73252 7.74629,-5.42902 2.78072,0.8607 c 0,0 2.05244,-1.92002 1.98623,-2.18485 -0.0662,-0.26484 -2.18485,-2.71452 -2.18485,-2.71452 l 0.59587,-2.38347 2.91313,0.13241 -1.45656,-4.03866 -3.31038,0.33104 2.31726,-2.78072 4.56833,-1.85382 -0.59587,-2.78072 3.57521,-0.46345 1.19174,-2.5821 -3.24417,-3.04555 4.89936,-3.70763 3.04555,3.24418 4.3035,-4.89937 2.97934,2.91314 5.56144,-2.71451 -4.70074,-3.84005 8.80561,-8.07733 2.64831,2.64831 3.64142,-0.0662 4.43591,-3.90625 0.92691,-8.40837 -3.31039,1.12553 0,2.64831 -4.76695,3.11175 -0.0662,1.05933 -2.78072,0.0662 -0.72829,-2.91313 0,-2.51589 2.44969,-0.8607 -1.92003,-1.98623 3.11176,-0.39725 1.12553,-2.91313 -3.64142,1.52277 -0.72828,-2.71451 -3.64142,-0.26483 -9.60011,7.54766 -23.56991,0 -14.30085,-10.79184 -4.10487,-10.92426 z"
     id="path6491"
     style="fill:#ffe23f;fill-opacity:1;stroke:#000000;stroke-width:1px;stroke-linecap:butt;stroke-linejoin:miter;stroke-opacity:1" />
  <path
     d="m 453.22436,525.03376 -0.0468,26.20257 -3.49535,-0.38888 -6.22351,0.66208 -0.79449,4.10487 -3.4428,-0.13241 -2.11864,-3.97246 -4.89937,4.3697 -4.63453,-4.10487 -8.87182,9.00424 -8.20975,9.40148 -0.39725,5.1642 -2.6483,1.19173 -6.35593,9.79873 2.11864,6.35593 -5.69386,11.52013 9.13666,7.28284 -1.7214,5.16419 15.36017,6.35594 -4.76695,6.75317 -2.64831,-3.04555 -3.17796,3.57522 1.05932,2.91313 -2.91314,3.97246 10.32839,12.31462 2.91314,2.11864 2.38347,-2.78072 2.64831,1.32415 4.76695,-5.56144 4.89936,-1.05932 -0.66207,-3.84004 -1.7214,-1.85381 -0.39725,-4.89937 4.50212,-2.91313 4.63454,-0.13242 0.79449,3.04555 2.78072,4.63453 3.84004,1.7214 3.70763,-1.58898 4.10487,8.47458 7.94491,0.26483 6.09111,3.57521 4.23728,4.76695 2.78073,0.79449 6.22351,-7.01801 0.52966,-6.22352 3.57521,3.04555 1.45657,-0.79449 6.75318,0.79449 2.78072,5.69386 c 0,0 4.23729,3.70763 5.03178,3.57521 0.79449,-0.13241 3.70763,-1.58898 3.70763,-1.58898 l -3.04555,-3.70763 4.76695,-3.57521 2.25106,1.58898 4.3697,-2.51589 2.78072,-6.88559 1.05932,-4.10487 2.64831,1.58898 1.72139,-2.18485 7.15043,-4.89937 c 1.58898,0 33.76589,0 33.76589,0 l -0.39725,-2.11864 4.83316,-7.15042 3.509,-0.0662 7.61388,-9.40148 3.84004,1.12553 1.92002,-1.12553 1.6552,-3.24418 -5.29661,-9.6001 -0.92691,-6.02491 c 0,0 -4.63454,0.46345 -4.17108,0.19862 0.46345,-0.26483 3.90625,-11.05667 3.90625,-11.05667 l 1.52277,-1.65519 -1.25794,-2.05244 -0.52966,-4.96557 4.17108,-4.10487 0.72828,3.64142 2.25106,2.6483 -0.79449,2.51589 3.90625,0 -0.8607,-3.04555 1.85381,-0.0662 0.92691,-2.38347 1.58898,1.12553 3.11176,-1.65519 2.71452,-5.29661 2.58209,-3.90625 2.5821,-2.25106 -0.0662,-1.7214 -1.7214,0 -1.39036,-1.98623 -1.72139,-0.72828 0.33103,-2.05244 -1.32415,-3.24417 0.33104,-2.25106 -4.03867,-1.32415 0.7945,-1.45657 -1.45657,-1.7214 -1.65519,1.52278 -2.51589,-2.78072 -1.98623,-0.8607 -1.52278,1.65519 0.66208,1.52277 -1.39036,2.31727 -0.72828,-0.92691 -1.58899,0 -0.19862,2.18485 -2.05244,2.5821 -2.51589,-0.33104 -3.31038,6.55456 3.84004,3.11176 -1.72139,1.52277 0.59586,1.92002 -2.6483,2.18486 0.33104,2.05243 -1.19174,0.99312 -1.05932,4.17108 -3.37659,-0.0662 -1.58898,-0.59587 -2.44969,1.45657 -4.63453,-4.43591 0.19862,-1.32416 -3.11176,-2.44968 -1.39037,-0.46347 -1.85381,1.19174 -1.65519,-0.99312 -2.5821,0.79449 -1.52277,-1.25794 -1.19174,-3.77384 -1.85381,-2.44968 2.05243,-4.96557 -2.18485,-2.44968 0.99312,-2.84693 -2.31727,-3.84004 1.12553,-4.36971 -4.10487,-1.58898 -0.19863,-4.50212 -1.58898,-1.45657 -0.13242,-1.98622 -2.91313,-2.31727 0.79449,-3.24418 -5.29661,2.18486 -1.92002,-0.59587 -1.98623,1.85381 0.72828,1.39036 -3.04555,2.44968 0.99312,8.34216 -3.24418,2.91314 -5.03178,-3.70763 -2.05243,2.51589 -0.79449,4.23729 -3.84005,0.13242 -1.52277,0.99311 -4.56833,-2.84693 1.32415,-5.09798 -0.52966,-1.58899 -2.18485,-0.52966 -1.19174,-0.92691 -2.6483,0.92691 c 0,0 0.66208,1.78761 0.33104,1.92002 -0.33104,0.13243 -3.24418,0.19863 -3.24418,0.19863 l -0.39724,-1.58899 -2.38348,0.8607 -2.11864,-2.5821 0.46345,3.04555 -4.51113,-4.0225 1.49811,-6.27333 6.83511,-1.49811 -6.17969,-3.08984 1.779,-2.0599 -2.99621,-3.08985 3.558,-0.74905 0.84269,-3.27711 2.62169,1.49811 c 0,0 -0.46816,-7.11602 -0.84269,-7.02238 -0.37453,0.0936 -4.30706,0.28089 -4.30706,0.28089 l -1.02995,-3.8389 -0.46816,-3.65164 -4.68158,0.93632 1.02995,-2.90258 4.11979,-1.77901 -0.74905,-1.779 -4.1198,-3.558 -0.65542,-4.86885 -1.68537,0.65542 -0.37453,2.80895 -3.65164,3.18348 -1.40448,0.93632 1.87263,1.59174 -1.87263,0.56179 -0.93632,3.37074 3.18348,2.71532 -2.24716,1.12358 -2.80895,-2.15353 0.74905,3.65164 -0.65542,2.15353 1.87263,2.43442 -1.779,1.59174 -5.80517,-1.31084 -1.4981,1.779 -5.61791,2.62169 -2.99621,4.40069 -4.40069,3.18348 -2.62169,0 z"
     id="path6465"
     style="fill:#ffe23f;fill-opacity:1;stroke:#000000;stroke-width:1px;stroke-linecap:butt;stroke-linejoin:miter;stroke-opacity:1" />
</svg>
