<?xml version="1.0" encoding="UTF-8" standalone="no"?>
<!-- Created with Inkscape (http://www.inkscape.org/) -->

<svg
   xmlns:dc="http://purl.org/dc/elements/1.1/"
   xmlns:cc="http://creativecommons.org/ns#"
   xmlns:rdf="http://www.w3.org/1999/02/22-rdf-syntax-ns#"
   xmlns:svg="http://www.w3.org/2000/svg"
   xmlns="http://www.w3.org/2000/svg"
   xmlns:xlink="http://www.w3.org/1999/xlink"
   xmlns:sodipodi="http://sodipodi.sourceforge.net/DTD/sodipodi-0.dtd"
   xmlns:inkscape="http://www.inkscape.org/namespaces/inkscape"
   version="1.1"
   width="2000"
   height="2000"
   id="svg"
   inkscape:version="0.91 r13725"
   sodipodi:docname="claims_bg.svg">
  <sodipodi:namedview
     pagecolor="#ffffff"
     bordercolor="#666666"
     borderopacity="1"
     objecttolerance="10"
     gridtolerance="10"
     guidetolerance="10"
     inkscape:pageopacity="0"
     inkscape:pageshadow="2"
     inkscape:window-width="1920"
     inkscape:window-height="1018"
     id="namedview3360"
     showgrid="false"
     inkscape:zoom="5.3400704"
     inkscape:cx="1223.0595"
     inkscape:cy="908.64677"
     inkscape:window-x="-8"
     inkscape:window-y="-8"
     inkscape:window-maximized="1"
     inkscape:current-layer="svg" />
  <defs
     id="defs4">
    <linearGradient
       x1="521.21051"
       y1="673.68604"
       x2="524.78827"
       y2="677.26379"
       id="havenGradient"
       gradientUnits="userSpaceOnUse"
       gradientTransform="matrix(1.0125,0,0,1.0125,-7.4486248,-8.4855014)"
       spreadMethod="repeat">
      <stop
         id="stop3816"
         style="stop-color:#ff62ad;stop-opacity:1"
         offset="0" />
      <stop
         id="stop3826"
         style="stop-color:#ff62ad;stop-opacity:1"
         offset="0.5" />
      <stop
         id="stop3828"
         style="stop-color:#ff62ad;stop-opacity:0"
         offset="0.5" />
      <stop
         id="stop3818"
         style="stop-color:#ff62ad;stop-opacity:0"
         offset="1" />
    </linearGradient>
  </defs>
  <metadata
     id="metadata7">
    <rdf:RDF>
      <cc:Work
         rdf:about="">
        <dc:format>image/svg+xml</dc:format>
        <dc:type
           rdf:resource="http://purl.org/dc/dcmitype/StillImage" />
        <dc:title />
      </cc:Work>
    </rdf:RDF>
  </metadata>
  <image
     sodipodi:absref="C:\civmap\civmap-client\public\img\.\7500.png"
     xlink:href=".\7500.png"
     x="5.25"
     y="9.5"
     width="2000"
     height="2000"
     id="background" />
  <path
     d="m 556.16601,633.48527 c -36.97045,0 -66.9375,29.96705 -66.9375,66.9375 0,36.97045 29.96705,66.9375 66.9375,66.9375 32.34914,0 59.35176,-22.93365 65.59375,-53.4375 0.18923,-0.92475 0.34933,-1.87429 0.5,-2.8125 0.008,-0.0522 0.0234,-0.10412 0.0312,-0.15625 0.17955,-1.19375 0.32455,-2.3655 0.4375,-3.4375 0.0946,-0.89753 0.17581,-1.67832 0.21875,-2.40625 0.0108,-0.15603 0.0215,-0.31242 0.0312,-0.46875 0.0872,-1.39829 0.15625,-2.7985 0.15625,-4.21875 0,-1.03988 -0.0469,-2.06546 -0.0937,-3.09375 l -0.5312,-0.8125 4.625,-6.625 0.125,-27.0625 c 3.11983,-0.0195 5.65662,-2.57077 5.65625,-5.6875 -3.7e-4,-3.11674 -2.53952,-5.62537 -5.65625,-5.625 l -5.09375,0.0312 -7.65625,8 2.5,2.40625 -2.78125,0.90625 -1.96875,5.09375 -1.21875,-4.03125 -1.75,-2.53125 -3.40625,-0.71875 -1.6875,-6.3125 2.0625,-5.1875 -3.6875,-5.1875 -2.3125,2.59375 -7.96875,-0.84375 -2.90625,3.5313 -6.625,-1.625 -4.125,-0.75 -6.5,-3.375 -1.5,-8.125 0.1875,-0.28125 c -0.38471,-0.0859 -0.76907,-0.17077 -1.15625,-0.25 -4.35769,-0.89171 -8.8787,-1.375 -13.5,-1.375 z"
     id="path3791"
     style="fill:url(#havenGradient);fill-opacity:1;stroke:none" />
  <path
     d="m 675.88476,679.01652 c 0,0.125 -0.28125,1.40625 -0.28125,1.40625 l 1.625,0.125 0.34375,-1.4375 z"
     id="path3009"
     style="fill:#00b0ff;fill-opacity:1;stroke:#000000;stroke-width:1px;stroke-linecap:butt;stroke-linejoin:miter;stroke-opacity:1" />
  <path
     d="m 693.25976,760.14152 c -0.0625,0.625 -1.1875,5 -1.1875,5 l 2,2.5625 3.5,2.25 2.1875,-2.0625 1.375,0.3125 c 0,0 5.125,-5.4375 4.875,-5.5625 -0.25,-0.125 -5,-2.6875 -5,-2.6875 l 0.875,-3.125 0.1875,-3.25 -4.25,1.5 -2.875,1.1875 -0.125,4 z"
     id="path3011"
     style="fill:#00b0ff;fill-opacity:1;stroke:#000000;stroke-width:1px;stroke-linecap:butt;stroke-linejoin:miter;stroke-opacity:1" />
  <path
     d="m 721.19726,759.82902 c -0.25,0.125 -1.9375,2.1875 -1.9375,2.1875 l 2.75,2 5,0.125 1.625,0.5625 1.75,-0.5625 -2.5625,-2 0.6875,-1.5625 -1.4375,-0.3125 -2.5625,-0.3125 z"
     id="path3013"
     style="fill:#00b0ff;fill-opacity:1;stroke:#000000;stroke-width:1px;stroke-linecap:butt;stroke-linejoin:miter;stroke-opacity:1" />
  <path
     d="m 792.75976,596.26652 c 1.9375,1.6875 7.3125,7 7.3125,7 l 3.5,-3.375 2.0625,0.375 c 0,0 2.8125,-2.75 2.5,-3 -0.3125,-0.25 -1.4375,-2.375 -1.4375,-2.375 l 2.0625,-2.3125 -0.125,-2.3125 -2.5625,-1.5 -0.5,-1.875 -2,-1.6875 1.375,-4.9375 3.5625,-2.625 -1.8125,-2.375 2.1875,-1.3125 1.8125,1.0625 2.1875,-0.25 2.3125,1.75 -1,0.875 0.5625,3.125 -2.4375,5.375 5.9375,-1.0625 0.25,-4 2.625,-2.625 1.6875,-2.1875 6,-5.0625 1,-4.125 2.25,-0.875 4.3125,-5.5 -4.8125,-2.9375 0,-10 1.5,-2 -0.125,-3.3125 -5.5625,-1.875 -0.8125,-2.125 2.125,-1.6875 2,1.6875 2.8125,-2.5625 2.25,-6.25 -4.1875,-2.0625 -2.5625,-4.4375 -2,-1.375 -1.4375,0.4375 -3.75,-2.6875 -1.375,0.5 -0.75,1.9375 -2.9375,1.5625 -2.0625,-2.8125 -3.375,0.375 -2.8125,0.625 -2.5,1.6875 -3.125,6.1875 -7.75,3.125 0.3125,3.3125 -1.625,1.625 1.25,2.25 -2.0625,2.125 0.25,1.625 1.5,1.1875 -0.6875,1.1875 -1.75,-0.5 -5.9375,1.125 -2.125,3.6875 2.9375,1.375 1.8125,-0.5625 2,2.1875 -2.1875,3.375 2.4375,5.4375 2.875,-1.375 0.6875,1.4375 -2.8125,2.125 0.9375,2 1.75,0 1.875,1.8125 -1.4375,0.6875 -1.9375,-0.625 -1.0625,-0.8125 -2.25,3.1875 3,3.875 3.3125,4 0.1875,2.1875 1.75,4 -2.0625,2.125 -2.75,-0.5625 -0.9375,1.25 2.8125,2.8125 -1.875,2 -0.1875,2.5625 2,0.875 z"
     id="path3015"
     style="fill:#00b0ff;fill-opacity:1;stroke:#000000;stroke-width:1px;stroke-linecap:butt;stroke-linejoin:miter;stroke-opacity:1" />
  <path
     d="m 705.07226,715.57902 0.9375,0.875 0.625,1 0,1.3125 -0.6875,0.75 0.8125,0.75 1,-0.5625 -0.625,-1.1875 0.1875,-1.0625 0.875,-0.25 0.125,-2.1875 0.0625,-1.5 -1.125,0.3125 -0.125,1.1875 z"
     id="path3017"
     style="fill:#00b0ff;fill-opacity:1;stroke:#000000;stroke-width:1px;stroke-linecap:butt;stroke-linejoin:miter;stroke-opacity:1" />
  <path
     d="m 631.82226,607.82902 2.9375,-0.75 -0.4375,2.25 -2.4375,0 z"
     id="path3019"
     style="fill:#00b0ff;fill-opacity:1;stroke:#000000;stroke-width:1px;stroke-linecap:butt;stroke-linejoin:miter;stroke-opacity:1" />
  <path
     d="m 954.5329,314.28936 2.65165,1.76777 2.91682,-1.85616 -2.03293,-1.94454 0.17677,-3.35876 -1.32582,-0.26516 -0.17678,3.88909 z"
     id="path3021"
     style="fill:#00b0ff;fill-opacity:1;stroke:#000000;stroke-width:1px;stroke-linecap:butt;stroke-linejoin:miter;stroke-opacity:1" />
  <path
     d="m 960.18976,305.53892 c 0.17677,0.53033 0.61872,6.27557 0.61872,6.27557 l 1.94454,2.56326 2.38648,2.20971 0.17678,2.74004 2.74004,1.23744 3.0052,-1.591 5.03814,-3.62392 2.47487,0.7955 4.94975,-2.47488 3.09359,-5.12652 -1.94454,-2.65165 0.53033,-2.03293 -3.27037,1.5026 -2.2981,-0.53033 -3.09359,4.77297 -4.06586,0.0884 -1.41422,-2.38649 -3.8007,2.56327 -3.71231,-2.2981 2.03294,-0.88389 -2.65165,-2.29809 z"
     id="path3023"
     style="fill:#00b0ff;fill-opacity:1;stroke:#000000;stroke-width:1px;stroke-linecap:butt;stroke-linejoin:miter;stroke-opacity:1" />
  <path
     d="m 965.1395,298.29107 c -0.97227,0.61872 -4.24264,2.38649 -4.24264,2.38649 l 0.35356,1.23743 4.41941,1.50261 1.85616,2.12132 3.8007,-0.35356 3.62392,3.00521 1.67938,-1.23744 2.65165,-4.94975 -2.03293,0.0884 -3.27037,3.18198 -2.47487,-1.59099 -2.74004,-1.41421 -2.12132,0.17677 z"
     id="path3025"
     style="fill:#00b0ff;fill-opacity:1;stroke:#000000;stroke-width:1px;stroke-linecap:butt;stroke-linejoin:miter;stroke-opacity:1" />
  <path
     d="m 969.78786,285.22387 0,1.8125 0.75,1.5625 -0.25,1.4375 1.25,0.5 1,-1.375 z"
     id="path3027"
     style="fill:#00b0ff;fill-opacity:1;stroke:#000000;stroke-width:1px;stroke-linecap:butt;stroke-linejoin:miter;stroke-opacity:1" />
  <path
     d="m 975.22536,282.03637 c 0,0.3125 -0.9375,2.25 -0.9375,2.25 l -1.75,1.4375 3.0625,4.25 -0.0625,3.875 -2.125,3.125 1.625,1.25 -0.5,1.125 0.8125,1.3125 3.6875,0.3125 2.125,2.0625 4.4375,-3.8125 7.1875,-0.625 4,3.875 2.5625,0.4375 3.43754,4.5 0.9375,3.8125 2.9375,1.125 2.875,-2.875 0,-27.25 -32.68754,0 z"
     id="path3029"
     style="fill:#00b0ff;fill-opacity:1;stroke:#000000;stroke-width:1px;stroke-linecap:butt;stroke-linejoin:miter;stroke-opacity:1" />
  <path
     d="m 739.32226,538.95402 -26.46875,26.46875 -21.1875,0 -2.09375,2.34375 0,3 1.125,2.125 -3.1875,-0.625 0.28125,-1.15625 -2.5625,-1.15625 -1,1.5 -6.5,-3.78125 -9.375,13.25 -4.59375,3.53125 -2.5625,-4.25 1.84375,-2.1875 -4.78125,-4.5 -5.8125,-1.53125 -4.34375,3.71875 -6.28125,0.375 -4.15625,-5.125 -7.5,5.5625 -2.46875,-2.125 -3.09375,2.125 -1.875,-2.5 -5.03125,6.90625 2.375,2.03125 -1.21875,4.96875 4.3125,3.09375 3.71875,0.6875 -2.03125,3.625 4.875,4.25 4.15625,-3.4375 -1,-2.125 0.875,-1.25 3.375,0.25 0.625,-2.125 -0.375,-3.625 0.625,-3.125 1.5,4.25 2.75,-0.125 0.25,3.5 6,5.25 3,6.25 5,2.125 8.875,-3.375 3.25,-2.375 3.75,-6.875 9.375,0.75 3.5,5.25 2.75,-4.375 3.875,0.375 c 0,0 -0.875,2.875 -1.375,3.125 -0.5,0.25 -4.375,1.875 -4.375,1.875 l 0.125,3.25 -8,-2.625 -2.25,3.75 -4.875,1.625 0.125,7 1.875,4 -2,3.625 -5.375,-0.125 -6.125,6.125 -5.875,-2.25 -2.125,-5.25 -4,-3 6.375,-3.625 3,1.125 3.5,-4 -1,-2.625 -7.25,0.125 -6.125,6 -3.25,-0.5 -0.125,3.25 -5.25,-3.5 -4.5,0 -4.375,3.5 -3.375,-2.5 -6.125,4.125 -7,-5.25 -5.375,3.5 -2.375,9.625 -12.125,-6.375 -2,1.125 -3.75,-1.25 -7.625,9.5 -3.5,0 -4.75,7.25 1.5,8.125 6.5,3.375 4.125,0.75 6.625,1.625 2.90625,-3.53125 7.96875,0.84375 2.3125,-2.59375 3.6875,5.1875 -2.0625,5.1875 1.6875,6.3125 3.40625,0.71875 1.75,2.53125 1.21875,4.03125 1.96875,-5.09375 2.78125,-0.90625 -2.5,-2.40625 7.65625,-8 5.09375,-0.0312 c 3.11673,-3.7e-4 5.65588,2.50826 5.65625,5.625 3.7e-4,3.11673 -2.53642,5.66805 -5.65625,5.6875 l -0.125,27.0625 -4.625,6.625 4.375,6.5 -3.90625,1.625 c -0.15473,3.27766 -0.93471,9.10241 -2.09375,13.28125 l 4.25,-0.625 1.59375,2.65625 2.90625,1.25 2.8125,-1.78125 4.0625,2.03125 2.84375,-1.59375 2.03125,0.90625 8.75,0.78125 3.375,-1.0625 3.96875,-1.15625 -0.0937,-3.625 2.03125,-3.6875 3.96875,-1.875 4.53125,3.09375 4.75,4.4375 3.09375,-3.09375 2.65625,2.125 0.4375,8.46875 -2.6563,3.0937 -4.59375,3.28125 -3.78125,2.71875 -1.59375,2.5 2.5625,1.59375 4.9375,-0.90625 3.09375,4 1.5,3.09375 -0.59375,3.53125 0.0625,2.46875 -2.71875,3.28125 0.875,1.3125 c 0,0 -0.89553,1.7768 -0.71875,2.21875 0.17677,0.44194 5.3125,7.25 5.3125,7.25 l 3.4375,-2.5 -0.34375,-4.21875 2.125,-2.5625 0.78125,-4 3.09375,-2.5625 3.71875,-0.53125 1.5,-3.78125 1.5,-1.78125 -1.0625,-2.21875 2.125,-1.84375 -2.46875,-6 -3.09375,0.0937 -0.4375,-1.0625 3,-1.0625 0.28125,-2.5 2.1875,-1.5625 0.53125,-2.5 -1.65625,-1.21875 -2.21875,-0.1875 0.875,-2.375 -0.4375,-1.6875 -0.28125,-2.03125 -2.71875,-0.71875 -2.125,-1.59375 -2.03125,-4.93745 c 0,0 5.1152,-5.21339 5.46875,-5.125 0.35355,0.0884 3.09375,-0.4375 3.09375,-0.4375 l 0.375,-2.21875 -1.875,-1.15625 -3.78125,-3.96875 -3.5625,-0.0937 -1.21875,4.0625 -4.15625,-3.875 -6.625,-4.34375 -9.125,-6.8125 0.625,-1.5 2.84375,1.5 1.3125,-4.59375 -4.25,-2.5625 -0.34375,-2.46875 -0.875,-1.59375 1.9375,-1.9375 -1.5,-0.625 -3.375,1.25 0.0937,-1.59375 0.96875,-1.78125 -2.1875,-3.625 0.96875,-1.125 2.1875,-0.375 1.59375,-1.5 2.75,-1.3125 2.3125,2.21875 -1,2.71875 -2.8125,1.25 -0.34375,2.46875 2.90625,2.3125 1.40625,0.59375 0.28125,1.875 -2.75,1.15625 2.375,2.5625 2.5,0.25 1.65625,-1.84375 -1.9375,-2.3125 -0.34375,-1.59375 1.40625,0.71875 1.59375,2.8125 0.78125,1.0625 1.78125,-1.40625 1.8125,-1.625 3.3125,0 -2.90625,-2 1.40625,-1.6875 3.09375,2.84375 1.84375,1.5 1.78125,4.59375 -0.625,3.71875 -1.3125,1.15625 0.875,2.03125 2.46875,0 2.125,2.90625 2.5625,0.625 2.75,-0.71875 -0.71875,-1.6875 0.96875,-1.65625 2.5625,1.3125 0.53125,2.5625 3.53125,2.21875 2.75,-0.28125 2.90625,4.59375 3.8125,5.3125 -1.25,1.78125 2.5,1.0625 2.625,0.25 0.28125,3.625 -2.21875,-0.25 -1.84375,2.375 5.3125,5.65625 3.53125,2.375 3.1875,0.375 3.53125,-2.5625 1.125,3 -2.46875,1.40625 -6.28125,1.59375 -3,8.5625 -4.75,-0.25 -3.46875,1.21875 0.96875,4 -1.9375,2.65625 -2.8125,5.46875 3.625,3.875 2.90625,-3.6875 3.28125,0.96875 5.03125,-3.90625 3.53125,-0.15625 -0.53125,1.9375 1.6875,2.8125 2.8125,1.59375 3,2.65625 2.03125,-1.6875 4.53125,-0.875 -2.75,-3.96875 6.53125,-7 0.625,-3.1875 1.59375,-1.75 0.1875,-2.03125 1.5,0.25 1.3125,2.03125 2.40625,-1.65625 -0.625,-2.75 -1.5,-1.5 -2.3125,0.53125 -1.5,-3.09375 0.4375,-2.65625 3.09375,-1.3125 1.25,-1.875 1.84375,-3 2.40625,0.1875 -1.78125,0.875 -0.28125,6 c 0,0 8.32323,8.92326 8.5,9.71875 0.17678,0.7955 0,6.375 0,6.375 l 4.59375,0.1875 9.375,-4.6875 5.03125,-5.5625 -4.0625,-5.59375 3.4375,-5.375 -6.09375,-6.46875 6.71875,-4.5 -9.375,-10.15625 -3.875,0 -2.75,-4.6875 -4.84375,-1.40625 -0.90625,-2.40625 2.5,-0.59375 -3.28125,-1.6875 -4.5,0.25 2.03125,-2.65625 2.65625,-0.0625 0.59375,-1.34375 2.3125,0.96875 3.1875,-4.0625 2.125,3.53125 1.21875,1.4375 -0.625,2.90625 3.28125,-0.28125 1.5,-2.90625 -2.65625,-3 1.59375,-3.375 2.5625,-1.125 c 0,0 -0.35355,-3.61963 0,-3.53125 0.35356,0.0884 1.6875,-1.78125 1.6875,-1.78125 l -1.59375,-2.90625 1.0625,-1.4375 2.8125,-0.25 0.375,2.03125 -1.25,0.4375 0.1875,4.25 6.625,0.1875 5.90625,-0.375 2.0625,0.96875 2.8125,-3.875 2.75,1.3125 -1.34375,3.625 6.1875,-0.78125 2.84375,-4.96875 -2.40625,-5.28125 -2.28125,-4.59375 -3.71875,-1.25 -5.65625,0.96875 7.59375,-8.03125 -0.4375,-2.3125 3.4375,-1.9375 1.875,-2.90625 2.5625,0.4375 1.75,2.375 1.53125,-0.875 -1.34375,-3 3.09375,-2.125 -1.75,-1.875 1.75,-2.09375 -2.125,-2.5625 0.96875,-2.75 -1.0625,-0.875 0.90625,-1.78125 1.3125,-4.5 -4.84375,-6.625 -2.9375,3.53125 -3,-1.78125 -1.9375,0.875 -2.125,-2.03125 -6,3.09375 0.4375,6.28125 -4.59375,1.875 -2.40625,-2.5 -8.90625,6.125 -10.25,0.6875 1.84375,-11.21875 8.40625,3.71875 5.5625,-3.4375 -1.78125,-4.625 3.90625,-5.125 -4.875,-3.625 -1.6875,0.375 -0.15625,1.21875 -2.5625,-0.34375 0.25,-3.8125 1.40625,-1.84375 4.53125,-0.625 0.53125,-2.65625 1.9375,-1.0625 -1.59375,-3.78125 -3.09375,1.9375 -8.21875,-14.3125 0.78125,-4.6875 -3.78125,-0.0937 -1.59375,-5.65625 2.46875,-3.28125 1.6875,0.8125 3.4375,1.15625 4.0625,-4.96875 -1.5,-5.90625 -3.7812,-1.78135 -2.84375,-1.84375 -3.34375,6.53125 -3.1875,0.1875 -2.21875,3.4375 -3.8125,-2.03125 -5.03125,1.6875 -1.40625,2.5625 -0.4375,-3.8125 6.34375,-1.59375 -0.15625,-2.5625 -1.0625,-2.46875 7.59375,-0.34375 0.28125,-2.65625 -1.6875,-1.0625 2.8125,-0.71875 1.15625,1.15625 1.78125,-0.71875 0.0625,-2.03125 2.84375,-4.15625 -1.3125,-3.625 -2.5,0 -1.3125,0.71875 -1.78125,-2.125 -1.9375,-0.53125 -1.3125,-2.46875 -1.6875,0 -2.125,-1.84375 -12.28125,0 z m 52.46875,132.03125 -3,3.96875 -2.1875,-1.15625 -2,1.875 2.28125,0.875 -0.84375,0.96875 1.34375,2.09375 2.21875,-0.96875 0.75,-4.28125 2.125,-2.4375 -0.6875,-0.9375 z m -8.125,2.28125 -2.71875,0.4375 -1,0.84375 2.15625,1.625 1.5625,-2.90625 z"
     id="path3007"
     style="fill:#00b0ff;fill-opacity:1;stroke:#000000;stroke-width:1px;stroke-linecap:butt;stroke-linejoin:miter;stroke-opacity:1" />
  <path
     d="m 600.80683,700.42746 a 44.627281,44.627281 0 0 1 -89.25456,0 44.627281,44.627281 0 1 1 89.25456,0 z"
     id="path3809"
     style="fill:#ff62ad;fill-opacity:1;stroke:none" />
  <path
     d="m 925.63476,623.26652 10.125,14.75 6.5,8.375 5.375,3.5 6.375,5 1.875,-1.375 2,1.25 -3,2.625 3,5.5 3.875,0.5 -0.625,2.125 -2.75,0 -0.25,3.875 3.75,2.25 -0.375,3.5 4.125,1.875 2.625,-1.625 2.5,1.25 7.25,-1.75 2.125,0.625 2.125,-1.25 -2.25,-1.75 2.125,-0.5 6.375,-4.5 -3.625,-2.125 0.75,-3.75 -6.625,-6.375 2,-1.75 1.125,-5.375 5.625,-4.5 5.875,-3.5 -2.25,-3.375 1.375,-4.375 2.5,-1.5 -0.375,-2.375 2.625,1.125 2.99994,-2.875 3.25,0.25 1.125,-4.25 3.75,2.75 -1.5,2.625 2.625,0.625 1.75,-3.375 2.375,0.375 4.75,-4.875 1.5,-5.75 4,-3.625 -3.875,-8.5 -3.875,-1.5 2.375,-7.125 2.5,-4 3.25,-4.375 -3.25,-3.125 -5.125,1.375 0.875,-4.375 -4.25,0.375 -0.375,-3.375 -1.75,-1.125 -0.375,-1.5 -4.125,1.125 -1.75,1.625 0,-2.25 -4.62494,-8.125 -2.75,-4.375 -3,2.375 -0.125,1.5 -1.625,3.25 -2.875,2.125 -3.25,5.625 -3.125,-4.25 -3.875,0.375 -3.5,6 -3.5,-1.375 -0.625,-1.875 2.625,-1 -2.125,-2 -2.375,0.875 0.875,1.625 -1.5,1.375 -3.375,-1.375 -6.375,2.5 -3,3.25 0.375,2.5 3.5,0.875 2,2.125 2.5,0.875 -0.25,4 3.125,1.25 1.125,-2.625 1.375,2.75 -0.625,1.5 0.625,1.5 -2.75,3 -0.625,3.875 -4,1 -0.375,1.625 -3.625,0 -5.75,0.25 -0.375,-2.875 0,-3.125 -2,0.25 0.25,5 -3.5,2.5 -1.5,-1.25 -1.75,2 -2.25,-3.25 -2.25,-1 -0.375,-1.5 -2,-2 -1.5,2.25 -1.75,0.5 -0.875,2.5 -4.125,-0.375 -1.875,2.625 1.875,2.875 2.125,1.125 -0.25,2.875 2.625,0.25 1.125,-1.375 2,2.125 -3.875,2 -3.25,3.125 -2.75,-0.75 z"
     id="path3845"
     style="fill:#940000;fill-opacity:1;stroke:#000000;stroke-width:1px;stroke-linecap:butt;stroke-linejoin:miter;stroke-opacity:1" />
  <path
     style="fill:#008626;fill-rule:evenodd;stroke:#000000;stroke-width:1px;stroke-linecap:butt;stroke-linejoin:miter;stroke-opacity:1;fill-opacity:1"
     d="m 1193.3759,1120.4317 0.066,2.8634 -2.1517,-0.033 0.016,2.218 -0.5958,0.017 0.099,3.509 -3.7076,0 -0.5131,0.3641 -0.5794,0.1159 -0.5462,-0.017 -0.3476,0.2317 -0.083,0.2814 c 0,0 -0.099,0.2317 -0.1655,0.2649 -0.066,0.033 -0.2814,0.1655 -0.2814,0.1655 l -0.3642,0.083 -0.3145,-0.1158 -0.4469,0.2317 -0.066,0.3972 c 0,0 -0.05,0.1987 -0.1489,0.2318 -0.099,0.033 -0.3145,0.05 -0.3145,0.05 0,0 -0.3311,0.1986 -0.3973,0.2152 -0.066,0.017 -0.3641,-0.083 -0.3641,-0.083 l -0.3476,0.083 -0.4469,0.2648 -0.6952,0.083 -0.4469,0.4469 -0.05,0.4634 -0.149,0.3807 -0.2152,0.1987 -0.2152,0.1655 -0.5793,0 -0.5958,-0.2318 -0.5463,-0.083 -0.2482,0.3972 -0.1324,0.2483 -0.3642,0.2648 -0.016,0.2649 c 0,0 -0.05,0.083 -0.05,0.1489 0,0.066 0.05,0.2649 0.017,0.3642 -0.033,0.099 -0.2649,0.3641 -0.2649,0.3641 0,0 -0.1158,0.2814 -0.182,0.298 -0.066,0.016 -0.7283,-0.033 -0.7283,-0.033 l -0.3973,-0.3145 -0.5462,-0.3476 0,-0.4469 c 0,0 0.033,-0.3807 -0.033,-0.4304 -0.066,-0.05 -0.2979,-0.5793 -0.2979,-0.5793 l -0.4138,-0.066 -0.6621,0.083 -0.6124,-0.48 c 0,0 -0.1324,-0.2318 -0.099,-0.3642 0.033,-0.1324 0.1158,-0.5959 0.1158,-0.5959 0,0 0,-0.2979 0,-0.3641 0,-0.066 -0.3476,-0.7117 -0.3476,-0.7117 l -0.066,-0.5793 -0.5462,-0.3145 -0.5627,-0.2152 -0.2483,-0.2979 c 0,0 0,-0.4469 -0.066,-0.4469 -0.066,0 0.1489,-0.629 0.1489,-0.629 l -0.2813,-0.4635 -0.7417,-0.7811 -1.779,-1.4513 0.1405,-0.3277 -0.515,-0.5618 -1.1236,-0.7023 -0.2341,-0.5149 -0.6086,0 0.047,-9.5505 0.4214,0 0.5149,0.2341 0.1873,-0.2809 0.3277,0.094 0.1405,0.047 0.3745,-0.094 c 0,0 -0.047,-0.5618 0.1404,-0.5618 0.1873,0 0.6086,0.1405 0.6086,0.1405 0,0 0.4682,-0.047 0.515,-0.2809 0.047,-0.2341 0,-0.4682 0.1873,-0.4214 0.1873,0.047 0.6554,0 0.6554,0 l 0.4214,0.3278 0.234,-0.3746 0.094,-0.7022 0.749,-0.3277 0.1873,-0.3746 0.3745,-0.234 -0.4213,-0.3746 0,-0.2809 0.1404,-0.3745 0.3745,-0.8427 0.3746,0 0.6086,-0.4213 0.047,-0.3745 -0.3745,-0.2809 -0.1873,-0.4214 0.1404,-0.3277 0.1873,-0.3277 0.4682,0 0.1404,-0.4213 0.2809,-0.4682 -0.2341,-0.4682 0.2809,-0.5149 0.515,-0.047 0.094,-0.4214 0.094,-0.2341 0.2809,-0.047 0,-0.3277 -0.2341,-0.4213 0.094,-0.5618 -0.2809,-0.5618 -0.3277,-0.515 0.2809,-0.4213 -0.2341,-0.2809 -0.3745,-0.2341 -0.047,-0.515 0.1404,-0.3745 -0.094,-0.5618 c 0,0 0.2341,-0.4213 0.4682,-0.4213 0.234,0 0.5617,0.047 0.5617,0.047 l 0,-0.8427 0.2341,-0.4682 0.047,-0.6086 -0.4681,-0.515 -0.4682,-0.3277 -0.7022,-0.3277 0.2809,-0.4681 0.515,-0.2341 -0.1405,-0.4682 -0.2809,-0.5149 0.047,-0.4682 -0.749,0.1873 -0.4214,-0.047 -0.7958,-0.2809 -0.4214,0.1873 -0.3745,-0.6554 -0.2809,-0.094 -0.2809,0.3745 -0.2809,-0.4214 -0.4213,-1.264 0.3277,-0.047 0,-1.03 -0.3277,-0.2808 -0.4214,-0.3278 -0.9363,0.047 -0.3277,0.094 -0.4682,-0.515 -0.6554,-0.3277 -0.2341,0.094 -0.234,0.3277 -0.1873,0.3278 -0.3277,-0.3278 0.1872,-0.6086 -0.094,-0.5149 -0.4681,0.4213 -0.2341,0.6554 -0.5618,0.094 -0.1405,0.2809 -0.5618,-0.4682 -0.5617,0.2341 -0.2809,0.8427 0.6086,0.047 0.3277,0.2809 0.3277,0.2341 -0.094,0.4681 -0.4682,-0.1404 -0.7121,1.5625 0.1986,0.9269 -0.5297,0 -0.5959,-0.5297 -0.7282,-0.3972 0.3972,-0.4635 -0.6621,-0.7283 -0.3972,0.5297 -0.3973,-0.7283 -0.7282,0.1986 -0.6621,0.066 -0.9269,-0.5959 0.3972,-0.7283 -0.3972,-0.7283 0.066,-0.6621 -0.3971,-0.9928 0.2649,-0.3972 -0.5342,-0.1729 -0.1638,-0.2809 -0.4214,0.3511 -0.749,-0.07 0.023,-0.4214 -0.2575,-0.3979 -0.2809,-0.5618 -0.3511,-0.2107 -0.2809,-0.6788 0.3745,-0.2341 -0.023,-0.5618 -0.2341,-0.5618 -0.7022,-0.4213 0.1639,-0.3979 c 0,0 0.2809,-0.047 0.3043,-0.1405 0.023,-0.094 -0.1171,-0.7959 -0.1171,-0.7959 0,0 -0.094,-0.3277 -0.1872,-0.3277 -0.094,0 -0.2575,0.1405 -0.3512,0.1405 -0.094,0 -1.0767,0.023 -1.0767,0.023 l -0.1639,-0.3979 0.047,-0.6087 -0.234,-0.5149 -0.3746,-0.4916 -0.5852,0.117 -1.0065,-0.023 -0.3979,-0.4447 -0.4448,0.117 -0.07,-0.4213 0.3745,-0.2575 0.5501,0.082 0.117,-0.1404 0.035,-0.2692 -0.012,-0.3277 -0.1521,-0.1054 0.023,-0.3511 -0.1873,-0.1287 -0.3043,-0.059 -0.2106,-0.2341 0.058,-0.1054 -0.047,-0.3745 0.1404,-0.3277 0.1405,0 c 0,0 0.082,-0.1287 0.1404,-0.1522 0.059,-0.023 0.2341,-0.07 0.2341,-0.07 l 0.047,-0.3394 0.2224,0.012 0.1404,-0.2458 0.1288,-0.2926 0.4681,-0.07 0.1171,0.094 0.3277,-0.1638 0.6086,0.07 0.1521,0.1522 0.4097,-0.1639 0.2809,0.1873 0.117,0.1404 0.2809,0.023 0.1405,-0.2106 0.5735,-0.07 0.2691,-0.5149 0.2458,-0.035 0.3746,-0.023 -0.1522,-0.4213 -0.2458,-0.199 -0.1924,-0.225 0.1656,-0.5627 0.066,-0.4966 0.6951,0.099 0.4966,0.4304 0.099,0.2648 0.2979,-0.2648 0.099,-0.3642 0.1986,-0.3641 0.2317,0.033 -0.1986,-0.6952 c 0,0 -0.3311,-0.3641 -0.4966,-0.4303 -0.1655,-0.066 -0.066,-0.4304 -0.066,-0.4304 l 0.5959,-0.033 0.033,-0.3972 0.4634,-0.5628 0.3642,-0.3311 0.331,0.1325 0.3311,-0.4304 0.3641,-0.3641 -0.066,-0.3642 -0.1655,-0.5958 0.6952,-0.4304 0.2648,-0.2979 -0.1986,-0.4304 0.8607,-0.1324 0.4965,0.4304 0.2648,0.4634 0.9932,-0.099 0.3641,0.2317 0.331,-0.4634 0.298,-0.298 0.3641,-0.033 0.2649,-0.5958 0.3641,-0.3642 -0.6621,-0.5296 0.1986,-0.6621 0.4319,-0.6303 -0.1324,-0.629 -0.2649,-0.331 0.3973,-0.4303 0.8607,-0.5959 0.6621,0.2979 0.2648,-0.033 0.4966,-0.1655 0.033,-0.331 0.5627,-0.099 0.385,0.1946 0.3511,0 0.6788,0.5852 0.1405,0.4447 -0.023,0.1873 -0.5384,-0.2575 -0.3511,0.1405 -0.1171,0.3979 0.023,0.3511 0.023,0.3979 0.023,0.3278 0.3043,0.3511 0.1171,0.3979 0.3745,0.2341 0.5852,0.023 0.3511,0.1404 0.3511,-0.2106 0.1171,-0.2575 0.515,0.1873 0.1404,0.2808 0.1873,0.2107 0.047,0.5384 -0.1171,0.4448 0.2809,0.4447 0.2341,0.515 0.2575,0.3043 0.047,0.3979 0.2341,0.1171 -0.07,0.5383 0.3979,-0.1404 0.1405,-0.2809 0.4681,0.4213 0.515,0.398 c 0,0 0.4447,-0.1405 0.5384,-0.1171 0.094,0.023 0.3043,0.5618 0.3043,0.5618 l -0.07,0.632 0.07,0.6086 0.4447,0.9598 -0.2809,0.2809 0.2575,0.4213 0.5852,0.3979 0.1639,0.3746 0.5384,0.3979 0.4213,-0.07 c 0,0 0.4682,-0.1405 0.5618,0.094 0.094,0.2341 0.2809,0.4916 0.2809,0.4916 l 0.3745,-0.1873 0.3277,0.1405 0.3277,0.632 0.6555,-0.3043 0.5617,0.1404 0.9364,0.07 -0.023,-0.234 0.6671,-0.059 0.1872,-0.4564 c 0,0 0.4682,-0.316 0.5267,-0.2926 0.059,0.023 0.2458,0.1638 0.2458,0.1638 l 0.3862,-0.6203 0.6789,0.3746 0.5266,-0.2107 c 0,0 0.3629,-0.4331 0.4214,-0.4331 0.058,0 0.4096,0.07 0.4096,0.07 l -0.1287,0.5852 -0.1639,0.3394 0.1873,0.2575 c 0,0 0.5033,-0.1054 0.515,-0.059 0.012,0.047 0.5383,0.2341 0.5383,0.2341 l 0.1054,0.714 0.3043,0.3745 0.1053,0.5735 c 0,0 -0.082,0.2926 -0.035,0.3511 0.047,0.059 0.7725,0.5384 0.7725,0.5384 l 0.4915,0.2575 0.2107,0.2926 0.1171,0.632 0.4915,0.3745 c 0,0 0.7257,0.4214 0.7257,0.515 0,0.094 0.07,0.5618 0.07,0.5618 l 0.5852,0.2575 0.5852,0.2106 0.3277,-0.3979 0.6086,-0.023 0.023,0.515 0.023,0.5384 0.6788,0.3277 0.7959,0.3745 0.4682,0.2107 c 0,0 0.6086,-0.1639 0.6554,-0.07 0.047,0.094 0.2341,0.7959 0.2341,0.7959 l -0.3511,0.2809 -0.3512,0.2107 0.023,0.3511 0.2575,0.3043 c 0,0 0.3746,0.2809 0.4448,0.4682 0.07,0.1872 0.1638,0.3745 0.2107,0.4681 0.047,0.094 -0.2107,0.4916 -0.2107,0.4916 0,0 -0.07,0.2575 0,0.3745 0.07,0.1171 0.5384,0.094 0.5618,0.2809 0.023,0.1873 0.3277,0.4448 0.3277,0.4448 l 0.6788,-0.094 0.3745,-0.5852 1.1002,0.3277 0.8427,-0.023 0.2341,0.515 -0.4448,0.3511 -0.023,0.5618 0.5618,0.094 0.8427,0.07 0.4213,0.3277 0.4214,0.6554 c 0,0 0.4213,0.3745 0.2809,0.4682 -0.1405,0.094 -0.4682,0.4915 -0.4682,0.4915 l -0.632,0.1171 -0.1639,0.3511 c 0,0 0.2341,0.5618 0.3278,0.6086 0.094,0.047 0,0.6086 0,0.6086 l -0.2107,0.3043 -0.1639,0.5384 -0.5852,0.023 -0.4681,0.2809 0,0.3745 0.3511,0.2809 0.4213,0.1171 0.1873,0.3745 0.117,0.5618 -0.2106,0.234 -0.6086,-0.047 -0.3043,0.047 0.023,0.4214 c 0,0 0.023,0.3745 -0.094,0.4213 -0.117,0.047 -0.2574,-0.07 -0.3511,0.1639 -0.094,0.2341 -0.1404,0.7725 -0.1404,0.7725 0,0 -0.3511,0.1638 -0.4916,0.3043 -0.1404,0.1404 -0.2107,0.6086 -0.2107,0.6086 l -0.9129,-0.1405 -0.4447,0 -0.1639,-0.5384 c 0,0 0.3277,-0.4915 0.398,-0.5852 0.07,-0.094 0.4681,-0.5852 0.4681,-0.5852 l -0.2575,-0.3979 -0.4915,0.3277 -0.4682,-0.117 -0.1873,-0.5384 -0.1404,0.4213 -0.023,0.4916 -0.6554,0 -0.2341,0.1873 0.095,0.5151 0.515,0.3277 0.2341,0.398 c 0,0 0.023,0.515 -0.1405,0.515 -0.1638,0 -0.6554,-0.4682 -0.6554,-0.4682 0,0 -0.094,0.5852 -0.047,0.6788 0.047,0.094 0.515,0.515 0.515,0.515 0,0 0.3511,0.2575 0.2574,0.4213 -0.094,0.1639 -0.3979,0.5852 -0.4915,0.6321 -0.094,0.047 -0.4214,0.2106 -0.5618,0.1404 -0.1405,-0.07 -0.7491,-0.3979 -0.7491,-0.3979 l -0.4681,0.1872 -0.6086,0.047 -0.5618,0.1872 0.1872,0.3277 0.9598,0.1639 1.1235,0.117 0.515,0.3277 0.1639,0.6789 c 0,0 0.047,0.4447 0,0.5383 -0.047,0.094 -0.6789,0.3278 -0.6789,0.3278 l -0.4915,-0.1171 -0.3043,0.6554 -0.4916,0.2341 -0.749,0.3745 -0.3512,0 -0.2106,0.5384 -0.2108,0.4447 0.4447,0.6086 -0.1638,0.5384 -0.5384,0.632 c 0,0 -0.515,0.2575 -0.3511,0.3511 0.1638,0.094 0.1638,0.7256 0.1638,0.7256 l -0.07,0.6321 -0.3979,0.1872 0.07,0.6789 0.2107,0.6788 c 0,0 -0.07,0.3979 -0.1639,0.4213 -0.094,0.023 -0.4447,0.047 -0.4447,0.047 l -0.2107,0.5852 -0.2341,0.2575 0.7257,0.7725 0.023,0.5618 c 0,0 -0.1171,0.749 -0.023,0.7958 0.094,0.047 0.117,0.6321 0.117,0.6321 l 0.515,0.4681 0.6788,0.094 0.3277,0.094 0.023,0.515 -0.023,0.6554 -0.1404,0.8895 0.047,0.7959 0.3043,0.632 0.515,0.632 1.0533,0.8427 z"
     id="path3362"
     inkscape:connector-curvature="0" />
  <path
     style="fill:#a0a0a0;stroke:none;stroke-width:1px;stroke-linecap:butt;stroke-linejoin:miter;stroke-opacity:1"
     d=""
     id="path3364"
     inkscape:connector-curvature="0" />
</svg>
