<?xml version="1.0" encoding="UTF-8" standalone="no"?>
<!-- Created with Inkscape (http://www.inkscape.org/) -->

<svg
   xmlns:dc="http://purl.org/dc/elements/1.1/"
   xmlns:cc="http://creativecommons.org/ns#"
   xmlns:rdf="http://www.w3.org/1999/02/22-rdf-syntax-ns#"
   xmlns:svg="http://www.w3.org/2000/svg"
   xmlns="http://www.w3.org/2000/svg"
   xmlns:xlink="http://www.w3.org/1999/xlink"
   version="1.1"
   width="2000"
   height="2000"
   id="svg">
  <defs
     id="defs4">
    <linearGradient
       x1="520.29034"
       y1="672.76587"
       x2="527.78705"
       y2="680.26257"
       id="havenGradient"
       gradientUnits="userSpaceOnUse"
       gradientTransform="matrix(1.0125,0,0,1.0125,-7.4486248,-8.4855014)"
       spreadMethod="repeat">
      <stop
         id="stop3816"
         style="stop-color:#ff62ad;stop-opacity:1"
         offset="0" />
      <stop
         id="stop3826"
         style="stop-color:#ff62ad;stop-opacity:1"
         offset="0.5" />
      <stop
         id="stop3828"
         style="stop-color:#ff62ad;stop-opacity:0"
         offset="0.5" />
      <stop
         id="stop3818"
         style="stop-color:#ff62ad;stop-opacity:0"
         offset="1" />
    </linearGradient>
    <linearGradient
       x1="520.29034"
       y1="672.76587"
       x2="527.78705"
       y2="680.26257"
       id="veniceGradient"
       gradientUnits="userSpaceOnUse"
       gradientTransform="matrix(1.0125,0,0,1.0125,-7.4486248,-8.4855014)"
       spreadMethod="repeat">
      <stop
         id="stop4110"
         style="stop-color:#ffd42a;stop-opacity:1"
         offset="0" />
      <stop
         id="stop4112"
         style="stop-color:#ffd42a;stop-opacity:1"
         offset="0.5" />
      <stop
         id="stop4114"
         style="stop-color:#ffd42a;stop-opacity:0"
         offset="0.5" />
      <stop
         id="stop4116"
         style="stop-color:#ffd42a;stop-opacity:0"
         offset="1" />
    </linearGradient>
  </defs>
  <metadata
     id="metadata7">
    <rdf:RDF>
      <cc:Work
         rdf:about="">
        <dc:format>image/svg+xml</dc:format>
        <dc:type
           rdf:resource="http://purl.org/dc/dcmitype/StillImage" />
        <dc:title></dc:title>
      </cc:Work>
    </rdf:RDF>
  </metadata>
  <image
     xlink:href="./7500.png"
     id="background"
     height="2000"
     width="2000"
     y="9.5"
     x="5.25" />
  <path
     d="m 556.16601,633.48527 c -36.97045,0 -66.9375,29.96705 -66.9375,66.9375 0,36.97045 29.96705,66.9375 66.9375,66.9375 32.34914,0 59.35176,-22.93365 65.59375,-53.4375 0.18923,-0.92475 0.34933,-1.87429 0.5,-2.8125 0.008,-0.0522 0.0234,-0.10412 0.0312,-0.15625 0.17955,-1.19375 0.32455,-2.3655 0.4375,-3.4375 0.0946,-0.89753 0.17581,-1.67832 0.21875,-2.40625 0.0108,-0.15603 0.0215,-0.31242 0.0312,-0.46875 0.0872,-1.39829 0.15625,-2.7985 0.15625,-4.21875 0,-1.03988 -0.0469,-2.06546 -0.0937,-3.09375 l -0.5312,-0.8125 4.625,-6.625 0.125,-27.0625 c 3.11983,-0.0195 5.65662,-2.57077 5.65625,-5.6875 -3.7e-4,-3.11674 -2.53952,-5.62537 -5.65625,-5.625 l -5.09375,0.0312 -7.65625,8 2.5,2.40625 -2.78125,0.90625 -1.96875,5.09375 -1.21875,-4.03125 -1.75,-2.53125 -3.40625,-0.71875 -1.6875,-6.3125 2.0625,-5.1875 -3.6875,-5.1875 -2.3125,2.59375 -7.96875,-0.84375 -2.90625,3.5313 -6.625,-1.625 -4.125,-0.75 -6.5,-3.375 -1.5,-8.125 0.1875,-0.28125 c -0.38471,-0.0859 -0.76907,-0.17077 -1.15625,-0.25 -4.35769,-0.89171 -8.8787,-1.375 -13.5,-1.375 z"
     id="path3791"
     style="fill:url(#havenGradient);fill-opacity:1;stroke:none" />
  <path
     d="m 675.88476,679.01652 c 0,0.125 -0.28125,1.40625 -0.28125,1.40625 l 1.625,0.125 0.34375,-1.4375 z"
     id="path3009"
     style="fill:#00b0ff;fill-opacity:1;stroke:#000000;stroke-width:1px;stroke-linecap:butt;stroke-linejoin:miter;stroke-opacity:1" />
  <path
     d="m 693.25976,760.14152 c -0.0625,0.625 -1.1875,5 -1.1875,5 l 2,2.5625 3.5,2.25 2.1875,-2.0625 1.375,0.3125 c 0,0 5.125,-5.4375 4.875,-5.5625 -0.25,-0.125 -5,-2.6875 -5,-2.6875 l 0.875,-3.125 0.1875,-3.25 -4.25,1.5 -2.875,1.1875 -0.125,4 z"
     id="path3011"
     style="fill:#00b0ff;fill-opacity:1;stroke:#000000;stroke-width:1px;stroke-linecap:butt;stroke-linejoin:miter;stroke-opacity:1" />
  <path
     d="m 721.19726,759.82902 c -0.25,0.125 -1.9375,2.1875 -1.9375,2.1875 l 2.75,2 5,0.125 1.625,0.5625 1.75,-0.5625 -2.5625,-2 0.6875,-1.5625 -1.4375,-0.3125 -2.5625,-0.3125 z"
     id="path3013"
     style="fill:#00b0ff;fill-opacity:1;stroke:#000000;stroke-width:1px;stroke-linecap:butt;stroke-linejoin:miter;stroke-opacity:1" />
  <path
     d="m 792.75976,596.26652 c 1.9375,1.6875 7.3125,7 7.3125,7 l 3.5,-3.375 2.0625,0.375 c 0,0 2.8125,-2.75 2.5,-3 -0.3125,-0.25 -1.4375,-2.375 -1.4375,-2.375 l 2.0625,-2.3125 -0.125,-2.3125 -2.5625,-1.5 -0.5,-1.875 -2,-1.6875 1.375,-4.9375 3.5625,-2.625 -1.8125,-2.375 2.1875,-1.3125 1.8125,1.0625 2.1875,-0.25 2.3125,1.75 -1,0.875 0.5625,3.125 -2.4375,5.375 5.9375,-1.0625 0.25,-4 2.625,-2.625 1.6875,-2.1875 6,-5.0625 1,-4.125 2.25,-0.875 4.3125,-5.5 -4.8125,-2.9375 0,-10 1.5,-2 -0.125,-3.3125 -5.5625,-1.875 -0.8125,-2.125 2.125,-1.6875 2,1.6875 2.8125,-2.5625 2.25,-6.25 -4.1875,-2.0625 -2.5625,-4.4375 -2,-1.375 -1.4375,0.4375 -3.75,-2.6875 -1.375,0.5 -0.75,1.9375 -2.9375,1.5625 -2.0625,-2.8125 -3.375,0.375 -2.8125,0.625 -2.5,1.6875 -3.125,6.1875 -7.75,3.125 0.3125,3.3125 -1.625,1.625 1.25,2.25 -2.0625,2.125 0.25,1.625 1.5,1.1875 -0.6875,1.1875 -1.75,-0.5 -5.9375,1.125 -2.125,3.6875 2.9375,1.375 1.8125,-0.5625 2,2.1875 -2.1875,3.375 2.4375,5.4375 2.875,-1.375 0.6875,1.4375 -2.8125,2.125 0.9375,2 1.75,0 1.875,1.8125 -1.4375,0.6875 -1.9375,-0.625 -1.0625,-0.8125 -2.25,3.1875 3,3.875 3.3125,4 0.1875,2.1875 1.75,4 -2.0625,2.125 -2.75,-0.5625 -0.9375,1.25 2.8125,2.8125 -1.875,2 -0.1875,2.5625 2,0.875 z"
     id="path3015"
     style="fill:#00b0ff;fill-opacity:1;stroke:#000000;stroke-width:1px;stroke-linecap:butt;stroke-linejoin:miter;stroke-opacity:1" />
  <path
     d="m 705.07226,715.57902 0.9375,0.875 0.625,1 0,1.3125 -0.6875,0.75 0.8125,0.75 1,-0.5625 -0.625,-1.1875 0.1875,-1.0625 0.875,-0.25 0.125,-2.1875 0.0625,-1.5 -1.125,0.3125 -0.125,1.1875 z"
     id="path3017"
     style="fill:#00b0ff;fill-opacity:1;stroke:#000000;stroke-width:1px;stroke-linecap:butt;stroke-linejoin:miter;stroke-opacity:1" />
  <path
     d="m 631.82226,607.82902 2.9375,-0.75 -0.4375,2.25 -2.4375,0 z"
     id="path3019"
     style="fill:#00b0ff;fill-opacity:1;stroke:#000000;stroke-width:1px;stroke-linecap:butt;stroke-linejoin:miter;stroke-opacity:1" />
  <path
     d="m 954.5329,314.28936 2.65165,1.76777 2.91682,-1.85616 -2.03293,-1.94454 0.17677,-3.35876 -1.32582,-0.26516 -0.17678,3.88909 z"
     id="path3021"
     style="fill:#00b0ff;fill-opacity:1;stroke:#000000;stroke-width:1px;stroke-linecap:butt;stroke-linejoin:miter;stroke-opacity:1" />
  <path
     d="m 960.18976,305.53892 c 0.17677,0.53033 0.61872,6.27557 0.61872,6.27557 l 1.94454,2.56326 2.38648,2.20971 0.17678,2.74004 2.74004,1.23744 3.0052,-1.591 5.03814,-3.62392 2.47487,0.7955 4.94975,-2.47488 3.09359,-5.12652 -1.94454,-2.65165 0.53033,-2.03293 -3.27037,1.5026 -2.2981,-0.53033 -3.09359,4.77297 -4.06586,0.0884 -1.41422,-2.38649 -3.8007,2.56327 -3.71231,-2.2981 2.03294,-0.88389 -2.65165,-2.29809 z"
     id="path3023"
     style="fill:#00b0ff;fill-opacity:1;stroke:#000000;stroke-width:1px;stroke-linecap:butt;stroke-linejoin:miter;stroke-opacity:1" />
  <path
     d="m 965.1395,298.29107 c -0.97227,0.61872 -4.24264,2.38649 -4.24264,2.38649 l 0.35356,1.23743 4.41941,1.50261 1.85616,2.12132 3.8007,-0.35356 3.62392,3.00521 1.67938,-1.23744 2.65165,-4.94975 -2.03293,0.0884 -3.27037,3.18198 -2.47487,-1.59099 -2.74004,-1.41421 -2.12132,0.17677 z"
     id="path3025"
     style="fill:#00b0ff;fill-opacity:1;stroke:#000000;stroke-width:1px;stroke-linecap:butt;stroke-linejoin:miter;stroke-opacity:1" />
  <path
     d="m 969.78786,285.22387 0,1.8125 0.75,1.5625 -0.25,1.4375 1.25,0.5 1,-1.375 z"
     id="path3027"
     style="fill:#00b0ff;fill-opacity:1;stroke:#000000;stroke-width:1px;stroke-linecap:butt;stroke-linejoin:miter;stroke-opacity:1" />
  <path
     d="m 975.22536,282.03637 c 0,0.3125 -0.9375,2.25 -0.9375,2.25 l -1.75,1.4375 3.0625,4.25 -0.0625,3.875 -2.125,3.125 1.625,1.25 -0.5,1.125 0.8125,1.3125 3.6875,0.3125 2.125,2.0625 4.4375,-3.8125 7.1875,-0.625 4,3.875 2.5625,0.4375 3.43754,4.5 0.9375,3.8125 2.9375,1.125 2.875,-2.875 0,-27.25 -32.68754,0 z"
     id="path3029"
     style="fill:#00b0ff;fill-opacity:1;stroke:#000000;stroke-width:1px;stroke-linecap:butt;stroke-linejoin:miter;stroke-opacity:1" />
  <path
     d="m 739.32226,538.95402 -26.46875,26.46875 -21.1875,0 -2.09375,2.34375 0,3 1.125,2.125 -3.1875,-0.625 0.28125,-1.15625 -2.5625,-1.15625 -1,1.5 -6.5,-3.78125 -9.375,13.25 -4.59375,3.53125 -2.5625,-4.25 1.84375,-2.1875 -4.78125,-4.5 -5.8125,-1.53125 -4.34375,3.71875 -6.28125,0.375 -4.15625,-5.125 -7.5,5.5625 -2.46875,-2.125 -3.09375,2.125 -1.875,-2.5 -5.03125,6.90625 2.375,2.03125 -1.21875,4.96875 4.3125,3.09375 3.71875,0.6875 -2.03125,3.625 4.875,4.25 4.15625,-3.4375 -1,-2.125 0.875,-1.25 3.375,0.25 0.625,-2.125 -0.375,-3.625 0.625,-3.125 1.5,4.25 2.75,-0.125 0.25,3.5 6,5.25 3,6.25 5,2.125 8.875,-3.375 3.25,-2.375 3.75,-6.875 9.375,0.75 3.5,5.25 2.75,-4.375 3.875,0.375 c 0,0 -0.875,2.875 -1.375,3.125 -0.5,0.25 -4.375,1.875 -4.375,1.875 l 0.125,3.25 -8,-2.625 -2.25,3.75 -4.875,1.625 0.125,7 1.875,4 -2,3.625 -5.375,-0.125 -6.125,6.125 -5.875,-2.25 -2.125,-5.25 -4,-3 6.375,-3.625 3,1.125 3.5,-4 -1,-2.625 -7.25,0.125 -6.125,6 -3.25,-0.5 -0.125,3.25 -5.25,-3.5 -4.5,0 -4.375,3.5 -3.375,-2.5 -6.125,4.125 -7,-5.25 -5.375,3.5 -2.375,9.625 -12.125,-6.375 -2,1.125 -3.75,-1.25 -7.625,9.5 -3.5,0 -4.75,7.25 1.5,8.125 6.5,3.375 4.125,0.75 6.625,1.625 2.90625,-3.53125 7.96875,0.84375 2.3125,-2.59375 3.6875,5.1875 -2.0625,5.1875 1.6875,6.3125 3.40625,0.71875 1.75,2.53125 1.21875,4.03125 1.96875,-5.09375 2.78125,-0.90625 -2.5,-2.40625 7.65625,-8 5.09375,-0.0312 c 3.11673,-3.7e-4 5.65588,2.50826 5.65625,5.625 3.7e-4,3.11673 -2.53642,5.66805 -5.65625,5.6875 l -0.125,27.0625 -4.625,6.625 4.375,6.5 -3.90625,1.625 c -0.15473,3.27766 -0.93471,9.10241 -2.09375,13.28125 l 4.25,-0.625 1.59375,2.65625 2.90625,1.25 2.8125,-1.78125 4.0625,2.03125 2.84375,-1.59375 2.03125,0.90625 8.75,0.78125 3.375,-1.0625 3.96875,-1.15625 -0.0937,-3.625 2.03125,-3.6875 3.96875,-1.875 4.53125,3.09375 4.75,4.4375 3.09375,-3.09375 2.65625,2.125 0.4375,8.46875 -2.6563,3.0937 -4.59375,3.28125 -3.78125,2.71875 -1.59375,2.5 2.5625,1.59375 4.9375,-0.90625 3.09375,4 1.5,3.09375 -0.59375,3.53125 0.0625,2.46875 -2.71875,3.28125 0.875,1.3125 c 0,0 -0.89553,1.7768 -0.71875,2.21875 0.17677,0.44194 5.3125,7.25 5.3125,7.25 l 3.4375,-2.5 -0.34375,-4.21875 2.125,-2.5625 0.78125,-4 3.09375,-2.5625 3.71875,-0.53125 1.5,-3.78125 1.5,-1.78125 -1.0625,-2.21875 2.125,-1.84375 -2.46875,-6 -3.09375,0.0937 -0.4375,-1.0625 3,-1.0625 0.28125,-2.5 2.1875,-1.5625 0.53125,-2.5 -1.65625,-1.21875 -2.21875,-0.1875 0.875,-2.375 -0.4375,-1.6875 -0.28125,-2.03125 -2.71875,-0.71875 -2.125,-1.59375 -2.03125,-4.93745 c 0,0 5.1152,-5.21339 5.46875,-5.125 0.35355,0.0884 3.09375,-0.4375 3.09375,-0.4375 l 0.375,-2.21875 -1.875,-1.15625 -3.78125,-3.96875 -3.5625,-0.0937 -1.21875,4.0625 -4.15625,-3.875 -6.625,-4.34375 -9.125,-6.8125 0.625,-1.5 2.84375,1.5 1.3125,-4.59375 -4.25,-2.5625 -0.34375,-2.46875 -0.875,-1.59375 1.9375,-1.9375 -1.5,-0.625 -3.375,1.25 0.0937,-1.59375 0.96875,-1.78125 -2.1875,-3.625 0.96875,-1.125 2.1875,-0.375 1.59375,-1.5 2.75,-1.3125 2.3125,2.21875 -1,2.71875 -2.8125,1.25 -0.34375,2.46875 2.90625,2.3125 1.40625,0.59375 0.28125,1.875 -2.75,1.15625 2.375,2.5625 2.5,0.25 1.65625,-1.84375 -1.9375,-2.3125 -0.34375,-1.59375 1.40625,0.71875 1.59375,2.8125 0.78125,1.0625 1.78125,-1.40625 1.8125,-1.625 3.3125,0 -2.90625,-2 1.40625,-1.6875 3.09375,2.84375 1.84375,1.5 1.78125,4.59375 -0.625,3.71875 -1.3125,1.15625 0.875,2.03125 2.46875,0 2.125,2.90625 2.5625,0.625 2.75,-0.71875 -0.71875,-1.6875 0.96875,-1.65625 2.5625,1.3125 0.53125,2.5625 3.53125,2.21875 2.75,-0.28125 2.90625,4.59375 3.8125,5.3125 -1.25,1.78125 2.5,1.0625 2.625,0.25 0.28125,3.625 -2.21875,-0.25 -1.84375,2.375 5.3125,5.65625 3.53125,2.375 3.1875,0.375 3.53125,-2.5625 1.125,3 -2.46875,1.40625 -6.28125,1.59375 -3,8.5625 -4.75,-0.25 -3.46875,1.21875 0.96875,4 -1.9375,2.65625 -2.8125,5.46875 3.625,3.875 2.90625,-3.6875 3.28125,0.96875 5.03125,-3.90625 3.53125,-0.15625 -0.53125,1.9375 1.6875,2.8125 2.8125,1.59375 3,2.65625 2.03125,-1.6875 4.53125,-0.875 -2.75,-3.96875 6.53125,-7 0.625,-3.1875 1.59375,-1.75 0.1875,-2.03125 1.5,0.25 1.3125,2.03125 2.40625,-1.65625 -0.625,-2.75 -1.5,-1.5 -2.3125,0.53125 -1.5,-3.09375 0.4375,-2.65625 3.09375,-1.3125 1.25,-1.875 1.84375,-3 2.40625,0.1875 -1.78125,0.875 -0.28125,6 c 0,0 8.32323,8.92326 8.5,9.71875 0.17678,0.7955 0,6.375 0,6.375 l 4.59375,0.1875 9.375,-4.6875 5.03125,-5.5625 -4.0625,-5.59375 3.4375,-5.375 -6.09375,-6.46875 6.71875,-4.5 -9.375,-10.15625 -3.875,0 -2.75,-4.6875 -4.84375,-1.40625 -0.90625,-2.40625 2.5,-0.59375 -3.28125,-1.6875 -4.5,0.25 2.03125,-2.65625 2.65625,-0.0625 0.59375,-1.34375 2.3125,0.96875 3.1875,-4.0625 2.125,3.53125 1.21875,1.4375 -0.625,2.90625 3.28125,-0.28125 1.5,-2.90625 -2.65625,-3 1.59375,-3.375 2.5625,-1.125 c 0,0 -0.35355,-3.61963 0,-3.53125 0.35356,0.0884 1.6875,-1.78125 1.6875,-1.78125 l -1.59375,-2.90625 1.0625,-1.4375 2.8125,-0.25 0.375,2.03125 -1.25,0.4375 0.1875,4.25 6.625,0.1875 5.90625,-0.375 2.0625,0.96875 2.8125,-3.875 2.75,1.3125 -1.34375,3.625 6.1875,-0.78125 2.84375,-4.96875 -2.40625,-5.28125 -2.28125,-4.59375 -3.71875,-1.25 -5.65625,0.96875 7.59375,-8.03125 -0.4375,-2.3125 3.4375,-1.9375 1.875,-2.90625 2.5625,0.4375 1.75,2.375 1.53125,-0.875 -1.34375,-3 3.09375,-2.125 -1.75,-1.875 1.75,-2.09375 -2.125,-2.5625 0.96875,-2.75 -1.0625,-0.875 0.90625,-1.78125 1.3125,-4.5 -4.84375,-6.625 -2.9375,3.53125 -3,-1.78125 -1.9375,0.875 -2.125,-2.03125 -6,3.09375 0.4375,6.28125 -4.59375,1.875 -2.40625,-2.5 -8.90625,6.125 -10.25,0.6875 1.84375,-11.21875 8.40625,3.71875 5.5625,-3.4375 -1.78125,-4.625 3.90625,-5.125 -4.875,-3.625 -1.6875,0.375 -0.15625,1.21875 -2.5625,-0.34375 0.25,-3.8125 1.40625,-1.84375 4.53125,-0.625 0.53125,-2.65625 1.9375,-1.0625 -1.59375,-3.78125 -3.09375,1.9375 -8.21875,-14.3125 0.78125,-4.6875 -3.78125,-0.0937 -1.59375,-5.65625 2.46875,-3.28125 1.6875,0.8125 3.4375,1.15625 4.0625,-4.96875 -1.5,-5.90625 -3.7812,-1.78135 -2.84375,-1.84375 -3.34375,6.53125 -3.1875,0.1875 -2.21875,3.4375 -3.8125,-2.03125 -5.03125,1.6875 -1.40625,2.5625 -0.4375,-3.8125 6.34375,-1.59375 -0.15625,-2.5625 -1.0625,-2.46875 7.59375,-0.34375 0.28125,-2.65625 -1.6875,-1.0625 2.8125,-0.71875 1.15625,1.15625 1.78125,-0.71875 0.0625,-2.03125 2.84375,-4.15625 -1.3125,-3.625 -2.5,0 -1.3125,0.71875 -1.78125,-2.125 -1.9375,-0.53125 -1.3125,-2.46875 -1.6875,0 -2.125,-1.84375 -12.28125,0 z m 52.46875,132.03125 -3,3.96875 -2.1875,-1.15625 -2,1.875 2.28125,0.875 -0.84375,0.96875 1.34375,2.09375 2.21875,-0.96875 0.75,-4.28125 2.125,-2.4375 -0.6875,-0.9375 z m -8.125,2.28125 -2.71875,0.4375 -1,0.84375 2.15625,1.625 1.5625,-2.90625 z"
     id="path3007"
     style="fill:#00b0ff;fill-opacity:1;stroke:#000000;stroke-width:1px;stroke-linecap:butt;stroke-linejoin:miter;stroke-opacity:1" />
  <path
     d="m 600.80683,700.42746 a 44.627281,44.627281 0 0 1 -89.25456,0 44.627281,44.627281 0 1 1 89.25456,0 z"
     id="path3809"
     style="fill:#ff62ad;fill-opacity:1;stroke:none" />
  <path
     d="m 925.63476,623.26652 10.125,14.75 6.5,8.375 5.375,3.5 6.375,5 1.875,-1.375 2,1.25 -3,2.625 3,5.5 3.875,0.5 -0.625,2.125 -2.75,0 -0.25,3.875 3.75,2.25 -0.375,3.5 4.125,1.875 2.625,-1.625 2.5,1.25 7.25,-1.75 2.125,0.625 2.125,-1.25 -2.25,-1.75 2.125,-0.5 6.375,-4.5 -3.625,-2.125 0.75,-3.75 -6.625,-6.375 2,-1.75 1.125,-5.375 5.625,-4.5 5.875,-3.5 -2.25,-3.375 1.375,-4.375 2.5,-1.5 -0.375,-2.375 2.625,1.125 2.99994,-2.875 3.25,0.25 1.125,-4.25 3.75,2.75 -1.5,2.625 2.625,0.625 1.75,-3.375 2.375,0.375 4.75,-4.875 1.5,-5.75 4,-3.625 -3.875,-8.5 -3.875,-1.5 2.375,-7.125 2.5,-4 3.25,-4.375 -3.25,-3.125 -5.125,1.375 0.875,-4.375 -4.25,0.375 -0.375,-3.375 -1.75,-1.125 -0.375,-1.5 -4.125,1.125 -1.75,1.625 0,-2.25 -4.62494,-8.125 -2.75,-4.375 -3,2.375 -0.125,1.5 -1.625,3.25 -2.875,2.125 -3.25,5.625 -3.125,-4.25 -3.875,0.375 -3.5,6 -3.5,-1.375 -0.625,-1.875 2.625,-1 -2.125,-2 -2.375,0.875 0.875,1.625 -1.5,1.375 -3.375,-1.375 -6.375,2.5 -3,3.25 0.375,2.5 3.5,0.875 2,2.125 2.5,0.875 -0.25,4 3.125,1.25 1.125,-2.625 1.375,2.75 -0.625,1.5 0.625,1.5 -2.75,3 -0.625,3.875 -4,1 -0.375,1.625 -3.625,0 -5.75,0.25 -0.375,-2.875 0,-3.125 -2,0.25 0.25,5 -3.5,2.5 -1.5,-1.25 -1.75,2 -2.25,-3.25 -2.25,-1 -0.375,-1.5 -2,-2 -1.5,2.25 -1.75,0.5 -0.875,2.5 -4.125,-0.375 -1.875,2.625 1.875,2.875 2.125,1.125 -0.25,2.875 2.625,0.25 1.125,-1.375 2,2.125 -3.875,2 -3.25,3.125 -2.75,-0.75 z"
     id="path3845"
     style="fill:#940000;fill-opacity:1;stroke:#000000;stroke-width:1px;stroke-linecap:butt;stroke-linejoin:miter;stroke-opacity:1" />
  <path
     d="m 203.78945,802.49706 0.65542,-1.12358 1.87264,-1.12358 1.07676,-1.68537 1.31084,-0.65543 1.26403,-1.91945 1.73219,0.70224 1.68537,-1.17039 0.46816,-1.87264 0.60861,-1.779 1.31084,-0.93632 -0.14045,-1.26403 1.26403,-1.59174 2.80895,1.40448 0,2.01308 -1.07676,3.27711 -0.0936,2.71532 1.35766,0.84269 2.48124,2.62169 2.43442,0.0936 0.60861,1.40447 -0.0468,1.26403 0.74905,0.93632 -1.12358,3.97935 -1.82581,-0.79587 -1.49811,1.4981 -0.0468,1.77901 -2.20034,2.01308 -4.26025,-0.8895 -3.88571,-0.98314 -1.63856,-1.40447 0.2809,-1.82582 -2.01309,-0.98313 -1.07676,-1.21722 z"
     id="path5215"
     style="fill:#ffcc00;fill-opacity:1;stroke:#000000;stroke-opacity:1" />
  <path
     d="m 289.32733,766.56826 57.85149,-59.10843 59.83059,33.48709 15.52538,71.33673 -22.78921,20.08282 -19.681,-11.75054 -9.15957,1.18575 -19.71818,28.82088 -23.72989,22.97191 -14.41055,-24.91658 -19.84138,-12.86425 -1.23165,-9.99702 z"
     id="path3958"
     style="fill:url(#veniceGradient);fill-opacity:1;stroke:none" />
  <path
     d="m 270.12712,807.46822 0.92691,-2.25106 7.68008,-4.50212 1.45657,-5.1642 -4.10487,-1.32415 -2.64831,-3.4428 2.25106,-4.76694 -2.25106,-4.23729 4.3697,-9.40149 6.75318,-3.84004 4.76695,-1.32415 3.15296,2.86991 2.97779,-0.21859 1.61387,-1.84018 3.69951,-0.49301 3.13163,-3.91671 9.54697,2.12221 0.87979,-3.15044 4.69912,-3.27026 8.28756,-3.33565 -2.09148,-2.32919 1.11234,-1.93067 3.97246,-0.72829 10.47003,11.5872 -13.05182,17.51984 7.24876,0.83296 1.64171,2.96939 1.96836,-0.53143 2.78607,2.46146 17.86962,2.70031 3.70764,6.95179 -0.67589,2.75697 1.62649,0.2482 3.60087,2.75054 -2.99439,1.53046 3.60414,4.18334 2.59319,0.24529 0.85915,-1.64121 3.45666,1.18416 1.8416,4.309 -0.99848,2.82273 2.31463,3.59714 3.10688,-2.02534 7.48273,4.36616 6.65327,-1.54958 2.50857,2.85015 1.42102,-2.81298 4.91311,0.0266 1.31467,3.67168 -2.85681,1.30979 -1.94986,-2.59425 -1.88058,1.91578 1.26771,11.05717 -7.54767,-2.78072 -5.95869,0.26483 -2.38347,-5.29661 -4.3697,-3.04555 -2.25106,0.79449 -3.97246,0 -2.51589,4.10487 -0.26483,5.1642 -2.25106,2.38347 2.11864,4.23729 -3.31038,4.10487 -3.57521,2.11865 -3.17797,-1.19174 -3.84004,3.44279 -8.34216,5.42903 -2.94517,-4.59119 -2.82841,0.23653 -1.9065,2.89809 -1.84178,-3.68573 -7.92459,0.44099 -5.55127,-2.48797 -1.13374,-5.94506 1.14561,-2.75367 -2.42612,0.65724 -3.24129,-0.47934 -0.69674,-3.48939 -2.60211,0.0643 0.11456,3.68148 -2.53236,-1.8923 -1.92138,0.89323 -2.33096,-2.85934 -2.74345,0.0529 -0.0876,-2.01497 -3.56629,-1.66059 3.9466,-4.1233 -1.121,-2.16332 -4.10495,4.54831 -6.72397,5.87421 -7.35846,-3.31439 -3.84004,-2.78072 -3.97246,-4.3697 -7.28283,-2.38348 1.45656,-8.60699 z"
     id="path5217"
     style="fill:#ffcc00;fill-opacity:1;stroke:#000000;stroke-width:1px;stroke-linecap:butt;stroke-linejoin:miter;stroke-opacity:1" />
  <path
     d="m 359.90466,728.41631 0.92691,-2.25106 1.58898,-0.39725 0.92691,-2.11864 1.58898,-0.13241 0,-2.38348 2.91314,0.52966 0.66207,3.17797 -0.9269,0.52966 3.17796,1.05932 0.66208,4.10487 -1.85381,1.45657 -1.85382,-1.19174 -1.58898,0.92691 -3.97246,-2.38347 z"
     id="path5219"
     style="fill:#ffd42a;fill-opacity:1;stroke:#000000;stroke-opacity:1" />
</svg>
