<?xml version="1.0" encoding="UTF-8" standalone="no"?>
<!-- Created with Inkscape (http://www.inkscape.org/) -->

<svg
   xmlns:dc="http://purl.org/dc/elements/1.1/"
   xmlns:cc="http://creativecommons.org/ns#"
   xmlns:rdf="http://www.w3.org/1999/02/22-rdf-syntax-ns#"
   xmlns:svg="http://www.w3.org/2000/svg"
   xmlns="http://www.w3.org/2000/svg"
   xmlns:sodipodi="http://sodipodi.sourceforge.net/DTD/sodipodi-0.dtd"
   xmlns:inkscape="http://www.inkscape.org/namespaces/inkscape"
   version="1.1"
   width="2000"
   height="2000"
   id="svg"
   inkscape:version="0.91 r13725"
   sodipodi:docname="claims.svg">
  <sodipodi:namedview
     pagecolor="#ffffff"
     bordercolor="#666666"
     borderopacity="1"
     objecttolerance="10"
     gridtolerance="10"
     guidetolerance="10"
     inkscape:pageopacity="0"
     inkscape:pageshadow="2"
     inkscape:window-width="1538"
     inkscape:window-height="878"
     id="namedview108"
     showgrid="false"
     inkscape:zoom="0.3337544"
     inkscape:cx="981.74272"
     inkscape:cy="963.10568"
     inkscape:window-x="-8"
     inkscape:window-y="172"
     inkscape:window-maximized="1"
     inkscape:current-layer="svg" />
  <defs
     id="defs4">
    <linearGradient
       x1="520.29034"
       y1="672.76587"
       x2="527.78705"
       y2="680.26257"
       id="havenGradient"
       gradientUnits="userSpaceOnUse"
       gradientTransform="matrix(1.0125,0,0,1.0125,-12.504738,-17.567779)"
       spreadMethod="repeat">
      <stop
         id="stop3816"
         style="stop-color:#ff62ad;stop-opacity:1"
         offset="0" />
      <stop
         id="stop3826"
         style="stop-color:#ff62ad;stop-opacity:1"
         offset="0.5" />
      <stop
         id="stop3828"
         style="stop-color:#ff62ad;stop-opacity:0"
         offset="0.5" />
      <stop
         id="stop3818"
         style="stop-color:#ff62ad;stop-opacity:0"
         offset="1" />
    </linearGradient>
    <linearGradient
       x1="520.29034"
       y1="672.76587"
       x2="527.78705"
       y2="680.26257"
       id="veniceGradient"
       gradientUnits="userSpaceOnUse"
       gradientTransform="matrix(1.0125,0,0,1.0125,-12.504738,-17.567779)"
       spreadMethod="repeat">
      <stop
         id="stop4110"
         style="stop-color:#ffd42a;stop-opacity:1"
         offset="0" />
      <stop
         id="stop4112"
         style="stop-color:#ffd42a;stop-opacity:1"
         offset="0.5" />
      <stop
         id="stop4114"
         style="stop-color:#ffd42a;stop-opacity:0"
         offset="0.5" />
      <stop
         id="stop4116"
         style="stop-color:#ffd42a;stop-opacity:0"
         offset="1" />
    </linearGradient>
  </defs>
  <metadata
     id="metadata7">
    <rdf:RDF>
      <cc:Work
         rdf:about="">
        <dc:format>image/svg+xml</dc:format>
        <dc:type
           rdf:resource="http://purl.org/dc/dcmitype/StillImage" />
        <dc:title></dc:title>
      </cc:Work>
    </rdf:RDF>
  </metadata>
  <path
     d="m 551.1099,624.40299 c -36.97045,0 -66.9375,29.96705 -66.9375,66.9375 0,36.97045 29.96705,66.9375 66.9375,66.9375 32.34914,0 59.35176,-22.93365 65.59375,-53.4375 0.18923,-0.92475 0.34933,-1.87429 0.5,-2.8125 0.008,-0.0522 0.0234,-0.10412 0.0312,-0.15625 0.17955,-1.19375 0.32455,-2.3655 0.4375,-3.4375 0.0946,-0.89753 0.17581,-1.67832 0.21875,-2.40625 0.0108,-0.15603 0.0215,-0.31242 0.0312,-0.46875 0.0872,-1.39829 0.15625,-2.7985 0.15625,-4.21875 0,-1.03988 -0.0469,-2.06546 -0.0937,-3.09375 l -0.5312,-0.8125 4.625,-6.625 0.125,-27.0625 c 3.11983,-0.0195 5.65662,-2.57077 5.65625,-5.6875 -3.7e-4,-3.11674 -2.53952,-5.62537 -5.65625,-5.625 l -5.09375,0.0312 -7.65625,8 2.5,2.40625 -2.78125,0.90625 -1.96875,5.09375 -1.21875,-4.03125 -1.75,-2.53125 -3.40625,-0.71875 -1.6875,-6.3125 2.0625,-5.1875 -3.6875,-5.1875 -2.3125,2.59375 -7.96875,-0.84375 -2.90625,3.5313 -6.625,-1.625 -4.125,-0.75 -6.5,-3.375 -1.5,-8.125 0.1875,-0.28125 c -0.38471,-0.0859 -0.76907,-0.17077 -1.15625,-0.25 -4.35769,-0.89171 -8.8787,-1.375 -13.5,-1.375 z"
     id="path3791"
     style="fill:url(#havenGradient);fill-opacity:1;stroke:none" />
  <path
     d="m 670.82865,669.93424 c 0,0.125 -0.28125,1.40625 -0.28125,1.40625 l 1.625,0.125 0.34375,-1.4375 z"
     id="path3009"
     style="fill:#00b0ff;fill-opacity:1;stroke:#000000;stroke-width:1px;stroke-linecap:butt;stroke-linejoin:miter;stroke-opacity:1" />
  <path
     d="m 688.20365,751.05924 c -0.0625,0.625 -1.1875,5 -1.1875,5 l 2,2.5625 3.5,2.25 2.1875,-2.0625 1.375,0.3125 c 0,0 5.125,-5.4375 4.875,-5.5625 -0.25,-0.125 -5,-2.6875 -5,-2.6875 l 0.875,-3.125 0.1875,-3.25 -4.25,1.5 -2.875,1.1875 -0.125,4 z"
     id="path3011"
     style="fill:#00b0ff;fill-opacity:1;stroke:#000000;stroke-width:1px;stroke-linecap:butt;stroke-linejoin:miter;stroke-opacity:1" />
  <path
     d="m 716.14115,750.74674 c -0.25,0.125 -1.9375,2.1875 -1.9375,2.1875 l 2.75,2 5,0.125 1.625,0.5625 1.75,-0.5625 -2.5625,-2 0.6875,-1.5625 -1.4375,-0.3125 -2.5625,-0.3125 z"
     id="path3013"
     style="fill:#00b0ff;fill-opacity:1;stroke:#000000;stroke-width:1px;stroke-linecap:butt;stroke-linejoin:miter;stroke-opacity:1" />
  <path
     d="m 787.70365,587.18424 c 1.9375,1.6875 7.3125,7 7.3125,7 l 3.5,-3.375 2.0625,0.375 c 0,0 2.8125,-2.75 2.5,-3 -0.3125,-0.25 -1.4375,-2.375 -1.4375,-2.375 l 2.0625,-2.3125 -0.125,-2.3125 -2.5625,-1.5 -0.5,-1.875 -2,-1.6875 1.375,-4.9375 3.5625,-2.625 -1.8125,-2.375 2.1875,-1.3125 1.8125,1.0625 2.1875,-0.25 2.3125,1.75 -1,0.875 0.5625,3.125 -2.4375,5.375 5.9375,-1.0625 0.25,-4 2.625,-2.625 1.6875,-2.1875 6,-5.0625 1,-4.125 2.25,-0.875 4.3125,-5.5 -4.8125,-2.9375 0,-10 1.5,-2 -0.125,-3.3125 -5.5625,-1.875 -0.8125,-2.125 2.125,-1.6875 2,1.6875 2.8125,-2.5625 2.25,-6.25 -4.1875,-2.0625 -2.5625,-4.4375 -2,-1.375 -1.4375,0.4375 -3.75,-2.6875 -1.375,0.5 -0.75,1.9375 -2.9375,1.5625 -2.0625,-2.8125 -3.375,0.375 -2.8125,0.625 -2.5,1.6875 -3.125,6.1875 -7.75,3.125 0.3125,3.3125 -1.625,1.625 1.25,2.25 -2.0625,2.125 0.25,1.625 1.5,1.1875 -0.6875,1.1875 -1.75,-0.5 -5.9375,1.125 -2.125,3.6875 2.9375,1.375 1.8125,-0.5625 2,2.1875 -2.1875,3.375 2.4375,5.4375 2.875,-1.375 0.6875,1.4375 -2.8125,2.125 0.9375,2 1.75,0 1.875,1.8125 -1.4375,0.6875 -1.9375,-0.625 -1.0625,-0.8125 -2.25,3.1875 3,3.875 3.3125,4 0.1875,2.1875 1.75,4 -2.0625,2.125 -2.75,-0.5625 -0.9375,1.25 2.8125,2.8125 -1.875,2 -0.1875,2.5625 2,0.875 z"
     id="path3015"
     style="fill:#00b0ff;fill-opacity:1;stroke:#000000;stroke-width:1px;stroke-linecap:butt;stroke-linejoin:miter;stroke-opacity:1" />
  <path
     d="m 700.01615,706.49674 0.9375,0.875 0.625,1 0,1.3125 -0.6875,0.75 0.8125,0.75 1,-0.5625 -0.625,-1.1875 0.1875,-1.0625 0.875,-0.25 0.125,-2.1875 0.0625,-1.5 -1.125,0.3125 -0.125,1.1875 z"
     id="path3017"
     style="fill:#00b0ff;fill-opacity:1;stroke:#000000;stroke-width:1px;stroke-linecap:butt;stroke-linejoin:miter;stroke-opacity:1" />
  <path
     d="m 626.76615,598.74674 2.9375,-0.75 -0.4375,2.25 -2.4375,0 z"
     id="path3019"
     style="fill:#00b0ff;fill-opacity:1;stroke:#000000;stroke-width:1px;stroke-linecap:butt;stroke-linejoin:miter;stroke-opacity:1" />
  <path
     d="m 949.41058,305.07466 2.65165,1.76777 2.91682,-1.85616 -2.03293,-1.94454 0.17677,-3.35876 -1.32582,-0.26516 -0.17678,3.88909 z"
     id="path3021"
     style="fill:#00b0ff;fill-opacity:1;stroke:#000000;stroke-width:1px;stroke-linecap:butt;stroke-linejoin:miter;stroke-opacity:1" />
  <path
     d="m 954.14053,296.39043 c 0.17677,0.53033 0.61872,6.27557 0.61872,6.27557 l 1.94454,2.56326 2.38648,2.20971 0.17678,2.74004 2.74004,1.23744 3.0052,-1.591 5.03814,-3.62392 2.47487,0.7955 4.94975,-2.47488 3.09359,-5.12652 -1.94454,-2.65165 0.53033,-2.03293 -3.27037,1.5026 -2.2981,-0.53033 -3.09359,4.77297 -4.06586,0.0884 -1.41422,-2.38649 -3.8007,2.56327 -3.71231,-2.2981 2.03294,-0.88389 -2.65165,-2.29809 z"
     id="path3023"
     style="fill:#00b0ff;fill-opacity:1;stroke:#000000;stroke-width:1px;stroke-linecap:butt;stroke-linejoin:miter;stroke-opacity:1" />
  <path
     d="m 959.75235,288.54671 c -0.97227,0.61872 -4.24264,2.38649 -4.24264,2.38649 l 0.35356,1.23743 4.41941,1.50261 1.85616,2.12132 3.8007,-0.35356 3.62392,3.00521 1.67938,-1.23744 2.65165,-4.94975 -2.03293,0.0884 -3.27037,3.18198 -2.47487,-1.59099 -2.74004,-1.41421 -2.12132,0.17677 z"
     id="path3025"
     style="fill:#00b0ff;fill-opacity:1;stroke:#000000;stroke-width:1px;stroke-linecap:butt;stroke-linejoin:miter;stroke-opacity:1" />
  <path
     d="m 964.35884,276.08721 0,1.8125 0.75,1.5625 -0.25,1.4375 1.25,0.5 1,-1.375 z"
     id="path3027"
     style="fill:#00b0ff;fill-opacity:1;stroke:#000000;stroke-width:1px;stroke-linecap:butt;stroke-linejoin:miter;stroke-opacity:1" />
  <path
     d="m 969.92875,272.56867 c 0,0.3125 -0.9375,2.25 -0.9375,2.25 l -1.75,1.4375 3.0625,4.25 -0.0625,3.875 -2.125,3.125 1.625,1.25 -0.5,1.125 0.8125,1.3125 3.6875,0.3125 2.125,2.0625 4.4375,-3.8125 7.1875,-0.625 4,3.875 2.56253,0.4375 3.4375,4.5 0.9375,3.8125 2.93752,1.125 2.875,-2.875 0,-27.25 -32.68755,0 z"
     id="path3029"
     style="fill:#00b0ff;fill-opacity:1;stroke:#000000;stroke-width:1px;stroke-linecap:butt;stroke-linejoin:miter;stroke-opacity:1" />
  <path
     d="m 734.28125,529.875 -26.46875,26.46875 -21.1875,0 -2.09375,2.34375 0,3 1.125,2.125 -3.1875,-0.625 0.28125,-1.15625 -2.5625,-1.15625 -1,1.5 -6.5,-3.78125 -9.375,13.25 -4.59375,3.53125 -2.5625,-4.25 1.84375,-2.1875 -4.78125,-4.5 -5.8125,-1.53125 -4.34375,3.71875 -6.28125,0.375 -4.15625,-5.125 -7.5,5.5625 -2.46875,-2.125 -3.09375,2.125 -1.875,-2.5 -5.03125,6.90625 2.375,2.03125 -1.21875,4.96875 4.3125,3.09375 3.71875,0.6875 -2.03125,3.625 4.875,4.25 4.15625,-3.4375 -1,-2.125 0.875,-1.25 3.375,0.25 0.625,-2.125 -0.375,-3.625 0.625,-3.125 1.5,4.25 2.75,-0.125 0.25,3.5 6,5.25 3,6.25 5,2.125 8.875,-3.375 3.25,-2.375 3.75,-6.875 9.375,0.75 3.5,5.25 2.75,-4.375 3.875,0.375 c 0,0 -0.875,2.875 -1.375,3.125 -0.5,0.25 -4.375,1.875 -4.375,1.875 l 0.125,3.25 -8,-2.625 -2.25,3.75 -4.875,1.625 0.125,7 1.875,4 -2,3.625 -5.375,-0.125 -6.125,6.125 -5.875,-2.25 -2.125,-5.25 -4,-3 6.375,-3.625 3,1.125 3.5,-4 -1,-2.625 -7.25,0.125 -6.125,6 -3.25,-0.5 -0.125,3.25 -5.25,-3.5 -4.5,0 -4.375,3.5 -3.375,-2.5 -6.125,4.125 -7,-5.25 -5.375,3.5 -2.375,9.625 -12.125,-6.375 -2,1.125 -3.75,-1.25 -7.625,9.5 -3.5,0 -4.75,7.25 1.5,8.125 6.5,3.375 4.125,0.75 6.625,1.625 2.90625,-3.53125 7.96875,0.84375 2.3125,-2.59375 3.6875,5.1875 -2.0625,5.1875 1.6875,6.3125 3.40625,0.71875 1.75,2.53125 1.21875,4.03125 1.96875,-5.09375 2.78125,-0.90625 -2.5,-2.40625 7.65625,-8 5.09375,-0.0312 c 3.11673,-3.7e-4 5.65588,2.50826 5.65625,5.625 3.7e-4,3.11673 -2.53642,5.66805 -5.65625,5.6875 l -0.125,27.0625 -4.625,6.625 4.375,6.5 -3.90625,1.625 c -0.15473,3.27766 -0.93471,9.10241 -2.09375,13.28125 l 4.25,-0.625 1.59375,2.65625 2.90625,1.25 2.8125,-1.78125 4.0625,2.03125 2.84375,-1.59375 2.03125,0.90625 8.75,0.78125 3.375,-1.0625 3.96875,-1.15625 -0.0937,-3.625 2.03125,-3.6875 3.96875,-1.875 4.53125,3.09375 4.75,4.4375 3.09375,-3.09375 2.65625,2.125 0.4375,8.46875 -2.65625,3.09375 -4.59375,3.28125 -3.78125,2.71875 -1.59375,2.5 2.5625,1.59375 4.9375,-0.90625 3.09375,4 1.5,3.09375 -0.59375,3.53125 0.0625,2.46875 -2.71875,3.28125 0.875,1.3125 c 0,0 -0.89553,1.7768 -0.71875,2.21875 0.17677,0.44194 5.3125,7.25 5.3125,7.25 l 3.4375,-2.5 -0.34375,-4.21875 2.125,-2.5625 0.78125,-4 3.09375,-2.5625 3.71875,-0.53125 1.5,-3.78125 1.5,-1.78125 -1.0625,-2.21875 2.125,-1.84375 -2.46875,-6 -3.09375,0.0937 -0.4375,-1.0625 3,-1.0625 0.28125,-2.5 2.1875,-1.5625 0.53125,-2.5 -1.65625,-1.21875 -2.21875,-0.1875 0.875,-2.375 -0.4375,-1.6875 -0.28125,-2.03125 -2.71875,-0.71875 -2.125,-1.59375 -2.03125,-4.9375 c 0,0 5.1152,-5.21339 5.46875,-5.125 0.35355,0.0884 3.09375,-0.4375 3.09375,-0.4375 l 0.375,-2.21875 -1.875,-1.15625 -3.78125,-3.96875 -3.5625,-0.0937 -1.21875,4.0625 -4.15625,-3.875 -6.625,-4.34375 -9.125,-6.8125 0.625,-1.5 2.84375,1.5 1.3125,-4.59375 -4.25,-2.5625 -0.34375,-2.46875 -0.875,-1.59375 1.9375,-1.9375 -1.5,-0.625 -3.375,1.25 0.0937,-1.59375 0.96875,-1.78125 -2.1875,-3.625 0.96875,-1.125 2.1875,-0.375 1.59375,-1.5 2.75,-1.3125 2.3125,2.21875 -1,2.71875 -2.8125,1.25 -0.34375,2.46875 2.90625,2.3125 1.40625,0.59375 0.28125,1.875 -2.75,1.15625 2.375,2.5625 2.5,0.25 1.65625,-1.84375 -1.9375,-2.3125 -0.34375,-1.59375 1.40625,0.71875 1.59375,2.8125 0.78125,1.0625 1.78125,-1.40625 1.8125,-1.625 3.3125,0 -2.90625,-2 1.40625,-1.6875 3.09375,2.84375 1.84375,1.5 1.78125,4.59375 -0.625,3.71875 -1.3125,1.15625 0.875,2.03125 2.46875,0 2.125,2.90625 2.5625,0.625 2.75,-0.71875 -0.71875,-1.6875 0.96875,-1.65625 2.5625,1.3125 0.53125,2.5625 3.53125,2.21875 2.75,-0.28125 2.90625,4.59375 3.8125,5.3125 -1.25,1.78125 2.5,1.0625 2.625,0.25 0.28125,3.625 -2.21875,-0.25 -1.84375,2.375 5.3125,5.65625 3.53125,2.375 3.1875,0.375 3.53125,-2.5625 1.125,3 -2.46875,1.40625 -6.28125,1.59375 -3,8.5625 -4.75,-0.25 -3.46875,1.21875 0.96875,4 -1.9375,2.65625 -2.8125,5.46875 3.625,3.875 2.90625,-3.6875 3.28125,0.96875 5.03125,-3.90625 3.53125,-0.15625 -0.53125,1.9375 1.6875,2.8125 2.8125,1.59375 3,2.65625 2.03125,-1.6875 4.53125,-0.875 -2.4375,-3.53125 c -0.82992,0.49464 -1.77618,0.78125 -2.8125,0.78125 -3.0639,0 -5.5625,-2.46735 -5.5625,-5.53125 0,-3.0639 2.4986,-5.5625 5.5625,-5.5625 3.0639,0 5.53125,2.4986 5.53125,5.5625 0,0.41714 -0.0377,0.79667 -0.125,1.1875 l 3.625,-3.875 0.625,-3.1875 1.59375,-1.75 0.1875,-2.03125 1.5,0.25 1.3125,2.03125 2.40625,-1.65625 -0.625,-2.75 -1.5,-1.5 -2.3125,0.53125 -1.5,-3.09375 0.4375,-2.65625 3.09375,-1.3125 1.25,-1.875 1.84375,-3 2.40625,0.1875 -1.78125,0.875 -0.28125,6 c 0,0 8.32323,8.92326 8.5,9.71875 0.17678,0.7955 0,6.375 0,6.375 l 4.59375,0.1875 9.375,-4.6875 5.03125,-5.5625 -4.0625,-5.59375 3.4375,-5.375 -6.09375,-6.46875 6.71875,-4.5 -9.375,-10.15625 -3.875,0 -2.75,-4.6875 -4.84375,-1.4063 -0.90625,-2.40625 2.5,-0.59375 -3.28125,-1.6875 -4.5,0.25 2.03125,-2.65625 2.65625,-0.0625 0.59375,-1.34375 2.3125,0.96875 3.1875,-4.0625 2.125,3.53125 1.21875,1.4375 -0.625,2.90625 3.28125,-0.28125 1.5,-2.90625 -2.65625,-3 1.59375,-3.375 2.5625,-1.125 c 0,0 -0.35355,-3.61963 0,-3.53125 0.35356,0.0884 1.6875,-1.78125 1.6875,-1.78125 l -1.59375,-2.90625 1.0625,-1.4375 2.8125,-0.25 0.375,2.03125 -1.25,0.4375 0.1875,4.25 6.625,0.1875 5.90625,-0.375 2.0625,0.96875 2.8125,-3.875 2.75,1.3125 -1.34375,3.625 6.1875,-0.78125 2.84375,-4.96875 -2.40625,-5.28125 -2.28125,-4.59375 -3.71875,-1.25 -5.65625,0.96875 7.59375,-8.03125 -0.4375,-2.3125 3.4375,-1.9375 1.875,-2.90625 2.5625,0.4375 1.75,2.375 1.53125,-0.875 -1.34375,-3 3.09375,-2.125 -1.75,-1.875 1.75,-2.09375 -2.125,-2.5625 0.96875,-2.75 -1.0625,-0.875 0.90625,-1.78125 1.3125,-4.5 -4.84375,-6.625 -2.9375,3.53125 -3,-1.78125 -1.9375,0.875 -2.125,-2.03125 -6,3.09375 0.4375,6.28125 -4.59375,1.875 -2.40625,-2.5 -8.90625,6.125 -10.25,0.6875 1.84375,-11.21875 8.40625,3.71875 5.5625,-3.4375 -1.78125,-4.625 3.90625,-5.125 -4.875,-3.625 -1.6875,0.375 -0.15625,1.21875 -2.5625,-0.34375 0.25,-3.8125 1.40625,-1.84375 4.53125,-0.625 0.53125,-2.65625 1.9375,-1.0625 -1.59375,-3.78125 -3.09375,1.9375 -8.21875,-14.3125 0.78125,-4.6875 -3.78125,-0.0937 -1.59375,-5.65625 2.46875,-3.28125 1.6875,0.8125 3.4375,1.15625 4.0625,-4.96875 -1.5,-5.90625 -3.78125,-1.78125 L 760,548.3438 l -3.34375,6.53125 -3.1875,0.1875 -2.21875,3.4375 -3.8125,-2.03125 -5.03125,1.6875 -1.40625,2.5625 -0.4375,-3.8125 6.34375,-1.59375 -0.15625,-2.5625 -1.0625,-2.46875 7.59375,-0.34375 0.28125,-2.65625 -1.6875,-1.0625 2.8125,-0.71875 1.15625,1.15625 1.78125,-0.71875 0.0625,-2.03125 2.84375,-4.15625 -1.3125,-3.625 -2.5,0 -1.3125,0.71875 -1.78125,-2.125 -1.9375,-0.53125 -1.3125,-2.46875 -1.6875,0 -2.125,-1.84375 -12.28125,0 z m 52.46875,132.03125 -3,3.96875 -2.1875,-1.15625 -2,1.875 2.28125,0.875 -0.84375,0.96875 1.34375,2.09375 2.21875,-0.96875 0.75,-4.28125 2.125,-2.4375 -0.6875,-0.9375 z m -8.125,2.28125 -2.71875,0.4375 -1,0.84375 2.15625,1.625 1.5625,-2.90625 z"
     id="path3007"
     style="fill:#00b0ff;fill-opacity:1;stroke:#000000;stroke-width:1px;stroke-linecap:butt;stroke-linejoin:miter;stroke-opacity:1" />
  <path
     d="m 595.75072,691.34518 a 44.627281,44.627281 0 0 1 -89.25456,0 44.627281,44.627281 0 1 1 89.25456,0 z"
     id="path3809"
     style="fill:#ff62ad;fill-opacity:1;stroke:none" />
  <path
     d="m 920.57865,614.18424 10.125,14.75 6.5,8.375 5.375,3.5 6.375,5 1.875,-1.375 2,1.25 -3,2.625 3,5.5 3.875,0.5 -0.625,2.125 -2.75,0 -0.25,3.875 3.75,2.25 -0.375,3.5 4.125,1.875 2.625,-1.625 2.5,1.25 7.25,-1.75 2.125,0.625 2.125,-1.25 -2.25,-1.75 2.125,-0.5 6.375,-4.5 -3.625,-2.125 0.75,-3.75 -6.625,-6.375 2,-1.75 1.125,-5.375 5.625,-4.5 5.875,-3.5 -2.25,-3.375 1.375,-4.375 2.5,-1.5 -0.375,-2.375 2.625,1.125 2.99994,-2.875 3.25,0.25 1.125,-4.25 3.75001,2.75 -1.5,2.625 2.625,0.625 1.75,-3.375 2.375,0.375 4.75,-4.875 1.5,-5.75 4,-3.625 -3.875,-8.5 -3.875,-1.5 2.375,-7.125 2.5,-4 3.25,-4.375 -3.25,-3.125 -5.125,1.375 0.875,-4.375 -4.25,0.375 -0.375,-3.375 -1.75,-1.125 -0.375,-1.5 -4.125,1.125 -1.75001,1.625 0,-2.25 -4.62494,-8.125 -2.75,-4.375 -3,2.375 -0.125,1.5 -1.625,3.25 -2.875,2.125 -3.25,5.625 -3.125,-4.25 -3.875,0.375 -3.5,6 -3.5,-1.375 -0.625,-1.875 2.625,-1 -2.125,-2 -2.375,0.875 0.875,1.625 -1.5,1.375 -3.375,-1.375 -6.375,2.5 -3,3.25 0.375,2.5 3.5,0.875 2,2.125 2.5,0.875 -0.25,4 3.125,1.25 1.125,-2.625 1.375,2.75 -0.625,1.5 0.625,1.5 -2.75,3 -0.625,3.875 -4,1 -0.375,1.625 -3.625,0 -5.75,0.25 -0.375,-2.875 0,-3.125 -2,0.25 0.25,5 -3.5,2.5 -1.5,-1.25 -1.75,2 -2.25,-3.25 -2.25,-1 -0.375,-1.5 -2,-2 -1.5,2.25 -1.75,0.5 -0.875,2.5 -4.125,-0.375 -1.875,2.625 1.875,2.875 2.125,1.125 -0.25,2.875 2.625,0.25 1.125,-1.375 2,2.125 -3.875,2 -3.25,3.125 -2.75,-0.75 z"
     id="path3845"
     style="fill:#940000;fill-opacity:1;stroke:#000000;stroke-width:1px;stroke-linecap:butt;stroke-linejoin:miter;stroke-opacity:1" />
  <path
     d="m 198.73334,793.41478 0.65542,-1.12358 1.87264,-1.12358 1.07676,-1.68537 1.31084,-0.65543 1.26403,-1.91945 1.73219,0.70224 1.68537,-1.17039 0.46816,-1.87264 0.60861,-1.779 1.31084,-0.93632 -0.14045,-1.26403 1.26403,-1.59174 2.80895,1.40448 0,2.01308 -1.07676,3.27711 -0.0936,2.71532 1.35766,0.84269 2.48124,2.62169 2.43442,0.0936 0.60861,1.40447 -0.0468,1.26403 0.74905,0.93632 -1.12358,3.97935 -1.82581,-0.79587 -1.49811,1.4981 -0.0468,1.77901 -2.20034,2.01308 -4.26025,-0.8895 -3.88571,-0.98314 -1.63856,-1.40447 0.2809,-1.82582 -2.01309,-0.98313 -1.07676,-1.21722 z"
     id="path5215"
     style="fill:#ffcc00;fill-opacity:1;stroke:#000000;stroke-opacity:1" />
  <path
     d="m 284.27122,757.48598 57.85149,-59.10843 59.83059,33.48709 15.52538,71.33673 -22.78921,20.08282 -19.681,-11.75054 -9.15957,1.18575 -19.71818,28.82088 -23.72989,22.97191 -14.41055,-24.91658 -19.84138,-12.86425 -1.23165,-9.99702 z"
     id="path3958"
     style="fill:url(#veniceGradient);fill-opacity:1;stroke:none" />
  <path
     d="m 265.07101,798.38594 0.92691,-2.25106 7.68008,-4.50212 1.45657,-5.1642 -4.10487,-1.32415 -2.64831,-3.4428 2.25106,-4.76694 -2.25106,-4.23729 4.3697,-9.40149 6.75318,-3.84004 4.76695,-1.32415 3.15296,2.86991 2.97779,-0.21859 1.61387,-1.84018 3.69951,-0.49301 3.13163,-3.91671 9.54697,2.12221 0.87979,-3.15044 4.69912,-3.27026 8.28756,-3.33565 -2.09148,-2.32919 1.11234,-1.93067 3.97246,-0.72829 10.47003,11.5872 -13.05182,17.51984 7.24876,0.83296 1.64171,2.96939 1.96836,-0.53143 2.78607,2.46146 17.86962,2.70031 3.70764,6.95179 -0.67589,2.75697 1.62649,0.2482 3.60087,2.75054 -2.99439,1.53046 3.60414,4.18334 2.59319,0.24529 0.85915,-1.64121 3.45666,1.18416 1.8416,4.309 -0.99848,2.82273 2.31463,3.59714 3.10688,-2.02534 7.48273,4.36616 6.65327,-1.54958 2.50857,2.85015 1.42102,-2.81298 4.91311,0.0266 1.31467,3.67168 -2.85681,1.30979 -1.94986,-2.59425 -1.88058,1.91578 1.26771,11.05717 -7.54767,-2.78072 -5.95869,0.26483 -2.38347,-5.29661 -4.3697,-3.04555 -2.25106,0.79449 -3.97246,0 -2.51589,4.10487 -0.26483,5.1642 -2.25106,2.38347 2.11864,4.23729 -3.31038,4.10487 -3.57521,2.11865 -3.17797,-1.19174 -3.84004,3.44279 -8.34216,5.42903 -2.94517,-4.59119 -2.82841,0.23653 -1.9065,2.89809 -1.84178,-3.68573 -7.92459,0.44099 -5.55127,-2.48797 -1.13374,-5.94506 1.14561,-2.75367 -2.42612,0.65724 -3.24129,-0.47934 -0.69674,-3.48939 -2.60211,0.0643 0.11456,3.68148 -2.53236,-1.8923 -1.92138,0.89323 -2.33096,-2.85934 -2.74345,0.0529 -0.0876,-2.01497 -3.56629,-1.66059 3.9466,-4.1233 -1.121,-2.16332 -4.10495,4.54831 -6.72397,5.87421 -7.35846,-3.31439 -3.84004,-2.78072 -3.97246,-4.3697 -7.28283,-2.38348 1.45656,-8.60699 z"
     id="path5217"
     style="fill:#ffcc00;fill-opacity:1;stroke:#000000;stroke-width:1px;stroke-linecap:butt;stroke-linejoin:miter;stroke-opacity:1" />
  <path
     d="m 354.84855,719.33403 0.92691,-2.25106 1.58898,-0.39725 0.92691,-2.11864 1.58898,-0.13241 0,-2.38348 2.91314,0.52966 0.66207,3.17797 -0.9269,0.52966 3.17796,1.05932 0.66208,4.10487 -1.85381,1.45657 -1.85382,-1.19174 -1.58898,0.92691 -3.97246,-2.38347 z"
     id="path5219"
     style="fill:#ffd42a;fill-opacity:1;stroke:#000000;stroke-opacity:1" />
  <path
     d="m 1850.9149,695.09068 11.3877,0.26483 2.7146,-0.19862 0.7282,-0.39724 0.4635,0 0.8607,0 1.4566,-0.39725 0.7282,0.33104 0.7945,0.19862 0.9269,-0.13241 0.7283,-0.99312 0.3973,-0.33104 1.2579,-0.46345 1.1917,-1.19174 -0.066,-1.25794 -0.066,-1.92002 -1.3241,-0.66208 -1.3904,-0.39725 -0.8607,0.39725 -0.7945,0.72828 -0.662,-0.66207 -0.927,-0.0662 -0.7282,-0.72828 -0.6621,-0.33104 -0.5959,-1.05932 -0.6621,-0.79449 -0.5958,0.26483 -0.2649,-0.26483 0.1987,-1.19174 0.331,-0.79449 0.1986,-0.92691 0.7945,-0.52966 0.9931,-0.19862 0.8607,0 0.5959,-0.92691 -0.4635,-0.52966 -0.7282,-0.59587 -0.4635,-0.79449 0.1986,-0.33104 0.5959,-1.05932 -0.7287,-0.39726 -0.1986,-0.39724 0.3972,-0.13242 0.5297,-0.13241 0,-0.7945 0,-1.39036 -0.3972,-0.9269 -0.1325,-0.79449 0.7283,-0.33104 0.2649,-0.79449 -0.1325,-0.92691 -0.9269,-0.46345 -0.066,-0.92691 -0.3972,-0.59587 -0.7945,-0.26483 -1.1917,0.19862 -0.7945,0.66208 -0.3311,0.79449 -0.4634,0.13242 -1.0594,0.59586 -0.1988,0.72829 -0.9269,-0.13242 -0.9269,-0.0662 -0.5297,0.72828 -0.3972,0.0662 -0.7945,-0.52966 -0.2648,-0.46346 -0.1324,-0.99311 -0.1987,-0.52966 -0.4634,-0.72829 -0.331,-0.33104 -0.5959,-0.79449 -0.3311,-0.13241 -0.4634,0.26483 -0.066,0.39724 -0.4635,0.7945 -0.1324,0.52966 -0.2648,-0.66208 -0.066,-0.46345 -0.1324,-0.19863 -0.7283,-0.13241 -0.4635,-0.26483 -0.1324,-0.72829 0.4635,-0.72828 0,-0.39725 -0.7283,-0.33103 -1.7876,-0.72829 -0.3311,0.13242 -0.5958,0.79449 0,0.0662 -0.5959,0.66207 0.2644,1.05935 0.2649,0.72828 0.1986,1.19174 0.2648,0.39724 0.3973,1.05932 -0.066,0.72829 -0.2648,0.92691 0,0.86069 0.3311,0.59587 0.5958,0.66208 0.1986,1.05932 0.1987,0.66208 0.066,0.8607 -0.2649,0.59587 -0.7282,0.86069 -0.8607,0.26484 -1.3242,0.46345 -0.331,0.26483 -0.1324,0.99311 0.331,0.52966 -0.7284,0.52967 -0.9269,0.59586 -0.4634,1.05933 0.7944,0.9269 0.3973,0.13242 0.6621,0.72828 -0.5297,0.72829 -0.7283,0.79449 -0.2648,0.52966 0.331,0.99311 0.3973,1.19174 0.1986,0.66208 0.2648,0.59587 0.7283,1.92002 0.066,0.39724 0.5959,1.19174 0.8607,0.13241 z"
     id="path4154"
     style="fill:#008000;fill-opacity:1;stroke:#000000;stroke-opacity:1" />
  <path
     d="m 1723.7817,525.82097 1.8539,-0.13241 1.1917,-0.92691 0.1324,-1.32415 -0.5297,-1.58898 -1.3241,0 -1.0593,-0.7945 -1.0594,0.66208 -0.2648,1.19174 -0.2648,1.32415 0.7945,1.19174 z"
     id="path4156"
     style="fill:#008000;fill-opacity:1;stroke:#000000;stroke-opacity:1" />
  <path
     d="m 1728.019,522.24576 2.5159,-0.79449 1.7214,-2.11864 1.4566,-0.52967 1.1917,-1.32415 -0.1324,-1.85381 -1.3241,-0.52966 -2.2511,-1.32416 0.1324,-0.79449 1.589,-0.39724 2.6483,-0.26483 1.1917,-0.66208 1.1918,0.26483 1.7214,0.66208 0.3972,2.25106 1.4566,1.19173 1.1917,-0.13241 3.0456,0.52966 3.0455,-0.13242 2.9132,0.39725 3.3103,1.7214 2.1187,1.19174 1.8538,1.45656 0.1324,1.32416 1.0593,1.85381 1.8538,0.26483 2.6484,-0.26483 2.6483,-0.13242 2.1186,0.92691 0.5297,2.78072 1.1917,1.19174 2.3835,1.05932 3.0455,1.05932 2.7807,-1.05932 0.7945,-1.85381 0.5297,-2.38348 0.9269,-0.13241 1.1917,-1.19174 1.3242,-0.39725 0.5297,-1.58898 -1.7214,-1.7214 -2.2511,-1.19173 -2.3835,-1.7214 -0.7945,-1.58899 2.3835,-1.98622 2.2511,-1.58899 1.589,-1.45657 -0.5297,-2.25105 -0.3973,-1.32416 1.1918,-1.19173 1.589,-2.11865 1.4565,-1.19174 0.9269,-2.51589 -0.7945,-1.58898 -0.9269,-1.32415 -2.1186,-1.85381 -1.589,-0.13242 -1.1917,-1.58898 -0.7945,-1.58899 -0.5297,-1.32415 -0.2648,-1.7214 -0.5297,-0.26483 0.3973,-0.66207 1.3241,-1.19174 1.8538,-0.26483 1.3242,-0.39725 2.1186,-0.79449 1.3242,0 1.7214,0 1.7214,-0.92691 2.251,-2.11864 -0.3972,-2.11864 1.4566,-1.45657 1.589,-0.92691 -0.3973,-2.91313 -1.7214,-0.13242 -1.0593,-1.32415 -1.0593,-0.79449 -1.4566,-0.26483 -0.9269,-0.26483 -0.7945,-0.66208 -0.1324,-1.58898 1.3241,-0.13242 1.7214,0 1.4566,-0.66207 1.0593,-0.52967 2.2511,-1.85381 1.1917,-1.32415 1.589,-0.92691 1.0593,0.13242 1.1918,0.26483 1.3241,1.32415 -0.1324,1.98623 0.3972,2.38347 -0.7944,0.79449 -1.4566,2.11865 -0.2648,1.19174 0.662,1.45656 0.9269,0.66208 2.1187,-1.45657 1.1917,-0.66207 0.9269,-1.32416 0.1324,-2.11864 0.6621,-3.04555 0.9269,-1.45657 1.0593,-0.79449 0.927,-1.58898 -0.1325,-2.11865 0,-1.98623 -0.2648,-1.19173 1.589,-0.52967 1.4566,-0.39724 1.1917,-1.19174 0.2648,-0.79449 -1.0593,-2.78072 -1.1917,-0.79449 -0.6621,-1.7214 -0.5297,-1.19174 1.1918,-1.58898 -0.3973,-1.05932 -0.7945,-1.32416 -1.4565,-1.19173 -1.8538,-1.05932 -1.7214,-0.92691 -0.927,-0.39725 -1.3241,0.92691 -1.589,0.92691 -1.589,1.05932 -0.2648,1.45657 -0.7945,0 -2.1186,0.52966 -1.0594,1.85381 -1.3241,0.39725 -0.9269,-0.26483 -1.3242,1.32415 -1.4565,1.05932 -0.3973,1.85381 -1.1917,0 -1.589,0.92691 -0.1324,1.19174 -0.1324,1.05932 -0.5297,0.92691 -1.1917,0.66207 -1.4566,1.32416 -0.3972,2.11864 0.5296,1.05932 -0.9269,1.05932 -1.9862,0 -1.8538,0 -0.3973,-0.79449 -0.6621,-1.32415 -0.662,-0.13242 -2.1187,0.39725 -1.1917,1.58898 -1.1918,0.66208 -1.4565,-0.39725 -1.589,-0.13241 -0.9269,0.79449 -1.1917,1.05932 -1.0594,1.19174 0.1324,1.45657 -0.2648,0.79449 -1.0593,1.98623 -0.7945,1.7214 -1.1917,2.38347 -0.2649,1.19174 0.2649,1.7214 0.662,0.26483 0.6621,0.39724 0.5297,1.19174 -0.9269,0.26483 -0.2649,0.92691 -0.2648,1.58898 -0.6621,1.05932 -0.662,1.05932 -0.927,1.05933 -0.7944,1.19173 -0.1325,1.19174 -1.1917,0.92691 -1.1917,-0.13242 -0.5297,0.92691 -1.1917,0.66208 -1.0594,0.79449 -2.3834,1.05932 -1.0593,0.52966 -1.589,0.66208 -1.589,0 -0.5297,-0.13242 -1.1917,-0.66207 -1.7214,0.39724 -0.7945,1.05932 -1.3242,0 -1.4565,0.13242 -2.2511,0.79449 -1.8538,0.26483 -1.9862,0.79449 -0.1324,0.79449 -0.6621,0.92691 -1.0593,0.79449 -3.9725,0.66208 -1.1917,-0.13242 -2.2511,-0.52966 -1.589,-0.79449 -1.4565,1.58898 -1.589,2.51589 -0.2649,2.78072 1.9863,2.38348 2.5159,2.11864 1.3241,0.92691 0.5297,1.45657 -0.9269,0.9269 -0.9269,2.11865 0.9269,0.9269 0.2648,0.92691 -1.0593,1.19174 -0.7945,1.45657 0.6621,0.66207 1.0593,1.05932 z"
     id="path4160"
     style="fill:#008000;fill-opacity:1;stroke:#000000;stroke-opacity:1" />
  <path
     d="m 1795.4184,511.25529 3.178,-1.98622 1.9862,0.39724 0.5296,0.52966 1.9863,-0.26483 1.1917,1.98623 0.9269,1.45657 -0.2648,2.11864 0.3972,1.7214 -0.1324,1.05932 -0.6621,1.85382 -0.5296,0.9269 -2.2511,0.52966 -1.1917,0 -0.7945,-1.72139 -0.3972,-1.85382 -0.6621,-0.39724 -1.4566,-0.52966 -1.3241,-0.26483 -0.3973,-1.05933 -1.1917,-2.11864 -0.2649,-1.05932 z"
     id="path4162"
     style="fill:#008000;fill-opacity:1;stroke:#000000;stroke-opacity:1" />
  <path
     d="m 1815.1483,454.71398 2.3834,0 -0.2648,-2.11864 -0.9269,-1.05932 -0.7945,-1.05933 0,-1.32415 -0.5296,-2.38347 -3.3104,0.9269 0.2648,0.79449 -0.5297,2.25106 1.0594,1.85382 z"
     id="path4164"
     style="fill:#008000;fill-opacity:1;stroke:#000000;stroke-opacity:1" />
  <path
     d="m 1815.1483,500.66207 7.8125,0 4.1048,1.32416 2.9132,2.78072 5.0318,3.97246 1.0593,1.05932 -1.9863,2.38347 0.3973,1.05932 0.1324,1.58899 -1.8538,0.52966 -1.4566,0 -1.3241,1.98623 -0.9269,1.85381 -2.1187,1.19174 -1.3241,-0.26483 -0.5297,-1.05932 -1.3241,-1.7214 -1.4566,0.13241 -1.3242,-0.13241 -1.9862,-0.26483 -0.6621,-0.52966 -1.1917,-1.45657 -1.3242,-0.92691 -1.4565,-0.52966 -1.3242,-1.58898 -1.0593,-1.32416 0.9269,-2.51589 0.6621,-1.05932 -0.7945,-0.9269 -0.2648,-1.45657 1.1917,-2.25106 0.6621,-1.19174 z"
     id="path4166"
     style="fill:#008000;fill-opacity:1;stroke:#000000;stroke-opacity:1" />
  <path
     d="m 1807.8654,500.66207 -1.1917,0.92691 1.4566,1.19174 0,0.52966 -0.6621,1.19174 -1.0593,0.13241 -1.1918,0.39725 -0.9269,0.13241 -0.9269,0.66208 -1.1917,0.39725 -1.1918,-1.05933 -1.1917,0.52966 -0.1324,1.45657 1.3241,1.05932 1.1918,0.13242 1.3241,0 1.8538,-0.13242 1.589,0 1.0593,0 1.8539,-0.26483 1.5889,-0.79449 -0.3972,-1.58898 -0.3973,-1.19174 -0.3972,-1.45657 0.1324,-1.05932 -0.9269,-1.05932 -1.1917,-0.13242 z"
     id="path4168"
     style="fill:#008000;fill-opacity:1;stroke:#000000;stroke-opacity:1" />
  <path
     d="m 1809.8517,510.19597 -1.4566,0.39725 0.6621,1.7214 1.5889,1.85381 0.7945,-0.39725 0,1.05933 0.5297,1.05932 1.0593,0.79449 0.7945,0.13242 1.0593,0.13241"
     id="path4170"
     style="fill:none;stroke:#000000;stroke-opacity:1" />
  <path
     d="m 1815.9428,515.625 -1.3242,1.19174 z"
     id="path4172"
     style="fill:none;stroke:#000000;stroke-opacity:1" />
  <path
     d="m 1816.2076,515.49258 -1.7214,-1.85381 -1.4566,-1.85381 -1.4565,-1.19174 -1.9863,-0.26483 -0.9269,0.52966 -0.1324,1.05932 1.4566,1.32415 1.3241,0.52966 0.5297,2.11865 0.9269,0.66208 1.589,0.26483 1.3241,-0.66208 z"
     id="path4174"
     style="fill:#008000;fill-opacity:1;stroke:#000000;stroke-opacity:1" />
  <path
     d="m 1882.2962,518.33328 -2.2472,2.80896 -1.4981,1.68537 -0.3745,-1.31085 -1.3108,0.18727 -2.0599,0.74905 0.3745,2.24716 -0.7491,2.43443 -2.0599,0.93631 -1.1236,1.49811 0,1.49811 0.1873,1.49811 0.5618,0.93631 1.4981,0 2.0599,1.12358 2.809,0 0.3745,1.49811 0.749,1.12358 0.1873,1.12358 -0.3745,0.93632 1.4981,1.12358 -0.7491,0.93632 -1.4981,0 -0.9363,2.0599 -1.1236,0.37452 -0.5618,1.12358 2.0599,2.43443 1.1236,1.12358 1.3109,-0.56179 0.749,1.68537 0.3745,1.31084 1.1236,1.49811 1.8727,2.0599 2.4344,0.93632 1.6853,-0.37453 -1.1235,-1.87263 -0.5618,-2.24717 1.8726,-1.12358 1.3109,-0.56179 1.8726,-1.12358 0.1873,-0.93631 1.4981,-1.31085 1.8726,-2.80895 z"
     id="path4176"
     style="fill:#008000;fill-opacity:1;stroke:#000000;stroke-opacity:1" />
  <path
     d="m 1728.9274,305.60201 -2.2471,2.43442 0.1872,2.62169 0.9363,1.31084 0.3746,1.68537 0.9363,2.24717 -1.8726,-0.93632 0.1872,-0.37453 -1.4981,0.18727 0.1873,0.74905 -1.6854,0.18726 -0.1873,0.93632 0.7491,1.49811 1.6854,1.12358 1.3108,1.12358 1.3109,0.18726 2.2471,-0.18726 0.7491,-0.74905 1.6853,-0.37453 1.8727,0 2.0599,-0.56179 0.3745,1.87263 0.7491,0 1.3108,0.37453 0.7491,-0.93632 0,-0.56179 z"
     id="path4178"
     style="fill:#008000;fill-opacity:1;stroke:#000000;stroke-opacity:1" />
  <path
     d="m 1761.6985,342.11838 -0.5618,3.37074 0.3746,1.87264 -1.6854,4.49432 -1.3108,1.49811 -1.8727,2.24716 -1.6854,-0.37453 -2.2471,2.0599 -0.3745,2.0599 -0.5618,0.93631 -0.7491,3.18348 -1.6854,1.12358 -1.3108,1.87264 -2.4344,0.56179 -2.6217,0.93631 -0.5618,0.74906 -0.5618,0.18726 -2.8089,-0.37452 -0.9364,-1.12359 0.5618,-1.12358 -2.4344,0 -2.8089,-0.37452 -1.4982,-1.31085 -0.5617,-1.31084 -0.5618,-1.87264 -0.3746,-1.12358 0.5618,-1.31084 -0.5618,-0.93632 -2.0599,-1.12358 -0.749,-3.558 -1.4981,-2.62169 -0.3746,-2.0599 0,-3.74527 0.7491,-2.0599 4.8689,-2.62169 0.5617,0 1.6854,0 1.6854,-1.12358 0.9363,-1.12358 0.1873,-1.87263 1.1235,-0.93632 3.3708,-2.0599 2.0599,-0.56179 0.5618,-3.37074 0.5618,-1.12358 3.3707,-0.56179 0.7491,-0.56179 z"
     id="path4180"
     style="fill:#008000;fill-opacity:1;stroke:#000000;stroke-opacity:1" />
  <path
     d="m 1726.8273,361.62606 -2.3835,0.26483 -1.0593,1.58898 3.4428,2.64831 1.3241,-0.26483 0.5297,-3.17797 z"
     id="path4182"
     style="fill:#008000;fill-opacity:1;stroke:#000000;stroke-opacity:1" />
  <path
     d="m 1644.2002,393.40572 -3.7077,-2.11864 -2.3834,-1.32416 -3.7077,-0.79449 -1.8538,1.58898 -3.1779,2.11865 -3.178,-1.05932 -1.0593,-2.64831 -2.3835,-1.85381 -3.7076,-2.91314 -1.0593,-1.85381 -2.1187,-5.82627 0,-2.91314 0.7945,-1.58898 -1.3242,-0.52966 -1.5889,0 -2.9132,1.85381 -2.6483,0.26483 -0.2648,-0.79449 -0.5297,-3.4428 -1.3241,-0.52966 -2.6483,0.26483 -2.3835,-0.52966 -0.7945,-0.52966 -0.2648,-1.32415 2.9131,-1.58898 1.3242,-0.26484 1.5889,-2.38347 3.7077,-1.05932 1.3241,-0.26483 1.0594,-2.91314 0,-2.91313 1.8538,-1.85382 1.5889,0.26483 0.7945,1.32416 0.7945,2.38347 -0.7945,3.4428 -0.2648,1.05932 1.589,1.32415 4.2373,1.32415 0.5296,1.32416 1.0594,1.32415 1.5889,-0.79449 1.8539,-2.38348 2.6483,-2.38347 1.5889,1.58898 2.9132,1.58898 -1.589,2.91314 1.0593,1.05932 2.3835,-1.05932 2.9131,-1.05932 1.8538,1.58898 1.0594,-2.38347 1.3241,-1.85382 1.0593,-2.6483 0.2649,-1.58898 1.589,-1.85382 1.3241,-1.85381 1.589,-1.05932 3.7076,-0.26483 0.5297,2.11864 -1.8538,2.91314 0.7945,1.58898 1.0593,0 1.8538,0.52966 0.2648,2.6483 -1.589,0.26483 -1.8538,-0.26483 -2.1186,2.38348 -0.2648,2.11864 0.7944,2.38348 -0.5296,2.6483 -0.2648,2.11865 2.3834,3.17796 1.8538,0.26483 0.7945,2.91314 -0.2648,1.58898 1.0593,1.85382 -0.2648,2.11864 -1.0593,1.32415 -0.5297,1.05932 -0.2648,3.4428 -1.0593,0 -2.6483,0.52966 -2.9132,-1.32415 z"
     id="path4188"
     style="fill:#008000;fill-opacity:1;stroke:#000000;stroke-opacity:1" />
  <path
     d="m 1723.9142,518.00847 -3.9725,-2.91313 -2.9131,-1.05932 0.5296,-2.78073 1.4566,-1.05932 -1.0593,-2.11864 -2.5159,-0.13242 -1.1918,2.64831 -3.1779,1.19174 -1.9863,-3.97246 -2.1186,-2.25106 -3.178,-3.17797 -1.0593,-1.7214 0.2648,-1.45656 1.7214,-1.58899 -0.3972,-3.17796 -2.3835,-1.7214 -3.3104,0.39725 -2.7807,1.98622 -1.9862,-0.52966 -1.3242,-1.32415 -4.2372,-0.39725 -0.7945,-1.32415 -2.7808,-1.58898 1.3242,-1.98623 2.1186,-0.13242 2.5159,-1.85381 3.3104,-1.7214 2.5159,-0.66207 0.7945,1.7214 0.9269,1.19173 2.1186,0.39725 2.2511,-1.45657 3.3104,-0.66208 2.3835,-1.05932 1.3241,-0.13241 1.1917,0.52966 1.7214,-0.39725 1.7214,-0.79449 0.7945,1.45657 0.5297,1.05932 1.3241,1.32415 1.589,0 1.589,1.58899 -2.251,1.85381 -1.1918,1.32415 -0.7945,1.05932 0.9269,0.7945 0.7945,0.26483 1.0593,-2.78072 0.927,-0.39725 1.3241,-0.13242 1.3242,0 2.9131,-1.32415 1.9862,0.13242 0.9269,1.98623 1.4566,-0.7945 1.0593,-1.72139 -0.1324,-0.92691 -1.3241,0 -2.1187,0 -3.178,-2.64831 -2.5158,-3.57521 -0.6621,-2.38347 -2.1187,-1.45657 0.1324,-2.25106 -1.1917,-1.98623 -1.589,0.52966 -1.4565,1.19174 -1.4566,-1.19174 -0.9269,-1.45656 -0.9269,-2.64831 0.5296,-2.6483 0.1325,-3.04556 1.3241,-1.85381 1.9862,-1.85381 2.6483,-3.04555 0.9269,0.9269 0.7945,1.45657 0,1.85381 1.3242,0.66208 1.7214,1.05932 1.1917,0.79449 -0.2648,1.19174 -1.3242,0.79449 -0.662,1.32416 -0.1324,1.19173 -0.2649,0.92691 0.5297,1.32415 1.3241,1.58899 1.0594,1.05932 0.7944,0.52966 0.3973,0.92691 1.0593,-0.52967 0.5297,-0.79449 1.589,0.52966 0.7945,0.7945 1.1917,-0.13242 1.3241,-1.58898 2.5159,0.26483 0.7945,1.05932 0,1.19174 -0.6621,1.05932 0,0.79449 0.2649,0.79449 1.0593,0.66208 0.9269,0.9269 1.3242,2.11865 0.2648,1.19174 1.4566,1.85381 1.3241,1.05932 1.3242,1.7214 1.4565,-1.19174 2.1187,-0.26483 0.2648,1.32415 -0.3972,2.25106 -0.6621,0.7945 -0.3973,1.58898 -1.4565,0.52966 -1.8538,0.39725 -2.1187,-0.39725 -2.1186,-0.13242 -0.7945,2.38348 -1.4566,0.66208 -0.2648,1.45656 -0.1324,0.52966 -1.1918,0.7945 -0.7945,-0.92691 -1.3241,-1.05932 -1.589,0.66207 -1.1917,-0.26483 -2.9132,-0.39724 -1.3241,1.45656 -2.2511,1.98623 -0.9269,1.19174 -0.2648,0.66208 0.5296,1.32415 0,1.19174 0.6621,1.7214 1.0593,1.05932 1.3242,1.32415 1.4566,0.79449 1.5889,1.19174 -0.2648,0.92691 -0.3972,1.19173 -1.7214,0.66208 1.0593,1.32415 0.7945,0.66208 0.2648,0.66207 -0.6621,1.85382 z"
     id="path4194"
     style="fill:#008000;fill-opacity:1;stroke:#000000;stroke-opacity:1" />
  <path
     d="m 1748.0137,492.05508 2.1187,-0.79449 1.1917,-1.7214 2.5159,-1.45656 2.3835,-2.64831 1.9862,0 1.4566,-1.32415 0.2648,-0.79449 1.3242,-0.66208 1.0593,1.98623 1.1917,-0.92691 0.5297,-1.45657 -0.5297,-2.25106 -0.6621,-1.72139 -1.9862,-1.58899 -0.2648,-1.19173 0.7945,-2.25106 1.0593,-1.7214 1.0593,-1.58898 1.0593,-0.92691 0.7945,-1.19174 0.6621,-2.11864 0.9269,-2.25106 -0.2648,-1.45657 -0.1324,-1.85381 1.0593,-1.45657 0.2648,-1.32415 -1.8538,-0.92691 -0.7945,-1.58898 -0.3972,-0.7945 -0.1324,-1.05932 0.3972,-0.79449 -0.1324,-1.32415 -0.6621,-3.04555 0.5297,-1.05932 -0.3973,-4.23729 -1.0593,-0.79449 -1.8626,-2.05465 -2.9962,0.37452 -1.3109,-2.62169 -5.0561,-4.30705 -0.7491,-1.31085 -0.749,-2.99621 -0.9363,-0.56179 -1.1236,-2.0599 -2.809,1.12358 -0.5618,0.93632 -1.1235,-0.93632 0,-2.24716 -1.4981,0 -2.9963,0.37452 -1.4981,2.43443 -2.6217,1.87263 -0.749,1.31085 0.5618,3.37074 -1.3109,2.0599 -2.0599,0 -0.9363,-1.12358 -2.8089,-1.68537 -1.6854,0.37452 -1.1236,-2.0599 -2.9962,0.18727 0.7491,2.24716 -0.1873,1.87263 0.9363,1.12358 1.4981,2.43443 -0.1872,1.68537 -0.5618,2.24716 -1.4981,2.43443 -1.4981,1.68537 -1.6854,0.56179 -2.0599,0.56179 -1.8727,-1.31085 -1.6853,-0.37452 -3.9326,-2.99622 0,-2.62169 -1.4981,-0.18726 -2.0599,-0.18726 -2.4344,-1.87264 -2.2471,-2.0599 1.3108,-4.86885 1.3108,-3.74526 1.4982,-1.31085 2.0598,-2.0599 2.4345,-1.87263 0.9363,-2.80895 1.4981,-2.62169 -0.3745,-2.62169 0.3745,-3.558 -0.3745,-0.74906 -1.8727,-1.87263 -1.1235,-1.68537 -2.9963,-2.43443 -3.3707,0 -0.7491,-0.93632 0,-2.62168 -1.1235,-2.43443 -1.4981,-0.93632 -2.2472,-3.558 -2.0599,0 -1.1236,-0.56179 -0.5618,-2.0599 -0.749,-2.0599 -0.5618,-0.37453 -0.9363,-0.74905 -1.4981,-0.74905 -1.6854,0.56179 -1.4981,-0.74906 -1.8727,-0.93631 -0.9363,-0.93632 -0.749,-1.49811 -0.7491,-2.24716 0.9363,-1.68537 1.3109,-2.62169 -2.0599,-0.18726 -0.3745,-0.93632 1.3108,-2.43442 1.8726,-1.49811 -0.9363,-3.37074 -1.8726,-0.93632 -4.6816,-1.87264 -2.809,-2.62168 -6.1796,-5.43064 -3.3708,-1.49811 -2.8089,-0.74906 -0.3746,2.0599 -0.9363,0.74906 -1.1236,2.05989 -0.749,-0.93631 -3.558,-0.93632 0.1872,2.0599 -0.749,2.0599 -1.3109,1.87263 -2.2471,0.56179 -1.6854,2.0599 0,2.24716 1.1236,1.49811 0.1873,1.87263 -0.7491,1.87264 0,2.43442 2.4344,0.37453 1.4981,2.43442 0,2.24716 -0.9363,2.43443 1.1236,1.49811 -0.7491,2.62168 -1.3108,4.1198 -1.8726,1.68537 -2.6217,0 -0.1873,25.46783 2.0599,1.68537 -1.3108,2.0599 1.1235,0.74905 2.0599,0.93632 -1.6853,1.68537 -1.1236,1.68537 0,1.31085 0.9363,1.31084 1.8726,0.18726 -1.8726,2.62169 -1.3108,2.43443 2.2471,2.0599 2.2472,0.56179 2.6217,-0.56179 0.749,-0.37453 1.4981,1.87263 1.3109,2.43443 1.6853,0.93632 2.0599,1.12358 2.9963,1.31084 0.5618,2.99622 2.0599,2.05989 0.3745,1.87264 1.3108,1.12358 0.7491,1.87263 0.9363,2.24716 0.749,0.93632 0.1873,0.74906 1.8726,-0.56179 0.5618,-0.93632 1.1236,0 1.6854,-0.18727 0.9363,-0.18726 1.1236,-0.37453 0.5618,-0.37452 -0.1873,-1.31085 -0.749,-1.31084 1.6853,-1.12358 0.9363,0.74905 0.1873,1.12358 0,1.12358 0.5618,0.93632 1.1236,0.37453 0.9363,1.49811 -0.7491,2.05989 -0.1872,1.31085 1.3108,0.74905 0,2.0599 2.4344,-0.74905 1.3109,1.31084 0,1.87263 0.749,1.12358 1.6854,-2.62168 1.4981,0.56179 2.2472,0.93631 1.4981,2.24717 -0.9363,2.99621 -1.8727,-0.18726 -0.5617,1.87263 -1.3109,2.0599 1.8726,0.93632 1.3109,1.68537 -0.1873,1.68537 1.8727,2.0599 1.4981,1.31084 2.6217,-0.56179 2.9962,-1.68537 5.2433,-0.18726 3.7453,-2.24717 -0.3745,-3.18347 -1.1236,-0.93632 -0.1873,-2.0599 -1.6853,-3.37074 -1.8727,-2.62169 1.3109,-3.37074 1.3108,-2.62169 5.4307,-6.55422 2.4344,0 1.4981,3.74527 3.7453,2.43442 0.749,2.99622 -2.4344,3.18348 0.9363,2.24716 1.8726,1.87263 2.0599,-0.93631 3.7453,0.93631 2.4344,-0.74905 2.9963,2.43442 0.5617,2.99622 0.5618,2.24716 2.809,2.99622 1.1236,3.18347 2.6217,-0.18726 1.4981,0.37453 1.1235,1.49811 0.1873,2.24716 -0.5618,1.68537 z"
     id="path4196"
     style="fill:#008000;fill-opacity:1;stroke:#000000;stroke-opacity:1" />
  <path
     d="m 1700.8379,395.67573 2.9962,-3.55801 3.3708,-0.18726 0.5618,-2.80896 -2.0599,-2.43442 -3.9326,-2.80895 -1.8726,-1.31085 -1.6854,0.37453 -1.4981,-1.12358 -1.4981,-0.56179 -2.2472,-0.74905 0,2.43442 -1.3108,1.68537 -0.5618,2.0599 2.0599,2.0599 0.5618,1.68537 1.6854,1.87263 2.9962,2.62169 z"
     id="path4198"
     style="fill:#008000;fill-opacity:1;stroke:#000000;stroke-opacity:1" />
  <path
     d="m 1689.2276,387.24887 0.9363,-1.49811 -2.6217,-2.62169 -0.9363,-1.68537 -1.3109,-0.56179 -1.3108,0.74906 0.5618,3.558 1.8726,1.12358 z"
     id="path4200"
     style="fill:#008000;fill-opacity:1;stroke:#000000;stroke-opacity:1" />
  <path
     d="m 1707.7667,432.56662 -2.6217,0.5618 -0.5618,2.05989 -0.7491,1.49811 1.6854,1.68537 3.1835,1.31085 1.8726,0.37452 0.9363,2.0599 1.8727,2.43443 5.4306,1.87263 1.8726,-1.49811 2.809,-1.12358 0.1873,-4.86885 -1.4982,-1.49811 -1.8726,-4.49432 1.3109,-1.87263 4.1197,-0.56179 2.2472,2.05989 1.8726,0 1.3109,2.24717 0.9363,0.74905 1.8726,-0.93632 0,-2.80895 -0.3745,-3.18348 0.5618,-2.43442 2.0599,0.56179 2.2472,-1.49811 0.3745,-1.68537 -1.4981,-1.87264 -1.4981,-2.05989 1.4981,-2.62169 1.6854,-2.24716 -1.6854,-6.74149 -3.1835,-1.68537 -4.1198,0.93632 0.5618,4.30706 -2.9962,1.87263 -2.6217,5.61791 -3.3707,-1.87264 -1.8727,2.43443 -2.2471,1.12358 -2.4345,1.68537 -2.0599,3.18348 -2.2471,0.93631 -2.9962,2.43443 z"
     id="path4202"
     style="fill:#008000;fill-opacity:1;stroke:#000000;stroke-opacity:1" />
  <path
     d="m 1740.725,418.14734 2.9962,0.93632 1.4981,-2.0599 3.1835,-2.80895 0.3746,-2.24716 1.3108,-3.55801 2.0599,-0.37453 1.6854,-1.31084 2.6217,-0.37453 3.558,-1.31084 3.558,-0.93632 -1.3109,-3.37074 -1.8726,-2.43443 -3.3708,-2.05989 -2.8089,-0.56179 -0.1873,-2.0599 1.4981,-2.0599 1.3109,-1.31084 -1.1236,-2.99622 -2.809,-1.68537 -2.9962,1.12358 -2.4344,-1.12358 -1.4981,0.74905 -4.8688,1.12358 -0.5618,2.24716 -3.3708,1.12359 -3.9325,1.12358 -2.6217,3.37074 0.7491,3.558 -3.3708,1.68537 -1.4981,5.05612 -3.3707,0.74905 -1.8727,3.37074 1.3109,3.18348 0.1872,-0.93631 1.3109,1.4981 -1.8727,2.0599 2.0599,2.24716 1.8727,-1.87263 2.6217,-4.68159 0.9363,-0.74905 0.9363,-3.37074 1.3108,-2.0599 1.6854,-0.18727 1.8726,1.31085 1.4982,1.12358 1.6853,1.31084 1.3109,2.99622 0.1872,2.99621 -0.749,2.43443 z"
     id="path4204"
     style="fill:#008000;fill-opacity:1;stroke:#000000;stroke-opacity:1" />
  <path
     d="m 1766.5674,445.86233 2.0599,1.12358 1.8726,-1.31084 -1.3108,-2.80896 -1.8727,-1.12358 -2.0599,-0.18726 1.4981,5.05611 z"
     id="path4206"
     style="fill:#008000;fill-opacity:1;stroke:#000000;stroke-opacity:1" />
  <path
     d="m 1761.6985,438.93358 1.8727,-1.49811 -2.2472,-0.93631 -1.4981,-0.56179 -0.5618,1.4981 0.9363,1.49811 z"
     id="path4208"
     style="fill:#008000;fill-opacity:1;stroke:#000000;stroke-opacity:1" />
  <path
     d="m 1743.9085,424.32703 -1.8726,-2.05989 -1.1236,-0.18727 -0.7491,1.31085 0.9364,1.12358 z"
     id="path4210"
     style="fill:#008000;fill-opacity:1;stroke:#000000;stroke-opacity:1" />
  <path
     d="m 1725.5567,402.60447 -0.3745,1.49811 -2.809,0.74905 -0.3745,1.49811 -1.3109,1.49811 -0.749,-0.18726 -0.9363,-0.74906 -0.1873,-2.0599 1.3108,-2.43442 1.8727,-2.0599 2.6217,-0.37453 1.4981,0.93632 z"
     id="path4212"
     style="fill:#008000;fill-opacity:1;stroke:#000000;stroke-opacity:1" />
  <path
     d="m 1727.0548,399.98278 2.8089,-1.87263 -0.749,-1.49811 -0.3745,-1.68537 -1.3109,-0.74905 -1.4981,1.68537 0.1873,1.87263 0.1872,0.18727 z"
     id="path4214"
     style="fill:#008000;fill-opacity:1;stroke:#000000;stroke-opacity:1" />
  <path
     d="m 1719.1897,409.15869 -1.6853,1.12358 -1.1236,-0.56179 0.1872,-2.62168 2.6217,-0.37453 0.7491,1.31084 z"
     id="path4216"
     style="fill:#008000;fill-opacity:1;stroke:#000000;stroke-opacity:1" />
  <path
     d="m 1710.0138,405.97521 1.4981,-2.05989 -2.0599,-1.87264 -1.1236,-1.68537 -1.8726,0.18726 0,3.18348 1.8726,1.31085 z"
     id="path4218"
     style="fill:#008000;fill-opacity:1;stroke:#000000;stroke-opacity:1" />
  <path
     d="m 1704.7704,399.42099 -1.4981,2.80896 0.7491,1.4981 1.6854,1.31085 -0.7491,-2.43443 0.5618,-1.68537 0.3745,-1.12358 z"
     id="path4220"
     style="fill:#008000;fill-opacity:1;stroke:#000000;stroke-opacity:1" />
  <path
     d="m 1697.4672,379.38381 0,-1.49811 -0.9363,-2.0599 -3.5581,-0.74905 -1.1235,3.558 3.7452,0.93632 z"
     id="path4222"
     style="fill:#008000;fill-opacity:1;stroke:#000000;stroke-opacity:1" />
  <path
     d="m 1686.7932,377.32391 1.3108,-1.68537 -0.7491,-1.12358 -1.8726,0.74905 -0.9363,2.80895 z"
     id="path4224"
     style="fill:#008000;fill-opacity:1;stroke:#000000;stroke-opacity:1" />
  <path
     d="m 1597.843,368.148 -3.9325,0.37453 -1.3109,-3.55801 -2.0599,-2.62169 -2.0599,-1.49811 -1.3108,0.74906 -2.0599,0.18726 -3.3707,-1.68537 -2.0599,-1.68537 -3.3708,-3.18348 -1.8726,-0.74905 -0.3745,-3.18348 0.9363,-2.24716 2.8089,1.31084 0.9363,0 -0.1872,-1.31084 2.8089,-1.87264 -0.1872,-3.18348 1.1235,-2.80895 2.809,-1.31084 2.6217,0 2.6217,-0.74906 1.4981,-0.37452 1.4981,-1.87264 0.9363,-1.31084 -1.3108,-1.68537 -1.3109,-1.49811 -0.749,-2.80895 2.6217,-0.56179 3.1834,-3.18348 2.0599,-2.62169 2.6217,-3.18348 2.2472,0 2.4344,0.56179 2.6217,-0.74905 3.3707,-0.93632 1.3109,-0.93632 -1.8727,-2.43442 -2.6216,-1.12358 -1.8727,-1.68537 3.7453,-2.43443 2.0599,-1.68537 1.8726,-0.18726 1.6854,2.24716 -0.5618,2.62169 2.0599,1.87263 1.1236,3.18348 0,3.37074 1.6854,-1.4981 -1.3109,-1.12359 1.3109,-3.18347 2.2471,-3.18348 1.6854,2.80895 2.0599,2.43442 -1.1236,2.43443 -0.9363,0.37453 0.1873,1.12358 2.9962,1.4981 1.4981,3.74527 0.1872,2.62169 -2.0599,1.31085 2.0599,2.62168 1.4981,1.31085 0,1.68537 -1.3108,2.24716 1.4981,1.12358 1.3109,-0.37453 1.6853,2.0599 1.3109,1.12358 1.8726,0.37453 1.4981,3.37074 1.8726,3.18348 1.3109,2.0599 0,1.87263 -1.1236,1.87264 -0.749,1.68537 -0.3746,1.49811 1.1236,1.87263 2.0599,3.18348 -0.9363,1.49811 -1.3109,2.24716 -1.4981,0 -1.1235,-1.31085 -0.3746,-1.68537 -1.3108,-1.68537 -1.8727,-0.37453 -2.0598,1.68538 -2.809,-2.80896 0.3745,-1.68537 -0.749,-4.30706 -1.1236,-1.4981 0.3745,-2.62169 -2.4344,-2.0599 -7.8651,-1.31084 -1.6853,-1.31085 -2.9963,0.56179 -3.9325,-1.31084 -0.1873,-1.12358 -2.2471,2.99621 -3.7453,1.68537 -2.8089,2.43443 -0.3746,2.80895 3.9326,0.56179 5.2433,1.12358 0.9364,2.43443 0,1.31084 -2.9963,0.37453 -2.0598,1.12358 -1.1236,0.93631 -2.0599,2.0599 -2.2472,2.0599 z"
     id="path4226"
     style="fill:#008000;fill-opacity:1;stroke:#000000;stroke-opacity:1" />
  <path
     d="m 1627.0561,361.21925 -2.0599,-2.0599 -1.8726,-1.12358 1.1236,-1.12358 2.0599,-0.18726 2.4344,1.12358 0.5618,1.87263 z"
     id="path4228"
     style="fill:#008000;fill-opacity:1;stroke:#000000;stroke-opacity:1" />
  <path
     d="m 1704.5832,282.94313 17.041,16.85371 -1.3109,1.87263 -2.6217,1.31085 -2.0599,0.56179 -4.1198,0.18726 -3.9325,-0.37453 -1.8726,-0.74905 -2.809,-1.12358 -1.4981,-1.31084 -1.6854,-1.87264 -1.6853,-2.99621 -0.5618,-3.37075 0.5618,-4.11979 1.1235,-2.99622 1.3109,-2.24716 1.8726,-1.68537 0.9363,-0.18726 z"
     id="path4232"
     style="fill:#008000;fill-opacity:1;stroke:#000000;stroke-opacity:1" />
  <path
     d="m 1587.3563,334.06605 2.2471,-0.37453 1.4981,-1.87263 -1.1236,-0.74905 -0.3745,-1.12359 1.4981,-1.87263 2.9962,-0.56179 3.1835,-4.30706 0.9363,-1.87263 2.809,-2.43443 3.1835,-0.74905 1.3108,0.93631 3.3708,-0.93631 0.749,-0.56179 -0.9363,-2.24716 -1.6854,-0.93632 -1.8726,-0.93632 -2.2472,-1.68537 -1.3108,-0.37453 -1.8727,-1.68537 -1.4981,-0.74905 0.3746,-4.1198 -2.809,-0.74905 -1.8726,1.12358 -0.5618,1.12358 -1.8726,1.12358 -1.8727,1.31084 -1.1236,0.74906 -2.2471,0.56179 -4.6816,3.18348 -1.4981,3.18348 -0.1873,0.37452 -0.5618,3.55801 2.4345,2.43442 1.4981,1.49811 0.749,2.43443 -0.749,4.86885 2.4344,1.87263 2.4344,0.18726 z"
     id="path4234"
     style="fill:#008000;fill-opacity:1;stroke:#000000;stroke-opacity:1" />
  <path
     d="m 1782.0116,1419.7812 -0.3706,-42.324 0.9264,-4.869 9.4489,-1.1237 8.7078,-0.9364 4.076,-5.0565 4.2613,-2.9963 4.2612,-2.6219 5.1877,2.2473 5.1876,-1.6855 4.2612,-2.2472 2.4087,-6.9292 -2.7792,-2.9964 -3.7055,-5.6182 -0.3705,-2.06 3.8907,-1.4982 3.7055,-2.6219 0.3705,-2.2473 2.2233,-0.3745 4.8171,4.8692 3.8908,3.5582 3.7053,-2.9964 1.8528,-3.7455 2.2232,-0.3745 1.4823,2.4345 2.2232,1.6855 2.9644,-1.8728 1.4821,-5.0564 3.1497,-2.9964 4.076,2.2474 2.9643,2.6217 -1.2968,4.1201 -2.038,1.6854 -1.4822,6.1801 0.741,2.8092 4.8172,0.749 3.3348,4.6819 6.2994,8.6146 3.1496,3.9328 -0.1853,2.9964 2.038,1.1236 2.2233,-0.1872 3.7054,2.809 -2.038,1.6855 4.8171,2.06 -0.7411,3.5583 5.0023,2.2473 9.2637,6.5546 2.4085,2.4345 3.7055,3.9327 1.8527,0.3747 3.1497,-2.9964 1.8526,4.6818 2.7792,1.3109 4.817,-2.06 -11.4868,24.9075 -17.2304,35.5822 -17.9714,34.6457 -44.836,-0.1872 -0.1853,-1.6855 -2.038,-1.6855 -2.4085,2.9964 -35.9429,-0.7491 -5.1877,-6.3674 -3.7053,0 -4.5393,4.4946 -5.4655,2.7156 -2.1306,-1.8729 1.4821,-3.6518 -2.5938,-2.9963 -3.7054,-2.8092 -4.4466,2.5282 -3.5202,-1.9664 -3.3348,0.2809 -2.8718,-0.8427 -0.8337,-0.8428 13.9881,-13.2964 -0.8338,0 -0.1852,-2.5282 1.8527,-1.4046 1.5748,-0.749 0.6485,-1.4046 -5.0024,-4.6819 -3.3349,-3.1837 0.5558,-1.8727 3.1497,-2.2473 -3.7055,-4.4009 4.076,-3.1837 -2.6864,-5.5246 7.5961,-4.4009 -2.5938,-3.6519 6.2066,-3.5582 2.038,0.9364 z"
     id="path3371"
     style="fill:#000000;fill-opacity:1;stroke:#000000;stroke-opacity:1" />
  <path
     d="m 1189.0777,1110.4365 0,3.1366 -3.0415,0 0,2.2058 -0.3292,0.088 0,3.5112 -0.6554,0 0,2.1535 -7.1629,0 -2.8089,2.0599 -2.3408,0.1873 -1.5894,2.3625 -2.2107,-1.5917 1.4593,-2.2221 -1.4192,-2.8052 -3.043,4e-4 -1.9048,-2.3914 -2.7153,-2.6685 0,-10.2058 2.3876,-0.4682 2.2472,-1.4513 1.7322,-0.094 1.5917,-2.8558 -1.1573,-0.7316 2.4496,-4.2373 -2.0524,-3.5752 2.5159,-1.9863 c 0,0 -1.92,-4.0386 -2.3173,-4.2372 -0.3972,-0.1987 -2.8469,-0.7945 -2.8469,-0.7945 0,0 -4.2373,-4.1711 -4.5021,-4.3035 -0.2648,-0.1324 -3.1118,5.429 -3.1118,5.429 l -4.6345,-2.5821 -0.9269,-3.178 -1.92,-1.6552 -0.9931,-4.3035 -3.6415,-1.92 -0.8607,-4.8993 2.0892,-0.4518 2.1067,0.7725 1.4045,-1.1938 -0.2341,-0.9364 1.6386,0.1171 0.7022,-1.0768 -1.2874,-1.1236 2.1067,-2.013 1.6854,-3.1367 1.6619,1.6385 2.1067,-1.6151 -0.07,-3.5112 c 0,0 2.3876,-1.0768 2.5983,-1.1002 0.2107,-0.023 1.6151,0.1873 1.6151,0.1873 l 0.8193,1.7088 -1.1472,0.5852 0.7491,2.0365 2.0131,-0.398 1.4278,3.3708 2.294,0.8192 0.6086,3.4644 4.4241,1.8492 2.8324,-1.2406 2.2003,-0.094 5.1498,6.7649 1.0065,-0.6086 1.5449,2.0833 1.9429,0.2107 -0.7491,1.779 1.2407,2.3408 1.1704,-0.8895 2.1769,0.749 -0.3511,1.3811 1.7322,0.1404 1.0299,1.8258 -1.4747,0.6789 0.1405,1.3576 -1.4279,1.3343 1.1704,1.3108 -2.6685,2.9026 -1.8258,0.094 -0.5618,1.0768 0.4213,1.3109 -0.9129,2.4812 -2.5515,1.662 0.4916,1.2406 -1.8258,2.4812 -0.1186,1.6977 -0.8607,1.1255 0.7283,0.9931 0.033,1.7876 0,2.8801 1.6883,0.7614 1.4897,2.0193 z"
     id="path5972"
     style="fill:#008626;fill-opacity:1;stroke:#000000;stroke-width:1px;stroke-linecap:butt;stroke-linejoin:miter;stroke-opacity:1" />
  <path
     d="m 464.50699,501.61151 c 0.28089,-1.49811 0.93631,-4.21343 0.93631,-4.21343 l 6.46059,-2.90258 -1.12358,-2.62169 3.08985,-3.65163 c 0,0 -8.42686,0 -8.89502,-0.2809 -0.46815,-0.28089 -2.05989,-1.59174 -2.05989,-1.59174 l -3.18348,1.12358 -5.8988,-4.77522 -3.37074,1.49811 -3.74527,-3.18348 1.49811,-2.34079 -7.77144,-7.11601 -4.77522,-0.0936 -5.14974,2.99621 -1.49811,2.90259 4.1198,1.779 c 0,0 -4.21343,2.24716 -3.65164,2.24716 0.56179,0 2.43443,2.62169 2.43443,2.62169 l -4.49433,0.46816 1.40448,5.24337 4.58795,2.71532 -1.59174,5.14975 2.90259,3.46437 6.74148,-4.77522 5.6179,5.61791 4.49433,-6.36696 3.65163,0.93632 2.62169,-2.3408 2.62169,4.02617 -0.74905,2.62169 1.87263,1.779 z"
     id="path6485"
     style="fill:#fff6d5;fill-opacity:1;stroke:#000000;stroke-width:1px;stroke-linecap:butt;stroke-linejoin:miter;stroke-opacity:1" />
  <path
     d="m 465.90307,442.06832 c -0.13241,0.26483 -8.34216,13.57256 -8.34216,13.57256 l 1.05932,1.65519 1.85382,-1.72139 3.84004,5.16419 8.54078,-0.99311 -0.79449,-4.96558 3.31038,-4.43591 -3.84004,-4.96557 -3.04555,0.92691 1.58898,-2.91314 z"
     id="path6487"
     style="fill:#fff6d5;fill-opacity:1;stroke:#000000;stroke-width:1px;stroke-linecap:butt;stroke-linejoin:miter;stroke-opacity:1" />
  <path
     d="m 479.40943,457.29607 -4.89936,4.23729 0.19862,3.50901 2.97934,0.72828 4.83316,7.08422 -3.37659,1.65519 4.63453,4.03866 4.03867,-0.72828 c 0,0 0.13241,-2.05244 0.39724,-1.85381 0.26483,0.19862 2.44969,2.18485 2.44969,2.18485 l 1.7876,-0.39725 c 0,0 0.59587,2.51589 0.99312,2.51589 0.39724,0 2.31726,-0.79449 2.31726,-0.79449 l -2.97934,-5.82627 1.05932,-2.71451 -1.98623,-0.7945 -1.92002,-3.509 0.66208,-0.92691 -1.39036,-1.65519 -3.04555,0 z"
     id="path6489"
     style="fill:#fff6d5;fill-opacity:1;stroke:#000000;stroke-width:1px;stroke-linecap:butt;stroke-linejoin:miter;stroke-opacity:1" />
  <path
     d="m 474.44386,383.54078 c -0.52966,0.26483 -2.91314,3.04555 -2.91314,3.04555 l 14.23464,6.0911 0.13242,3.57521 -7.68009,5.49524 -3.84004,-2.11865 -0.79449,2.31727 3.90625,3.24417 -1.78761,0.8607 1.12553,1.78761 3.77384,0.79449 3.77383,-1.65519 -0.39724,-1.45657 1.58898,-1.45657 1.45657,1.39036 2.25106,-0.33104 3.97245,3.97246 -3.11175,3.31038 -3.4428,0.33104 -9.40148,7.28284 -3.04556,-2.91313 -5.36281,-2.18486 -2.11865,6.22352 1.19174,1.12553 4.76695,0.33104 5.76006,3.90625 1.92002,7.8125 2.38348,0.8607 4.17108,5.2304 -1.19174,1.05932 2.31727,0.59587 1.58898,-2.51589 1.98623,0.26483 0.66208,1.39036 -2.18485,3.24418 3.64141,1.92002 -1.72139,2.31726 -2.64831,0.99312 6.0911,6.02489 2.78072,0.26483 7.34905,9.73252 7.74629,-5.42902 2.78072,0.8607 c 0,0 2.05244,-1.92002 1.98623,-2.18485 -0.0662,-0.26484 -2.18485,-2.71452 -2.18485,-2.71452 l 0.59587,-2.38347 2.91313,0.13241 -1.45656,-4.03866 -3.31038,0.33104 2.31726,-2.78072 4.56833,-1.85382 -0.59587,-2.78072 3.57521,-0.46345 1.19174,-2.5821 -3.24417,-3.04555 4.89936,-3.70763 3.04555,3.24418 4.3035,-4.89937 2.97934,2.91314 5.56144,-2.71451 -4.70074,-3.84005 8.80561,-8.07733 2.64831,2.64831 3.64142,-0.0662 4.43591,-3.90625 0.92691,-8.40837 -3.31039,1.12553 0,2.64831 -4.76695,3.11175 -0.0662,1.05933 -2.78072,0.0662 -0.72829,-2.91313 0,-2.51589 2.44969,-0.8607 -1.92003,-1.98623 3.11176,-0.39725 1.12553,-2.91313 -3.64142,1.52277 -0.72828,-2.71451 -3.64142,-0.26483 -9.60011,7.54766 -23.56991,0 -14.30085,-10.79184 -4.10487,-10.92426 z"
     id="path6491"
     style="fill:#fff6d5;fill-opacity:1;stroke:#000000;stroke-width:1px;stroke-linecap:butt;stroke-linejoin:miter;stroke-opacity:1" />
  <path
     d="m 453.22436,525.03376 -0.0468,26.20257 -3.49535,-0.38888 -6.22351,0.66208 -0.79449,4.10487 -3.4428,-0.13241 -2.11864,-3.97246 -4.89937,4.3697 -4.63453,-4.10487 -8.87182,9.00424 -8.20975,9.40148 -0.39725,5.1642 -2.6483,1.19173 -6.35593,9.79873 2.11864,6.35593 -5.69386,11.52013 9.13666,7.28284 -1.7214,5.16419 15.36017,6.35594 -4.76695,6.75317 -2.64831,-3.04555 -3.17796,3.57522 1.05932,2.91313 -2.91314,3.97246 10.32839,12.31462 2.91314,2.11864 2.38347,-2.78072 2.64831,1.32415 4.76695,-5.56144 4.89936,-1.05932 -0.66207,-3.84004 -1.7214,-1.85381 -0.39725,-4.89937 4.50212,-2.91313 4.63454,-0.13242 0.79449,3.04555 2.78072,4.63453 3.84004,1.7214 3.70763,-1.58898 4.10487,8.47458 7.94491,0.26483 6.09111,3.57521 4.23728,4.76695 2.78073,0.79449 6.22351,-7.01801 0.52966,-6.22352 3.57521,3.04555 1.45657,-0.79449 6.75318,0.79449 2.78072,5.69386 c 0,0 4.23729,3.70763 5.03178,3.57521 0.79449,-0.13241 3.70763,-1.58898 3.70763,-1.58898 l -3.04555,-3.70763 4.76695,-3.57521 2.25106,1.58898 4.3697,-2.51589 2.78072,-6.88559 1.05932,-4.10487 2.64831,1.58898 1.72139,-2.18485 7.15043,-4.89937 c 1.58898,0 33.76589,0 33.76589,0 l -0.39725,-2.11864 4.83316,-7.15042 3.509,-0.0662 7.61388,-9.40148 3.84004,1.12553 1.92002,-1.12553 1.6552,-3.24418 -5.29661,-9.6001 -0.92691,-6.02491 c 0,0 -4.63454,0.46345 -4.17108,0.19862 0.46345,-0.26483 3.90625,-11.05667 3.90625,-11.05667 l 1.52277,-1.65519 -1.25794,-2.05244 -0.52966,-4.96557 4.17108,-4.10487 0.72828,3.64142 2.25106,2.6483 -0.79449,2.51589 3.90625,0 -0.8607,-3.04555 1.85381,-0.0662 0.92691,-2.38347 1.58898,1.12553 3.11176,-1.65519 2.71452,-5.29661 2.58209,-3.90625 2.5821,-2.25106 -0.0662,-1.7214 -1.7214,0 -1.39036,-1.98623 -1.72139,-0.72828 0.33103,-2.05244 -1.32415,-3.24417 0.33104,-2.25106 -4.03867,-1.32415 0.7945,-1.45657 -1.45657,-1.7214 -1.65519,1.52278 -2.51589,-2.78072 -1.98623,-0.8607 -1.52278,1.65519 0.66208,1.52277 -1.39036,2.31727 -0.72828,-0.92691 -1.58899,0 -0.19862,2.18485 -2.05244,2.5821 -2.51589,-0.33104 -3.31038,6.55456 3.84004,3.11176 -1.72139,1.52277 0.59586,1.92002 -2.6483,2.18486 0.33104,2.05243 -1.19174,0.99312 -1.05932,4.17108 -3.37659,-0.0662 -1.58898,-0.59587 -2.44969,1.45657 -4.63453,-4.43591 0.19862,-1.32416 -3.11176,-2.44968 -1.39037,-0.46347 -1.85381,1.19174 -1.65519,-0.99312 -2.5821,0.79449 -1.52277,-1.25794 -1.19174,-3.77384 -1.85381,-2.44968 2.05243,-4.96557 -2.18485,-2.44968 0.99312,-2.84693 -2.31727,-3.84004 1.12553,-4.36971 -4.10487,-1.58898 -0.19863,-4.50212 -1.58898,-1.45657 -0.13242,-1.98622 -2.91313,-2.31727 0.79449,-3.24418 -5.29661,2.18486 -1.92002,-0.59587 -1.98623,1.85381 0.72828,1.39036 -3.04555,2.44968 0.99312,8.34216 -3.24418,2.91314 -5.03178,-3.70763 -2.05243,2.51589 -0.79449,4.23729 -3.84005,0.13242 -1.52277,0.99311 -4.56833,-2.84693 1.32415,-5.09798 -0.52966,-1.58899 -2.18485,-0.52966 -1.19174,-0.92691 -2.6483,0.92691 c 0,0 0.66208,1.78761 0.33104,1.92002 -0.33104,0.13243 -3.24418,0.19863 -3.24418,0.19863 l -0.39724,-1.58899 -2.38348,0.8607 -2.11864,-2.5821 0.46345,3.04555 -4.51113,-4.0225 1.49811,-6.27333 6.83511,-1.49811 -6.17969,-3.08984 1.779,-2.0599 -2.99621,-3.08985 3.558,-0.74905 0.84269,-3.27711 2.62169,1.49811 c 0,0 -0.46816,-7.11602 -0.84269,-7.02238 -0.37453,0.0936 -4.30706,0.28089 -4.30706,0.28089 l -1.02995,-3.8389 -0.46816,-3.65164 -4.68158,0.93632 1.02995,-2.90258 4.11979,-1.77901 -0.74905,-1.779 -4.1198,-3.558 -0.65542,-4.86885 -1.68537,0.65542 -0.37453,2.80895 -3.65164,3.18348 -1.40448,0.93632 1.87263,1.59174 -1.87263,0.56179 -0.93632,3.37074 3.18348,2.71532 -2.24716,1.12358 -2.80895,-2.15353 0.74905,3.65164 -0.65542,2.15353 1.87263,2.43442 -1.779,1.59174 -5.80517,-1.31084 -1.4981,1.779 -5.61791,2.62169 -2.99621,4.40069 -4.40069,3.18348 -2.62169,0 z"
     id="path6465"
     style="fill:#fff6d5;fill-opacity:1;stroke:#000000;stroke-width:1px;stroke-linecap:butt;stroke-linejoin:miter;stroke-opacity:1" />
  <path
     d="m 1328.6342,263.88056 -0.2809,3.74527 1.9662,1.31085 0.2809,1.87263 2.809,0.18726 3.7453,-1.02994 0.094,-4.58796 -1.4981,-1.31084 -4.0262,0.18726 -1.8726,-0.74905 z"
     id="path7897"
     style="fill:#9300d5;fill-opacity:1;stroke:#000000;stroke-width:1px;stroke-linecap:butt;stroke-linejoin:miter;stroke-opacity:1" />
  <path
     d="m 1297.5484,289.53566 -3.7452,6.83511 1.6853,1.87264 -2.7153,1.59174 -0.8427,-1.59174 -1.3108,1.21721 -2.0599,-1.02995 -3.0899,2.99622 4.0262,2.05989 c 1.1236,0.0936 6.4606,-2.05989 6.4606,-2.05989 l 5.0561,6.74148 3.0899,1.02995 5.8051,-2.43443 3.0899,6.55422 -4.6816,3.37075 2.9962,5.05611 2.7153,-0.74905 2.1536,3.46437 3.7452,1.49811 0.7491,7.86506 -2.4345,-1.68537 -4.4006,4.1198 0,1.4981 -2.1536,-1.21721 -2.6217,1.49811 1.9663,1.96627 -1.4045,3.08984 0.7491,2.99622 4.4007,3.8389 4.2134,-3.37074 -0.5618,-2.24716 3.1835,-0.74906 0.9363,2.80895 4.1198,1.77901 1.9663,-5.71154 2.1535,2.52806 6.4606,-4.21343 -1.2172,-6.36696 1.4981,-1.49811 -1.9663,-2.34079 5.5243,-5.71153 0,-4.40069 1.3108,-0.18727 1.9663,1.68537 4.0262,5.99243 -2.5281,2.52806 2.9026,2.90258 3.8389,-0.74905 3.1835,-4.77522 -0.4682,-3.08985 3.1835,-5.14974 6.6478,-5.8988 -1.6853,-4.02616 -2.2472,-1.12358 -1.2172,-2.80896 3.6516,-3.37074 1.2172,-3.74527 -0.094,-7.11601 0.6554,-4.40069 -1.779,-0.65542 -5.0561,-0.2809 -4.5879,-6.36695 -2.0599,0.74905 1.5917,7.11601 -3.8389,2.0599 -1.6854,-1.59174 -4.1198,2.15353 -2.3408,5.43064 -5.1497,2.80895 -3.1835,-3.558 1.3109,-1.59174 -5.337,-1.49811 -5.2434,2.15353 0.1872,1.49811 -3.6516,2.15353 -4.307,-0.65543 -2.6217,-2.15353 1.4981,-2.71532 -4.588,-3.18347 0.8427,-1.77901 -6.367,0.46816 -2.1535,1.31085 0.1873,1.96626 -2.0599,1.02995 z"
     id="path7899"
     style="fill:#9300d5;fill-opacity:1;stroke:#000000;stroke-width:1px;stroke-linecap:butt;stroke-linejoin:miter;stroke-opacity:1" />
  <path
     d="m 1017.3087,300.3033 -6.8351,8.98865 -6.7415,1.779 5.0561,3.37075 3.558,8.05232 -5.337,-1.87263 0.2809,5.43064 6.3669,5.99243 1.03,4.58795 3.3707,-0.18726 0.3746,-3.46437 3.9325,-0.84269 -0.2809,-2.24716 1.6854,-0.46816 3.1835,-3.74527 -2.6217,-2.0599 0.8427,-4.21342 -2.7154,-1.59174 0.4682,-2.99622 1.9663,-1.68537 3.558,-5.43064 -3.1835,-2.52806 -1.4045,4.1198 -2.4344,-0.65542 -1.5918,-0.56179 -2.3407,-3.18348 3.3707,-3.37074 z"
     id="path8409"
     style="fill:#006400;fill-opacity:1;stroke:#000000;stroke-width:1px;stroke-linecap:butt;stroke-linejoin:miter;stroke-opacity:1" />
  <path
     d="m 910.84942,256.20276 4.68158,-1.31084 1.40448,0.93632 -0.74906,2.71532 3.27711,3.93253 2.43443,-1.96627 8.80138,6.92875 -0.0936,1.49811 -1.96627,1.779 0.2809,1.96627 c 0,0 3.46437,2.52805 2.90258,2.71532 -0.56179,0.18726 -5.33701,1.12358 -5.33701,1.12358 l -2.43442,-1.02995 -2.24716,2.99621 0,4.58796 -0.84269,4.86885 -3.18348,0.84268 1.49811,1.77901 -1.68537,4.86885 -3.55801,0.46815 -3.65163,-1.31084 1.21721,-2.99622 -0.65542,-0.93631 0.37452,-2.0599 -6.08606,-3.74527 0.0936,-2.71532 4.86885,-2.99622 2.0599,0.84269 -0.84268,-3.37074 -2.62169,-1.31085 -4.02617,-0.74905 3.74527,-3.93253 4.02617,-0.56179 -1.87264,-1.59174 1.21722,-2.71532 1.40447,-2.62169 -2.71532,0.74905 -1.02995,-3.74527 2.0599,-0.74905 z"
     id="path8411"
     style="fill:#006400;fill-opacity:1;stroke:#000000;stroke-width:1px;stroke-linecap:butt;stroke-linejoin:miter;stroke-opacity:1" />
  <path
     d="m 593.62513,759.94144 4.30706,-3.37074 4.86885,-1.21721 4.02617,3.65163 4.40069,-4.11979 2.90258,0.28089 2.52806,-3.93253 -3.27711,-2.90258 -1.21722,-0.56179 0.65543,-1.87264 -3.08985,-0.56179 -0.84269,-1.49811 2.43443,-1.40447 0.28089,-1.40448 2.80896,-0.93632 0.65542,2.15353 2.34079,-1.96626 2.80895,-2.99622 5.05612,0.18727 3.27711,-1.31085 4.21342,1.59174 4.1198,-2.24716 2.90258,1.02995 4.86885,2.0599 5.80517,6.92874 -4.49432,2.62169 -2.15353,5.24338 3.8389,2.99621 -4.02617,2.62169 0.37453,2.52806 -1.02995,2.15353 4.40069,2.52806 5.05612,6.83511 -6.36696,8.23959 6.74148,8.80139 3.18348,-0.18727 -2.52805,4.30706 -41.19796,0 -3.8389,-7.30327 -4.4007,-1.31085 -0.18726,-2.71532 -2.0599,-2.34079 5.43064,-7.02238 -2.52805,-2.0599 -2.52806,-1.87263 0.74905,-1.31085 -3.65163,-4.58795 -4.58796,-1.02995 z"
     id="path8653"
     style="fill:#0000cf;fill-opacity:1;stroke:#000000;stroke-width:1px;stroke-linecap:butt;stroke-linejoin:miter;stroke-opacity:1" />
  <path
     d="m 614.27437,474.04661 4.23728,0.26483 5.42903,6.75317 5.03178,0.39725 2.6483,9.00424 7.15043,6.88559 -1.05932,4.10487 6.22351,2.51589 1.45657,-1.32415 3.57521,2.11864 3.84005,-1.98622 4.23728,7.41525 -2.38347,4.10487 4.89936,3.70763 4.76695,-1.19174 4.23729,7.28284 -7.41525,3.97246 5.29661,10.32839 4.23728,-3.17797 3.31039,3.57521 -8.73941,6.75318 -2.25106,-1.98623 -1.58898,1.19174 -5.42903,-4.50212 -4.10487,1.85382 -2.38348,-2.11865 -2.6483,0.92691 -0.66208,-2.38348 -5.03178,-1.58898 -0.66207,4.10487 -5.03178,0.13242 1.32415,3.70763 -11.12288,2.6483 -2.91314,-2.25106 -4.10487,0.52966 1.32415,-3.04555 -9.5339,-7.94491 -5.03178,-3.17797 -5.29661,-2.91313 -1.45656,-3.17797 -4.76695,-3.04555 5.42902,-0.26483 3.4428,-5.1642 7.15042,-5.69385 3.97246,-3.97246 0.13242,-3.31038 -7.8125,-1.85382 -5.29661,0.92691 -3.31039,1.45657 -1.32415,2.78072 -3.97246,1.98623 c 0,0 -0.66207,4.50212 -1.72139,4.23729 -1.05933,-0.26483 -4.50212,-5.03178 -4.50212,-5.03178 l 2.78072,-3.57522 -2.51589,-4.23728 4.10487,-5.29661 6.48835,-0.52966 5.82627,-7.28284 -1.32415,-3.04555 6.22351,-4.50212 -2.11864,-2.78072 z"
     id="path8655"
     style="fill:#57c100;fill-opacity:1;stroke:#000000;stroke-width:1px;stroke-linecap:butt;stroke-linejoin:miter;stroke-opacity:1" />
  <path
     d="m 188.85519,755.35349 9.83133,-1.40448 1.68537,1.68537 1.59174,-1.12358 2.43442,2.0599 -2.15353,5.43064 2.43443,4.68158 4.49432,1.21722 2.0599,-1.02995 3.8389,2.52805 -0.37453,5.43064 -2.05989,2.24717 -3.8389,2.62168 -2.0599,4.77522 -6.92875,5.33701 -8.05233,4.68159 -10.29949,-6.74149 -4.58795,-10.01859 -0.37453,-6.46059 1.21721,-4.96248 5.24338,-4.02617 z"
     id="path3060"
     style="fill:#ff6600;fill-opacity:1;stroke:#000000;stroke-width:1px;stroke-linecap:butt;stroke-linejoin:miter;stroke-opacity:1" />
  <path
     d="m 216.19565,755.72801 5.99243,6.27333 8.42686,12.07849 14.51291,-9.4568 -4.49432,-6.74149 -4.11979,-0.28089 6.74148,-10.11223 -2.71532,-4.77522 -10.20586,-5.24337 -11.5167,7.02238 -1.68537,2.90258 -1.31084,4.30706 0.37452,4.40069 z"
     id="path3062"
     style="fill:#ff6600;fill-opacity:1;stroke:#000000;stroke-width:1px;stroke-linecap:butt;stroke-linejoin:miter;stroke-opacity:1" />
  <path
     d="m 259.92167,751.98274 4.86885,4.02617 8.61412,-0.93632 4.02616,-9.4568 -0.74905,-5.8988 -5.8988,-5.99243 -5.05612,0.65542 -2.90258,-2.62169 -4.58795,3.8389 3.74527,3.55801 -1.21722,3.93253 -0.56179,3.27711 z"
     id="path3064"
     style="fill:#ff6600;fill-opacity:1;stroke:#000000;stroke-width:1px;stroke-linecap:butt;stroke-linejoin:miter;stroke-opacity:1" />
  <path
     d="m 262.0752,774.07983 1.96626,-1.68537 3.46438,1.02995 0.93631,3.74527 -1.87263,4.68158 1.87263,3.37075 4.4007,1.21721 -1.96627,4.02616 -3.93253,3.18348 -6.27333,-7.30327 0.2809,-6.64786 z"
     id="path3066"
     style="fill:none;stroke:#000000;stroke-width:1px;stroke-linecap:butt;stroke-linejoin:miter;stroke-opacity:1" />
  <path
     d="m 256.55093,786.72011 5.24337,2.3408 2.0599,4.49432 -5.05611,-0.74905 -3.93254,-3.18348 z"
     id="path3068"
     style="fill:none;stroke:#000000;stroke-width:1px;stroke-linecap:butt;stroke-linejoin:miter;stroke-opacity:1" />
  <path
     d="m 250.74576,784.19206 1.59174,2.24716 4.11979,-2.24716 -3.74527,-4.49433 z"
     id="path3070"
     style="fill:none;stroke:#000000;stroke-width:1px;stroke-linecap:butt;stroke-linejoin:miter;stroke-opacity:1" />
  <path
     d="m 345.3138,844.95905 7.11601,-5.61791 13.10844,9.36318 0.74906,4.49432 c 0,0 6.36695,-0.74905 7.86506,1.87263 1.49811,2.62169 5.99243,9.7377 5.99243,9.7377 l -2.99621,4.49433 5.24337,8.23959 -9.7377,-4.86885 -1.12358,11.98486 2.24716,8.61412 -3.37074,3.74527 3.37074,10.11222 -3.74527,5.61791 -10.48675,0.74905 4.49432,9.36317 -8.23959,15.35561 11.61034,7.49053 2.24716,9.36318 10.86128,12.35938 -8.23959,6.36696 -2.24717,7.49054 -1.4981,11.61033 -16.85371,-4.86885 -9.36318,-10.48675 -15.3556,3.37074 -17.97729,-6.74148 -8.23959,4.11979 -12.35939,10.86128 -7.86506,5.24338 -8.2396,-18.72635 5.61791,-12.35938 -7.11601,-7.49054 -16.10466,7.11601 -18.72634,-11.23581 -15.35561,-4.49432 -14.60655,-3.74527 -31.08573,-29.58762 2.99622,-15.73013 -17.97729,-10.86128 -44.19418,-23.5952 17.97729,-16.47918 10.48676,2.62169 32.95836,-32.95837 30.71121,-5.6179 3.74527,-6.36696 5.24337,-1.87264 5.61791,-5.24337 -0.37453,-8.98865 7.49054,-10.86128 17.97729,11.23581 4.86885,-1.49811 11.61033,9.7377 4.1198,8.61412 -1.87264,9.36317 3.18348,-1.12358 11.04855,7.49054 8.23959,5.6179 14.41928,9.7377 7.49054,9.92496 8.98865,15.16834 5.6179,1.12358 z"
     id="path3072"
     style="fill:#ff6600;fill-opacity:1;stroke:#000000;stroke-width:1px;stroke-linecap:butt;stroke-linejoin:miter;stroke-opacity:1" />
  <path
     d="m 296.25078,1017.9905 7.11601,7.865 7.49054,4.4944 2.99621,-11.6104 9.7377,8.2396 -0.37453,8.2396 4.49433,12.3594 17.60276,12.7339 26.21688,-1.4981 27.71499,-18.7263 41.19796,-23.5952 -39.69985,-28.8386 -17.97729,-3.74527 -20.59898,37.07817 -17.97729,-1.1236 -6.74149,-11.9849 10.11223,-23.22062 -16.85371,4.1198 -9.36317,4.49432 -13.48297,-6.74149 -17.97729,9.7377 2.24716,11.61029 z"
     id="path3842"
     style="fill:#ff6600;fill-opacity:1;stroke:#000000;stroke-width:1px;stroke-linecap:butt;stroke-linejoin:miter;stroke-opacity:1" />
  <path
     d="m 276.02632,1032.9716 2.24716,4.8688 -6.36695,4.1198 -5.61791,-7.4905 -2.99621,4.4943 0,4.4943 -10.86128,4.8689 -5.99243,-2.6217 -10.11223,12.3594 -11.61033,5.2433 13.85749,13.8575 14.60655,22.8462 -16.47918,19.4754 -14.23202,-1.4981 -2.62169,-15.3556 -10.86128,1.8726 -10.48675,-3.7453 3.74526,-7.116 0.37453,-11.9849 0.37453,-4.1197 5.99243,-16.8538 -11.98486,6.7415 -33.70742,-15.7301 3.37074,-5.6179 23.22067,-12.7339 28.46404,-12.7339 24.71878,-8.6142 17.97729,4.4944 z"
     id="path3844"
     style="fill:#ff6600;fill-opacity:1;stroke:#000000;stroke-width:1px;stroke-linecap:butt;stroke-linejoin:miter;stroke-opacity:1" />
  <path
     d="m 197.37568,1093.2704 2.99621,9.3632 7.49054,9.3631 -26.96594,-8.6141 7.86507,-9.3632 z"
     id="path3846"
     style="fill:#ff6600;fill-opacity:1;stroke:#000000;stroke-width:1px;stroke-linecap:butt;stroke-linejoin:miter;stroke-opacity:1" />
  <path
     d="m 135.20421,1116.8656 c 1.49811,0.3745 21.34803,6.7415 21.34803,6.7415 l 19.10088,-13.1085 4.11979,-11.6103 -17.60276,-9.3632 -2.99622,-16.1046 -11.98486,-4.1198 -10.48675,9.7377 -20.59898,-6.367 -4.1198,14.6066 18.72635,11.6103 z"
     id="path3848"
     style="fill:#ff6600;fill-opacity:1;stroke:#000000;stroke-width:1px;stroke-linecap:butt;stroke-linejoin:miter;stroke-opacity:1" />
  <path
     d="m 231.45762,983.15947 14.98108,-13.10844 14.60655,-2.99621 8.61412,8.61411 -7.49054,6.74149 c 0,0 -15.3556,11.98486 -16.85371,11.98486 -1.49811,0 -12.73392,-6.74148 -12.73392,-6.74148 z"
     id="path3850"
     style="fill:#ff6600;fill-opacity:1;stroke:#000000;stroke-width:1px;stroke-linecap:butt;stroke-linejoin:miter;stroke-opacity:1" />
  <path
     d="m 138.94948,958.4407 19.84992,2.99621 19.10088,-13.48297 4.49432,-10.11222 -22.09709,-21.34804 15.35561,-0.37452 -2.24717,-2.24716 -39.32532,-2.24716 -10.11223,15.3556 1.87264,15.73013 z"
     id="path3852"
     style="fill:#ff6600;fill-opacity:1;stroke:#000000;stroke-width:1px;stroke-linecap:butt;stroke-linejoin:miter;stroke-opacity:1" />
  <path
     d="m 92.133617,948.32847 21.348033,-16.10466 14.60655,-24.71877 -5.24338,-7.86507 -23.595192,-11.2358 -10.86128,13.85749 -8.988646,3.37074 -3.370742,9.7377 13.482969,10.11223 0.749053,10.48675 z"
     id="path3854"
     style="fill:#ff6600;fill-opacity:1;stroke:#000000;stroke-width:1px;stroke-linecap:butt;stroke-linejoin:miter;stroke-opacity:1" />
  <path
     d="m 113.85618,875.29573 -6.36696,7.49053 7.11601,7.86507 10.86128,-8.61412 -1.87263,-6.36696 z"
     id="path3856"
     style="fill:#ff6600;fill-opacity:1;stroke:#000000;stroke-width:1px;stroke-linecap:butt;stroke-linejoin:miter;stroke-opacity:1" />
  <path
     d="m 99.624155,853.19864 23.220665,-10.86128 14.60655,2.99621 c 0,0 10.11223,-7.86506 9.7377,-10.11222 -0.37453,-2.24716 -13.10844,-12.35939 -13.10844,-12.35939 l -17.97729,13.48297 -10.86128,3.37074 z"
     id="path3858"
     style="fill:#ff6600;fill-opacity:1;stroke:#000000;stroke-width:1px;stroke-linecap:butt;stroke-linejoin:miter;stroke-opacity:1" />
  <path
     d="m 149.06171,809.37899 3.74526,13.10844 11.98486,4.49433 3.37075,-2.24716 5.6179,-11.23581 -5.99243,-5.24338 z"
     id="path3860"
     style="fill:#ff6600;fill-opacity:1;stroke:#000000;stroke-width:1px;stroke-linecap:butt;stroke-linejoin:miter;stroke-opacity:1" />
  <path
     d="m 171.53332,767.80651 4.86885,7.49053 -4.1198,3.74527 -4.49432,-7.49053 z"
     id="path3862"
     style="fill:#ff6600;fill-opacity:1;stroke:#000000;stroke-width:1px;stroke-linecap:butt;stroke-linejoin:miter;stroke-opacity:1" />
  <path
     d="m 180.14744,756.5707 -7.11601,7.49054 3.37074,1.87263 8.23959,-7.11601 z"
     id="path3864"
     style="fill:#ff6600;fill-opacity:1;stroke:#000000;stroke-width:1px;stroke-linecap:butt;stroke-linejoin:miter;stroke-opacity:1" />
  <path
     d="m 35.090042,966.23411 -5.693855,7.15042 3.707627,5.42903 7.415254,-0.7945 1.853813,-5.69385 z"
     id="path3866"
     style="fill:#ff6600;fill-opacity:1;stroke:#000000;stroke-width:1px;stroke-linecap:butt;stroke-linejoin:miter;stroke-opacity:1" />
  <path
     d="m 1236.0645,1070.5508 -12.836,8.1328 -5.8808,10.8769 -9.9942,0 -0.4902,12.8379 -3.9199,3.92 -13.9141,-0.295 0,4.4102 -0.098,3.1348 -2.9414,-0.098 0,2.2539 -0.2929,0.098 -0.1953,3.5273 -0.4903,0.098 -0.098,2.0586 -7.252,0.1953 -2.7441,2.0586 -2.2539,0.098 -1.5684,2.2539 -2.1543,-1.5683 1.2734,-2.1543 -1.4707,-2.8418 -2.7421,0.1953 -1.961,-2.5469 -2.9394,-2.8418 0,-2.9414 -13.6211,-0.098 0.098,6.3691 -14.1093,-0.293 0.1953,28.711 3.1347,0.098 23.6172,6.8594 -0.3926,26.3613 10.4844,17.0489 1.3731,-1.2735 2.7441,4.0176 1.666,0.2949 1.7637,-1.5683 2.3223,0.2656 -2.127,4.4375 -1.7637,0.1972 0.1953,1.4688 0.6856,0 0.4902,1.0781 -0.9785,1.3711 3.2324,4.4102 1.7637,2.1562 -1.2734,4.0176 -1.2735,2.8418 -2.3515,0.293 -4.1153,0.6875 -3.2343,-1.7637 -1.3711,-3.7246 0.9785,-1.2735 -6.1739,-1.5683 -2.9394,1.0781 1.2734,5.1934 2.1563,0.098 0.9804,0.6856 -0.5878,1.7656 -0.7832,4.1152 0.9785,3.1348 -2.6446,1.9609 -2.8418,-1.2754 -5.8808,-4.8007 -1.1758,0.6855 0.098,1.7637 -1.4688,1.5683 -2.1562,-1.5683 -2.6465,3.332 -2.8399,-2.0566 -3.1367,1.959 -2.7441,4.4101 -2.6446,-1.0781 -1.2754,1.0781 -2.9394,-0.2949 -0.293,-2.1563 -1.373,-1.9589 1.1758,-3.1368 -2.7422,-0.2929 -4.2149,4.3125 0.9805,3.0371 -1.9609,2.7441 1.0781,1.3711 4.5078,5.7813 -9.5039,26.3593 -9.1133,9.1133 0.3906,9.7988 -0.3906,3.1368 -2.6465,1.7636 1.666,2.0586 -1.8613,2.3516 0.9785,4.3105 -3.0371,2.2539 2.4492,2.7442 1.4707,-0.9805 0,-1.7637 2.9395,3.0391 2.8418,0.5879 5.4883,3.8203 2.6445,5.293 7.8398,6.0742 0.3926,2.7441 3.3321,4.1153 0.098,3.332 3.4297,1.4707 0.4902,1.0781 -1.4707,2.8418 0.9805,2.9395 -0.3926,4.5078 -3.1347,3.7227 26.5546,9.7011 4.7032,-4.0176 -1.666,-2.6464 0.2949,-3.2325 1.5683,-1.373 3.0371,-2.4492 -0.5878,-1.4688 1.5683,-1.666 3.5274,-1.5684 3.8222,-4.0175 2.252,-3.5274 1.373,-0.5879 1.8614,1.5664 1.2734,2.8418 2.8418,0.7852 -0.3906,1.4687 1.8613,0.8829 1.5684,-2.9395 -0.8829,-1.8633 3.0371,-4.8008 4.4102,-2.3515 1.2734,-1.7637 4.2149,4.0176 1.7637,-0.7852 1.2734,3.7246 1.666,1.4707 0.098,1.3711 2.2539,1.0782 0.3926,-1.3731 2.5468,0.5879 0.9805,-2.1543 1.1758,0.7832 -0.293,1.666 4.0176,5.9766 -1.7637,4.1172 5.4863,3.9199 0.4903,2.0566 3.332,-2.0566 -1.5684,-2.3535 3.2344,-2.8418 2.1563,1.0781 2.6445,-2.5469 2.5488,0.293 0.098,-3.2324 -1.9609,-0.9805 0.5878,-1.3711 1.8633,0.6856 9.3086,-6.7617 4.0176,-1.1758 2.8418,1.959 3.7226,4.3125 -0.1953,1.7636 2.5489,2.3516 0.9785,1.9609 7.2519,3.7227 -0.098,2.1562 -1.3731,1.1758 1.0782,4.1152 -0.7832,2.5489 4.8007,4.2129 1.1758,-0.4903 2.2539,3.4297 -0.293,2.7442 4.4102,4.5078 1.5664,0 0.2949,-1.666 2.8418,-2.8418 3.8223,0 0.1953,-1.8614 -1.9609,-2.4511 -3.8203,-1.2735 -4.2149,-5.1933 7.1543,-4.1153 1.7637,0 0.8828,-1.2734 -4.2148,-4.8027 0.4902,-3.4297 -1.7637,-1.959 2.2539,-7.0567 -2.1562,-6.0742 2.1562,-1.5683 0.293,-2.3516 2.2539,-1.373 0.5879,-5.6836 -1.0781,-2.9395 6.3711,-2.4492 1.7636,0.8828 3.8203,-1.9609 -0.7832,-1.8614 2.2539,-2.4492 2.6465,1.3711 2.6446,-1.0781 1.1757,-5.7813 -4.6054,-1.666 -0.5879,-1.7636 0.4902,-1.2735 -1.959,-1.9609 0.098,-2.7442 -3.627,-1.0761 -1.1757,2.6445 -1.6661,0.1973 -2.9394,2.7421 -3.1348,0.6875 1.1758,4.5079 -1.5684,2.1543 -3.2343,0.9804 -5.7813,3.5274 -3.4297,1.2734 -3.2324,-0.1953 -2.5488,-4.9004 -4.0176,-1.1758 -3.625,-2.9394 -3.332,-1.4688 -2.0586,1.1758 -1.0781,-2.2539 3.7246,-5.0957 -1.3711,-4.6055 -4.4102,-4.4101 -4.998,1.0781 -13.0332,-15.4824 3.5293,-2.8418 -1.1778,-2.2539 5.586,-5.1934 -3.7227,-3.4297 -1.8633,1.0781 -0.9785,-2.6464 2.4492,-3.0372 -17.2461,-16.9531 20.2832,-12.6406 -4.1152,-3.2344 -2.3516,2.6465 -5.0957,-3.8223 -0.1953,-3.4296 -2.1562,-0.8809 0.4902,-3.8223 -1.8613,-2.9394 -3.2344,0 -4.2129,-5.1934 -0.6875,-5.5859 -8.623,-8.5254 1.5683,-5.6836 -1.7636,-1.2734 -3.2344,0.8554 -0.098,-16.0449 3.2344,0 0.098,-10.8769 1.5683,0 -0.3926,-10.2891 -3.9199,0 0,-10.3867 -1.2734,-0.1953 0.1953,-21.2657 10.584,-0.098 0.2929,0.9804 9.0157,0.098 0.098,-5.9766 3.5274,-0.1 0.3925,-17.834 19.4024,-2.0566 11.6601,-4.2148 0.3926,-12.6407 -20.4804,-0.098 z m -56.7051,62.5566 2.5625,0.2774 0.209,1.0039 -0.5547,0.5547 -0.3809,1.1777 -0.8672,0 -0.2422,0.7969 -1.0742,0 -0.035,-0.9707 -0.5547,-1.0391 -1.211,-0.068 0.033,-1.0742 1.0059,0.068 1.1094,-0.7266 z"
     id="path3473"
     style="fill:#4200ff;fill-opacity:1;fill-rule:evenodd;stroke:#000000;stroke-width:1px;stroke-linecap:butt;stroke-linejoin:miter;stroke-opacity:1" />
  <path
     d="m 1361.7983,891.75781 1.4044,-2.3408 1.03,1.8726 1.8726,2.2472 2.9962,0.4681 1.5918,0 2.528,-2.6217 2.4344,-0.749 2.6217,-1.2172 1.9663,-1.2173 2.4344,-3.2771 1.8727,-3.8389 -0.7491,-1.6853 0.2809,-3.6517 -1.4981,-0.4681 -1.2172,-0.6555 -1.1236,-2.7153 -0.9363,-4.8688 -0.2809,-2.5281 -1.2172,-1.9662 -2.0599,-2.3408 -1.1236,-1.5918 0.1873,-2.1535 -0.4682,-2.3408 2.3408,-3.3707 2.9962,-2.3408 2.5281,0.1872 2.4344,-0.6554 3.6516,-2.4344 1.8727,-2.7153 4.6815,-1.03 3.7453,-1.1236 2.7153,0.094 3.3708,0.1873 1.3108,-2.7153 0.4682,-2.3408 2.3408,-4.4007 1.1236,-2.6217 2.7153,-0.7491 1.6853,0.9364 1.9663,1.4981 2.0599,1.3108 0.9363,0.5618 2.9962,-0.6554 1.5918,-1.9663 0.6554,-1.4045 0.094,-2.9025 -0.9363,-0.6555 -1.4981,-0.2809 -0.094,-1.2172 3.6516,-2.7153 2.2472,1.6854 2.9962,1.5917 1.3108,2.0599 1.779,2.3408 2.7154,2.2472 2.8089,2.2471 2.4344,3.8389 -1.1235,2.7154 -2.0599,1.2172 -1.5918,0.6554 -0.4681,2.9962 1.5917,2.6217 -0.7491,5.2434 -3.3707,2.3408 0.7491,3.0898 1.4044,3.1835 3.1835,1.6854 2.2472,-3.0899 1.3108,2.7153 1.4981,3.1835 0,1.4045 -0.3745,3.2771 2.9026,1.6854 2.2471,1.6853 2.1536,2.2472 0.8427,1.6854 0.094,2.1535 -1.1236,0.9363 -2.0599,2.3408 -0.4681,1.6854 0.1872,1.4045 -0.4681,1.779 -0.7491,1.8726 -1.2172,2.1535 -2.0599,1.8727 -4.2134,3.2771 -1.3109,-1.5918 -2.0599,-0.094 -1.9662,1.6854 -0.4682,2.6217 -1.1236,2.4344 0.4682,2.7153 0.3745,1.5918 -0.2809,0.6554 -3.0898,4.3071 -1.4045,0.3745 -2.1535,-0.4682 -2.0599,-1.5917 -2.6217,-1.8726 -2.7153,-1.03 -2.9026,-0.094 -2.6217,0.5618 -1.3109,2.4344 1.2172,2.5281 1.1236,1.4981 -1.3108,2.3408 -1.779,1.9662 -1.1236,1.8727 0.5618,1.9662 2.3408,2.1536 1.779,1.5917 1.3108,1.03 1.5918,1.2172 1.9662,1.4981 1.8727,0.8427 2.6217,0.1872 1.3108,0.4682 1.4981,-0.3745 2.7153,-2.0599 1.9663,-1.9663 1.0299,-1.0299 2.809,-0.3746 1.8726,1.779 1.2172,0.9363 1.2173,0.4682 1.2172,-0.1873 2.6217,1.4982 1.2172,1.0299 1.1236,-0.2809 2.8089,-0.5618 1.03,-0.2809 1.9662,-1.5917 1.779,-0.5618 1.3109,0.4681 1.779,0.4682 2.3408,0.1873 3.0898,1.0299 7.5842,3.0899 3.558,-3.2771 4.8688,-0.1873 1.5918,-1.3109 0.8427,-1.5917 -1.2173,-3.1835 -0.1872,-0.9363 2.6217,-2.1535 2.1535,-0.9363 2.0599,-3.1835 1.779,-7.3969 -0.1873,-0.4682 1.6854,2.3408 0.8427,-0.749 0.749,1.6853 1.1236,2.2472 1.2172,1.1236 2.2472,-0.094 1.9663,-0.9363 1.1235,-0.2809 1.03,0 1.0299,-3.6517 0.3746,-2.9962 2.2471,-1.8726 2.6217,-0.3746 1.1236,-2.9962 2.1535,-4.2134 -0.1872,-2.7153 -1.2172,-1.3109 -2.1536,-0.749 -1.779,-1.6854 -2.6217,-1.3108 -1.4044,0.9363 -0.5618,-0.094 -1.2172,-2.3408 -0.094,-3.6516 -1.6853,-1.2173 -2.7154,-4.4943 -2.2471,0.094 -2.4344,0.7491 -2.6217,-1.4045 -1.4045,-1.8726 -2.2472,-2.5281 0.9363,-3.0898 -2.0599,-1.4981 -3.2771,0.9363 -1.5917,1.4044 -1.8726,1.4045 -2.5281,2.1536 -2.8089,1.9662 -3.8389,1.03 -2.9963,0 -2.3408,2.528 -1.1235,-2.4344 -1.03,-4.0262 -0.9363,-2.2471 -2.809,-0.8427 -3.1834,-0.8427 -1.6854,-0.094 -0.9363,-0.094 -0.1873,-2.9026 -0.6554,-3.4644 -1.5917,-0.5617 -0.1873,-2.9026 -0.7491,-2.0599 -0.4681,-1.8727 1.3108,-2.528 1.4981,-1.9663 2.9026,-2.1535 0.9363,0.094 1.8727,-0.4682 0,-2.6217 1.9662,-0.8426 3.1835,-3.5581 1.8726,-0.6554 2.2472,-1.5917 2.9026,0.5618 2.1535,-1.5918 -2.0599,-2.0599 1.779,-2.9962 1.03,-0.1872 1.779,-3.0899 1.4044,-0.8427 -0.2808,-2.2471 0.5617,-0.9363 7.7715,-4.4944 5.0561,-1.9662 4.8688,-0.6555 3.558,-2.8089 0.2809,-2.3408 0.7491,-3.0899 -1.2172,-0.9363 -0.8427,-1.1236 0.6554,-2.0598 -0.749,-2.5281 -1.779,-3.558 0.5618,-2.9962 -0.1873,-3.1835 -1.1236,-2.7153 1.2172,-2.1536 1.6854,-1.1235 0.749,-3.7453 -0.1872,-4.1198 -0.094,-13.0148 -3.6517,-3.6516 -9.1759,-20.6927 -2.4344,-5.8051 -2.7153,-5.337 -2.6217,-3.2771 1.3108,-2.0599 -1.4981,-2.9963 -2.2472,-1.3108 -2.2471,-1.9663 -4.4943,-0.6554 -4.7753,0.3745 -5.7115,0.094 -6.2733,-0.2809 -6.5542,0 -3.3708,0.3746 0.3745,5.6179 0.4682,4.4943 -1.2172,2.8089 -3.0899,-1.9662 -2.9962,-0.2809 -4.0261,1.4981 -1.9663,2.3408 -3.4644,0.094 -2.7153,1.6854 -1.4981,2.7153 -1.6854,3.7452 -1.6853,2.9963 -1.03,5.0561 -1.779,6.8351 -1.0299,1.9663 -2.2472,-2.5281 -0.8427,-3.4644 -1.4045,-1.9662 -2.1535,0.4681 -2.8089,1.03 -2.809,2.6217 0.3745,2.6216 -1.2172,1.3109 -3.0898,2.0599 -1.779,2.9026 -0.094,3.8389 -1.2172,1.2172 -2.1535,0.6554 -1.779,2.2472 -0.094,3.7452 -0.6555,1.6854 -2.3408,1.9663 -2.0599,1.4044 -0.8426,2.1536 -0.7491,0.9363 -2.3408,0.9363 -2.528,-0.749 -1.779,-0.094 -2.5281,0.8426 -0.8427,3.2771 -0.4681,1.9663 -0.2809,2.5281 0.094,2.1535 -0.094,3.1835 -1.2173,2.3408 -1.4044,1.1236 -2.0599,0.9363 -2.0599,0.749 -0.3746,3.0899 1.4045,1.8726 2.6217,1.9663 2.9962,2.6217 3.6517,4.307 -1.4981,2.9026 -1.9663,2.6217 -0.3745,2.6217 -1.779,1.0299 -1.1236,0.9363 -1.2172,1.8727 -0.4682,2.6217 -0.6554,3.0898 0.094,2.7153 0.9363,2.6217 -0.1872,1.4045 -1.5918,2.1535 -3.3707,1.8727 -1.4045,2.4344 -1.9663,1.8726 -2.2471,-1.779 -3.9325,-0.3745 -2.4345,-0.1873 -0.9363,2.9962 -2.4344,1.6854 0.094,-4.0261 -1.8726,-0.6555 -2.9026,0.6555 -0.8427,2.3407 -1.6854,0.5618 -2.4344,-0.2809 -2.0599,0.3746 -0.9363,1.1235 -0.3745,1.6854 -0.9363,1.2172 -1.2173,1.03 -1.4981,0.8427 -1.1235,0.749 -1.8727,1.3109 -2.7153,1.9662 -1.8726,2.7153 0.1872,0.5618 1.03,0.9364 1.3108,0.749 1.4981,0.4682 2.0599,-0.4682 2.0599,-0.1873 3.8389,-0.749 1.4981,-0.5618 0.7491,0.094 2.0599,0.3745 1.4045,0.5618 0.8427,0.4682 1.4044,0.5618 1.3109,2.528 2.1535,4.3071 0.7491,0.6554 0.094,2.2472 1.8726,2.2471 1.2172,1.03 0.8427,1.5917 1.9663,2.3408 1.3108,2.2472 1.4045,2.7153 1.8726,1.5917 3.3708,0.9364 1.4045,0.5617 1.8726,0.7491 0.4682,-1.2172 z"
     id="path4205"
     style="fill:#660080;fill-rule:evenodd;stroke:#000000;stroke-width:1px;stroke-linecap:butt;stroke-linejoin:miter;stroke-opacity:1" />
  <path
     d="m 1557.1862,796.88481 2.4496,2.0524 0.4635,-0.331 0.2648,-3.2442 1.1255,-0.8607 1.7877,-0.5959 1.5889,-0.5296 1.1918,-1.3904 1.5227,-0.9269 1.589,-0.2648 1.7214,0.2648 1.589,0.5297 2.1187,0.3972 1.5227,0.9269 0.9931,0.9931 0.1325,1.1918 0.4634,1.6552 0.9931,0.8607 -0.1986,1.1917 -0.066,0.9931 1.3904,-0.066 1.4565,0 1.4566,1.1256 0.066,1.7876 -0.9269,4.2373 -1.8538,1.4565 -1.4566,0.7945 -0.7945,0.5297 -0.6621,0.9931 -0.1324,0.9269 -0.1324,0.9269 -0.8607,0.5959 -1.1917,0.7283 -1.258,0.7282 0.066,0.8607 -0.9269,1.9863 -2.1186,0.331 -1.5228,0.5959 -0.7283,0.8607 -1.6552,0.066 -1.92,-0.8607 -0.066,-2.0525 -0.1986,-1.1255 -1.3904,-0.9269 -1.4565,-1.5228 -0.8607,-1.0593 -0.6621,-0.3972 -1.3904,0.066 -2.3834,-0.2649 -1.3242,-0.7283 -1.7214,-1.6551 -0.4635,-2.3835 0.1987,-1.7214 0.4634,-1.3242 -0.6621,-1.9862 -1.1917,-1.1917 0.7283,-0.9269 1.7214,-0.6621 1.5228,-0.2648 0.8607,-0.7945 z"
     id="path4207"
     style="fill:#660080;fill-opacity:1;fill-rule:evenodd;stroke:#000000;stroke-width:1px;stroke-linecap:butt;stroke-linejoin:miter;stroke-opacity:1" />
  <path
     d="m 1389.9814,319.10617 -1.4981,-0.74905 -0.1873,-2.71532 -0.9363,-3.18348 1.3109,-1.02995 0.2809,-1.02995 0.3745,-1.49811 0.2809,-1.87263 1.1236,-3.27711 1.779,-0.84269 1.779,0.37453 1.3108,0.28089 2.1535,-1.779 -0.9363,-1.59174 -1.8726,-0.93632 0.094,-3.65163 3.3708,-1.77901 4.1198,0.37453 2.0598,-0.18726 0.5618,0.18726 2.1536,1.779 1.779,4.1198 0.094,1.59174 0.4682,2.24716 -0.3746,2.24716 -0.749,1.59174 -2.1535,-0.28089 -0.8427,0.28089 -0.3746,2.15353 -0.9363,1.31085 -1.5917,-0.0936 -1.6854,1.87264 -0.2809,1.02995 -1.779,0.93631 -1.779,2.71532 0.5618,0.93632 -5.337,0.74906 z"
     id="path4215"
     style="fill:#660080;fill-opacity:1;fill-rule:evenodd;stroke:#000000;stroke-width:1px;stroke-linecap:butt;stroke-linejoin:miter;stroke-opacity:1" />
  <path
     d="m 1636.3265,805.89751 2.9026,-3.7453 -2.5281,-2.809 -2.2472,-1.8726 0.3746,-2.4344 1.5917,-1.5918 2.6217,0.6555 4.2134,-2.3408 2.3408,-1.8727 4.4943,1.3109 4.8689,0.4681 -0.5618,3.3708 0.749,1.9662 1.4045,0.7491 2.3408,0.6554 2.2472,1.9663 1.5917,2.528 1.9663,1.6854 0.4681,2.4344 -1.3108,2.4345 -2.7153,5.0561 -3.3708,1.6854 -6.4606,2.2471 -9.5504,1.1236 -6.0861,-0.2809 -2.7153,-3.3707 -1.6853,-2.2472 1.6853,-2.9026 1.779,-2.2472 2.0599,-2.9962"
     id="path4217"
     style="fill:#660080;fill-opacity:1;fill-rule:evenodd;stroke:#000000;stroke-width:1px;stroke-linecap:butt;stroke-linejoin:miter;stroke-opacity:1" />
  <path
     style="fill:#800080;fill-rule:evenodd;stroke:#000000;stroke-width:1px;stroke-linecap:butt;stroke-linejoin:miter;stroke-opacity:1"
     d="m 710.45026,1074.6271 0.3277,16.6196 16.1515,0.1873 0.1404,-16.7133 z"
     id="path3418"
     inkscape:connector-curvature="0" />
  <path
     style="fill:#800080;fill-rule:evenodd;stroke:#000000;stroke-width:1px;stroke-linecap:butt;stroke-linejoin:miter;stroke-opacity:1"
     d="m 739.61656,1084.0839 1.1235,1.3108 1.6386,1.0768 1.5917,0.5618 1.0768,0.1872 1.1704,-0.047 1.779,-0.7958 1.8726,-1.1704 0.8895,-1.4045 0.1405,-2.1535 -0.2809,-1.8727 -1.2172,-2.6217 -2.0599,-1.779 c 0,0 -1.1236,-0.234 -1.5918,-0.234 -0.4681,0 -1.4981,0.094 -2.8557,0.6554 -1.3577,0.5618 -3.6049,1.9194 -4.3071,2.4812 -0.7022,0.5618 0.1873,2.0599 0.1873,2.6685 0,0.6086 -0.094,1.8258 0.047,2.1067 0.1404,0.2809 1.0767,0.9363 1.0767,0.9363 z"
     id="path3420"
     inkscape:connector-curvature="0" />
  <path
     style="fill:#800080;fill-rule:evenodd;stroke:#000000;stroke-width:1px;stroke-linecap:butt;stroke-linejoin:miter;stroke-opacity:1"
     d="m 733.97176,1132.8714 -4.5021,5.8263 9.1367,5.5615 1.7214,7.8125 5.8263,-1.0594 8.6069,2.5159 3.8401,3.8401 -9.0043,6.0911 -2.7807,5.0317 -3.9724,8.3422 7.1504,2.7807 4.8994,-3.3104 7.018,1.589 5.5614,3.4428 -0.6621,3.5752 7.1505,0.7945 7.4152,-7.2828 6.6208,-2.2511 1.9862,-3.4428 2.1186,10.9905 3.178,1.8538 -1.3241,34.5604 -26.7479,-0.6621 -9.0043,-8.4746 -12.8442,9.9312 6.2235,7.6801 -10.196,6.3559 -7.2828,-0.5297 -3.7077,3.8401 8.4746,11.1229 1.7214,3.0455 -9.2691,10.8581 -4.5021,4.7669 -14.8305,-11.3877 3.8401,-9.5339 -11.3878,-10.196 -4.2372,-7.2828 8.7394,-11.6525 -0.5297,-16.1547"
     id="path3422"
     inkscape:connector-curvature="0" />
  <path
     style="fill:#800080;fill-rule:evenodd;stroke:#000000;stroke-width:1px;stroke-linecap:butt;stroke-linejoin:miter;stroke-opacity:1"
     d="m 708.68046,1202.257 -5.429,-15.3601 c 0,0 -12.3146,-6.6208 -10.9905,-6.2236 1.3242,0.3973 -5.2966,-12.5794 -5.2966,-12.5794 l -9.9311,-0.3972 -4.5021,0.9269 -5.8263,-4.767 -8.8856,-6.2235 -8.7256,7.6801 -26.2182,0.1324 -16.0223,-18.2733 -0.9269,-3.0456 13.1091,-9.1366 -5.1642,-11.9174 2.3835,-2.1186 5.429,3.84 8.607,-12.1822 10.4608,-9.7987 19.5975,20.9216 5.429,4.2373 -3.3104,9.4015 10.4608,-0.9269 6.8856,-3.4428 9.1367,0 7.018,6.0911 3.84,-7.2829 4.767,-5.6938 8.607,-2.3835 13.7711,1.1917 7.2829,3.178 -0.1324,5.1642 -0.5297,-0.3973"
     id="path3424"
     inkscape:connector-curvature="0" />
  <path
     style="fill:#800080;fill-rule:evenodd;stroke:#000000;stroke-width:1px;stroke-linecap:butt;stroke-linejoin:miter;stroke-opacity:1"
     d="m 762.63976,1000.1914 c 0.1324,-0.26489 14.3008,-1.78764 14.3008,-1.78764 l 8.4084,-12.51324 4.8331,4.10487 7.4815,-1.92002 -9.1367,-19.26642 3.5752,-3.64142 -18.6705,-16.08845 -6.0249,-8.14354 -15.6912,-4.76695 c 0,0 -8.0773,17.54502 -7.8125,17.54502 0.2648,0 11.9836,7.41526 11.9836,7.41526 l -5.098,6.02489 4.3697,3.84004 -1.9862,5.82627 7.6138,1.6552 4.5022,4.43591 -6.0249,3.97245 0.4634,6.42214 z"
     id="path3426"
     inkscape:connector-curvature="0" />
  <path
     style="fill:#800080;fill-rule:evenodd;stroke:#000000;stroke-width:1px;stroke-linecap:butt;stroke-linejoin:miter;stroke-opacity:1"
     d="m 723.97446,983.17601 4.7007,-0.13242 -0.066,-4.83315 2.5821,-2.11865 0.6621,-2.6483 -3.509,-3.4428 0.4635,-5.69386 -5.6939,-0.0662 -2.7807,5.89247 1.1917,3.17797 -2.251,3.31038 z"
     id="path3428"
     inkscape:connector-curvature="0" />
  <path
     style="fill:#800080;fill-rule:evenodd;stroke:#000000;stroke-width:1px;stroke-linecap:butt;stroke-linejoin:miter;stroke-opacity:1"
     d="m 775.66476,1105.1978 10.2058,-4.6816 2.9026,-4.9624 -10.1122,-13.0148 -14.232,9.8313 z"
     id="path3430"
     inkscape:connector-curvature="0" />
  <path
     style="fill:#800080;fill-rule:evenodd;stroke:#000000;stroke-width:1px;stroke-linecap:butt;stroke-linejoin:miter;stroke-opacity:1"
     d="m 774.54116,1065.6852 6.4606,-2.9025 0,-1.8727 -4.4943,-7.3032 -5.337,3.6516 z"
     id="path3432"
     inkscape:connector-curvature="0" />
  <path
     style="fill:#800080;fill-rule:evenodd;stroke:#000000;stroke-width:1px;stroke-linecap:butt;stroke-linejoin:miter;stroke-opacity:1"
     d="m 572.39026,1079.8236 c 0.9363,-0.1872 21.9098,-22.6588 21.9098,-22.6588 0,0 1.8727,-11.4231 2.9962,-11.4231 1.1236,0 16.8537,7.3033 16.8537,7.3033 l 21.3481,13.6702 5.9924,0.9363 17.4155,-14.7938 -25.4678,-27.1532 7.6778,-13.8575 -15.9174,-15.16832 -8.2396,6.55422 0.1873,13.1084 -8.8014,0.7491 -14.7938,-16.6665 12.5466,-16.6664 17.041,-2.0599 18.5391,-16.10466 -8.2396,-13.67023 -10.674,-3.18348 16.8537,-13.85749 -30.1494,-28.08952 5.6179,-14.41928 -11.9849,-9.92497 11.7976,-10.48675 4.8689,-10.11223 -6.5543,-9.55043 -5.6179,-11.61034 -10.4867,3.18348 -10.1123,-11.79759 1.3109,-10.11223 -11.6103,-8.23959 -7.4906,-14.41929 -10.674,-4.86885 -34.0819,14.41929 2.6216,13.2957 8.9887,11.98486 -10.674,15.35561 0.749,15.54286 20.599,11.42307 -2.4344,9.17591 14.232,15.54287 2.809,12.35939 8.2395,20.78624 5.0562,7.49054 7.116,4.49432 8.0523,-3.93253 8.2396,0.37452 -0.9363,7.86507 0.3745,7.49054 c 0,0 -5.9924,-5.61791 -6.7415,-5.43064 -0.749,0.18726 -6.5542,0.56179 -6.5542,0.56179 0,0 -2.809,3.18348 -3.3707,5.99243 -0.5618,2.80895 -5.4307,4.11979 -5.4307,4.11979 l -3.1835,-6.74148 -2.8089,-11.7976 -2.4344,-3.74527 c 0,0 -10.2995,8.23959 -10.4868,9.92497 -0.1873,1.68537 0.9363,6.92874 1.6854,8.80138 0.749,1.87263 9.3631,7.11601 9.3631,7.11601 l -7.865,-0.56179 5.0561,13.48297 c 0,0 6.7415,2.62169 7.6778,2.62169 0.9363,0 7.3033,1.4981 7.3033,1.4981 l 0.749,8.05233 c 0,0 -2.4344,7.49054 -3.1835,8.05231 -0.749,0.5618 -3.7452,7.8651 -3.7452,7.8651 0,0 -8.6141,2.9962 -8.9887,3.7452 -0.3745,0.7491 -3.7452,5.0562 -4.1198,6.7415 -0.3745,1.6854 7.4906,5.9925 7.4906,5.9925 l 7.6778,1.4981 c 0,0 4.4943,-3.3708 5.4306,-3.3708 0.9363,0 6.367,6.5542 6.367,6.5542 l 0.9363,5.4307 -7.8651,6.1797 -11.0485,17.2282 -6.9288,12.1721 z"
     id="path3434"
     inkscape:connector-curvature="0" />
  <path
     style="fill:#800080;fill-rule:evenodd;stroke:#000000;stroke-width:1px;stroke-linecap:butt;stroke-linejoin:miter;stroke-opacity:1"
     d="m 464.90103,1114.561 10.0186,-0.2809 7.02238,-2.0599 -5.80517,-6.2733 -0.37453,-6.0861 -6.46058,2.0599 -7.02238,2.0599 c 0,0 -7.39691,4.3071 -7.58417,4.7752 -0.18727,0.4682 -0.18727,4.7753 0.37452,5.0562 0.56179,0.2808 9.83133,0.749 9.83133,0.749 z"
     id="path3436"
     inkscape:connector-curvature="0" />
  <path
     style="fill:#800080;fill-rule:evenodd;stroke:#000000;stroke-width:1px;stroke-linecap:butt;stroke-linejoin:miter;stroke-opacity:1"
     d="m 330.53952,1094.4302 2.71532,3.4644 4.86885,-0.5618 3.27711,-3.4644 -0.93632,-3.9325 -3.27711,-3.558 -5.99243,-0.9364 c 0,0 -3.37074,2.9026 -2.90258,3.1835 0.46816,0.2809 2.24716,5.8052 2.24716,5.8052 z"
     id="path3438"
     inkscape:connector-curvature="0" />
  <path
     style="fill:#800080;fill-rule:evenodd;stroke:#000000;stroke-width:1px;stroke-linecap:butt;stroke-linejoin:miter;stroke-opacity:1"
     d="m 295.98941,1074.6739 c 0.46816,0.094 4.49433,-0.1873 4.49433,-0.1873 0,0 5.05611,-2.0599 5.43064,-2.0599 0.37452,0 1.4981,-2.6217 2.15353,-2.8089 0.65542,-0.1873 2.71532,-2.9962 2.71532,-2.9962 l -0.56179,-3.1835 -2.24717,-2.7153 -2.90258,-2.1536 c 0,0 -3.65164,1.6854 -3.93253,2.7154 -0.2809,1.0299 -1.49811,4.4943 -1.49811,4.4943 l -2.24716,-2.9026 -5.8988,-0.6554 c 0,0 -1.87263,2.6217 -1.40448,2.9026 0.46816,0.2809 1.59174,3.6516 1.59174,3.6516 l 0.74906,1.4045 1.49811,1.5917 z"
     id="path3440"
     inkscape:connector-curvature="0" />
  <path
     style="fill:#800080;fill-rule:evenodd;stroke:#000000;stroke-width:1px;stroke-linecap:butt;stroke-linejoin:miter;stroke-opacity:1"
     d="m 1110.296,922.86086 c -0.2648,11.2553 -0.2648,11.12288 -0.2648,11.12288 l 13.2415,0.13242 0.5297,-11.78496 z"
     id="path3444"
     inkscape:connector-curvature="0" />
  <path
     style="fill:#800080"
     d="m 605.98838,938.47315 c -0.38405,-0.8429 -0.34927,-0.95015 0.30811,-0.95015 0.5453,0 0.74102,-0.25315 0.74102,-0.95842 0,-0.52713 0.14815,-0.86686 0.32921,-0.75496 0.49338,0.30492 0.20785,2.46042 -0.40742,3.07569 -0.46764,0.46764 -0.59461,0.41374 -0.97092,-0.41216 z"
     id="path3472"
     inkscape:connector-curvature="0" />
  <path
     style="fill:none;fill-rule:evenodd;stroke:#000000;stroke-width:1px;stroke-linecap:butt;stroke-linejoin:miter;stroke-opacity:1"
     d="m 734.11017,1134.2691 c -0.13241,0.1765 -0.24119,0.3736 -0.39724,0.5296 -0.11254,0.1126 -0.28472,0.1523 -0.39725,0.2649 -0.0624,0.062 0.0624,0.2024 0,0.2648 -0.0312,0.031 -0.1012,-0.031 -0.13241,0 -0.0312,0.031 0.0197,0.093 0,0.1324 -0.0279,0.056 -0.1045,0.077 -0.13242,0.1324 -0.0197,0.04 0.0312,0.1012 0,0.1324 -0.0312,0.031 -0.1012,-0.031 -0.13242,0 -0.0354,0.035 0.0422,0.5776 0,0.6621 -0.0279,0.056 -0.1045,0.077 -0.13241,0.1324 -0.0197,0.04 0.0197,0.093 0,0.1324 -0.0279,0.056 -0.11268,0.073 -0.13242,0.1325 -0.011,0.033 0.0136,0.6484 0,0.662 -0.0312,0.031 -0.1012,-0.031 -0.13241,0 -0.0312,0.031 0.0197,0.093 0,0.1324 -0.0279,0.056 -0.1045,0.077 -0.13242,0.1325 -0.0395,0.079 0.0624,0.2024 0,0.2648 -0.0312,0.031 -0.1012,-0.031 -0.13241,0 -0.0662,0.066 0.0662,0.331 0,0.3972 -0.27397,0.274 0.0107,-0.4186 -0.26483,0.1325 -0.0395,0.079 0.0395,0.1858 0,0.2648 -0.30301,0.606 0.0549,-0.5619 -0.26483,0.3972 -0.014,0.042 0.0197,0.093 0,0.1324 -0.27554,0.5511 0.009,-0.1415 -0.26483,0.1325 -0.0312,0.031 0.0197,0.093 0,0.1324 -0.0279,0.056 -0.0883,0.088 -0.13242,0.1324 -0.0441,0.044 -0.0766,0.1045 -0.13241,0.1324 -0.0395,0.02 -0.10121,-0.031 -0.13242,0 -0.22204,0.222 0.37122,0.1064 0.39725,0.1324 0.0312,0.031 0,0.088 0,0.1324"
     id="path3474"
     inkscape:connector-curvature="0" />
  <path
     style="fill:#800080;fill-rule:evenodd;stroke:#000000;stroke-width:1px;stroke-linecap:butt;stroke-linejoin:miter;stroke-opacity:1"
     d="m 256.75318,1055.8792 1.98623,9.2691 3.97246,15.3602 1.45656,5.9587 7.41526,-3.9725 0.66207,-9.7987 -2.6483,-8.0774 3.31038,-3.1779 5.16419,3.0455 4.63454,1.8538 4.50212,-8.8718 8.34216,0.5297 5.16419,-3.5752 -2.78072,-5.4291 -3.04555,-5.1642 5.56144,1.8539 3.04555,-1.7214 -1.58898,-5.4291 c 0,0 0.13242,-6.6207 0.79449,-6.4883 0.66208,0.1324 2.25106,-1.0593 2.25106,-1.0593 l -6.22352,-6.2236 -6.48834,-4.1048 -13.24153,5.8262 -1.05932,3.9725 -0.92691,2.1186 2.11865,4.8994 -6.35594,4.3697 -5.56144,-6.3559 -2.78072,2.7807 -0.52966,5.1642 -11.12288,5.1642 -6.22352,-2.7807 c 0,0 -3.31038,3.84 -2.78072,3.9724 0.52966,0.1324 12.9767,6.0911 12.9767,6.0911 z"
     id="path4282"
     inkscape:connector-curvature="0" />
  <path
     style="fill:#800080;fill-rule:evenodd;stroke:#000000;stroke-width:1px;stroke-linecap:butt;stroke-linejoin:miter;stroke-opacity:1"
     d="m 484.07602,1122.109 -6.55423,6.7414 -2.80895,11.9849 -8.23959,7.116 -5.43064,12.9212 0.56179,9.7377 13.67023,5.6179 10.29949,7.116 -2.05989,8.4269 4.11979,2.8089 12.54665,-8.8014 3.55801,-7.4905 -6.92875,-4.3071 2.80895,-8.2396 -0.18726,-7.116 0,-5.9924 6.92875,-4.8689 -7.30328,-11.7976 -3.37074,-10.4867 -1.12358,-7.4905 -5.80517,-4.4944 c 0,0 -4.68158,3.7453 -4.49432,4.8689 0.18726,1.1236 -0.18726,3.7453 -0.18726,3.7453 z"
     id="path4284"
     inkscape:connector-curvature="0" />
  <path
     style="fill:#800080;fill-rule:evenodd;stroke:#000000;stroke-width:1px;stroke-linecap:butt;stroke-linejoin:miter;stroke-opacity:1"
     d="m 419.28286,1168.5503 8.61412,-7.8651 -0.37453,-11.423 8.98865,0.749 9.7377,-3.1835 -0.74905,-11.0485 8.61411,-2.809 1.31085,-11.9848 -2.0599,-6.7415 -8.61412,-1.1236 -3.37074,-8.9886 -4.68159,-3.7453 -8.23959,5.9924 c 0,0 5.24338,7.6778 -4.11979,2.2472 -9.36318,-5.4307 -14.60655,-3.558 -14.60655,-3.558 l -4.49433,11.6103 -3.74527,8.9887 -7.86506,8.9886 c 0,0 6.55422,10.2995 7.49054,10.674 0.93631,0.3745 8.42685,8.6141 8.42685,8.6141 0,0 -1.12358,5.8052 -1.4981,7.4906 -0.37453,1.6853 4.11979,5.6179 5.05611,6.1797 0.93632,0.5618 6.92875,1.4981 6.17969,0.9363 z"
     id="path4286"
     inkscape:connector-curvature="0" />
  <path
     style="fill:#800080;fill-rule:evenodd;stroke:#000000;stroke-width:1px;stroke-linecap:butt;stroke-linejoin:miter;stroke-opacity:1"
     d="m 536.69704,1047.3908 6.36696,-9.3631 2.43443,-11.9849 -2.24716,-8.9886 -8.80139,-3.558 -6.74148,9.1759 2.62169,5.0561 -0.74906,9.9249 -1.87263,6.5543 z"
     id="path4288"
     inkscape:connector-curvature="0" />
  <path
     style="fill:#800080;fill-rule:evenodd;stroke:#000000;stroke-width:1px;stroke-linecap:butt;stroke-linejoin:miter;stroke-opacity:1"
     d="m 547.74559,1163.6814 c 4.30706,2.2472 8.05233,3.1835 8.80138,3.1835 0.74905,0 2.80895,-4.307 3.55801,-5.0561 0.74905,-0.7491 4.49432,-10.1122 4.49432,-10.1122 l 4.86885,-7.116 c 0,0 -6.55422,-8.4269 -7.30328,-8.6142 -0.74905,-0.1872 -3.558,-3.7452 -5.80516,-2.9962 -2.24716,0.7491 -7.30328,2.6217 -9.36318,5.4307 -2.05989,2.8089 -6.92874,6.5542 -8.05232,10.2995 -1.12358,3.7452 -0.56179,6.3669 0.37452,9.5504 0.93632,3.1835 4.86885,4.6816 4.86885,4.6816 z"
     id="path4290"
     inkscape:connector-curvature="0" />
</svg>
