<?xml version="1.0" encoding="UTF-8" standalone="no"?>
<!-- Created with Inkscape (http://www.inkscape.org/) -->

<svg
   xmlns:dc="http://purl.org/dc/elements/1.1/"
   xmlns:cc="http://creativecommons.org/ns#"
   xmlns:rdf="http://www.w3.org/1999/02/22-rdf-syntax-ns#"
   xmlns:svg="http://www.w3.org/2000/svg"
   xmlns="http://www.w3.org/2000/svg"
   xmlns:xlink="http://www.w3.org/1999/xlink"
   xmlns:sodipodi="http://sodipodi.sourceforge.net/DTD/sodipodi-0.dtd"
   xmlns:inkscape="http://www.inkscape.org/namespaces/inkscape"
   version="1.1"
   width="2000"
   height="2000"
   id="svg"
   inkscape:version="0.91 r13725"
   sodipodi:docname="claims_bg.svg">
  <sodipodi:namedview
     pagecolor="#ffffff"
     bordercolor="#666666"
     borderopacity="1"
     objecttolerance="10"
     gridtolerance="10"
     guidetolerance="10"
     inkscape:pageopacity="0"
     inkscape:pageshadow="2"
     inkscape:window-width="1920"
     inkscape:window-height="1018"
     id="namedview26"
     showgrid="false"
     inkscape:zoom="1.3350176"
     inkscape:cx="1645.715"
     inkscape:cy="1152.6682"
     inkscape:window-x="-8"
     inkscape:window-y="-8"
     inkscape:window-maximized="1"
     inkscape:current-layer="svg" />
  <defs
     id="defs4">
    <linearGradient
       x1="521.21051"
       y1="673.68604"
       x2="524.78827"
       y2="677.26379"
       id="havenGradient"
       gradientUnits="userSpaceOnUse"
       gradientTransform="matrix(1.0125,0,0,1.0125,-7.4486248,-8.4855014)"
       spreadMethod="repeat">
      <stop
         id="stop3816"
         style="stop-color:#ff62ad;stop-opacity:1"
         offset="0" />
      <stop
         id="stop3826"
         style="stop-color:#ff62ad;stop-opacity:1"
         offset="0.5" />
      <stop
         id="stop3828"
         style="stop-color:#ff62ad;stop-opacity:0"
         offset="0.5" />
      <stop
         id="stop3818"
         style="stop-color:#ff62ad;stop-opacity:0"
         offset="1" />
    </linearGradient>
  </defs>
  <metadata
     id="metadata7">
    <rdf:RDF>
      <cc:Work
         rdf:about="">
        <dc:format>image/svg+xml</dc:format>
        <dc:type
           rdf:resource="http://purl.org/dc/dcmitype/StillImage" />
        <dc:title />
      </cc:Work>
    </rdf:RDF>
  </metadata>
  <g
     id="g4170">
    <path
       style="fill:url(#havenGradient);fill-opacity:1;stroke:none"
       id="path3791"
       d="m 556.16601,633.48527 c -36.97045,0 -66.9375,29.96705 -66.9375,66.9375 0,36.97045 29.96705,66.9375 66.9375,66.9375 32.34914,0 59.35176,-22.93365 65.59375,-53.4375 0.18923,-0.92475 0.34933,-1.87429 0.5,-2.8125 0.008,-0.0522 0.0234,-0.10412 0.0312,-0.15625 0.17955,-1.19375 0.32455,-2.3655 0.4375,-3.4375 0.0946,-0.89753 0.17581,-1.67832 0.21875,-2.40625 0.0108,-0.15603 0.0215,-0.31242 0.0312,-0.46875 0.0872,-1.39829 0.15625,-2.7985 0.15625,-4.21875 0,-1.03988 -0.0469,-2.06546 -0.0937,-3.09375 l -0.5312,-0.8125 4.625,-6.625 0.125,-27.0625 c 3.11983,-0.0195 5.65662,-2.57077 5.65625,-5.6875 -3.7e-4,-3.11674 -2.53952,-5.62537 -5.65625,-5.625 l -5.09375,0.0312 -7.65625,8 2.5,2.40625 -2.78125,0.90625 -1.96875,5.09375 -1.21875,-4.03125 -1.75,-2.53125 -3.40625,-0.71875 -1.6875,-6.3125 2.0625,-5.1875 -3.6875,-5.1875 -2.3125,2.59375 -7.96875,-0.84375 -2.90625,3.5313 -6.625,-1.625 -4.125,-0.75 -6.5,-3.375 -1.5,-8.125 0.1875,-0.28125 c -0.38471,-0.0859 -0.76907,-0.17077 -1.15625,-0.25 -4.35769,-0.89171 -8.8787,-1.375 -13.5,-1.375 z" />
    <path
       style="fill:#00b0ff;fill-opacity:1;stroke:#000000;stroke-width:1px;stroke-linecap:butt;stroke-linejoin:miter;stroke-opacity:1"
       id="path3009"
       d="m 675.88476,679.01652 c 0,0.125 -0.28125,1.40625 -0.28125,1.40625 l 1.625,0.125 0.34375,-1.4375 z" />
    <path
       style="fill:#00b0ff;fill-opacity:1;stroke:#000000;stroke-width:1px;stroke-linecap:butt;stroke-linejoin:miter;stroke-opacity:1"
       id="path3011"
       d="m 693.25976,760.14152 c -0.0625,0.625 -1.1875,5 -1.1875,5 l 2,2.5625 3.5,2.25 2.1875,-2.0625 1.375,0.3125 c 0,0 5.125,-5.4375 4.875,-5.5625 -0.25,-0.125 -5,-2.6875 -5,-2.6875 l 0.875,-3.125 0.1875,-3.25 -4.25,1.5 -2.875,1.1875 -0.125,4 z" />
    <path
       style="fill:#00b0ff;fill-opacity:1;stroke:#000000;stroke-width:1px;stroke-linecap:butt;stroke-linejoin:miter;stroke-opacity:1"
       id="path3013"
       d="m 721.19726,759.82902 c -0.25,0.125 -1.9375,2.1875 -1.9375,2.1875 l 2.75,2 5,0.125 1.625,0.5625 1.75,-0.5625 -2.5625,-2 0.6875,-1.5625 -1.4375,-0.3125 -2.5625,-0.3125 z" />
    <path
       style="fill:#00b0ff;fill-opacity:1;stroke:#000000;stroke-width:1px;stroke-linecap:butt;stroke-linejoin:miter;stroke-opacity:1"
       id="path3015"
       d="m 792.75976,596.26652 c 1.9375,1.6875 7.3125,7 7.3125,7 l 3.5,-3.375 2.0625,0.375 c 0,0 2.8125,-2.75 2.5,-3 -0.3125,-0.25 -1.4375,-2.375 -1.4375,-2.375 l 2.0625,-2.3125 -0.125,-2.3125 -2.5625,-1.5 -0.5,-1.875 -2,-1.6875 1.375,-4.9375 3.5625,-2.625 -1.8125,-2.375 2.1875,-1.3125 1.8125,1.0625 2.1875,-0.25 2.3125,1.75 -1,0.875 0.5625,3.125 -2.4375,5.375 5.9375,-1.0625 0.25,-4 2.625,-2.625 1.6875,-2.1875 6,-5.0625 1,-4.125 2.25,-0.875 4.3125,-5.5 -4.8125,-2.9375 0,-10 1.5,-2 -0.125,-3.3125 -5.5625,-1.875 -0.8125,-2.125 2.125,-1.6875 2,1.6875 2.8125,-2.5625 2.25,-6.25 -4.1875,-2.0625 -2.5625,-4.4375 -2,-1.375 -1.4375,0.4375 -3.75,-2.6875 -1.375,0.5 -0.75,1.9375 -2.9375,1.5625 -2.0625,-2.8125 -3.375,0.375 -2.8125,0.625 -2.5,1.6875 -3.125,6.1875 -7.75,3.125 0.3125,3.3125 -1.625,1.625 1.25,2.25 -2.0625,2.125 0.25,1.625 1.5,1.1875 -0.6875,1.1875 -1.75,-0.5 -5.9375,1.125 -2.125,3.6875 2.9375,1.375 1.8125,-0.5625 2,2.1875 -2.1875,3.375 2.4375,5.4375 2.875,-1.375 0.6875,1.4375 -2.8125,2.125 0.9375,2 1.75,0 1.875,1.8125 -1.4375,0.6875 -1.9375,-0.625 -1.0625,-0.8125 -2.25,3.1875 3,3.875 3.3125,4 0.1875,2.1875 1.75,4 -2.0625,2.125 -2.75,-0.5625 -0.9375,1.25 2.8125,2.8125 -1.875,2 -0.1875,2.5625 2,0.875 z" />
    <path
       style="fill:#00b0ff;fill-opacity:1;stroke:#000000;stroke-width:1px;stroke-linecap:butt;stroke-linejoin:miter;stroke-opacity:1"
       id="path3017"
       d="m 705.07226,715.57902 0.9375,0.875 0.625,1 0,1.3125 -0.6875,0.75 0.8125,0.75 1,-0.5625 -0.625,-1.1875 0.1875,-1.0625 0.875,-0.25 0.125,-2.1875 0.0625,-1.5 -1.125,0.3125 -0.125,1.1875 z" />
    <path
       style="fill:#00b0ff;fill-opacity:1;stroke:#000000;stroke-width:1px;stroke-linecap:butt;stroke-linejoin:miter;stroke-opacity:1"
       id="path3019"
       d="m 631.82226,607.82902 2.9375,-0.75 -0.4375,2.25 -2.4375,0 z" />
    <path
       style="fill:#00b0ff;fill-opacity:1;stroke:#000000;stroke-width:1px;stroke-linecap:butt;stroke-linejoin:miter;stroke-opacity:1"
       id="path3021"
       d="m 954.5329,314.28936 2.65165,1.76777 2.91682,-1.85616 -2.03293,-1.94454 0.17677,-3.35876 -1.32582,-0.26516 -0.17678,3.88909 z" />
    <path
       style="fill:#00b0ff;fill-opacity:1;stroke:#000000;stroke-width:1px;stroke-linecap:butt;stroke-linejoin:miter;stroke-opacity:1"
       id="path3023"
       d="m 960.18976,305.53892 c 0.17677,0.53033 0.61872,6.27557 0.61872,6.27557 l 1.94454,2.56326 2.38648,2.20971 0.17678,2.74004 2.74004,1.23744 3.0052,-1.591 5.03814,-3.62392 2.47487,0.7955 4.94975,-2.47488 3.09359,-5.12652 -1.94454,-2.65165 0.53033,-2.03293 -3.27037,1.5026 -2.2981,-0.53033 -3.09359,4.77297 -4.06586,0.0884 -1.41422,-2.38649 -3.8007,2.56327 -3.71231,-2.2981 2.03294,-0.88389 -2.65165,-2.29809 z" />
    <path
       style="fill:#00b0ff;fill-opacity:1;stroke:#000000;stroke-width:1px;stroke-linecap:butt;stroke-linejoin:miter;stroke-opacity:1"
       id="path3025"
       d="m 965.1395,298.29107 c -0.97227,0.61872 -4.24264,2.38649 -4.24264,2.38649 l 0.35356,1.23743 4.41941,1.50261 1.85616,2.12132 3.8007,-0.35356 3.62392,3.00521 1.67938,-1.23744 2.65165,-4.94975 -2.03293,0.0884 -3.27037,3.18198 -2.47487,-1.59099 -2.74004,-1.41421 -2.12132,0.17677 z" />
    <path
       style="fill:#00b0ff;fill-opacity:1;stroke:#000000;stroke-width:1px;stroke-linecap:butt;stroke-linejoin:miter;stroke-opacity:1"
       id="path3027"
       d="m 969.78786,285.22387 0,1.8125 0.75,1.5625 -0.25,1.4375 1.25,0.5 1,-1.375 z" />
    <path
       style="fill:#00b0ff;fill-opacity:1;stroke:#000000;stroke-width:1px;stroke-linecap:butt;stroke-linejoin:miter;stroke-opacity:1"
       id="path3029"
       d="m 975.22536,282.03637 c 0,0.3125 -0.9375,2.25 -0.9375,2.25 l -1.75,1.4375 3.0625,4.25 -0.0625,3.875 -2.125,3.125 1.625,1.25 -0.5,1.125 0.8125,1.3125 3.6875,0.3125 2.125,2.0625 4.4375,-3.8125 7.1875,-0.625 4,3.875 2.5625,0.4375 3.43754,4.5 0.9375,3.8125 2.9375,1.125 2.875,-2.875 0,-27.25 -32.68754,0 z" />
    <path
       style="fill:#00b0ff;fill-opacity:1;stroke:#000000;stroke-width:1px;stroke-linecap:butt;stroke-linejoin:miter;stroke-opacity:1"
       id="path3007"
       d="m 739.32226,538.95402 -26.46875,26.46875 -21.1875,0 -2.09375,2.34375 0,3 1.125,2.125 -3.1875,-0.625 0.28125,-1.15625 -2.5625,-1.15625 -1,1.5 -6.5,-3.78125 -9.375,13.25 -4.59375,3.53125 -2.5625,-4.25 1.84375,-2.1875 -4.78125,-4.5 -5.8125,-1.53125 -4.34375,3.71875 -6.28125,0.375 -4.15625,-5.125 -7.5,5.5625 -2.46875,-2.125 -3.09375,2.125 -1.875,-2.5 -5.03125,6.90625 2.375,2.03125 -1.21875,4.96875 4.3125,3.09375 3.71875,0.6875 -2.03125,3.625 4.875,4.25 4.15625,-3.4375 -1,-2.125 0.875,-1.25 3.375,0.25 0.625,-2.125 -0.375,-3.625 0.625,-3.125 1.5,4.25 2.75,-0.125 0.25,3.5 6,5.25 3,6.25 5,2.125 8.875,-3.375 3.25,-2.375 3.75,-6.875 9.375,0.75 3.5,5.25 2.75,-4.375 3.875,0.375 c 0,0 -0.875,2.875 -1.375,3.125 -0.5,0.25 -4.375,1.875 -4.375,1.875 l 0.125,3.25 -8,-2.625 -2.25,3.75 -4.875,1.625 0.125,7 1.875,4 -2,3.625 -5.375,-0.125 -6.125,6.125 -5.875,-2.25 -2.125,-5.25 -4,-3 6.375,-3.625 3,1.125 3.5,-4 -1,-2.625 -7.25,0.125 -6.125,6 -3.25,-0.5 -0.125,3.25 -5.25,-3.5 -4.5,0 -4.375,3.5 -3.375,-2.5 -6.125,4.125 -7,-5.25 -5.375,3.5 -2.375,9.625 -12.125,-6.375 -2,1.125 -3.75,-1.25 -7.625,9.5 -3.5,0 -4.75,7.25 1.5,8.125 6.5,3.375 4.125,0.75 6.625,1.625 2.90625,-3.53125 7.96875,0.84375 2.3125,-2.59375 3.6875,5.1875 -2.0625,5.1875 1.6875,6.3125 3.40625,0.71875 1.75,2.53125 1.21875,4.03125 1.96875,-5.09375 2.78125,-0.90625 -2.5,-2.40625 7.65625,-8 5.09375,-0.0312 c 3.11673,-3.7e-4 5.65588,2.50826 5.65625,5.625 3.7e-4,3.11673 -2.53642,5.66805 -5.65625,5.6875 l -0.125,27.0625 -4.625,6.625 4.375,6.5 -3.90625,1.625 c -0.15473,3.27766 -0.93471,9.10241 -2.09375,13.28125 l 4.25,-0.625 1.59375,2.65625 2.90625,1.25 2.8125,-1.78125 4.0625,2.03125 2.84375,-1.59375 2.03125,0.90625 8.75,0.78125 3.375,-1.0625 3.96875,-1.15625 -0.0937,-3.625 2.03125,-3.6875 3.96875,-1.875 4.53125,3.09375 4.75,4.4375 3.09375,-3.09375 2.65625,2.125 0.4375,8.46875 -2.6563,3.0937 -4.59375,3.28125 -3.78125,2.71875 -1.59375,2.5 2.5625,1.59375 4.9375,-0.90625 3.09375,4 1.5,3.09375 -0.59375,3.53125 0.0625,2.46875 -2.71875,3.28125 0.875,1.3125 c 0,0 -0.89553,1.7768 -0.71875,2.21875 0.17677,0.44194 5.3125,7.25 5.3125,7.25 l 3.4375,-2.5 -0.34375,-4.21875 2.125,-2.5625 0.78125,-4 3.09375,-2.5625 3.71875,-0.53125 1.5,-3.78125 1.5,-1.78125 -1.0625,-2.21875 2.125,-1.84375 -2.46875,-6 -3.09375,0.0937 -0.4375,-1.0625 3,-1.0625 0.28125,-2.5 2.1875,-1.5625 0.53125,-2.5 -1.65625,-1.21875 -2.21875,-0.1875 0.875,-2.375 -0.4375,-1.6875 -0.28125,-2.03125 -2.71875,-0.71875 -2.125,-1.59375 -2.03125,-4.93745 c 0,0 5.1152,-5.21339 5.46875,-5.125 0.35355,0.0884 3.09375,-0.4375 3.09375,-0.4375 l 0.375,-2.21875 -1.875,-1.15625 -3.78125,-3.96875 -3.5625,-0.0937 -1.21875,4.0625 -4.15625,-3.875 -6.625,-4.34375 -9.125,-6.8125 0.625,-1.5 2.84375,1.5 1.3125,-4.59375 -4.25,-2.5625 -0.34375,-2.46875 -0.875,-1.59375 1.9375,-1.9375 -1.5,-0.625 -3.375,1.25 0.0937,-1.59375 0.96875,-1.78125 -2.1875,-3.625 0.96875,-1.125 2.1875,-0.375 1.59375,-1.5 2.75,-1.3125 2.3125,2.21875 -1,2.71875 -2.8125,1.25 -0.34375,2.46875 2.90625,2.3125 1.40625,0.59375 0.28125,1.875 -2.75,1.15625 2.375,2.5625 2.5,0.25 1.65625,-1.84375 -1.9375,-2.3125 -0.34375,-1.59375 1.40625,0.71875 1.59375,2.8125 0.78125,1.0625 1.78125,-1.40625 1.8125,-1.625 3.3125,0 -2.90625,-2 1.40625,-1.6875 3.09375,2.84375 1.84375,1.5 1.78125,4.59375 -0.625,3.71875 -1.3125,1.15625 0.875,2.03125 2.46875,0 2.125,2.90625 2.5625,0.625 2.75,-0.71875 -0.71875,-1.6875 0.96875,-1.65625 2.5625,1.3125 0.53125,2.5625 3.53125,2.21875 2.75,-0.28125 2.90625,4.59375 3.8125,5.3125 -1.25,1.78125 2.5,1.0625 2.625,0.25 0.28125,3.625 -2.21875,-0.25 -1.84375,2.375 5.3125,5.65625 3.53125,2.375 3.1875,0.375 3.53125,-2.5625 1.125,3 -2.46875,1.40625 -6.28125,1.59375 -3,8.5625 -4.75,-0.25 -3.46875,1.21875 0.96875,4 -1.9375,2.65625 -2.8125,5.46875 3.625,3.875 2.90625,-3.6875 3.28125,0.96875 5.03125,-3.90625 3.53125,-0.15625 -0.53125,1.9375 1.6875,2.8125 2.8125,1.59375 3,2.65625 2.03125,-1.6875 4.53125,-0.875 -2.75,-3.96875 6.53125,-7 0.625,-3.1875 1.59375,-1.75 0.1875,-2.03125 1.5,0.25 1.3125,2.03125 2.40625,-1.65625 -0.625,-2.75 -1.5,-1.5 -2.3125,0.53125 -1.5,-3.09375 0.4375,-2.65625 3.09375,-1.3125 1.25,-1.875 1.84375,-3 2.40625,0.1875 -1.78125,0.875 -0.28125,6 c 0,0 8.32323,8.92326 8.5,9.71875 0.17678,0.7955 0,6.375 0,6.375 l 4.59375,0.1875 9.375,-4.6875 5.03125,-5.5625 -4.0625,-5.59375 3.4375,-5.375 -6.09375,-6.46875 6.71875,-4.5 -9.375,-10.15625 -3.875,0 -2.75,-4.6875 -4.84375,-1.40625 -0.90625,-2.40625 2.5,-0.59375 -3.28125,-1.6875 -4.5,0.25 2.03125,-2.65625 2.65625,-0.0625 0.59375,-1.34375 2.3125,0.96875 3.1875,-4.0625 2.125,3.53125 1.21875,1.4375 -0.625,2.90625 3.28125,-0.28125 1.5,-2.90625 -2.65625,-3 1.59375,-3.375 2.5625,-1.125 c 0,0 -0.35355,-3.61963 0,-3.53125 0.35356,0.0884 1.6875,-1.78125 1.6875,-1.78125 l -1.59375,-2.90625 1.0625,-1.4375 2.8125,-0.25 0.375,2.03125 -1.25,0.4375 0.1875,4.25 6.625,0.1875 5.90625,-0.375 2.0625,0.96875 2.8125,-3.875 2.75,1.3125 -1.34375,3.625 6.1875,-0.78125 2.84375,-4.96875 -2.40625,-5.28125 -2.28125,-4.59375 -3.71875,-1.25 -5.65625,0.96875 7.59375,-8.03125 -0.4375,-2.3125 3.4375,-1.9375 1.875,-2.90625 2.5625,0.4375 1.75,2.375 1.53125,-0.875 -1.34375,-3 3.09375,-2.125 -1.75,-1.875 1.75,-2.09375 -2.125,-2.5625 0.96875,-2.75 -1.0625,-0.875 0.90625,-1.78125 1.3125,-4.5 -4.84375,-6.625 -2.9375,3.53125 -3,-1.78125 -1.9375,0.875 -2.125,-2.03125 -6,3.09375 0.4375,6.28125 -4.59375,1.875 -2.40625,-2.5 -8.90625,6.125 -10.25,0.6875 1.84375,-11.21875 8.40625,3.71875 5.5625,-3.4375 -1.78125,-4.625 3.90625,-5.125 -4.875,-3.625 -1.6875,0.375 -0.15625,1.21875 -2.5625,-0.34375 0.25,-3.8125 1.40625,-1.84375 4.53125,-0.625 0.53125,-2.65625 1.9375,-1.0625 -1.59375,-3.78125 -3.09375,1.9375 -8.21875,-14.3125 0.78125,-4.6875 -3.78125,-0.0937 -1.59375,-5.65625 2.46875,-3.28125 1.6875,0.8125 3.4375,1.15625 4.0625,-4.96875 -1.5,-5.90625 -3.7812,-1.78135 -2.84375,-1.84375 -3.34375,6.53125 -3.1875,0.1875 -2.21875,3.4375 -3.8125,-2.03125 -5.03125,1.6875 -1.40625,2.5625 -0.4375,-3.8125 6.34375,-1.59375 -0.15625,-2.5625 -1.0625,-2.46875 7.59375,-0.34375 0.28125,-2.65625 -1.6875,-1.0625 2.8125,-0.71875 1.15625,1.15625 1.78125,-0.71875 0.0625,-2.03125 2.84375,-4.15625 -1.3125,-3.625 -2.5,0 -1.3125,0.71875 -1.78125,-2.125 -1.9375,-0.53125 -1.3125,-2.46875 -1.6875,0 -2.125,-1.84375 -12.28125,0 z m 52.46875,132.03125 -3,3.96875 -2.1875,-1.15625 -2,1.875 2.28125,0.875 -0.84375,0.96875 1.34375,2.09375 2.21875,-0.96875 0.75,-4.28125 2.125,-2.4375 -0.6875,-0.9375 z m -8.125,2.28125 -2.71875,0.4375 -1,0.84375 2.15625,1.625 1.5625,-2.90625 z" />
    <path
       style="fill:#ff62ad;fill-opacity:1;stroke:none"
       id="path3809"
       d="m 600.80683,700.42746 a 44.627281,44.627281 0 0 1 -89.25456,0 44.627281,44.627281 0 1 1 89.25456,0 z" />
    <path
       style="fill:#940000;fill-opacity:1;stroke:#000000;stroke-width:1px;stroke-linecap:butt;stroke-linejoin:miter;stroke-opacity:1"
       id="path3845"
       d="m 925.63476,623.26652 10.125,14.75 6.5,8.375 5.375,3.5 6.375,5 1.875,-1.375 2,1.25 -3,2.625 3,5.5 3.875,0.5 -0.625,2.125 -2.75,0 -0.25,3.875 3.75,2.25 -0.375,3.5 4.125,1.875 2.625,-1.625 2.5,1.25 7.25,-1.75 2.125,0.625 2.125,-1.25 -2.25,-1.75 2.125,-0.5 6.375,-4.5 -3.625,-2.125 0.75,-3.75 -6.625,-6.375 2,-1.75 1.125,-5.375 5.625,-4.5 5.875,-3.5 -2.25,-3.375 1.375,-4.375 2.5,-1.5 -0.375,-2.375 2.625,1.125 2.99994,-2.875 3.25,0.25 1.125,-4.25 3.75,2.75 -1.5,2.625 2.625,0.625 1.75,-3.375 2.375,0.375 4.75,-4.875 1.5,-5.75 4,-3.625 -3.875,-8.5 -3.875,-1.5 2.375,-7.125 2.5,-4 3.25,-4.375 -3.25,-3.125 -5.125,1.375 0.875,-4.375 -4.25,0.375 -0.375,-3.375 -1.75,-1.125 -0.375,-1.5 -4.125,1.125 -1.75,1.625 0,-2.25 -4.62494,-8.125 -2.75,-4.375 -3,2.375 -0.125,1.5 -1.625,3.25 -2.875,2.125 -3.25,5.625 -3.125,-4.25 -3.875,0.375 -3.5,6 -3.5,-1.375 -0.625,-1.875 2.625,-1 -2.125,-2 -2.375,0.875 0.875,1.625 -1.5,1.375 -3.375,-1.375 -6.375,2.5 -3,3.25 0.375,2.5 3.5,0.875 2,2.125 2.5,0.875 -0.25,4 3.125,1.25 1.125,-2.625 1.375,2.75 -0.625,1.5 0.625,1.5 -2.75,3 -0.625,3.875 -4,1 -0.375,1.625 -3.625,0 -5.75,0.25 -0.375,-2.875 0,-3.125 -2,0.25 0.25,5 -3.5,2.5 -1.5,-1.25 -1.75,2 -2.25,-3.25 -2.25,-1 -0.375,-1.5 -2,-2 -1.5,2.25 -1.75,0.5 -0.875,2.5 -4.125,-0.375 -1.875,2.625 1.875,2.875 2.125,1.125 -0.25,2.875 2.625,0.25 1.125,-1.375 2,2.125 -3.875,2 -3.25,3.125 -2.75,-0.75 z" />
    <g
       id="g4194">
      <image
         sodipodi:absref="C:\Users\ido\civmap-client\public\img\.\7500.png"
         xlink:href=".\7500.png"
         style="fill:#9955ff"
         id="background"
         height="2000"
         width="2000"
         y="9.5"
         x="5.25" />
    </g>
  </g>
  <path
     style="fill:#660080;fill-rule:evenodd;stroke:#000000;stroke-width:1px;stroke-linecap:butt;stroke-linejoin:miter;stroke-opacity:1"
     d="m 1366.6487,900.95082 1.4044,-2.3408 1.03,1.87264 1.8726,2.24716 2.9962,0.46816 1.5918,0 2.528,-2.62169 2.4344,-0.74905 2.6217,-1.21722 1.9663,-1.21721 2.4344,-3.27711 1.8727,-3.8389 -0.7491,-1.68537 0.2809,-3.65164 -1.4981,-0.46816 -1.2172,-0.65542 -1.1236,-2.71532 -0.9363,-4.86885 -0.2809,-2.52805 c 0,0 -0.8427,-1.77901 -1.2172,-1.96627 -0.3746,-0.18726 -2.0599,-2.34079 -2.0599,-2.34079 l -1.1236,-1.59174 0.1873,-2.15353 -0.4682,-2.3408 2.3408,-3.37074 2.9962,-2.34079 2.5281,0.18726 c 0,0 2.1535,-0.56179 2.4344,-0.65542 0.2809,-0.0936 3.4644,-2.0599 3.6516,-2.43442 0.1873,-0.37453 1.8727,-2.71532 1.8727,-2.71532 l 4.6815,-1.02995 3.7453,-1.12358 2.7153,0.0936 3.3708,0.18726 1.3108,-2.71532 0.4682,-2.34079 2.3408,-4.40069 1.1236,-2.62169 2.7153,-0.74906 1.6853,0.93632 1.9663,1.49811 2.0599,1.31084 c 0,0 0.1873,0.74906 0.9363,0.56179 0.7491,-0.18726 2.9962,-0.65542 2.9962,-0.65542 l 1.5918,-1.96626 c 0,0 0.6554,-1.02995 0.6554,-1.40448 0,-0.37453 0.094,-2.90258 0.094,-2.90258 l -0.9363,-0.65543 -1.4981,-0.28089 -0.094,-1.21721 3.6516,-2.71532 2.2472,1.68537 2.9962,1.59174 1.3108,2.0599 1.779,2.34079 2.7154,2.24716 c 0,0 2.528,1.59174 2.8089,2.24716 0.2809,0.65542 2.4344,3.8389 2.4344,3.8389 l -1.1235,2.71532 -2.0599,1.21721 -1.5918,0.65543 -0.4681,2.99621 1.5917,2.62169 -0.7491,5.24338 -3.3707,2.34079 0.7491,3.08985 1.4044,3.18347 3.1835,1.68538 2.2472,-3.08985 1.3108,2.71532 1.4981,3.18348 0,1.40447 -0.3745,3.27711 2.9026,1.68538 2.2471,1.68537 2.1536,2.24716 0.8427,1.68537 0.094,2.15353 c 0,0 -0.7491,0.74905 -1.1236,0.93632 -0.3745,0.18726 -1.6854,1.96626 -2.0599,2.34079 -0.3745,0.37453 -0.4681,1.68537 -0.4681,1.68537 0,0 0.6554,0.93632 0.1872,1.40448 -0.4681,0.46815 -0.4681,1.779 -0.4681,1.779 l -0.7491,1.87263 -1.2172,2.15353 -2.0599,1.87264 -4.2134,3.27711 -1.3109,-1.59174 -2.0599,-0.0936 c 0,0 -1.9662,1.31084 -1.9662,1.68537 0,0.37452 -0.4682,2.62169 -0.4682,2.62169 0,0 -1.1236,2.05989 -1.1236,2.43442 0,0.37453 0.1873,2.0599 0.4682,2.71532 0.2809,0.65542 0.3745,1.59174 0.3745,1.59174 0,0 0.3745,-0.46816 -0.2809,0.65542 -0.6554,1.12358 -3.0898,4.30706 -3.0898,4.30706 l -1.4045,0.37453 -2.1535,-0.46816 -2.0599,-1.59174 -2.6217,-1.87263 -2.7153,-1.02995 -2.9026,-0.0936 -2.6217,0.5618 -1.3109,2.43442 1.2172,2.52806 1.1236,1.4981 c 0,0 -0.9363,1.87264 -1.3108,2.3408 -0.3745,0.46816 -1.779,1.96626 -1.779,1.96626 l -1.1236,1.87264 c 0,0 0,1.49811 0.5618,1.96626 0.5618,0.46816 1.779,1.77901 2.3408,2.15353 0.5618,0.37453 1.3108,1.40448 1.779,1.59174 0.4681,0.18727 0.6554,0.37453 1.3108,1.02995 0.6555,0.65542 0.7491,0.56179 1.5918,1.21721 0.8427,0.65543 1.4044,1.02995 1.9662,1.49811 0.5618,0.46816 0.8427,0.56179 1.8727,0.84269 1.0299,0.28089 2.1535,-0.0936 2.6217,0.18726 0.4681,0.2809 0.8426,0.46816 1.3108,0.46816 0.4682,0 0.2809,0.37453 1.4981,-0.37453 1.2172,-0.74905 1.5918,-0.93631 2.7153,-2.0599 1.1236,-1.12358 1.5918,-1.87263 1.9663,-1.96626 0.3745,-0.0936 0.7491,-0.46816 1.0299,-1.02995 0.2809,-0.56179 2.809,-0.37453 2.809,-0.37453 0,0 1.4981,1.59174 1.8726,1.77901 0.3746,0.18726 0.6555,0.74905 1.2172,0.93631 0.5618,0.18727 0.5618,0.65542 1.2173,0.46816 0.6554,-0.18726 1.2172,-0.18726 1.2172,-0.18726 l 2.6217,1.49811 1.2172,1.02994 c 0,0 -0.1873,0.2809 1.1236,-0.28089 1.3108,-0.56179 2.3407,-0.46816 2.8089,-0.56179 0.4682,-0.0936 0.1873,0.46816 1.03,-0.2809 0.8426,-0.74905 1.1235,-1.21721 1.9662,-1.59174 0.8427,-0.37452 1.779,-0.56179 1.779,-0.56179 0,0 0.7491,0.18727 1.3109,0.46816 0.5618,0.2809 0.5618,0.2809 1.779,0.46816 1.2172,0.18726 0.8427,-0.0936 2.3408,0.18726 1.4981,0.2809 3.0898,1.02995 3.0898,1.02995 l 7.5842,3.08985 3.558,-3.27711 4.8688,-0.18726 1.5918,-1.31085 c 0,0 0.8427,-1.21721 0.8427,-1.59174 0,-0.37452 -0.8427,-3.18348 -1.2173,-3.18348 -0.3745,0 -0.4681,-0.56179 -0.1872,-0.93631 0.2809,-0.37453 2.2471,-1.96627 2.6217,-2.15353 0.3745,-0.18727 1.8726,-0.56179 2.1535,-0.93632 0.2809,-0.37453 1.779,-2.52806 2.0599,-3.18348 0.2809,-0.65542 1.779,-7.3969 1.779,-7.3969 -1.0696,0.42326 -0.1229,-0.30711 -0.1873,-0.46816 l 1.6854,2.34079 0.8427,-0.74905 0.749,1.68537 1.1236,2.24716 1.2172,1.12358 2.2472,-0.0936 1.9663,-0.93632 c 0,0 0.5618,-0.28089 1.1235,-0.28089 l 1.03,0 1.0299,-3.65164 0.3746,-2.99622 c 0,0 1.6853,-1.779 2.2471,-1.87263 0.5618,-0.0936 2.1536,-0.37453 2.6217,-0.37453 0.4682,0 0.7491,-2.15353 1.1236,-2.99621 0.3745,-0.84269 2.1535,-4.21343 2.1535,-4.21343 l -0.1872,-2.71532 -1.2172,-1.31085 -2.1536,-0.74905 c 0,0 -1.3108,-1.59174 -1.779,-1.68537 -0.4681,-0.0936 -2.6217,-1.31084 -2.6217,-1.31084 l -1.4044,0.93631 c 0,0 -0.1873,0 -0.5618,-0.0936 -0.3746,-0.0936 -1.2172,-2.34079 -1.2172,-2.34079 l -0.094,-3.65164 -1.6853,-1.21721 -2.7154,-4.49432 -2.2471,0.0936 -2.4344,0.74905 -2.6217,-1.40447 -1.4045,-1.87264 -2.2472,-2.52806 0.9363,-3.08984 c 0,0 -1.6853,-1.68537 -2.0599,-1.49811 -0.3745,0.18726 -3.2771,0.93632 -3.2771,0.93632 l -1.5917,1.40447 -1.8726,1.40448 -2.5281,2.15353 c 0,0 -2.4344,1.779 -2.8089,1.96626 -0.3746,0.18727 -3.4644,0.84269 -3.8389,1.02995 -0.3746,0.18727 -2.5281,0.0936 -2.9963,0 -0.4681,-0.0936 -2.3408,2.52806 -2.3408,2.52806 l -1.1235,-2.43442 -1.03,-4.02617 -0.9363,-2.24716 -2.809,-0.84269 -3.1834,-0.84268 -1.6854,-0.0936 -0.9363,-0.0936 -0.1873,-2.90259 -0.6554,-3.46437 -1.5917,-0.56179 c 0,0 -0.2809,-2.24716 -0.1873,-2.90259 0.094,-0.65542 -0.5618,-1.40447 -0.7491,-2.05989 -0.1872,-0.65543 -0.4681,-1.87264 -0.4681,-1.87264 l 1.3108,-2.52805 c 0,0 1.1236,-1.87264 1.4981,-1.96627 0.3746,-0.0936 2.9026,-2.15353 2.9026,-2.15353 0,0 0.5618,-0.0936 0.9363,0.0936 0.3746,0.18726 1.8727,-0.46816 1.8727,-0.46816 l 0,-2.62169 c 0,0 1.5917,-0.56179 1.9662,-0.84268 0.3746,-0.2809 3.1835,-3.55801 3.1835,-3.55801 l 1.8726,-0.65542 c 0,0 1.8727,-1.59174 2.2472,-1.59174 0.3745,0 2.2472,0.84269 2.9026,0.56179 0.6554,-0.28089 2.1535,-1.59174 2.1535,-1.59174 0,0 -2.0599,-1.4981 -2.0599,-2.0599 0,-0.56179 1.779,-2.99621 1.779,-2.99621 0,0 0.9363,0.65542 1.03,-0.18726 0.094,-0.84269 1.2172,-2.90259 1.779,-3.08985 0.5618,-0.18726 1.4044,-0.46816 1.4044,-0.84269 0,-0.37452 -0.2808,-2.24716 -0.2808,-2.24716 l 0.5617,-0.93631 7.7715,-4.49433 5.0561,-1.96626 4.8688,-0.65543 3.558,-2.80895 c 0,0 0.2809,-1.96626 0.2809,-2.34079 0,-0.37453 0.7491,-3.08985 0.7491,-3.08985 l -1.2172,-0.93631 -0.8427,-1.12359 0.6554,-2.05989 -0.749,-2.52806 -1.779,-3.55801 0.5618,-2.99621 -0.1873,-3.18348 -1.1236,-2.71532 1.2172,-2.15353 1.6854,-1.12358 0.749,-3.74527 -0.1872,-4.11979 -0.094,-13.01481 -3.6517,-3.65164 -9.1759,-20.69261 -2.4344,-5.80517 -2.7153,-5.33701 -2.6217,-3.27711 1.3108,-2.0599 -1.4981,-2.99621 -2.2472,-1.31085 -2.2471,-1.96626 -4.4943,-0.65542 -4.7753,0.37452 -5.7115,0.0936 -6.2733,-0.28089 -6.5542,0 -3.3708,0.37453 0.3745,5.6179 0.4682,4.49432 -1.2172,2.80895 -3.0899,-1.96626 -2.9962,-0.2809 -4.0261,1.49811 -1.9663,2.34079 -3.4644,0.0936 -2.7153,1.68537 -1.4981,2.71532 -1.6854,3.74527 -1.6853,2.99621 -1.03,5.05611 -1.779,6.83512 -1.0299,1.96627 -2.2472,-2.52806 -0.8427,-3.46437 -1.4045,-1.96627 -2.1535,0.46816 -2.8089,1.02995 c 0,0 -2.6217,2.24716 -2.809,2.62169 -0.1873,0.37452 0.3745,2.05989 0.3745,2.62168 0,0.56179 -1.2172,1.31085 -1.2172,1.31085 l -3.0898,2.0599 -1.779,2.90258 -0.094,3.8389 -1.2172,1.21721 -2.1535,0.65542 c 0,0 -1.779,1.77901 -1.779,2.24717 0,0.46815 -0.094,3.74526 -0.094,3.74526 l -0.6555,1.68538 c 0,0 -2.0599,1.68537 -2.3408,1.96626 -0.2809,0.2809 -2.0599,1.40448 -2.0599,1.40448 l -0.8426,2.15353 c 0,0 -0.3746,0.84268 -0.7491,0.93631 -0.3745,0.0936 -1.9663,0.84269 -2.3408,0.93632 -0.3745,0.0936 -2.528,-0.74905 -2.528,-0.74905 l -1.779,-0.0936 -2.5281,0.84268 -0.8427,3.27711 -0.4681,1.96627 -0.2809,2.52806 0.094,2.15352 -0.094,3.18348 -1.2173,2.3408 -1.4044,1.12358 c 0,0 -1.6854,0.93631 -2.0599,0.93631 -0.3746,0 -2.0599,0.74906 -2.0599,0.74906 0,0 -0.4682,2.62169 -0.3746,3.08985 0.094,0.46815 1.03,1.68537 1.4045,1.87263 0.3745,0.18726 0.9363,1.12358 2.6217,1.96627 1.6854,0.84268 2.809,2.24716 2.9962,2.62168 0.1873,0.37453 3.6517,4.30706 3.6517,4.30706 0,0 -1.2172,2.52806 -1.4981,2.90259 -0.2809,0.37452 -1.8727,1.779 -1.9663,2.62169 -0.094,0.84268 -0.3745,2.62168 -0.3745,2.62168 0,0 -1.4045,0.74906 -1.779,1.02995 -0.3746,0.2809 -0.6555,0.56179 -1.1236,0.93632 -0.4682,0.37453 -1.03,1.40448 -1.2172,1.87263 -0.1873,0.46816 -0.1873,1.87264 -0.4682,2.62169 -0.2809,0.74906 -0.6554,3.08985 -0.6554,3.08985 l 0.094,2.71532 c 0,0 0.8427,1.96627 0.9363,2.62169 0.094,0.65542 0.2809,0.84268 -0.1872,1.40447 -0.4682,0.56179 -1.5918,2.15353 -1.5918,2.15353 l -3.3707,1.87264 -1.4045,2.43442 -1.9663,1.87264 -2.2471,-1.77901 -3.9325,-0.37452 -2.4345,-0.18727 -0.9363,2.99622 -2.4344,1.68537 0.094,-4.02616 -1.8726,-0.65543 -2.9026,0.65543 -0.8427,2.34079 c 0,0 -1.0299,0.56179 -1.6854,0.56179 -0.6554,0 -1.9662,-0.2809 -2.4344,-0.2809 -0.4681,0 -2.0599,0.37453 -2.0599,0.37453 0,0 -0.8427,0.56179 -0.9363,1.12358 -0.094,0.56179 -0.3745,1.68537 -0.3745,1.68537 0,0 -0.5618,0.84269 -0.9363,1.21722 -0.3746,0.37452 -0.6555,0.74905 -1.2173,1.02994 -0.5617,0.2809 -0.8426,0.46816 -1.4981,0.84269 -0.6554,0.37453 -0.6554,0.46816 -1.1235,0.74905 -0.4682,0.2809 -1.8727,1.31085 -1.8727,1.31085 0,0 -2.4344,1.59174 -2.7153,1.96626 -0.2809,0.37453 -1.8726,2.71532 -1.8726,2.71532 0,0 -0.1873,0.2809 0.1872,0.56179 0.3746,0.2809 0.6555,0.56179 1.03,0.93632 0.3745,0.37453 0.749,0.2809 1.3108,0.74906 0.5618,0.46815 0.4682,0.56179 1.4981,0.46815 1.03,-0.0936 0.8427,-0.28089 2.0599,-0.46815 1.2172,-0.18727 1.2172,-0.0936 2.0599,-0.18727 0.8427,-0.0936 3.4644,-0.74905 3.8389,-0.74905 0.3746,0 1.1236,-0.56179 1.4981,-0.56179 0.3746,0 0,-0.0936 0.7491,0.0936 0.749,0.18726 1.4981,0.28089 2.0599,0.37453 0.5618,0.0936 1.4045,0.56179 1.4045,0.56179 0,0 0.1872,0.28089 0.8427,0.46816 0.6554,0.18726 1.0299,0.0936 1.4044,0.56179 0.3746,0.46815 0.1873,0.18726 1.3109,2.52805 1.1236,2.3408 2.1535,4.30706 2.1535,4.30706 0,0 0.4682,0.18727 0.7491,0.65542 0.2809,0.46816 -0.2809,1.12358 0.094,2.24717 0.3745,1.12358 1.0299,1.40447 1.8726,2.24716 0.8427,0.84268 1.2172,1.02995 1.2172,1.02995 0,0 0.3746,1.12358 0.8427,1.59173 0.4682,0.46816 1.3109,1.49811 1.9663,2.3408 0.6554,0.84268 0.8427,1.21721 1.3108,2.24716 0.4682,1.02995 0.6555,1.87263 1.4045,2.71532 0.7491,0.84268 0.1873,1.02995 1.8726,1.59174 1.6854,0.56179 2.5281,0.65542 3.3708,0.93632 0.8427,0.28089 0.749,0.18726 1.4045,0.56179 0.6554,0.37452 1.4044,1.12358 1.8726,0.74905 0.4682,-0.37453 0.4682,-1.21721 0.4682,-1.21721 z"
     id="path4205"
     inkscape:connector-curvature="0"
     sodipodi:nodetypes="cccccccccccccccccccccccccccccccccccccccccccccsccccccccccsccccccccccccccccccccccscccccccccscsscscccccccccccsccscccssccsscccccccccccccsccsccccccssccsscccccccccsccccsscccccccccccccccccccccccccccccccccccccccccccccccccsccsccssccccccscccccccccccccccccccccccccccccccccccccccccccccccccssccccccscccccccccccccccccsccssccccccccscccccccccccccccccsscccccccccccsscscsscccccscscsccscccccscc" />
  <path
     style="fill:#660080;fill-rule:evenodd;stroke:#000000;stroke-width:1px;stroke-linecap:butt;stroke-linejoin:miter;stroke-opacity:1;fill-opacity:1"
     d="m 1562.0366,806.07786 c 2.1848,2.31726 2.5158,1.85381 2.4496,2.05243 -0.066,0.19863 0.3311,-0.8607 0.4635,-0.33104 0.1324,0.52967 0.2648,-3.24417 0.2648,-3.24417 l 1.1255,-0.8607 1.7877,-0.59587 1.5889,-0.52966 1.1918,-1.39036 1.5227,-0.92691 1.589,-0.26483 1.7214,0.26483 1.589,0.52967 2.1187,0.39724 1.5227,0.92691 0.9931,0.99311 0.1325,1.19174 0.4634,1.65519 0.9931,0.8607 -0.1986,1.19174 -0.066,0.99311 1.3904,-0.0662 1.4565,0 c 0,0 1.5228,0.72829 1.4566,1.12553 -0.066,0.39725 0.066,1.78761 0.066,1.78761 l -0.9269,4.23729 -1.8538,1.45657 -1.4566,0.79449 -0.7945,0.52966 -0.6621,0.99311 -0.1324,0.92691 -0.1324,0.92691 -0.8607,0.59586 -1.1917,0.72829 -1.258,0.72828 0.066,0.8607 -0.9269,1.98623 c 0,0 -1.8538,0.26483 -2.1186,0.33104 -0.2648,0.0662 -1.5228,0.59587 -1.5228,0.59587 0,0 -0.331,0.79449 -0.7283,0.8607 -0.3972,0.0662 -1.2579,0.19862 -1.6552,0.0662 -0.3972,-0.13241 -1.92,-0.8607 -1.92,-0.8607 l -0.066,-2.05243 -0.1986,-1.12553 -1.3904,-0.92691 c 0,0 -1.3241,-1.25794 -1.4565,-1.52277 -0.1325,-0.26483 -0.8607,-1.05933 -0.8607,-1.05933 0,0 -0.3311,-0.33103 -0.6621,-0.39724 -0.3311,-0.0662 -1.3904,0.0662 -1.3904,0.0662 l -2.3834,-0.26483 -1.3242,-0.72829 -1.7214,-1.65519 -0.4635,-2.38347 0.1987,-1.7214 c 0,0 0.3972,-1.05932 0.4634,-1.32415 0.066,-0.26483 -0.3972,-1.98623 -0.6621,-1.98623 -0.2648,0 -1.1917,-1.19174 -1.1917,-1.19174 l 0.7283,-0.92691 c 0,0 1.2579,-0.59587 1.7214,-0.66207 0.4634,-0.0662 1.5228,-0.26483 1.5228,-0.26483 l 0.8607,-0.7945 z"
     id="path4207"
     inkscape:connector-curvature="0" />
  <path
     style="fill:#660080;fill-rule:evenodd;stroke:#000000;stroke-width:1px;stroke-linecap:butt;stroke-linejoin:miter;stroke-opacity:1;fill-opacity:1"
     d="m 1394.8318,328.29919 c -1.4981,-0.74905 -1.4981,-0.74905 -1.4981,-0.74905 l -0.1873,-2.71532 -0.9363,-3.18348 1.3109,-1.02995 0.2809,-1.02995 0.3745,-1.49811 0.2809,-1.87263 1.1236,-3.27711 1.779,-0.84269 1.779,0.37453 1.3108,0.28089 2.1535,-1.779 -0.9363,-1.59174 -1.8726,-0.93632 0.094,-3.65163 3.3708,-1.77901 4.1198,0.37453 2.0598,-0.18726 0.5618,0.18726 2.1536,1.779 1.779,4.1198 0.094,1.59174 0.4682,2.24716 -0.3746,2.24716 c 0,0 -0.3745,1.59174 -0.749,1.59174 -0.3745,0 -2.1535,-0.28089 -2.1535,-0.28089 l -0.8427,0.28089 -0.3746,2.15353 c 0,0 -0.5618,1.21721 -0.9363,1.31085 -0.3745,0.0936 -1.5917,-0.0936 -1.5917,-0.0936 l -1.6854,1.87264 -0.2809,1.02995 c 0,0 -1.3108,0.46816 -1.779,0.93631 -0.4681,0.46816 -1.779,2.71532 -1.779,2.71532 l 0.5618,0.93632 -5.337,0.74906 z"
     id="path4215"
     inkscape:connector-curvature="0" />
  <path
     style="fill:#660080;fill-rule:evenodd;stroke:#000000;stroke-width:1px;stroke-linecap:butt;stroke-linejoin:miter;stroke-opacity:1;fill-opacity:1"
     d="m 1641.1769,815.09053 c 2.2471,-2.99622 2.9026,-3.74527 2.9026,-3.74527 l -2.5281,-2.80895 -2.2472,-1.87264 0.3746,-2.43442 1.5917,-1.59174 2.6217,0.65542 4.2134,-2.34079 2.3408,-1.87264 4.4943,1.31085 4.8689,0.46815 -0.5618,3.37075 0.749,1.96626 1.4045,0.74906 c 0,0 1.9663,0.37452 2.3408,0.65542 0.3745,0.28089 1.779,1.31084 2.2472,1.96626 0.4681,0.65543 1.1236,2.15353 1.5917,2.52806 0.4682,0.37453 1.9663,1.68537 1.9663,1.68537 l 0.4681,2.43443 -1.3108,2.43442 -2.7153,5.05611 -3.3708,1.68538 -6.4606,2.24716 -9.5504,1.12358 -6.0861,-0.2809 -2.7153,-3.37074 -1.6853,-2.24716 1.6853,-2.90258 1.779,-2.24717 2.0599,-2.99621"
     id="path4217"
     inkscape:connector-curvature="0" />
</svg>
