<?xml version="1.0" encoding="UTF-8" standalone="no"?>
<!-- Created with Inkscape (http://www.inkscape.org/) -->

<svg
   xmlns:dc="http://purl.org/dc/elements/1.1/"
   xmlns:cc="http://creativecommons.org/ns#"
   xmlns:rdf="http://www.w3.org/1999/02/22-rdf-syntax-ns#"
   xmlns:svg="http://www.w3.org/2000/svg"
   xmlns="http://www.w3.org/2000/svg"
   version="1.1"
   width="2000"
   height="2000"
   id="svg">
  <defs
     id="defs4">
    <linearGradient
       x1="520.29034"
       y1="672.76587"
       x2="527.78705"
       y2="680.26257"
       id="havenGradient"
       gradientUnits="userSpaceOnUse"
       gradientTransform="matrix(1.0125,0,0,1.0125,-12.504738,-17.567779)"
       spreadMethod="repeat">
      <stop
         id="stop3816"
         style="stop-color:#ff62ad;stop-opacity:1"
         offset="0" />
      <stop
         id="stop3826"
         style="stop-color:#ff62ad;stop-opacity:1"
         offset="0.5" />
      <stop
         id="stop3828"
         style="stop-color:#ff62ad;stop-opacity:0"
         offset="0.5" />
      <stop
         id="stop3818"
         style="stop-color:#ff62ad;stop-opacity:0"
         offset="1" />
    </linearGradient>
    <linearGradient
       x1="520.29034"
       y1="672.76587"
       x2="527.78705"
       y2="680.26257"
       id="veniceGradient"
       gradientUnits="userSpaceOnUse"
       gradientTransform="matrix(1.0125,0,0,1.0125,-12.504738,-17.567779)"
       spreadMethod="repeat">
      <stop
         id="stop4110"
         style="stop-color:#ffd42a;stop-opacity:1"
         offset="0" />
      <stop
         id="stop4112"
         style="stop-color:#ffd42a;stop-opacity:1"
         offset="0.5" />
      <stop
         id="stop4114"
         style="stop-color:#ffd42a;stop-opacity:0"
         offset="0.5" />
      <stop
         id="stop4116"
         style="stop-color:#ffd42a;stop-opacity:0"
         offset="1" />
    </linearGradient>
  </defs>
  <metadata
     id="metadata7">
    <rdf:RDF>
      <cc:Work
         rdf:about="">
        <dc:format>image/svg+xml</dc:format>
        <dc:type
           rdf:resource="http://purl.org/dc/dcmitype/StillImage" />
        <dc:title></dc:title>
      </cc:Work>
    </rdf:RDF>
  </metadata>
  <path
     d="m 551.1099,624.40299 c -36.97045,0 -66.9375,29.96705 -66.9375,66.9375 0,36.97045 29.96705,66.9375 66.9375,66.9375 32.34914,0 59.35176,-22.93365 65.59375,-53.4375 0.18923,-0.92475 0.34933,-1.87429 0.5,-2.8125 0.008,-0.0522 0.0234,-0.10412 0.0312,-0.15625 0.17955,-1.19375 0.32455,-2.3655 0.4375,-3.4375 0.0946,-0.89753 0.17581,-1.67832 0.21875,-2.40625 0.0108,-0.15603 0.0215,-0.31242 0.0312,-0.46875 0.0872,-1.39829 0.15625,-2.7985 0.15625,-4.21875 0,-1.03988 -0.0469,-2.06546 -0.0937,-3.09375 l -0.5312,-0.8125 4.625,-6.625 0.125,-27.0625 c 3.11983,-0.0195 5.65662,-2.57077 5.65625,-5.6875 -3.7e-4,-3.11674 -2.53952,-5.62537 -5.65625,-5.625 l -5.09375,0.0312 -7.65625,8 2.5,2.40625 -2.78125,0.90625 -1.96875,5.09375 -1.21875,-4.03125 -1.75,-2.53125 -3.40625,-0.71875 -1.6875,-6.3125 2.0625,-5.1875 -3.6875,-5.1875 -2.3125,2.59375 -7.96875,-0.84375 -2.90625,3.5313 -6.625,-1.625 -4.125,-0.75 -6.5,-3.375 -1.5,-8.125 0.1875,-0.28125 c -0.38471,-0.0859 -0.76907,-0.17077 -1.15625,-0.25 -4.35769,-0.89171 -8.8787,-1.375 -13.5,-1.375 z"
     id="path3791"
     style="fill:url(#havenGradient);fill-opacity:1;stroke:none" />
  <path
     d="m 670.82865,669.93424 c 0,0.125 -0.28125,1.40625 -0.28125,1.40625 l 1.625,0.125 0.34375,-1.4375 z"
     id="path3009"
     style="fill:#00b0ff;fill-opacity:1;stroke:#000000;stroke-width:1px;stroke-linecap:butt;stroke-linejoin:miter;stroke-opacity:1" />
  <path
     d="m 688.20365,751.05924 c -0.0625,0.625 -1.1875,5 -1.1875,5 l 2,2.5625 3.5,2.25 2.1875,-2.0625 1.375,0.3125 c 0,0 5.125,-5.4375 4.875,-5.5625 -0.25,-0.125 -5,-2.6875 -5,-2.6875 l 0.875,-3.125 0.1875,-3.25 -4.25,1.5 -2.875,1.1875 -0.125,4 z"
     id="path3011"
     style="fill:#00b0ff;fill-opacity:1;stroke:#000000;stroke-width:1px;stroke-linecap:butt;stroke-linejoin:miter;stroke-opacity:1" />
  <path
     d="m 716.14115,750.74674 c -0.25,0.125 -1.9375,2.1875 -1.9375,2.1875 l 2.75,2 5,0.125 1.625,0.5625 1.75,-0.5625 -2.5625,-2 0.6875,-1.5625 -1.4375,-0.3125 -2.5625,-0.3125 z"
     id="path3013"
     style="fill:#00b0ff;fill-opacity:1;stroke:#000000;stroke-width:1px;stroke-linecap:butt;stroke-linejoin:miter;stroke-opacity:1" />
  <path
     d="m 787.70365,587.18424 c 1.9375,1.6875 7.3125,7 7.3125,7 l 3.5,-3.375 2.0625,0.375 c 0,0 2.8125,-2.75 2.5,-3 -0.3125,-0.25 -1.4375,-2.375 -1.4375,-2.375 l 2.0625,-2.3125 -0.125,-2.3125 -2.5625,-1.5 -0.5,-1.875 -2,-1.6875 1.375,-4.9375 3.5625,-2.625 -1.8125,-2.375 2.1875,-1.3125 1.8125,1.0625 2.1875,-0.25 2.3125,1.75 -1,0.875 0.5625,3.125 -2.4375,5.375 5.9375,-1.0625 0.25,-4 2.625,-2.625 1.6875,-2.1875 6,-5.0625 1,-4.125 2.25,-0.875 4.3125,-5.5 -4.8125,-2.9375 0,-10 1.5,-2 -0.125,-3.3125 -5.5625,-1.875 -0.8125,-2.125 2.125,-1.6875 2,1.6875 2.8125,-2.5625 2.25,-6.25 -4.1875,-2.0625 -2.5625,-4.4375 -2,-1.375 -1.4375,0.4375 -3.75,-2.6875 -1.375,0.5 -0.75,1.9375 -2.9375,1.5625 -2.0625,-2.8125 -3.375,0.375 -2.8125,0.625 -2.5,1.6875 -3.125,6.1875 -7.75,3.125 0.3125,3.3125 -1.625,1.625 1.25,2.25 -2.0625,2.125 0.25,1.625 1.5,1.1875 -0.6875,1.1875 -1.75,-0.5 -5.9375,1.125 -2.125,3.6875 2.9375,1.375 1.8125,-0.5625 2,2.1875 -2.1875,3.375 2.4375,5.4375 2.875,-1.375 0.6875,1.4375 -2.8125,2.125 0.9375,2 1.75,0 1.875,1.8125 -1.4375,0.6875 -1.9375,-0.625 -1.0625,-0.8125 -2.25,3.1875 3,3.875 3.3125,4 0.1875,2.1875 1.75,4 -2.0625,2.125 -2.75,-0.5625 -0.9375,1.25 2.8125,2.8125 -1.875,2 -0.1875,2.5625 2,0.875 z"
     id="path3015"
     style="fill:#00b0ff;fill-opacity:1;stroke:#000000;stroke-width:1px;stroke-linecap:butt;stroke-linejoin:miter;stroke-opacity:1" />
  <path
     d="m 700.01615,706.49674 0.9375,0.875 0.625,1 0,1.3125 -0.6875,0.75 0.8125,0.75 1,-0.5625 -0.625,-1.1875 0.1875,-1.0625 0.875,-0.25 0.125,-2.1875 0.0625,-1.5 -1.125,0.3125 -0.125,1.1875 z"
     id="path3017"
     style="fill:#00b0ff;fill-opacity:1;stroke:#000000;stroke-width:1px;stroke-linecap:butt;stroke-linejoin:miter;stroke-opacity:1" />
  <path
     d="m 626.76615,598.74674 2.9375,-0.75 -0.4375,2.25 -2.4375,0 z"
     id="path3019"
     style="fill:#00b0ff;fill-opacity:1;stroke:#000000;stroke-width:1px;stroke-linecap:butt;stroke-linejoin:miter;stroke-opacity:1" />
  <path
     d="m 949.41058,305.07466 2.65165,1.76777 2.91682,-1.85616 -2.03293,-1.94454 0.17677,-3.35876 -1.32582,-0.26516 -0.17678,3.88909 z"
     id="path3021"
     style="fill:#00b0ff;fill-opacity:1;stroke:#000000;stroke-width:1px;stroke-linecap:butt;stroke-linejoin:miter;stroke-opacity:1" />
  <path
     d="m 954.14053,296.39043 c 0.17677,0.53033 0.61872,6.27557 0.61872,6.27557 l 1.94454,2.56326 2.38648,2.20971 0.17678,2.74004 2.74004,1.23744 3.0052,-1.591 5.03814,-3.62392 2.47487,0.7955 4.94975,-2.47488 3.09359,-5.12652 -1.94454,-2.65165 0.53033,-2.03293 -3.27037,1.5026 -2.2981,-0.53033 -3.09359,4.77297 -4.06586,0.0884 -1.41422,-2.38649 -3.8007,2.56327 -3.71231,-2.2981 2.03294,-0.88389 -2.65165,-2.29809 z"
     id="path3023"
     style="fill:#00b0ff;fill-opacity:1;stroke:#000000;stroke-width:1px;stroke-linecap:butt;stroke-linejoin:miter;stroke-opacity:1" />
  <path
     d="m 959.75235,288.54671 c -0.97227,0.61872 -4.24264,2.38649 -4.24264,2.38649 l 0.35356,1.23743 4.41941,1.50261 1.85616,2.12132 3.8007,-0.35356 3.62392,3.00521 1.67938,-1.23744 2.65165,-4.94975 -2.03293,0.0884 -3.27037,3.18198 -2.47487,-1.59099 -2.74004,-1.41421 -2.12132,0.17677 z"
     id="path3025"
     style="fill:#00b0ff;fill-opacity:1;stroke:#000000;stroke-width:1px;stroke-linecap:butt;stroke-linejoin:miter;stroke-opacity:1" />
  <path
     d="m 964.35884,276.08721 0,1.8125 0.75,1.5625 -0.25,1.4375 1.25,0.5 1,-1.375 z"
     id="path3027"
     style="fill:#00b0ff;fill-opacity:1;stroke:#000000;stroke-width:1px;stroke-linecap:butt;stroke-linejoin:miter;stroke-opacity:1" />
  <path
     d="m 969.92875,272.56867 c 0,0.3125 -0.9375,2.25 -0.9375,2.25 l -1.75,1.4375 3.0625,4.25 -0.0625,3.875 -2.125,3.125 1.625,1.25 -0.5,1.125 0.8125,1.3125 3.6875,0.3125 2.125,2.0625 4.4375,-3.8125 7.1875,-0.625 4,3.875 2.56253,0.4375 3.4375,4.5 0.9375,3.8125 2.93752,1.125 2.875,-2.875 0,-27.25 -32.68755,0 z"
     id="path3029"
     style="fill:#00b0ff;fill-opacity:1;stroke:#000000;stroke-width:1px;stroke-linecap:butt;stroke-linejoin:miter;stroke-opacity:1" />
  <path
     d="m 734.26615,529.87174 -26.46875,26.46875 -21.1875,0 -2.09375,2.34375 0,3 1.125,2.125 -3.1875,-0.625 0.28125,-1.15625 -2.5625,-1.15625 -1,1.5 -6.5,-3.78125 -9.375,13.25 -4.59375,3.53125 -2.5625,-4.25 1.84375,-2.1875 -4.78125,-4.5 -5.8125,-1.53125 -4.34375,3.71875 -6.28125,0.375 -4.15625,-5.125 -7.5,5.5625 -2.46875,-2.125 -3.09375,2.125 -1.875,-2.5 -5.03125,6.90625 2.375,2.03125 -1.21875,4.96875 4.3125,3.09375 3.71875,0.6875 -2.03125,3.625 4.875,4.25 4.15625,-3.4375 -1,-2.125 0.875,-1.25 3.375,0.25 0.625,-2.125 -0.375,-3.625 0.625,-3.125 1.5,4.25 2.75,-0.125 0.25,3.5 6,5.25 3,6.25 5,2.125 8.875,-3.375 3.25,-2.375 3.75,-6.875 9.375,0.75 3.5,5.25 2.75,-4.375 3.875,0.375 c 0,0 -0.875,2.875 -1.375,3.125 -0.5,0.25 -4.375,1.875 -4.375,1.875 l 0.125,3.25 -8,-2.625 -2.25,3.75 -4.875,1.625 0.125,7 1.875,4 -2,3.625 -5.375,-0.125 -6.125,6.125 -5.875,-2.25 -2.125,-5.25 -4,-3 6.375,-3.625 3,1.125 3.5,-4 -1,-2.625 -7.25,0.125 -6.125,6 -3.25,-0.5 -0.125,3.25 -5.25,-3.5 -4.5,0 -4.375,3.5 -3.375,-2.5 -6.125,4.125 -7,-5.25 -5.375,3.5 -2.375,9.625 -12.125,-6.375 -2,1.125 -3.75,-1.25 -7.625,9.5 -3.5,0 -4.75,7.25 1.5,8.125 6.5,3.375 4.125,0.75 6.625,1.625 2.90625,-3.53125 7.96875,0.84375 2.3125,-2.59375 3.6875,5.1875 -2.0625,5.1875 1.6875,6.3125 3.40625,0.71875 1.75,2.53125 1.21875,4.03125 1.96875,-5.09375 2.78125,-0.90625 -2.5,-2.40625 7.65625,-8 5.09375,-0.0312 c 3.11673,-3.7e-4 5.65588,2.50826 5.65625,5.625 3.7e-4,3.11673 -2.53642,5.66805 -5.65625,5.6875 l -0.125,27.0625 -4.625,6.625 4.375,6.5 -3.90625,1.625 c -0.15473,3.27766 -0.93471,9.10241 -2.09375,13.28125 l 4.25,-0.625 1.59375,2.65625 2.90625,1.25 2.8125,-1.78125 4.0625,2.03125 2.84375,-1.59375 2.03125,0.90625 8.75,0.78125 3.375,-1.0625 3.96875,-1.15625 -0.0937,-3.625 2.03125,-3.6875 3.96875,-1.875 4.53125,3.09375 4.75,4.4375 3.09375,-3.09375 2.65625,2.125 0.4375,8.46875 -2.6563,3.0937 -4.59375,3.28125 -3.78125,2.71875 -1.59375,2.5 2.5625,1.59375 4.9375,-0.90625 3.09375,4 1.5,3.09375 -0.59375,3.53125 0.0625,2.46875 -2.71875,3.28125 0.875,1.3125 c 0,0 -0.89553,1.7768 -0.71875,2.21875 0.17677,0.44194 5.3125,7.25 5.3125,7.25 l 3.4375,-2.5 -0.34375,-4.21875 2.125,-2.5625 0.78125,-4 3.09375,-2.5625 3.71875,-0.53125 1.5,-3.78125 1.5,-1.78125 -1.0625,-2.21875 2.125,-1.84375 -2.46875,-6 -3.09375,0.0937 -0.4375,-1.0625 3,-1.0625 0.28125,-2.5 2.1875,-1.5625 0.53125,-2.5 -1.65625,-1.21875 -2.21875,-0.1875 0.875,-2.375 -0.4375,-1.6875 -0.28125,-2.03125 -2.71875,-0.71875 -2.125,-1.59375 -2.03125,-4.93745 c 0,0 5.1152,-5.21339 5.46875,-5.125 0.35355,0.0884 3.09375,-0.4375 3.09375,-0.4375 l 0.375,-2.21875 -1.875,-1.15625 -3.78125,-3.96875 -3.5625,-0.0937 -1.21875,4.0625 -4.15625,-3.875 -6.625,-4.34375 -9.125,-6.8125 0.625,-1.5 2.84375,1.5 1.3125,-4.59375 -4.25,-2.5625 -0.34375,-2.46875 -0.875,-1.59375 1.9375,-1.9375 -1.5,-0.625 -3.375,1.25 0.0937,-1.59375 0.96875,-1.78125 -2.1875,-3.625 0.96875,-1.125 2.1875,-0.375 1.59375,-1.5 2.75,-1.3125 2.3125,2.21875 -1,2.71875 -2.8125,1.25 -0.34375,2.46875 2.90625,2.3125 1.40625,0.59375 0.28125,1.875 -2.75,1.15625 2.375,2.5625 2.5,0.25 1.65625,-1.84375 -1.9375,-2.3125 -0.34375,-1.59375 1.40625,0.71875 1.59375,2.8125 0.78125,1.0625 1.78125,-1.40625 1.8125,-1.625 3.3125,0 -2.90625,-2 1.40625,-1.6875 3.09375,2.84375 1.84375,1.5 1.78125,4.59375 -0.625,3.71875 -1.3125,1.15625 0.875,2.03125 2.46875,0 2.125,2.90625 2.5625,0.625 2.75,-0.71875 -0.71875,-1.6875 0.96875,-1.65625 2.5625,1.3125 0.53125,2.5625 3.53125,2.21875 2.75,-0.28125 2.90625,4.59375 3.8125,5.3125 -1.25,1.78125 2.5,1.0625 2.625,0.25 0.28125,3.625 -2.21875,-0.25 -1.84375,2.375 5.3125,5.65625 3.53125,2.375 3.1875,0.375 3.53125,-2.5625 1.125,3 -2.46875,1.40625 -6.28125,1.59375 -3,8.5625 -4.75,-0.25 -3.46875,1.21875 0.96875,4 -1.9375,2.65625 -2.8125,5.46875 3.625,3.875 2.90625,-3.6875 3.28125,0.96875 5.03125,-3.90625 3.53125,-0.15625 -0.53125,1.9375 1.6875,2.8125 2.8125,1.59375 3,2.65625 2.03125,-1.6875 4.53125,-0.875 -2.75,-3.96875 6.53125,-7 0.625,-3.1875 1.59375,-1.75 0.1875,-2.03125 1.5,0.25 1.3125,2.03125 2.40625,-1.65625 -0.625,-2.75 -1.5,-1.5 -2.3125,0.53125 -1.5,-3.09375 0.4375,-2.65625 3.09375,-1.3125 1.25,-1.875 1.84375,-3 2.40625,0.1875 -1.78125,0.875 -0.28125,6 c 0,0 8.32323,8.92326 8.5,9.71875 0.17678,0.7955 0,6.375 0,6.375 l 4.59375,0.1875 9.375,-4.6875 5.03125,-5.5625 -4.0625,-5.59375 3.4375,-5.375 -6.09375,-6.46875 6.71875,-4.5 -9.375,-10.15625 -3.875,0 -2.75,-4.6875 -4.84375,-1.40625 -0.90625,-2.40625 2.5,-0.59375 -3.28125,-1.6875 -4.5,0.25 2.03125,-2.65625 2.65625,-0.0625 0.59375,-1.34375 2.3125,0.96875 3.1875,-4.0625 2.125,3.53125 1.21875,1.4375 -0.625,2.90625 3.28125,-0.28125 1.5,-2.90625 -2.65625,-3 1.59375,-3.375 2.5625,-1.125 c 0,0 -0.35355,-3.61963 0,-3.53125 0.35356,0.0884 1.6875,-1.78125 1.6875,-1.78125 l -1.59375,-2.90625 1.0625,-1.4375 2.8125,-0.25 0.375,2.03125 -1.25,0.4375 0.1875,4.25 6.625,0.1875 5.90625,-0.375 2.0625,0.96875 2.8125,-3.875 2.75,1.3125 -1.34375,3.625 6.1875,-0.78125 2.84375,-4.96875 -2.40625,-5.28125 -2.28125,-4.59375 -3.71875,-1.25 -5.65625,0.96875 7.59375,-8.03125 -0.4375,-2.3125 3.4375,-1.9375 1.875,-2.90625 2.5625,0.4375 1.75,2.375 1.53125,-0.875 -1.34375,-3 3.09375,-2.125 -1.75,-1.875 1.75,-2.09375 -2.125,-2.5625 0.96875,-2.75 -1.0625,-0.875 0.90625,-1.78125 1.3125,-4.5 -4.84375,-6.625 -2.9375,3.53125 -3,-1.78125 -1.9375,0.875 -2.125,-2.03125 -6,3.09375 0.4375,6.28125 -4.59375,1.875 -2.40625,-2.5 -8.90625,6.125 -10.25,0.6875 1.84375,-11.21875 8.40625,3.71875 5.5625,-3.4375 -1.78125,-4.625 3.90625,-5.125 -4.875,-3.625 -1.6875,0.375 -0.15625,1.21875 -2.5625,-0.34375 0.25,-3.8125 1.40625,-1.84375 4.53125,-0.625 0.53125,-2.65625 1.9375,-1.0625 -1.59375,-3.78125 -3.09375,1.9375 -8.21875,-14.3125 0.78125,-4.6875 -3.78125,-0.0937 -1.59375,-5.65625 2.46875,-3.28125 1.6875,0.8125 3.4375,1.15625 4.0625,-4.96875 -1.5,-5.90625 -3.7812,-1.78135 -2.84375,-1.84375 -3.34375,6.53125 -3.1875,0.1875 -2.21875,3.4375 -3.8125,-2.03125 -5.03125,1.6875 -1.40625,2.5625 -0.4375,-3.8125 6.34375,-1.59375 -0.15625,-2.5625 -1.0625,-2.46875 7.59375,-0.34375 0.28125,-2.65625 -1.6875,-1.0625 2.8125,-0.71875 1.15625,1.15625 1.78125,-0.71875 0.0625,-2.03125 2.84375,-4.15625 -1.3125,-3.625 -2.5,0 -1.3125,0.71875 -1.78125,-2.125 -1.9375,-0.53125 -1.3125,-2.46875 -1.6875,0 -2.125,-1.84375 -12.28125,0 z m 52.46875,132.03125 -3,3.96875 -2.1875,-1.15625 -2,1.875 2.28125,0.875 -0.84375,0.96875 1.34375,2.09375 2.21875,-0.96875 0.75,-4.28125 2.125,-2.4375 -0.6875,-0.9375 z m -8.125,2.28125 -2.71875,0.4375 -1,0.84375 2.15625,1.625 1.5625,-2.90625 z"
     id="path3007"
     style="fill:#00b0ff;fill-opacity:1;stroke:#000000;stroke-width:1px;stroke-linecap:butt;stroke-linejoin:miter;stroke-opacity:1" />
  <path
     d="m 595.75072,691.34518 a 44.627281,44.627281 0 0 1 -89.25456,0 44.627281,44.627281 0 1 1 89.25456,0 z"
     id="path3809"
     style="fill:#ff62ad;fill-opacity:1;stroke:none" />
  <path
     d="m 920.57865,614.18424 10.125,14.75 6.5,8.375 5.375,3.5 6.375,5 1.875,-1.375 2,1.25 -3,2.625 3,5.5 3.875,0.5 -0.625,2.125 -2.75,0 -0.25,3.875 3.75,2.25 -0.375,3.5 4.125,1.875 2.625,-1.625 2.5,1.25 7.25,-1.75 2.125,0.625 2.125,-1.25 -2.25,-1.75 2.125,-0.5 6.375,-4.5 -3.625,-2.125 0.75,-3.75 -6.625,-6.375 2,-1.75 1.125,-5.375 5.625,-4.5 5.875,-3.5 -2.25,-3.375 1.375,-4.375 2.5,-1.5 -0.375,-2.375 2.625,1.125 2.99994,-2.875 3.25,0.25 1.125,-4.25 3.75001,2.75 -1.5,2.625 2.625,0.625 1.75,-3.375 2.375,0.375 4.75,-4.875 1.5,-5.75 4,-3.625 -3.875,-8.5 -3.875,-1.5 2.375,-7.125 2.5,-4 3.25,-4.375 -3.25,-3.125 -5.125,1.375 0.875,-4.375 -4.25,0.375 -0.375,-3.375 -1.75,-1.125 -0.375,-1.5 -4.125,1.125 -1.75001,1.625 0,-2.25 -4.62494,-8.125 -2.75,-4.375 -3,2.375 -0.125,1.5 -1.625,3.25 -2.875,2.125 -3.25,5.625 -3.125,-4.25 -3.875,0.375 -3.5,6 -3.5,-1.375 -0.625,-1.875 2.625,-1 -2.125,-2 -2.375,0.875 0.875,1.625 -1.5,1.375 -3.375,-1.375 -6.375,2.5 -3,3.25 0.375,2.5 3.5,0.875 2,2.125 2.5,0.875 -0.25,4 3.125,1.25 1.125,-2.625 1.375,2.75 -0.625,1.5 0.625,1.5 -2.75,3 -0.625,3.875 -4,1 -0.375,1.625 -3.625,0 -5.75,0.25 -0.375,-2.875 0,-3.125 -2,0.25 0.25,5 -3.5,2.5 -1.5,-1.25 -1.75,2 -2.25,-3.25 -2.25,-1 -0.375,-1.5 -2,-2 -1.5,2.25 -1.75,0.5 -0.875,2.5 -4.125,-0.375 -1.875,2.625 1.875,2.875 2.125,1.125 -0.25,2.875 2.625,0.25 1.125,-1.375 2,2.125 -3.875,2 -3.25,3.125 -2.75,-0.75 z"
     id="path3845"
     style="fill:#940000;fill-opacity:1;stroke:#000000;stroke-width:1px;stroke-linecap:butt;stroke-linejoin:miter;stroke-opacity:1" />
  <path
     d="m 198.73334,793.41478 0.65542,-1.12358 1.87264,-1.12358 1.07676,-1.68537 1.31084,-0.65543 1.26403,-1.91945 1.73219,0.70224 1.68537,-1.17039 0.46816,-1.87264 0.60861,-1.779 1.31084,-0.93632 -0.14045,-1.26403 1.26403,-1.59174 2.80895,1.40448 0,2.01308 -1.07676,3.27711 -0.0936,2.71532 1.35766,0.84269 2.48124,2.62169 2.43442,0.0936 0.60861,1.40447 -0.0468,1.26403 0.74905,0.93632 -1.12358,3.97935 -1.82581,-0.79587 -1.49811,1.4981 -0.0468,1.77901 -2.20034,2.01308 -4.26025,-0.8895 -3.88571,-0.98314 -1.63856,-1.40447 0.2809,-1.82582 -2.01309,-0.98313 -1.07676,-1.21722 z"
     id="path5215"
     style="fill:#ffcc00;fill-opacity:1;stroke:#000000;stroke-opacity:1" />
  <path
     d="m 284.27122,757.48598 57.85149,-59.10843 59.83059,33.48709 15.52538,71.33673 -22.78921,20.08282 -19.681,-11.75054 -9.15957,1.18575 -19.71818,28.82088 -23.72989,22.97191 -14.41055,-24.91658 -19.84138,-12.86425 -1.23165,-9.99702 z"
     id="path3958"
     style="fill:url(#veniceGradient);fill-opacity:1;stroke:none" />
  <path
     d="m 265.07101,798.38594 0.92691,-2.25106 7.68008,-4.50212 1.45657,-5.1642 -4.10487,-1.32415 -2.64831,-3.4428 2.25106,-4.76694 -2.25106,-4.23729 4.3697,-9.40149 6.75318,-3.84004 4.76695,-1.32415 3.15296,2.86991 2.97779,-0.21859 1.61387,-1.84018 3.69951,-0.49301 3.13163,-3.91671 9.54697,2.12221 0.87979,-3.15044 4.69912,-3.27026 8.28756,-3.33565 -2.09148,-2.32919 1.11234,-1.93067 3.97246,-0.72829 10.47003,11.5872 -13.05182,17.51984 7.24876,0.83296 1.64171,2.96939 1.96836,-0.53143 2.78607,2.46146 17.86962,2.70031 3.70764,6.95179 -0.67589,2.75697 1.62649,0.2482 3.60087,2.75054 -2.99439,1.53046 3.60414,4.18334 2.59319,0.24529 0.85915,-1.64121 3.45666,1.18416 1.8416,4.309 -0.99848,2.82273 2.31463,3.59714 3.10688,-2.02534 7.48273,4.36616 6.65327,-1.54958 2.50857,2.85015 1.42102,-2.81298 4.91311,0.0266 1.31467,3.67168 -2.85681,1.30979 -1.94986,-2.59425 -1.88058,1.91578 1.26771,11.05717 -7.54767,-2.78072 -5.95869,0.26483 -2.38347,-5.29661 -4.3697,-3.04555 -2.25106,0.79449 -3.97246,0 -2.51589,4.10487 -0.26483,5.1642 -2.25106,2.38347 2.11864,4.23729 -3.31038,4.10487 -3.57521,2.11865 -3.17797,-1.19174 -3.84004,3.44279 -8.34216,5.42903 -2.94517,-4.59119 -2.82841,0.23653 -1.9065,2.89809 -1.84178,-3.68573 -7.92459,0.44099 -5.55127,-2.48797 -1.13374,-5.94506 1.14561,-2.75367 -2.42612,0.65724 -3.24129,-0.47934 -0.69674,-3.48939 -2.60211,0.0643 0.11456,3.68148 -2.53236,-1.8923 -1.92138,0.89323 -2.33096,-2.85934 -2.74345,0.0529 -0.0876,-2.01497 -3.56629,-1.66059 3.9466,-4.1233 -1.121,-2.16332 -4.10495,4.54831 -6.72397,5.87421 -7.35846,-3.31439 -3.84004,-2.78072 -3.97246,-4.3697 -7.28283,-2.38348 1.45656,-8.60699 z"
     id="path5217"
     style="fill:#ffcc00;fill-opacity:1;stroke:#000000;stroke-width:1px;stroke-linecap:butt;stroke-linejoin:miter;stroke-opacity:1" />
  <path
     d="m 354.84855,719.33403 0.92691,-2.25106 1.58898,-0.39725 0.92691,-2.11864 1.58898,-0.13241 0,-2.38348 2.91314,0.52966 0.66207,3.17797 -0.9269,0.52966 3.17796,1.05932 0.66208,4.10487 -1.85381,1.45657 -1.85382,-1.19174 -1.58898,0.92691 -3.97246,-2.38347 z"
     id="path5219"
     style="fill:#ffd42a;fill-opacity:1;stroke:#000000;stroke-opacity:1" />
  <path
     d="m 1850.9149,695.09068 11.3877,0.26483 2.7146,-0.19862 0.7282,-0.39724 0.4635,0 0.8607,0 1.4566,-0.39725 0.7282,0.33104 0.7945,0.19862 0.9269,-0.13241 0.7283,-0.99312 0.3973,-0.33104 1.2579,-0.46345 1.1917,-1.19174 -0.066,-1.25794 -0.066,-1.92002 -1.3241,-0.66208 -1.3904,-0.39725 -0.8607,0.39725 -0.7945,0.72828 -0.662,-0.66207 -0.927,-0.0662 -0.7282,-0.72828 -0.6621,-0.33104 -0.5959,-1.05932 -0.6621,-0.79449 -0.5958,0.26483 -0.2649,-0.26483 0.1987,-1.19174 0.331,-0.79449 0.1986,-0.92691 0.7945,-0.52966 0.9931,-0.19862 0.8607,0 0.5959,-0.92691 -0.4635,-0.52966 -0.7282,-0.59587 -0.4635,-0.79449 0.1986,-0.33104 0.5959,-1.05932 -0.7287,-0.39726 -0.1986,-0.39724 0.3972,-0.13242 0.5297,-0.13241 0,-0.7945 0,-1.39036 -0.3972,-0.9269 -0.1325,-0.79449 0.7283,-0.33104 0.2649,-0.79449 -0.1325,-0.92691 -0.9269,-0.46345 -0.066,-0.92691 -0.3972,-0.59587 -0.7945,-0.26483 -1.1917,0.19862 -0.7945,0.66208 -0.3311,0.79449 -0.4634,0.13242 -1.0594,0.59586 -0.1988,0.72829 -0.9269,-0.13242 -0.9269,-0.0662 -0.5297,0.72828 -0.3972,0.0662 -0.7945,-0.52966 -0.2648,-0.46346 -0.1324,-0.99311 -0.1987,-0.52966 -0.4634,-0.72829 -0.331,-0.33104 -0.5959,-0.79449 -0.3311,-0.13241 -0.4634,0.26483 -0.066,0.39724 -0.4635,0.7945 -0.1324,0.52966 -0.2648,-0.66208 -0.066,-0.46345 -0.1324,-0.19863 -0.7283,-0.13241 -0.4635,-0.26483 -0.1324,-0.72829 0.4635,-0.72828 0,-0.39725 -0.7283,-0.33103 -1.7876,-0.72829 -0.3311,0.13242 -0.5958,0.79449 0,0.0662 -0.5959,0.66207 0.2644,1.05935 0.2649,0.72828 0.1986,1.19174 0.2648,0.39724 0.3973,1.05932 -0.066,0.72829 -0.2648,0.92691 0,0.86069 0.3311,0.59587 0.5958,0.66208 0.1986,1.05932 0.1987,0.66208 0.066,0.8607 -0.2649,0.59587 -0.7282,0.86069 -0.8607,0.26484 -1.3242,0.46345 -0.331,0.26483 -0.1324,0.99311 0.331,0.52966 -0.7284,0.52967 -0.9269,0.59586 -0.4634,1.05933 0.7944,0.9269 0.3973,0.13242 0.6621,0.72828 -0.5297,0.72829 -0.7283,0.79449 -0.2648,0.52966 0.331,0.99311 0.3973,1.19174 0.1986,0.66208 0.2648,0.59587 0.7283,1.92002 0.066,0.39724 0.5959,1.19174 0.8607,0.13241 z"
     id="path4154"
     style="fill:#008000;fill-opacity:1;stroke:#000000;stroke-opacity:1" />
  <path
     d="m 1723.7817,525.82097 1.8539,-0.13241 1.1917,-0.92691 0.1324,-1.32415 -0.5297,-1.58898 -1.3241,0 -1.0593,-0.7945 -1.0594,0.66208 -0.2648,1.19174 -0.2648,1.32415 0.7945,1.19174 z"
     id="path4156"
     style="fill:#008000;fill-opacity:1;stroke:#000000;stroke-opacity:1" />
  <path
     d="m 1728.019,522.24576 2.5159,-0.79449 1.7214,-2.11864 1.4566,-0.52967 1.1917,-1.32415 -0.1324,-1.85381 -1.3241,-0.52966 -2.2511,-1.32416 0.1324,-0.79449 1.589,-0.39724 2.6483,-0.26483 1.1917,-0.66208 1.1918,0.26483 1.7214,0.66208 0.3972,2.25106 1.4566,1.19173 1.1917,-0.13241 3.0456,0.52966 3.0455,-0.13242 2.9132,0.39725 3.3103,1.7214 2.1187,1.19174 1.8538,1.45656 0.1324,1.32416 1.0593,1.85381 1.8538,0.26483 2.6484,-0.26483 2.6483,-0.13242 2.1186,0.92691 0.5297,2.78072 1.1917,1.19174 2.3835,1.05932 3.0455,1.05932 2.7807,-1.05932 0.7945,-1.85381 0.5297,-2.38348 0.9269,-0.13241 1.1917,-1.19174 1.3242,-0.39725 0.5297,-1.58898 -1.7214,-1.7214 -2.2511,-1.19173 -2.3835,-1.7214 -0.7945,-1.58899 2.3835,-1.98622 2.2511,-1.58899 1.589,-1.45657 -0.5297,-2.25105 -0.3973,-1.32416 1.1918,-1.19173 1.589,-2.11865 1.4565,-1.19174 0.9269,-2.51589 -0.7945,-1.58898 -0.9269,-1.32415 -2.1186,-1.85381 -1.589,-0.13242 -1.1917,-1.58898 -0.7945,-1.58899 -0.5297,-1.32415 -0.2648,-1.7214 -0.5297,-0.26483 0.3973,-0.66207 1.3241,-1.19174 1.8538,-0.26483 1.3242,-0.39725 2.1186,-0.79449 1.3242,0 1.7214,0 1.7214,-0.92691 2.251,-2.11864 -0.3972,-2.11864 1.4566,-1.45657 1.589,-0.92691 -0.3973,-2.91313 -1.7214,-0.13242 -1.0593,-1.32415 -1.0593,-0.79449 -1.4566,-0.26483 -0.9269,-0.26483 -0.7945,-0.66208 -0.1324,-1.58898 1.3241,-0.13242 1.7214,0 1.4566,-0.66207 1.0593,-0.52967 2.2511,-1.85381 1.1917,-1.32415 1.589,-0.92691 1.0593,0.13242 1.1918,0.26483 1.3241,1.32415 -0.1324,1.98623 0.3972,2.38347 -0.7944,0.79449 -1.4566,2.11865 -0.2648,1.19174 0.662,1.45656 0.9269,0.66208 2.1187,-1.45657 1.1917,-0.66207 0.9269,-1.32416 0.1324,-2.11864 0.6621,-3.04555 0.9269,-1.45657 1.0593,-0.79449 0.927,-1.58898 -0.1325,-2.11865 0,-1.98623 -0.2648,-1.19173 1.589,-0.52967 1.4566,-0.39724 1.1917,-1.19174 0.2648,-0.79449 -1.0593,-2.78072 -1.1917,-0.79449 -0.6621,-1.7214 -0.5297,-1.19174 1.1918,-1.58898 -0.3973,-1.05932 -0.7945,-1.32416 -1.4565,-1.19173 -1.8538,-1.05932 -1.7214,-0.92691 -0.927,-0.39725 -1.3241,0.92691 -1.589,0.92691 -1.589,1.05932 -0.2648,1.45657 -0.7945,0 -2.1186,0.52966 -1.0594,1.85381 -1.3241,0.39725 -0.9269,-0.26483 -1.3242,1.32415 -1.4565,1.05932 -0.3973,1.85381 -1.1917,0 -1.589,0.92691 -0.1324,1.19174 -0.1324,1.05932 -0.5297,0.92691 -1.1917,0.66207 -1.4566,1.32416 -0.3972,2.11864 0.5296,1.05932 -0.9269,1.05932 -1.9862,0 -1.8538,0 -0.3973,-0.79449 -0.6621,-1.32415 -0.662,-0.13242 -2.1187,0.39725 -1.1917,1.58898 -1.1918,0.66208 -1.4565,-0.39725 -1.589,-0.13241 -0.9269,0.79449 -1.1917,1.05932 -1.0594,1.19174 0.1324,1.45657 -0.2648,0.79449 -1.0593,1.98623 -0.7945,1.7214 -1.1917,2.38347 -0.2649,1.19174 0.2649,1.7214 0.662,0.26483 0.6621,0.39724 0.5297,1.19174 -0.9269,0.26483 -0.2649,0.92691 -0.2648,1.58898 -0.6621,1.05932 -0.662,1.05932 -0.927,1.05933 -0.7944,1.19173 -0.1325,1.19174 -1.1917,0.92691 -1.1917,-0.13242 -0.5297,0.92691 -1.1917,0.66208 -1.0594,0.79449 -2.3834,1.05932 -1.0593,0.52966 -1.589,0.66208 -1.589,0 -0.5297,-0.13242 -1.1917,-0.66207 -1.7214,0.39724 -0.7945,1.05932 -1.3242,0 -1.4565,0.13242 -2.2511,0.79449 -1.8538,0.26483 -1.9862,0.79449 -0.1324,0.79449 -0.6621,0.92691 -1.0593,0.79449 -3.9725,0.66208 -1.1917,-0.13242 -2.2511,-0.52966 -1.589,-0.79449 -1.4565,1.58898 -1.589,2.51589 -0.2649,2.78072 1.9863,2.38348 2.5159,2.11864 1.3241,0.92691 0.5297,1.45657 -0.9269,0.9269 -0.9269,2.11865 0.9269,0.9269 0.2648,0.92691 -1.0593,1.19174 -0.7945,1.45657 0.6621,0.66207 1.0593,1.05932 z"
     id="path4160"
     style="fill:#008000;fill-opacity:1;stroke:#000000;stroke-opacity:1" />
  <path
     d="m 1795.4184,511.25529 3.178,-1.98622 1.9862,0.39724 0.5296,0.52966 1.9863,-0.26483 1.1917,1.98623 0.9269,1.45657 -0.2648,2.11864 0.3972,1.7214 -0.1324,1.05932 -0.6621,1.85382 -0.5296,0.9269 -2.2511,0.52966 -1.1917,0 -0.7945,-1.72139 -0.3972,-1.85382 -0.6621,-0.39724 -1.4566,-0.52966 -1.3241,-0.26483 -0.3973,-1.05933 -1.1917,-2.11864 -0.2649,-1.05932 z"
     id="path4162"
     style="fill:#008000;fill-opacity:1;stroke:#000000;stroke-opacity:1" />
  <path
     d="m 1815.1483,454.71398 2.3834,0 -0.2648,-2.11864 -0.9269,-1.05932 -0.7945,-1.05933 0,-1.32415 -0.5296,-2.38347 -3.3104,0.9269 0.2648,0.79449 -0.5297,2.25106 1.0594,1.85382 z"
     id="path4164"
     style="fill:#008000;fill-opacity:1;stroke:#000000;stroke-opacity:1" />
  <path
     d="m 1815.1483,500.66207 7.8125,0 4.1048,1.32416 2.9132,2.78072 5.0318,3.97246 1.0593,1.05932 -1.9863,2.38347 0.3973,1.05932 0.1324,1.58899 -1.8538,0.52966 -1.4566,0 -1.3241,1.98623 -0.9269,1.85381 -2.1187,1.19174 -1.3241,-0.26483 -0.5297,-1.05932 -1.3241,-1.7214 -1.4566,0.13241 -1.3242,-0.13241 -1.9862,-0.26483 -0.6621,-0.52966 -1.1917,-1.45657 -1.3242,-0.92691 -1.4565,-0.52966 -1.3242,-1.58898 -1.0593,-1.32416 0.9269,-2.51589 0.6621,-1.05932 -0.7945,-0.9269 -0.2648,-1.45657 1.1917,-2.25106 0.6621,-1.19174 z"
     id="path4166"
     style="fill:#008000;fill-opacity:1;stroke:#000000;stroke-opacity:1" />
  <path
     d="m 1807.8654,500.66207 -1.1917,0.92691 1.4566,1.19174 0,0.52966 -0.6621,1.19174 -1.0593,0.13241 -1.1918,0.39725 -0.9269,0.13241 -0.9269,0.66208 -1.1917,0.39725 -1.1918,-1.05933 -1.1917,0.52966 -0.1324,1.45657 1.3241,1.05932 1.1918,0.13242 1.3241,0 1.8538,-0.13242 1.589,0 1.0593,0 1.8539,-0.26483 1.5889,-0.79449 -0.3972,-1.58898 -0.3973,-1.19174 -0.3972,-1.45657 0.1324,-1.05932 -0.9269,-1.05932 -1.1917,-0.13242 z"
     id="path4168"
     style="fill:#008000;fill-opacity:1;stroke:#000000;stroke-opacity:1" />
  <path
     d="m 1809.8517,510.19597 -1.4566,0.39725 0.6621,1.7214 1.5889,1.85381 0.7945,-0.39725 0,1.05933 0.5297,1.05932 1.0593,0.79449 0.7945,0.13242 1.0593,0.13241"
     id="path4170"
     style="fill:none;stroke:#000000;stroke-opacity:1" />
  <path
     d="m 1815.9428,515.625 -1.3242,1.19174 z"
     id="path4172"
     style="fill:none;stroke:#000000;stroke-opacity:1" />
  <path
     d="m 1816.2076,515.49258 -1.7214,-1.85381 -1.4566,-1.85381 -1.4565,-1.19174 -1.9863,-0.26483 -0.9269,0.52966 -0.1324,1.05932 1.4566,1.32415 1.3241,0.52966 0.5297,2.11865 0.9269,0.66208 1.589,0.26483 1.3241,-0.66208 z"
     id="path4174"
     style="fill:#008000;fill-opacity:1;stroke:#000000;stroke-opacity:1" />
  <path
     d="m 1882.2962,518.33328 -2.2472,2.80896 -1.4981,1.68537 -0.3745,-1.31085 -1.3108,0.18727 -2.0599,0.74905 0.3745,2.24716 -0.7491,2.43443 -2.0599,0.93631 -1.1236,1.49811 0,1.49811 0.1873,1.49811 0.5618,0.93631 1.4981,0 2.0599,1.12358 2.809,0 0.3745,1.49811 0.749,1.12358 0.1873,1.12358 -0.3745,0.93632 1.4981,1.12358 -0.7491,0.93632 -1.4981,0 -0.9363,2.0599 -1.1236,0.37452 -0.5618,1.12358 2.0599,2.43443 1.1236,1.12358 1.3109,-0.56179 0.749,1.68537 0.3745,1.31084 1.1236,1.49811 1.8727,2.0599 2.4344,0.93632 1.6853,-0.37453 -1.1235,-1.87263 -0.5618,-2.24717 1.8726,-1.12358 1.3109,-0.56179 1.8726,-1.12358 0.1873,-0.93631 1.4981,-1.31085 1.8726,-2.80895 z"
     id="path4176"
     style="fill:#008000;fill-opacity:1;stroke:#000000;stroke-opacity:1" />
  <path
     d="m 1728.9274,305.60201 -2.2471,2.43442 0.1872,2.62169 0.9363,1.31084 0.3746,1.68537 0.9363,2.24717 -1.8726,-0.93632 0.1872,-0.37453 -1.4981,0.18727 0.1873,0.74905 -1.6854,0.18726 -0.1873,0.93632 0.7491,1.49811 1.6854,1.12358 1.3108,1.12358 1.3109,0.18726 2.2471,-0.18726 0.7491,-0.74905 1.6853,-0.37453 1.8727,0 2.0599,-0.56179 0.3745,1.87263 0.7491,0 1.3108,0.37453 0.7491,-0.93632 0,-0.56179 z"
     id="path4178"
     style="fill:#008000;fill-opacity:1;stroke:#000000;stroke-opacity:1" />
  <path
     d="m 1761.6985,342.11838 -0.5618,3.37074 0.3746,1.87264 -1.6854,4.49432 -1.3108,1.49811 -1.8727,2.24716 -1.6854,-0.37453 -2.2471,2.0599 -0.3745,2.0599 -0.5618,0.93631 -0.7491,3.18348 -1.6854,1.12358 -1.3108,1.87264 -2.4344,0.56179 -2.6217,0.93631 -0.5618,0.74906 -0.5618,0.18726 -2.8089,-0.37452 -0.9364,-1.12359 0.5618,-1.12358 -2.4344,0 -2.8089,-0.37452 -1.4982,-1.31085 -0.5617,-1.31084 -0.5618,-1.87264 -0.3746,-1.12358 0.5618,-1.31084 -0.5618,-0.93632 -2.0599,-1.12358 -0.749,-3.558 -1.4981,-2.62169 -0.3746,-2.0599 0,-3.74527 0.7491,-2.0599 4.8689,-2.62169 0.5617,0 1.6854,0 1.6854,-1.12358 0.9363,-1.12358 0.1873,-1.87263 1.1235,-0.93632 3.3708,-2.0599 2.0599,-0.56179 0.5618,-3.37074 0.5618,-1.12358 3.3707,-0.56179 0.7491,-0.56179 z"
     id="path4180"
     style="fill:#008000;fill-opacity:1;stroke:#000000;stroke-opacity:1" />
  <path
     d="m 1726.8273,361.62606 -2.3835,0.26483 -1.0593,1.58898 3.4428,2.64831 1.3241,-0.26483 0.5297,-3.17797 z"
     id="path4182"
     style="fill:#008000;fill-opacity:1;stroke:#000000;stroke-opacity:1" />
  <path
     d="m 1644.2002,393.40572 -3.7077,-2.11864 -2.3834,-1.32416 -3.7077,-0.79449 -1.8538,1.58898 -3.1779,2.11865 -3.178,-1.05932 -1.0593,-2.64831 -2.3835,-1.85381 -3.7076,-2.91314 -1.0593,-1.85381 -2.1187,-5.82627 0,-2.91314 0.7945,-1.58898 -1.3242,-0.52966 -1.5889,0 -2.9132,1.85381 -2.6483,0.26483 -0.2648,-0.79449 -0.5297,-3.4428 -1.3241,-0.52966 -2.6483,0.26483 -2.3835,-0.52966 -0.7945,-0.52966 -0.2648,-1.32415 2.9131,-1.58898 1.3242,-0.26484 1.5889,-2.38347 3.7077,-1.05932 1.3241,-0.26483 1.0594,-2.91314 0,-2.91313 1.8538,-1.85382 1.5889,0.26483 0.7945,1.32416 0.7945,2.38347 -0.7945,3.4428 -0.2648,1.05932 1.589,1.32415 4.2373,1.32415 0.5296,1.32416 1.0594,1.32415 1.5889,-0.79449 1.8539,-2.38348 2.6483,-2.38347 1.5889,1.58898 2.9132,1.58898 -1.589,2.91314 1.0593,1.05932 2.3835,-1.05932 2.9131,-1.05932 1.8538,1.58898 1.0594,-2.38347 1.3241,-1.85382 1.0593,-2.6483 0.2649,-1.58898 1.589,-1.85382 1.3241,-1.85381 1.589,-1.05932 3.7076,-0.26483 0.5297,2.11864 -1.8538,2.91314 0.7945,1.58898 1.0593,0 1.8538,0.52966 0.2648,2.6483 -1.589,0.26483 -1.8538,-0.26483 -2.1186,2.38348 -0.2648,2.11864 0.7944,2.38348 -0.5296,2.6483 -0.2648,2.11865 2.3834,3.17796 1.8538,0.26483 0.7945,2.91314 -0.2648,1.58898 1.0593,1.85382 -0.2648,2.11864 -1.0593,1.32415 -0.5297,1.05932 -0.2648,3.4428 -1.0593,0 -2.6483,0.52966 -2.9132,-1.32415 z"
     id="path4188"
     style="fill:#008000;fill-opacity:1;stroke:#000000;stroke-opacity:1" />
  <path
     d="m 1723.9142,518.00847 -3.9725,-2.91313 -2.9131,-1.05932 0.5296,-2.78073 1.4566,-1.05932 -1.0593,-2.11864 -2.5159,-0.13242 -1.1918,2.64831 -3.1779,1.19174 -1.9863,-3.97246 -2.1186,-2.25106 -3.178,-3.17797 -1.0593,-1.7214 0.2648,-1.45656 1.7214,-1.58899 -0.3972,-3.17796 -2.3835,-1.7214 -3.3104,0.39725 -2.7807,1.98622 -1.9862,-0.52966 -1.3242,-1.32415 -4.2372,-0.39725 -0.7945,-1.32415 -2.7808,-1.58898 1.3242,-1.98623 2.1186,-0.13242 2.5159,-1.85381 3.3104,-1.7214 2.5159,-0.66207 0.7945,1.7214 0.9269,1.19173 2.1186,0.39725 2.2511,-1.45657 3.3104,-0.66208 2.3835,-1.05932 1.3241,-0.13241 1.1917,0.52966 1.7214,-0.39725 1.7214,-0.79449 0.7945,1.45657 0.5297,1.05932 1.3241,1.32415 1.589,0 1.589,1.58899 -2.251,1.85381 -1.1918,1.32415 -0.7945,1.05932 0.9269,0.7945 0.7945,0.26483 1.0593,-2.78072 0.927,-0.39725 1.3241,-0.13242 1.3242,0 2.9131,-1.32415 1.9862,0.13242 0.9269,1.98623 1.4566,-0.7945 1.0593,-1.72139 -0.1324,-0.92691 -1.3241,0 -2.1187,0 -3.178,-2.64831 -2.5158,-3.57521 -0.6621,-2.38347 -2.1187,-1.45657 0.1324,-2.25106 -1.1917,-1.98623 -1.589,0.52966 -1.4565,1.19174 -1.4566,-1.19174 -0.9269,-1.45656 -0.9269,-2.64831 0.5296,-2.6483 0.1325,-3.04556 1.3241,-1.85381 1.9862,-1.85381 2.6483,-3.04555 0.9269,0.9269 0.7945,1.45657 0,1.85381 1.3242,0.66208 1.7214,1.05932 1.1917,0.79449 -0.2648,1.19174 -1.3242,0.79449 -0.662,1.32416 -0.1324,1.19173 -0.2649,0.92691 0.5297,1.32415 1.3241,1.58899 1.0594,1.05932 0.7944,0.52966 0.3973,0.92691 1.0593,-0.52967 0.5297,-0.79449 1.589,0.52966 0.7945,0.7945 1.1917,-0.13242 1.3241,-1.58898 2.5159,0.26483 0.7945,1.05932 0,1.19174 -0.6621,1.05932 0,0.79449 0.2649,0.79449 1.0593,0.66208 0.9269,0.9269 1.3242,2.11865 0.2648,1.19174 1.4566,1.85381 1.3241,1.05932 1.3242,1.7214 1.4565,-1.19174 2.1187,-0.26483 0.2648,1.32415 -0.3972,2.25106 -0.6621,0.7945 -0.3973,1.58898 -1.4565,0.52966 -1.8538,0.39725 -2.1187,-0.39725 -2.1186,-0.13242 -0.7945,2.38348 -1.4566,0.66208 -0.2648,1.45656 -0.1324,0.52966 -1.1918,0.7945 -0.7945,-0.92691 -1.3241,-1.05932 -1.589,0.66207 -1.1917,-0.26483 -2.9132,-0.39724 -1.3241,1.45656 -2.2511,1.98623 -0.9269,1.19174 -0.2648,0.66208 0.5296,1.32415 0,1.19174 0.6621,1.7214 1.0593,1.05932 1.3242,1.32415 1.4566,0.79449 1.5889,1.19174 -0.2648,0.92691 -0.3972,1.19173 -1.7214,0.66208 1.0593,1.32415 0.7945,0.66208 0.2648,0.66207 -0.6621,1.85382 z"
     id="path4194"
     style="fill:#008000;fill-opacity:1;stroke:#000000;stroke-opacity:1" />
  <path
     d="m 1748.0137,492.05508 2.1187,-0.79449 1.1917,-1.7214 2.5159,-1.45656 2.3835,-2.64831 1.9862,0 1.4566,-1.32415 0.2648,-0.79449 1.3242,-0.66208 1.0593,1.98623 1.1917,-0.92691 0.5297,-1.45657 -0.5297,-2.25106 -0.6621,-1.72139 -1.9862,-1.58899 -0.2648,-1.19173 0.7945,-2.25106 1.0593,-1.7214 1.0593,-1.58898 1.0593,-0.92691 0.7945,-1.19174 0.6621,-2.11864 0.9269,-2.25106 -0.2648,-1.45657 -0.1324,-1.85381 1.0593,-1.45657 0.2648,-1.32415 -1.8538,-0.92691 -0.7945,-1.58898 -0.3972,-0.7945 -0.1324,-1.05932 0.3972,-0.79449 -0.1324,-1.32415 -0.6621,-3.04555 0.5297,-1.05932 -0.3973,-4.23729 -1.0593,-0.79449 -1.8626,-2.05465 -2.9962,0.37452 -1.3109,-2.62169 -5.0561,-4.30705 -0.7491,-1.31085 -0.749,-2.99621 -0.9363,-0.56179 -1.1236,-2.0599 -2.809,1.12358 -0.5618,0.93632 -1.1235,-0.93632 0,-2.24716 -1.4981,0 -2.9963,0.37452 -1.4981,2.43443 -2.6217,1.87263 -0.749,1.31085 0.5618,3.37074 -1.3109,2.0599 -2.0599,0 -0.9363,-1.12358 -2.8089,-1.68537 -1.6854,0.37452 -1.1236,-2.0599 -2.9962,0.18727 0.7491,2.24716 -0.1873,1.87263 0.9363,1.12358 1.4981,2.43443 -0.1872,1.68537 -0.5618,2.24716 -1.4981,2.43443 -1.4981,1.68537 -1.6854,0.56179 -2.0599,0.56179 -1.8727,-1.31085 -1.6853,-0.37452 -3.9326,-2.99622 0,-2.62169 -1.4981,-0.18726 -2.0599,-0.18726 -2.4344,-1.87264 -2.2471,-2.0599 1.3108,-4.86885 1.3108,-3.74526 1.4982,-1.31085 2.0598,-2.0599 2.4345,-1.87263 0.9363,-2.80895 1.4981,-2.62169 -0.3745,-2.62169 0.3745,-3.558 -0.3745,-0.74906 -1.8727,-1.87263 -1.1235,-1.68537 -2.9963,-2.43443 -3.3707,0 -0.7491,-0.93632 0,-2.62168 -1.1235,-2.43443 -1.4981,-0.93632 -2.2472,-3.558 -2.0599,0 -1.1236,-0.56179 -0.5618,-2.0599 -0.749,-2.0599 -0.5618,-0.37453 -0.9363,-0.74905 -1.4981,-0.74905 -1.6854,0.56179 -1.4981,-0.74906 -1.8727,-0.93631 -0.9363,-0.93632 -0.749,-1.49811 -0.7491,-2.24716 0.9363,-1.68537 1.3109,-2.62169 -2.0599,-0.18726 -0.3745,-0.93632 1.3108,-2.43442 1.8726,-1.49811 -0.9363,-3.37074 -1.8726,-0.93632 -4.6816,-1.87264 -2.809,-2.62168 -6.1796,-5.43064 -3.3708,-1.49811 -2.8089,-0.74906 -0.3746,2.0599 -0.9363,0.74906 -1.1236,2.05989 -0.749,-0.93631 -3.558,-0.93632 0.1872,2.0599 -0.749,2.0599 -1.3109,1.87263 -2.2471,0.56179 -1.6854,2.0599 0,2.24716 1.1236,1.49811 0.1873,1.87263 -0.7491,1.87264 0,2.43442 2.4344,0.37453 1.4981,2.43442 0,2.24716 -0.9363,2.43443 1.1236,1.49811 -0.7491,2.62168 -1.3108,4.1198 -1.8726,1.68537 -2.6217,0 -0.1873,25.46783 2.0599,1.68537 -1.3108,2.0599 1.1235,0.74905 2.0599,0.93632 -1.6853,1.68537 -1.1236,1.68537 0,1.31085 0.9363,1.31084 1.8726,0.18726 -1.8726,2.62169 -1.3108,2.43443 2.2471,2.0599 2.2472,0.56179 2.6217,-0.56179 0.749,-0.37453 1.4981,1.87263 1.3109,2.43443 1.6853,0.93632 2.0599,1.12358 2.9963,1.31084 0.5618,2.99622 2.0599,2.05989 0.3745,1.87264 1.3108,1.12358 0.7491,1.87263 0.9363,2.24716 0.749,0.93632 0.1873,0.74906 1.8726,-0.56179 0.5618,-0.93632 1.1236,0 1.6854,-0.18727 0.9363,-0.18726 1.1236,-0.37453 0.5618,-0.37452 -0.1873,-1.31085 -0.749,-1.31084 1.6853,-1.12358 0.9363,0.74905 0.1873,1.12358 0,1.12358 0.5618,0.93632 1.1236,0.37453 0.9363,1.49811 -0.7491,2.05989 -0.1872,1.31085 1.3108,0.74905 0,2.0599 2.4344,-0.74905 1.3109,1.31084 0,1.87263 0.749,1.12358 1.6854,-2.62168 1.4981,0.56179 2.2472,0.93631 1.4981,2.24717 -0.9363,2.99621 -1.8727,-0.18726 -0.5617,1.87263 -1.3109,2.0599 1.8726,0.93632 1.3109,1.68537 -0.1873,1.68537 1.8727,2.0599 1.4981,1.31084 2.6217,-0.56179 2.9962,-1.68537 5.2433,-0.18726 3.7453,-2.24717 -0.3745,-3.18347 -1.1236,-0.93632 -0.1873,-2.0599 -1.6853,-3.37074 -1.8727,-2.62169 1.3109,-3.37074 1.3108,-2.62169 5.4307,-6.55422 2.4344,0 1.4981,3.74527 3.7453,2.43442 0.749,2.99622 -2.4344,3.18348 0.9363,2.24716 1.8726,1.87263 2.0599,-0.93631 3.7453,0.93631 2.4344,-0.74905 2.9963,2.43442 0.5617,2.99622 0.5618,2.24716 2.809,2.99622 1.1236,3.18347 2.6217,-0.18726 1.4981,0.37453 1.1235,1.49811 0.1873,2.24716 -0.5618,1.68537 z"
     id="path4196"
     style="fill:#008000;fill-opacity:1;stroke:#000000;stroke-opacity:1" />
  <path
     d="m 1700.8379,395.67573 2.9962,-3.55801 3.3708,-0.18726 0.5618,-2.80896 -2.0599,-2.43442 -3.9326,-2.80895 -1.8726,-1.31085 -1.6854,0.37453 -1.4981,-1.12358 -1.4981,-0.56179 -2.2472,-0.74905 0,2.43442 -1.3108,1.68537 -0.5618,2.0599 2.0599,2.0599 0.5618,1.68537 1.6854,1.87263 2.9962,2.62169 z"
     id="path4198"
     style="fill:#008000;fill-opacity:1;stroke:#000000;stroke-opacity:1" />
  <path
     d="m 1689.2276,387.24887 0.9363,-1.49811 -2.6217,-2.62169 -0.9363,-1.68537 -1.3109,-0.56179 -1.3108,0.74906 0.5618,3.558 1.8726,1.12358 z"
     id="path4200"
     style="fill:#008000;fill-opacity:1;stroke:#000000;stroke-opacity:1" />
  <path
     d="m 1707.7667,432.56662 -2.6217,0.5618 -0.5618,2.05989 -0.7491,1.49811 1.6854,1.68537 3.1835,1.31085 1.8726,0.37452 0.9363,2.0599 1.8727,2.43443 5.4306,1.87263 1.8726,-1.49811 2.809,-1.12358 0.1873,-4.86885 -1.4982,-1.49811 -1.8726,-4.49432 1.3109,-1.87263 4.1197,-0.56179 2.2472,2.05989 1.8726,0 1.3109,2.24717 0.9363,0.74905 1.8726,-0.93632 0,-2.80895 -0.3745,-3.18348 0.5618,-2.43442 2.0599,0.56179 2.2472,-1.49811 0.3745,-1.68537 -1.4981,-1.87264 -1.4981,-2.05989 1.4981,-2.62169 1.6854,-2.24716 -1.6854,-6.74149 -3.1835,-1.68537 -4.1198,0.93632 0.5618,4.30706 -2.9962,1.87263 -2.6217,5.61791 -3.3707,-1.87264 -1.8727,2.43443 -2.2471,1.12358 -2.4345,1.68537 -2.0599,3.18348 -2.2471,0.93631 -2.9962,2.43443 z"
     id="path4202"
     style="fill:#008000;fill-opacity:1;stroke:#000000;stroke-opacity:1" />
  <path
     d="m 1740.725,418.14734 2.9962,0.93632 1.4981,-2.0599 3.1835,-2.80895 0.3746,-2.24716 1.3108,-3.55801 2.0599,-0.37453 1.6854,-1.31084 2.6217,-0.37453 3.558,-1.31084 3.558,-0.93632 -1.3109,-3.37074 -1.8726,-2.43443 -3.3708,-2.05989 -2.8089,-0.56179 -0.1873,-2.0599 1.4981,-2.0599 1.3109,-1.31084 -1.1236,-2.99622 -2.809,-1.68537 -2.9962,1.12358 -2.4344,-1.12358 -1.4981,0.74905 -4.8688,1.12358 -0.5618,2.24716 -3.3708,1.12359 -3.9325,1.12358 -2.6217,3.37074 0.7491,3.558 -3.3708,1.68537 -1.4981,5.05612 -3.3707,0.74905 -1.8727,3.37074 1.3109,3.18348 0.1872,-0.93631 1.3109,1.4981 -1.8727,2.0599 2.0599,2.24716 1.8727,-1.87263 2.6217,-4.68159 0.9363,-0.74905 0.9363,-3.37074 1.3108,-2.0599 1.6854,-0.18727 1.8726,1.31085 1.4982,1.12358 1.6853,1.31084 1.3109,2.99622 0.1872,2.99621 -0.749,2.43443 z"
     id="path4204"
     style="fill:#008000;fill-opacity:1;stroke:#000000;stroke-opacity:1" />
  <path
     d="m 1766.5674,445.86233 2.0599,1.12358 1.8726,-1.31084 -1.3108,-2.80896 -1.8727,-1.12358 -2.0599,-0.18726 1.4981,5.05611 z"
     id="path4206"
     style="fill:#008000;fill-opacity:1;stroke:#000000;stroke-opacity:1" />
  <path
     d="m 1761.6985,438.93358 1.8727,-1.49811 -2.2472,-0.93631 -1.4981,-0.56179 -0.5618,1.4981 0.9363,1.49811 z"
     id="path4208"
     style="fill:#008000;fill-opacity:1;stroke:#000000;stroke-opacity:1" />
  <path
     d="m 1743.9085,424.32703 -1.8726,-2.05989 -1.1236,-0.18727 -0.7491,1.31085 0.9364,1.12358 z"
     id="path4210"
     style="fill:#008000;fill-opacity:1;stroke:#000000;stroke-opacity:1" />
  <path
     d="m 1725.5567,402.60447 -0.3745,1.49811 -2.809,0.74905 -0.3745,1.49811 -1.3109,1.49811 -0.749,-0.18726 -0.9363,-0.74906 -0.1873,-2.0599 1.3108,-2.43442 1.8727,-2.0599 2.6217,-0.37453 1.4981,0.93632 z"
     id="path4212"
     style="fill:#008000;fill-opacity:1;stroke:#000000;stroke-opacity:1" />
  <path
     d="m 1727.0548,399.98278 2.8089,-1.87263 -0.749,-1.49811 -0.3745,-1.68537 -1.3109,-0.74905 -1.4981,1.68537 0.1873,1.87263 0.1872,0.18727 z"
     id="path4214"
     style="fill:#008000;fill-opacity:1;stroke:#000000;stroke-opacity:1" />
  <path
     d="m 1719.1897,409.15869 -1.6853,1.12358 -1.1236,-0.56179 0.1872,-2.62168 2.6217,-0.37453 0.7491,1.31084 z"
     id="path4216"
     style="fill:#008000;fill-opacity:1;stroke:#000000;stroke-opacity:1" />
  <path
     d="m 1710.0138,405.97521 1.4981,-2.05989 -2.0599,-1.87264 -1.1236,-1.68537 -1.8726,0.18726 0,3.18348 1.8726,1.31085 z"
     id="path4218"
     style="fill:#008000;fill-opacity:1;stroke:#000000;stroke-opacity:1" />
  <path
     d="m 1704.7704,399.42099 -1.4981,2.80896 0.7491,1.4981 1.6854,1.31085 -0.7491,-2.43443 0.5618,-1.68537 0.3745,-1.12358 z"
     id="path4220"
     style="fill:#008000;fill-opacity:1;stroke:#000000;stroke-opacity:1" />
  <path
     d="m 1697.4672,379.38381 0,-1.49811 -0.9363,-2.0599 -3.5581,-0.74905 -1.1235,3.558 3.7452,0.93632 z"
     id="path4222"
     style="fill:#008000;fill-opacity:1;stroke:#000000;stroke-opacity:1" />
  <path
     d="m 1686.7932,377.32391 1.3108,-1.68537 -0.7491,-1.12358 -1.8726,0.74905 -0.9363,2.80895 z"
     id="path4224"
     style="fill:#008000;fill-opacity:1;stroke:#000000;stroke-opacity:1" />
  <path
     d="m 1597.843,368.148 -3.9325,0.37453 -1.3109,-3.55801 -2.0599,-2.62169 -2.0599,-1.49811 -1.3108,0.74906 -2.0599,0.18726 -3.3707,-1.68537 -2.0599,-1.68537 -3.3708,-3.18348 -1.8726,-0.74905 -0.3745,-3.18348 0.9363,-2.24716 2.8089,1.31084 0.9363,0 -0.1872,-1.31084 2.8089,-1.87264 -0.1872,-3.18348 1.1235,-2.80895 2.809,-1.31084 2.6217,0 2.6217,-0.74906 1.4981,-0.37452 1.4981,-1.87264 0.9363,-1.31084 -1.3108,-1.68537 -1.3109,-1.49811 -0.749,-2.80895 2.6217,-0.56179 3.1834,-3.18348 2.0599,-2.62169 2.6217,-3.18348 2.2472,0 2.4344,0.56179 2.6217,-0.74905 3.3707,-0.93632 1.3109,-0.93632 -1.8727,-2.43442 -2.6216,-1.12358 -1.8727,-1.68537 3.7453,-2.43443 2.0599,-1.68537 1.8726,-0.18726 1.6854,2.24716 -0.5618,2.62169 2.0599,1.87263 1.1236,3.18348 0,3.37074 1.6854,-1.4981 -1.3109,-1.12359 1.3109,-3.18347 2.2471,-3.18348 1.6854,2.80895 2.0599,2.43442 -1.1236,2.43443 -0.9363,0.37453 0.1873,1.12358 2.9962,1.4981 1.4981,3.74527 0.1872,2.62169 -2.0599,1.31085 2.0599,2.62168 1.4981,1.31085 0,1.68537 -1.3108,2.24716 1.4981,1.12358 1.3109,-0.37453 1.6853,2.0599 1.3109,1.12358 1.8726,0.37453 1.4981,3.37074 1.8726,3.18348 1.3109,2.0599 0,1.87263 -1.1236,1.87264 -0.749,1.68537 -0.3746,1.49811 1.1236,1.87263 2.0599,3.18348 -0.9363,1.49811 -1.3109,2.24716 -1.4981,0 -1.1235,-1.31085 -0.3746,-1.68537 -1.3108,-1.68537 -1.8727,-0.37453 -2.0598,1.68538 -2.809,-2.80896 0.3745,-1.68537 -0.749,-4.30706 -1.1236,-1.4981 0.3745,-2.62169 -2.4344,-2.0599 -7.8651,-1.31084 -1.6853,-1.31085 -2.9963,0.56179 -3.9325,-1.31084 -0.1873,-1.12358 -2.2471,2.99621 -3.7453,1.68537 -2.8089,2.43443 -0.3746,2.80895 3.9326,0.56179 5.2433,1.12358 0.9364,2.43443 0,1.31084 -2.9963,0.37453 -2.0598,1.12358 -1.1236,0.93631 -2.0599,2.0599 -2.2472,2.0599 z"
     id="path4226"
     style="fill:#008000;fill-opacity:1;stroke:#000000;stroke-opacity:1" />
  <path
     d="m 1627.0561,361.21925 -2.0599,-2.0599 -1.8726,-1.12358 1.1236,-1.12358 2.0599,-0.18726 2.4344,1.12358 0.5618,1.87263 z"
     id="path4228"
     style="fill:#008000;fill-opacity:1;stroke:#000000;stroke-opacity:1" />
  <path
     d="m 1704.5832,282.94313 17.041,16.85371 -1.3109,1.87263 -2.6217,1.31085 -2.0599,0.56179 -4.1198,0.18726 -3.9325,-0.37453 -1.8726,-0.74905 -2.809,-1.12358 -1.4981,-1.31084 -1.6854,-1.87264 -1.6853,-2.99621 -0.5618,-3.37075 0.5618,-4.11979 1.1235,-2.99622 1.3109,-2.24716 1.8726,-1.68537 0.9363,-0.18726 z"
     id="path4232"
     style="fill:#008000;fill-opacity:1;stroke:#000000;stroke-opacity:1" />
  <path
     d="m 1587.3563,334.06605 2.2471,-0.37453 1.4981,-1.87263 -1.1236,-0.74905 -0.3745,-1.12359 1.4981,-1.87263 2.9962,-0.56179 3.1835,-4.30706 0.9363,-1.87263 2.809,-2.43443 3.1835,-0.74905 1.3108,0.93631 3.3708,-0.93631 0.749,-0.56179 -0.9363,-2.24716 -1.6854,-0.93632 -1.8726,-0.93632 -2.2472,-1.68537 -1.3108,-0.37453 -1.8727,-1.68537 -1.4981,-0.74905 0.3746,-4.1198 -2.809,-0.74905 -1.8726,1.12358 -0.5618,1.12358 -1.8726,1.12358 -1.8727,1.31084 -1.1236,0.74906 -2.2471,0.56179 -4.6816,3.18348 -1.4981,3.18348 -0.1873,0.37452 -0.5618,3.55801 2.4345,2.43442 1.4981,1.49811 0.749,2.43443 -0.749,4.86885 2.4344,1.87263 2.4344,0.18726 z"
     id="path4234"
     style="fill:#008000;fill-opacity:1;stroke:#000000;stroke-opacity:1" />
  <path
     d="m 1782.0116,1419.7812 -0.3706,-42.324 0.9264,-4.869 9.4489,-1.1237 8.7078,-0.9364 4.076,-5.0565 4.2613,-2.9963 4.2612,-2.6219 5.1877,2.2473 5.1876,-1.6855 4.2612,-2.2472 2.4087,-6.9292 -2.7792,-2.9964 -3.7055,-5.6182 -0.3705,-2.06 3.8907,-1.4982 3.7055,-2.6219 0.3705,-2.2473 2.2233,-0.3745 4.8171,4.8692 3.8908,3.5582 3.7053,-2.9964 1.8528,-3.7455 2.2232,-0.3745 1.4823,2.4345 2.2232,1.6855 2.9644,-1.8728 1.4821,-5.0564 3.1497,-2.9964 4.076,2.2474 2.9643,2.6217 -1.2968,4.1201 -2.038,1.6854 -1.4822,6.1801 0.741,2.8092 4.8172,0.749 3.3348,4.6819 6.2994,8.6146 3.1496,3.9328 -0.1853,2.9964 2.038,1.1236 2.2233,-0.1872 3.7054,2.809 -2.038,1.6855 4.8171,2.06 -0.7411,3.5583 5.0023,2.2473 9.2637,6.5546 2.4085,2.4345 3.7055,3.9327 1.8527,0.3747 3.1497,-2.9964 1.8526,4.6818 2.7792,1.3109 4.817,-2.06 -11.4868,24.9075 -17.2304,35.5822 -17.9714,34.6457 -44.836,-0.1872 -0.1853,-1.6855 -2.038,-1.6855 -2.4085,2.9964 -35.9429,-0.7491 -5.1877,-6.3674 -3.7053,0 -4.5393,4.4946 -5.4655,2.7156 -2.1306,-1.8729 1.4821,-3.6518 -2.5938,-2.9963 -3.7054,-2.8092 -4.4466,2.5282 -3.5202,-1.9664 -3.3348,0.2809 -2.8718,-0.8427 -0.8337,-0.8428 13.9881,-13.2964 -0.8338,0 -0.1852,-2.5282 1.8527,-1.4046 1.5748,-0.749 0.6485,-1.4046 -5.0024,-4.6819 -3.3349,-3.1837 0.5558,-1.8727 3.1497,-2.2473 -3.7055,-4.4009 4.076,-3.1837 -2.6864,-5.5246 7.5961,-4.4009 -2.5938,-3.6519 6.2066,-3.5582 2.038,0.9364 z"
     id="path3371"
     style="fill:#000000;fill-opacity:1;stroke:#000000;stroke-opacity:1" />
  <path
     d="m 1189.0777,1110.4365 0,3.1366 -3.0415,0 0,2.2058 -0.3292,0.088 0,3.5112 -0.6554,0 0,2.1535 -7.1629,0 -2.8089,2.0599 -2.3408,0.1873 -1.5894,2.3625 -2.2107,-1.5917 1.4593,-2.2221 -1.4192,-2.8052 -3.043,4e-4 -1.9048,-2.3914 -2.7153,-2.6685 0,-10.2058 2.3876,-0.4682 2.2472,-1.4513 1.7322,-0.094 1.5917,-2.8558 -1.1573,-0.7316 2.4496,-4.2373 -2.0524,-3.5752 2.5159,-1.9863 c 0,0 -1.92,-4.0386 -2.3173,-4.2372 -0.3972,-0.1987 -2.8469,-0.7945 -2.8469,-0.7945 0,0 -4.2373,-4.1711 -4.5021,-4.3035 -0.2648,-0.1324 -3.1118,5.429 -3.1118,5.429 l -4.6345,-2.5821 -0.9269,-3.178 -1.92,-1.6552 -0.9931,-4.3035 -3.6415,-1.92 -0.8607,-4.8993 2.0892,-0.4518 2.1067,0.7725 1.4045,-1.1938 -0.2341,-0.9364 1.6386,0.1171 0.7022,-1.0768 -1.2874,-1.1236 2.1067,-2.013 1.6854,-3.1367 1.6619,1.6385 2.1067,-1.6151 -0.07,-3.5112 c 0,0 2.3876,-1.0768 2.5983,-1.1002 0.2107,-0.023 1.6151,0.1873 1.6151,0.1873 l 0.8193,1.7088 -1.1472,0.5852 0.7491,2.0365 2.0131,-0.398 1.4278,3.3708 2.294,0.8192 0.6086,3.4644 4.4241,1.8492 2.8324,-1.2406 2.2003,-0.094 5.1498,6.7649 1.0065,-0.6086 1.5449,2.0833 1.9429,0.2107 -0.7491,1.779 1.2407,2.3408 1.1704,-0.8895 2.1769,0.749 -0.3511,1.3811 1.7322,0.1404 1.0299,1.8258 -1.4747,0.6789 0.1405,1.3576 -1.4279,1.3343 1.1704,1.3108 -2.6685,2.9026 -1.8258,0.094 -0.5618,1.0768 0.4213,1.3109 -0.9129,2.4812 -2.5515,1.662 0.4916,1.2406 -1.8258,2.4812 -0.1186,1.6977 -0.8607,1.1255 0.7283,0.9931 0.033,1.7876 0,2.8801 1.6883,0.7614 1.4897,2.0193 z"
     id="path5972"
     style="fill:#008626;fill-opacity:1;stroke:#000000;stroke-width:1px;stroke-linecap:butt;stroke-linejoin:miter;stroke-opacity:1" />
<path style="fill:#7F3FB2;stroke:#000000;stroke-width:1px;" d="M153.934,584.543c0.036,2.194,0.976,2.291,1.333,4
  c-0.974,0.983-1.406,2.505-2.4,3.467c0.339,1.059,2.955,4.137,4.267,4.267c-0.111,2.151-0.934,4.216-2.133,5.333
  c0.294,1.025,1.103,1.909,0.8,2.667c-1.412,4.032-5.907,2.132-5.866,8.8c1.39,1.174,1.772,2.979,1.6,5.067
  c-1.035,0.239-2.703,0.21-3.2,1.067c-0.442,0.654-0.164,1.4,0,2.133c4.721,2.195,1.662,1.78,2.933,5.333
  c0.178,0.089,0.355,0.178,0.533,0.266c0.419,0.905,0.065,1.466,0,2.667c2.137,1.261,2.801,2.421,6.4,2.4
  c0.272-0.214,0.073-0.095,0.533-0.267c0.806-1.691,2.314-3.696,4.8-3.733c0.272,0.214,0.073,0.095,0.533,0.267
  c0.089,0.267,0.178,0.533,0.267,0.8c0.372,0.743-0.25,1.24,0,1.867c0.517,1.741,2.276,2.597,2.933,4.267
  c0.355,0.902,0.1,2.19,0.8,2.667c0.355,0,0.711,0,1.067,0c0.478-0.445,1.099-0.627,1.867-0.8c0.591,0.904,2.256,1.56,2.667,2.4
  c0.297,0.608-0.301,1.314,0.267,2.133c0.633,0.913,1.831,0.364,2.667,1.066c0.178,0.533,0.355,1.067,0.533,1.6
  c0.297,0.419,0.975,0.683,1.333,1.067c0.821-0.191,1.615-0.526,2.134-0.267c1.25,0.445,0.912,0.915,1.6,1.867
  c0.363,0.502,1.139,0.656,1.6,1.067c1.219-0.258,2.931-0.671,3.467-1.6c0.729-1.266-0.065-1.489,1.6-1.867
  c1.34,0.887,2.313,0.414,2.4,2.667c-1.081,0.739-1.874,1.269-1.867,3.2c1,0.754,3.575,3.755,4.533,4
  c0.563,0.144,1.27-0.603,2.133-0.267c1.449,0.565,1.041,1.315,3.733,1.333c0.649-0.716,1.021-1.01,2.4-1.067
  c0.272,0.214,0.073,0.095,0.533,0.267c0.433,2.249,1.628,2.773,1.867,4.8c-3.475,0.92-1.78,0.924-2.934,3.466
  c-0.372,0.82-1.549,1.64-1.867,2.667c-0.089,0.889-0.178,1.778-0.267,2.667c-1.079,2.115-2.682,1.237-4.533,2.133
  c-0.533,0.711-1.067,1.422-1.6,2.133c-1.878,0.981-3.486,0.059-4.8-0.267c-1.087-0.269-1.557,0.44-2.667,0.533
  c-0.582-0.784-1.466-1.178-2.133-1.867c-3.257-0.296-4.837,0.722-6.933,2.134c0.101,0.951,0.418,1.345-0.533,1.867
  c-2.016,1.16-4.072-0.149-5.067,2.4c-0.305,0.45-0.284,1.306-0.267,2.134c-1.297,0.06-2.582,0.548-3.2,0.267
  c-2.258-0.889-1.013-3.533-4.267-3.733c-0.518,0.841-0.821,1.219-2.133,1.333c-0.006,0.954-0.123,1.444-0.267,2.134
  c-0.428,0.149-0.641,0.213-1.333,0.267c-0.698-0.682-1.84-1.063-2.4-1.867c-2.054-2.947-4.681-7.893-8.267-9.067
  c-1.067,0-2.133,0-3.2,0c-0.137-0.05-0.808-0.751-1.067-0.8c-0.651-0.124-1.371,0.133-2.133,0c-0.149-0.428-0.213-0.641-0.267-1.333
  c0.44-0.477,0.466-0.67,0.533-1.6c-1.6-1.153-3.295-3.321-3.467-5.866c1.814-1.15,1.567-3.002,2.933-4.533
  c1.052-1.179,3.315-1.413,4.267-2.667c0.863-1.137-0.588-4.754-1.333-5.333c-0.816-0.634-1.931-0.664-2.667-1.333
  c-1.465,0.388-2.674,2.282-3.733,1.867c-0.267-0.089-0.533-0.178-0.8-0.267c0.44-0.928,0.739-1.754,0-2.667
  c-0.953-1.025-3.095-1.106-3.733-2.4c-0.623-1.05,0.471-1.902,0.8-2.933c-1.29-0.785-2.379-1.605-2.4-3.733
  c0.492-0.713,0.177-1.897,0-2.667c-0.901-0.534-5.792-3.62-5.867-3.733c0.093-0.667,0.188-0.963-0.8-1.333
  c-1.361-0.906-2.897,0.355-4.267,0.533c-1.069-1.646-2.752-3.677-4.8-4.267c-0.809-0.233-1.046,0.328-1.867-0.267
  c0.089,0,0.178,0,0.267,0c0.617-0.941,3.313-2.17,4.533-2.4c0.206-1.137,0.476-0.966,1.067-1.6c0.468,0.168,0.259,0.051,0.533,0.267
  c2.292,0.933,1.434,3.366,5.067,3.467c0.267-0.432,0.91-0.883,1.066-1.333c0.369-1.063-0.224-2.176,0-2.667
  c3.003,2.796,11.157-0.114,11.467-3.733c-0.711-0.523-0.969-0.949-1.067-2.134c0.711-0.523,0.969-0.949,1.067-2.133
  c-0.564-0.352-0.862-0.983-1.333-1.333c-0.453-0.337-1.435-0.229-1.867-0.533c-1.007-0.946-1.359-1.965-1.333-4
  c0.089,0,0.178,0,0.267,0c0-0.089,0-0.178,0-0.267c0.546,0.19,1.246,0.265,2.133,0.267c0.679,1.392,0.731,2.397,2.933,2.4
  c0.36-0.629,1.396-2.541,1.6-2.667c0.536,0.19,1.452-0.151,1.866-0.8c0.178-1.066,0.356-2.133,0.533-3.2
  c1.025-1.78,3.487-2.201,3.733-4.8c-3.243-2.479-2.704-6.772-7.733-7.733c-0.785-1.722-1.669-2.94-2.4-4.8
  c0.712-0.442,1.326-1.232,1.067-1.867c-0.483-1.569-1.722-2.338-3.2-2.934c0.255-1.365-1.375-3.895-1.6-6.133
  c1.014-0.764,1.029-1.296,2.933-1.333c0.19,0.151,0.011,0.385,0.533,0.267c0-0.089,0-0.178,0-0.267
  c1.737-1.222,3.345-3.506,4.8-5.067c4.179,0.043,5.978,3.579,8.267,5.6c0.935,0.825,2.144,0.573,2.667,1.867
  c0.401,0.606,1.266,2.9,1.067,3.733c-0.175,0.729-0.822,0.832-0.533,1.6c0.691,2.301,3.146,1.572,3.467,4
  c-0.215,0.272-0.095,0.073-0.267,0.533c-0.657,0.194-0.932,0.384-1.333,0.8C155.001,584.543,154.468,584.543,153.934,584.543z"/>
<path style="fill:#7F3FB2;stroke:#000000;stroke-width:1px;" d="M181.663,562.48c2.43-0.02,0.854,0.759,2.559,1.04
  c0.458-0.986,1.242-1.384,1.789-2.211c2.002,0.981,3.587,1.607,3.455,4.804c-1.172,0.595-1.372,2.229-1.398,3.498
  c-1.334,0.415-1.222,1.478-2.133,2.133c-0.267-0.089-0.533-0.178-0.8-0.267c-1.066,0.455-1.829,1.617-1.867,3.2
  c1.287,1.154-0.357,2.169-0.8,3.2c0.584,0.503,0.556,0.993,0.533,2.133c0.65,0.419,1.008,1.214,1.6,1.6
  c1.155,0.752,2.548,0.603,3.733,1.333c0.551,0.339,2.525,2.829,3.2,3.467c0.089,0.889,0.178,1.778,0.267,2.667
  c-0.303,1.014-0.999,1.463-1.066,3.2c1.382,0.68,2.659,1.951,3.467,3.2c0.444-0.089,0.889-0.178,1.333-0.267
  c0.499,1.731,2.665,3.327,4.8,3.467c0.519-0.841,0.821-1.219,2.134-1.333c0.553,0.466,1.476,0.725,1.867,1.333
  c0.356,0.555,0.057,0.951,0.533,1.333c1.577,1.266,4.202,1.114,5.067,3.467c-1.135,1.01,0.38,3.853,1.333,4.533
  c0,0.089,0,0.178,0,0.267c0.089,0,0.178,0,0.267,0c0-0.089,0-0.178,0-0.267c0.632-0.552,0.392-0.673,1.6-0.8
  c0.392,0.261,1.013,0.012,1.6,0.267c1.375,0.597,1.913,2.153,3.733,2.4c0.433-0.399,0.539-0.414,1.333-0.533
  c0.421,0.538,0.954,0.759,1.6,1.066c0.177,1.614,0.219,2.317,0.267,4c2.008,0.788,3.719,2.511,6.133,2.4
  c0.183,2.047,1.346,2.013,1.6,4c-0.881,0.408-1.322,1.428-1.6,2.4c0.6,0.694,1.143,1.604,1.333,2.667
  c-0.404,0.143-0.452,0.18-1.067,0.267c-0.378-0.256-0.873-0.26-1.6-0.267c-0.641-1.183-1.097-2.066-2.933-2.133
  c-0.612,1.338-1.727,1.611-2.4,2.667c-0.619,0.971,0.332,0.988-0.533,1.6c-0.508-0.249-0.312-0.101-1.067,0
  c-0.392,0.937-0.642,1.722-1.6,2.133c-0.286,0.201-0.252,0.16-0.8,0.267c0.099,0.554,0.064,0.513,0.267,0.8c0,0.089,0,0.177,0,0.267
  c0.267,0,0.533,0,0.8,0c0,0.267,0,0.533,0,0.8c-1.482,0.026-1.451,0.032-2.933,0c-0.479,1.769-1.778,1.932-2.667,3.2
  c-0.089,0-0.178,0-0.267,0c0-0.089,0-0.178,0-0.267c-1-1.066-1.626-2.725-3.467-2.933c-0.433,1.446-1.057,0.986-1.867,1.867
  c-0.726,0.79-0.203,1.922-0.8,2.933c-0.267,0.089-0.533,0.178-0.8,0.267c0.089,0.622,0.178,1.244,0.267,1.867
  c-0.17,0.559-1.192,0.815-1.333,1.333c-0.029,0.106,0.264,0.87,0.267,1.333c-0.445,0.089-0.889,0.178-1.333,0.267
  c-0.08,0.448,0.123,1.639,0,1.867c-0.477,0.884-1.727,0.522-2.133,2.4c0.152,0.263-0.029,2.021-0.267,2.667
  c0.675,0.02,0.991,0.032,1.333,0.267c0.824,0.893,1.324,1.436,1.333,3.2c-0.214,0.272-0.094,0.073-0.267,0.533
  c-0.178,0-0.355,0-0.533,0c-0.467-0.673-0.49-0.704-1.6-0.8c-0.464,1.002-0.998,1.109-1.6,1.867c-1.372-0.669-1.458-1.313-2.4-2.133
  c-0.659-0.574-1.477-0.377-2.133-0.267c-0.713-0.255-1.641-0.969-2.4-1.333c-0.089-0.622-0.178-1.245-0.267-1.867
  c1.429-0.849,1.938-1.572,1.867-4c-0.758-0.486-1.18-1.035-1.6-1.867c-0.83-0.025-4.848,0.245-5.333,0.533
  c-1.586,0.942,0.088,1.784-3.2,1.867c0-0.089,0-0.178,0-0.267c-0.089,0-0.178,0-0.267,0c0.266-0.594,0.407-0.759,0.533-1.6
  c-0.587-0.444-0.54-0.756-1.333-1.067c-1.364-0.924-2.891,0.288-4,0.533c-1.122-3.77-9.237-5.03-9.867-9.866
  c0.215-0.272,0.095-0.073,0.267-0.533c-0.479-0.267-0.853-0.868-1.333-1.066c-0.599-0.248-1.526,0.184-1.867-0.267
  c0-0.355,0-0.711,0-1.067c0.965-0.697,1.119-2.127,1.067-4c-1.125-0.793-2.095-2.24-3.2-1.867c-1.25,0.565-1.107,1.417-1.6,2.4
  c-0.594-0.266-0.759-0.407-1.6-0.533c-0.099,0.553-0.065,0.513-0.267,0.8c-0.652,0.576-1.195,0.069-2.134,0.533
  c-1.355,0.671-0.868,1.991-3.2,2.134c0-0.089,0-0.178,0-0.267c-0.089,0-0.178,0-0.267,0c-0.07-1.344-0.534-1.429-0.8-2.134
  c-0.449-1.188,0.402-2.486,0.533-2.933c-0.089-0.889-0.178-1.778-0.267-2.667c-0.816-0.185-1.829-0.582-2.4-1.067
  c0.214-0.272,0.095-0.073,0.267-0.533c1.818-0.09,2.431-0.996,2.4-2.933c-0.344-0.587-0.053-1.175-0.267-1.6
  c-0.517-1.619-1.854-2.124-2.4-3.733c0.28-0.456,0.094-0.544,0-1.6c1.875-0.722,6.992-2.566,7.2-5.333
  c-0.379-0.599-0.496-1.639-0.533-2.933c-0.267,0-0.533,0-0.8,0c0.267-1.595,0.919-1.773,1.333-3.2c0.089,0,0.178,0,0.267,0
  c0,0.089,0,0.178,0,0.267c0.399,0.414,0.208,0.49,0.8,0.8c0,0.089,0,0.178,0,0.267c0.089,0,0.178,0,0.267,0c0-0.089,0-0.178,0-0.267
  c0.243-0.249,0.355-0.468,0.533-0.8c0.178,0.089,0.355,0.178,0.533,0.267c0-0.089,0-0.178,0-0.267c0.089,0,0.178,0,0.267,0
  c-0.143-0.404-0.18-0.451-0.267-1.066c0.266,0,0.533,0,0.8,0c0.299-0.558,0.382-0.489,0.533-1.333c-0.373-0.597-0.146-0.874,0-1.6
  c0.178,0,0.355,0,0.533,0c0.953,1.284,2.435,0.704,3.733,1.333c-0.089,0.889-0.178,1.778-0.267,2.667
  c1.135,0.403,1.077,1.056,2.4,1.333c0.752-0.758,1.468-0.116,2.667-0.267c0,0.355,0,0.711,0,1.066c-0.089,0-0.178,0-0.267,0
  c0,0.089,0,0.178,0,0.267c-0.267,0-0.533,0-0.8,0c0,0.267,0,0.533,0,0.8c-0.823,0.519-0.915,0.77-2.4,0.8
  c0.033,1.53,0.611,1.875,0.8,2.667c0.148,0.62-0.447,3.146-0.533,4.533c0.608,0.327,0.6,0.437,1.6,0.533
  c0.474-0.637,0.501-0.139,0.8-0.533c0.089,0,0.178,0,0.267,0c-0.096-0.606-0.059-0.404,0-1.333c0.267,0,0.533,0,0.8,0
  c0.824,1.22,4.792,4.205,6.667,4.267c0.361,0.106,0.852-0.044,1.6,0c0-0.355,0-0.711,0-1.066c0.2-0.286,0.16-0.252,0.267-0.8
  c1.235,0.159,1.715,0.483,3.2,0.533c0.232-1.79,1.215-2.06,1.867-3.467c1.968,0.457,2.75,1.852,4.8,2.133
  c0.714-0.749,0.998-0.598,1.066-2.133c-0.2-0.286-0.16-0.252-0.267-0.8c0.554-0.099,0.513-0.065,0.8-0.267
  c0.214-0.272,0.095-0.073,0.267-0.533c-1.389-1.27-0.766-4.267-2.4-4.533c-0.314-0.214-0.448-0.206-1.067-0.267
  c-0.17-1.044-0.183-1.021-1.067-1.333c-2.092,1.71-3.698-0.285-5.6,2.934c-0.089,0-0.178,0-0.267,0
  c-0.348-1.109-1.209-1.284-1.6-2.134c-0.312-0.677,0.112-1.342-0.267-1.867c-1.083-1.499-2.977-1.155-3.2-3.733
  c0.856-0.427,0.953-0.358,1.067-1.6c-1.584-0.8-0.206-2.563-1.333-4.267c-0.089,0-0.178,0-0.267,0
  c-0.377-0.427-3.088-3.023-3.467-3.2c-0.413-0.28-1.09-0.275-1.867-0.267c-0.126-1.492-0.648-3.872-1.867-4.533
  c-1.256-0.928-1.819,0.229-2.667,0c-0.59-0.188-1.449-0.6-1.6-0.8c-2.137,2.345-1.315,0.516-3.733,1.067
  c-0.781,0.178-0.962,0.716-2.133,0.8c-0.099-0.553-0.064-0.513-0.267-0.8c0-0.089,0-0.178,0-0.267c-0.267,0-0.533,0-0.8,0
  c0-0.267,0-0.533,0-0.8c-0.859-0.509-1.773-1.092-2.133-2.133c0.849-0.944,0.207-4.221,0.267-5.867
  c-0.769-0.621-0.848-1.457-1.866-1.867c-0.711-0.569-1.855-0.565-3.2-0.533c-0.202-0.702-0.32-0.636-0.533-1.333
  c0.177,0,0.355,0,0.533,0c0.36,0.433,0.171,0.299,0.8,0.533c1.428-1.825,3.644-2.89,4.533-5.333c-0.089,0-0.178,0-0.267,0
  c-0.613-1.386-1.998-0.791-2.4-2.4c0.699-0.534,0.484-0.828,1.6-1.067c0.521,1.082,1.87,1.569,2.667,2.4
  c0.978-0.219,1.413-0.472,2.667-0.533c-0.039,1.032-0.143,2.591,0.267,3.2c0.643,1.927,3.263,3.291,5.6,3.467
  c1.542-1.568,6.412-4.871,6.667-7.2c-0.487-0.315-0.936-0.963-1.256-1.445c1.069-0.974,0.947-2.818,2.481-3.389
  c0.809-0.575,1.758-2.644,2.93-2.743c0.553,1.475,5.744,2.325,5.845,4.417C184.209,560.039,181.742,560.922,181.663,562.48z"/>
<path style="fill:#7F3FB2;stroke:#000000;stroke-width:1px;" d="M161.134,584.543c0.887,0.022,1.208,0.13,1.867,0.267
  c0.71,1.539,0.537,2.732-1.867,2.667c-0.455-0.727-0.676-0.666-0.8-1.867C160.653,585.306,160.899,584.932,161.134,584.543z"/>
<path style="fill:#7F3FB2;stroke:#000000;stroke-width:1px;" d="M166.468,592.277c-0.533,0-1.067,0-1.6,0
  c-0.601-1.035-1.184-1.06-1.333-2.667c1.64-1.154,1.507-3.667,3.733-4.267c0.286-0.2,0.252-0.16,0.8-0.267c0,0.089,0,0.178,0,0.267
  c-0.217,0.317-0.397,1.224-0.533,1.6c0.089,0,0.178,0,0.267,0c0-0.089,0-0.178,0-0.267c0.207-0.513,0.267,0.533,0.267,0.533
  C167.062,588.642,166.378,590.589,166.468,592.277z"/>
<path style="fill:#7F3FB2;stroke:#000000;stroke-width:1px;" d="M169.934,589.077c1.02-0.005,1.672,0.115,2.4,0.267
  c0.267,0.771,0.282,2.046,0.267,3.2c-0.944,0.805-0.788,1.913-2.134,2.4c0-0.089,0-0.178,0-0.267
  C168.87,592.802,170.82,590.938,169.934,589.077z"/>
<path style="fill:#7F3FB2;stroke:#000000;stroke-width:1px;" d="M204.068,648.01c0-0.711,0-1.422,0-2.133
  c1.028-0.533,1.157-1.031,1.6-2.133c0.178,0,0.356,0,0.533,0c0.268,0.733,0.384,0.585,0.8,1.066c-0.089,0-0.178,0-0.267,0
  c-0.512,0.889-0.907,0.791-1.067,2.134c0.595,0.421,0.786,1.222,1.333,1.6c0.82,0.566,1.85,0.266,2.4,0.533
  c0.778,0.747,1.077,2.087,0,2.667c-1.104,0.815-2.558,1.085-4,0.8c0-0.178,0-0.355,0-0.533c0.552-0.495,1.313-1.674,1.067-2.133
  c-0.287-0.918-0.693-1.301-1.6-1.6C204.582,648.077,204.615,648.116,204.068,648.01z"/>
<path style="fill:#7F3FB2;stroke:#000000;stroke-width:1px;" d="M72.868,624.277c0,0.267,0,0.533,0,0.8c-0.267,0-0.533,0-0.8,0
  c0,0.178,0,0.356,0,0.533c-0.214,0.314-0.206,0.448-0.267,1.067c1.578,1.081,2.222,2.445,4.8,2.667c1.294-1.126,2.304-0.859,4.8-0.8
  c0,0.089,0,0.178,0,0.267c-0.832,0.528-1.024,0.753-1.067,2.134c0.905,0.888,1.342,2.194,2.667,2.667
  c0.735,0.462,1.901-0.045,2.667,0c0.241,0.962,0.494,1.325,0.533,2.667c-1.814,1.607-4.814,2.738-5.067,5.867
  c2.746,2.081,2.599,8.285,7.2,8.8c0.75-0.905,0.705-0.622,1.867-0.267c0.777-0.359,2.302-1.746,2.933-2.4
  c2.605,1.413,5.034,0.594,7.2,0c0,0.178,0,0.355,0,0.533c-0.43,0.917,0.333,1.353,0.533,2.134c0.102,0.399-0.967,1.08-1.067,1.333
  c-0.549,1.388,0.671,1.416-0.267,2.133c-0.314,0.214-0.448,0.206-1.066,0.267c-0.282,1.583-0.997,2.428-1.067,4.533
  c1.781,0.407,0.999,1.087,1.867,1.6c1.146,0.678,1.291-0.512,1.867,0.8c0.596,1.102-0.641,1.108-0.267,2.4
  c0.176,0.607,1.659,1.063,1.067,1.6c-0.622,1.207-1.005,1.855-1.333,2.933c-0.97,0.257-1.906,0.07-2.933,0.8
  c-0.267,0.444-0.533,0.889-0.8,1.333c-0.533,0.178-1.067,0.356-1.6,0.533c-1.244,1.166-0.799,2.176-3.2,2.4
  c-0.272-0.215-0.073-0.095-0.533-0.267c-0.477-0.926-0.868-3.152-1.6-4c-0.379-0.439-1.111,0.092-1.6-0.267
  c-0.155-0.114-1.762-2.646-1.867-2.933c0.583-0.727,0.444-1.203,0.267-2.133c-0.445,0-0.889,0-1.333,0
  c-0.746,0.445-1.837,0.028-2.667,0.267c0-0.178,0-0.355,0-0.533c0.697-0.447,0.884-0.577,1.067-1.6
  c-0.759-1.13-0.915-2.054-1.867-2.933c0.168-0.468,0.051-0.259,0.267-0.534c0.559-1.281,1.265-1.218,1.333-3.2
  c-1.341-0.473-2.854-0.49-2.933-2.4c0.978-0.267,1.956-0.533,2.933-0.8c0.241-0.962,0.494-1.325,0.533-2.667
  c-1.115-0.56-1.88-1.521-2.667-2.4c-1.859,0.058-1.729,0.658-3.467,0.8c-0.358-0.901-0.208-1.102-1.333-1.333
  c-0.272,0.215-0.073,0.095-0.533,0.267c0,0.355,0,0.711,0,1.067c-2.732,0.076-4.044-0.737-6.933-1.333
  c-0.727-1.281-2.537-5.373-3.733-5.866c-1.039-0.917-2.545-0.045-3.2-0.267c-1.239-1.756,0.057-3.117,0.533-4.267
  c0-0.711,0-1.422,0-2.133c0.112-0.266,0.956-0.801,1.067-1.066c0-0.711,0-1.422,0-2.134c0.388-0.918,1.75-2.28,2.133-3.2
  c0-0.711,0-1.422,0-2.133c0.395-0.935,1.681-2.283,2.133-3.2c0.399-0.81,1.073-4.456,1.6-4.8c0,0.089,0,0.178,0,0.267
  C70.916,619.555,70.555,623.681,72.868,624.277z"/>
<path style="fill:#7F3FB2;stroke:#000000;stroke-width:1px;" d="M60.601,649.077c0.089,0.533,0.177,1.067,0.267,1.6
  c0.837,0.406,1.38,0.852,1.867,1.6c0.089,0,0.178,0,0.267,0c0-0.089,0-0.178,0-0.267c1.067-0.693,1.372-2.035,2.667-2.4
  c-0.208,0.601-0.394,1.279,0,1.867c0.261,0.212,0.732,0.385,1.067,0.533c-0.294,1.07-1.145,2.159-1.067,2.667
  c0.211,0.457,2.692,2.04,3.2,1.866c0.653-0.223,0.54-0.878,1.867-1.066c0.373,0.398,0.865,0.769,1.333,1.066
  c-0.6,0.852-0.971,1.172-1.067,2.667c-0.711,0.089-1.422,0.177-2.133,0.267c-0.272,0.405-0.399,0.524-0.8,0.8
  c0.178,0.267,0.355,0.533,0.533,0.8c-1.394,0.702-4.964,4.783-5.867,4.533c-0.621-0.2-3.135-3.157-3.2-4.8
  c0.243-0.249,0.355-0.468,0.533-0.8c-0.533-0.089-1.067-0.178-1.6-0.267c0.076-2.1-0.3-1.364-0.8-2.667
  c0.089-0.978,0.178-1.956,0.267-2.933c-0.534-1.226-1.483-0.75-1.6-2.933c0.56-0.42,0.829-0.842,1.066-1.6
  C58.514,649.857,59.131,649.236,60.601,649.077z"/>
<path style="fill:#7F3FB2;stroke:#000000;stroke-width:1px;" d="M104.068,691.744c-0.275,1.722-1.356,1.492-1.867,2.667
  c-0.503,1.158,0.286,1.44,0,2.133c-0.906,0.801-1.849,1.519-2.667,2.4c-0.682-0.15-1.707-0.416-1.866-0.533
  c-0.768,0.976-1.431,2.455-2.4,3.2c-0.622,0.355-1.245,0.711-1.867,1.066c-0.333,0.561,0.198,1.486-0.267,1.867
  c-0.089,0-0.178,0-0.267,0c-0.533,0.089-1.067,0.178-1.6,0.267c-0.506,0.438-0.042,0.701-0.8,1.067
  c-1.409-1.253-3.709-4.09-5.867-4.267c0.221-0.865-0.131-0.408,0.533-0.8c0.71,0.26,2.026-0.711,2.4-1.6c-0.089,0-0.178,0-0.267,0
  c-0.775-1.291-1.913-0.838-2.133-2.933c0.912-0.612,2.323-3.34,2.4-4.8c0.533,0,1.067,0,1.6,0c0.364-1.787,1.577-3.23,3.2-3.733
  c0,0.089,0,0.178,0,0.267c1.191,0.771,1.054,1.784,1.066,3.2c1.501,0.452,1.799,1.525,3.2,1.867c0.256,0.157,0.51,0.029,1.333,0
  c0.063-0.897,0.419-1.146,0.533-1.6c0.269-1.064-0.575-1.865-0.267-2.4c0-0.089,0-0.178,0-0.267c2.569,0.646,4.063-0.13,5.333-2.134
  c0.445,0.178,0.889,0.356,1.333,0.534c0.594,1.731,1.403,2.933,1.867,4.533c-0.089,0-0.178,0-0.267,0
  C105.755,691.268,104.942,691.613,104.068,691.744z"/>
<path style="fill:#7F3FB2;stroke:#000000;stroke-width:1px;" d="M57.401,715.477c-0.089,0.444-0.178,0.889-0.267,1.333
  c-1.515,0.297-1.679,1.622-1.6,3.467c0.507,0.314,0.323-0.017,0.267,0.533c-0.941,1.056-1.655,2.717-2.667,2.934
  c-0.418-0.488-0.235-0.372-1.067-0.533c-0.324,0.968-1,1.666-2.133,1.867c-0.177-0.198-0.887-1.242-1.067-1.333
  c-0.875-0.448-1.199,0.712-1.867-0.267c-0.596-0.874,0.404-1.107,0-2.133c-0.039-0.098-1.047-2.102-1.067-2.134
  c-0.456-0.329-1.365-0.574-1.867-0.8c0.24-0.697,0.236-1.169,0-1.867c0.621-0.078,0.66-0.12,1.067-0.267
  c-0.478-1.362-1.548-4.103-3.2-4.267c-0.434,0.703-0.92,1.444-1.333,1.6c0-0.178,0-0.356,0-0.533
  c-0.398-0.601-1.214-2.993-1.333-3.733c1.097,0.058,0.769,0.072,1.867,0c0-0.178,0-0.356,0-0.533
  c1.509-1.662,0.107-3.983,1.067-5.333c0.335-0.314,1.091-0.409,1.333-0.8c0.946-1.526,0.199-2.052,2.933-2.133
  c0.586-0.332,1.736,0.355,2.667,0.533c0.638-1.103,1.4-0.656,1.6-2.4c-0.213-0.261-0.386-0.731-0.533-1.066c0.178,0,0.355,0,0.533,0
  c0.314,0.214,0.448,0.206,1.066,0.267c0.327-0.608,0.437-0.6,0.533-1.6c-0.214-0.314-0.206-0.448-0.267-1.066
  c0.717-0.32,1.202-0.975,1.6-1.6c0.089,0,0.178,0,0.267,0c0,0.089,0,0.178,0,0.267c0.355,0.582-0.255,0.39,0,1.067
  c0.225,0.596,6.444,3.404,7.467,4c-0.186,1.709,0.517,1.248,0.8,2.934c-0.711,0.523-0.969,0.949-1.067,2.133
  c0.215,0.272,0.095,0.073,0.267,0.533c1.588-0.324,2.546,0.048,3.467,1.067c-0.531,0.575-0.552,1.22-0.533,2.4
  c0.959,0.34,1.465,0.401,1.867,1.333c-0.089,0-0.178,0-0.267,0c-0.996,1.216-2.074,0.312-2.133,2.667
  c0.583,0.727,0.444,1.203,0.267,2.133c-0.839,0.356-1.295,0.779-2.133,1.067c-0.436-0.933-0.655-1.386-1.867-1.6
  C59.388,714.382,58.687,715.302,57.401,715.477z"/>
<path style="fill:#7F3FB2;stroke:#000000;stroke-width:1px;" d="M93.667,714.144c-0.621,0.052-0.753,0.051-1.067,0.267
  c-1.399,0.386-1.915,1.037-1.866,2.934c0.557,0.567,0.723,1.035,0.8,2.133c-0.613,0.428-0.403,0.571-1.333,0.8
  c0,0.444,0,0.889,0,1.333c-0.696,0.211-1.489,0.181-1.867,0.8c-0.2,0.286-0.16,0.252-0.267,0.8c0.675,0.02,0.991,0.032,1.333,0.267
  c1.931,0.637,3.775,2.869,3.733,5.6c-1.32,0.776-1.268,1.455-2.133,2.667c-0.378-0.256-0.873-0.261-1.6-0.267
  c-0.115,1.108-0.421,1.316-0.8,2.133c-1.324,0.059-1.525,0.375-2.134,1.066c-1.021-0.355-0.935-0.819-2.133-1.066
  c-0.654,1.106-1.352,1.149-3.2,1.066c0-0.355,0-0.711,0-1.066c-1.15-0.483-1.653-0.969-3.2-1.067c0,0.355,0,0.711,0,1.067
  c1.339,0.693,1.164,2.218,1.067,4.267c-1.082,0.843-0.145,0.833-0.533,1.867c-0.269,0.715-1.439,1.518-1.866,2.4
  c-0.978,0-1.956,0-2.934,0c-0.68,0.939-1.398,0.892-1.6,2.4c-0.935,0.108-1.31,0.335-2.133,0.533c-0.49,0.779-0.73,0.775-0.8,2.133
  c0.062,0.161,0.023,1.252,0,2.134c-2.107,0.155-3.554,1.324-5.6,1.867c-0.18,1.078-0.449,1.1-0.533,2.4
  c1.183,0.149,1.606,0.589,2.4,1.066c-0.114,0.73-0.089,1.79-0.267,2.133c-0.375,0.853-0.702,0.984-1.867,1.067
  c-0.955-1.004-2.73,0.271-4-0.533c-0.172-0.109,0.27-2.103-0.267-2.934c-0.308-0.959-2.446-3.281-3.2-4
  c0.168-0.468,0.051-0.259,0.267-0.533c0.958-2.476,4.445-1.622,4.8-4.8c-1.139-0.805-2.495-1.627-3.733-2.4
  c-0.854-0.533-2.351,0.305-2.667,0c-1.117-1.114-3.444-5.674-3.733-7.467c0.878-0.873,1.167-2.425,2.133-3.2
  c1.127-0.792,2.487-0.329,3.733-1.333c0.714-1.132,0.059-1.692,1.866-1.867c2.089-1.171,3.663,0.136,2.933-3.466
  c-1.074-0.457-1.313-0.322-2.933-0.267c-0.723-0.983-1.831-1.537-2.667-2.4c0.178,0,0.355,0,0.533,0
  c0.659-0.924,1.188-0.827,1.333-2.4c-0.636-0.376-0.648-1.071-0.8-1.867c1.248-0.311,1.31-0.917,2.933-1.066
  c0-0.622,0-1.245,0-1.867c0.267,0,0.533,0,0.8,0c0.389,1.142,0.837,1.805,2.4,1.867c1.156-1.729,3.9-1.315,4.267-4.534
  c-1.083-0.26-1.227-0.314-1.333-1.6c0.501-0.513,0.67-0.94,0.8-1.867c0.897,0.131,1.907,0.502,2.667,0
  c1.208-0.452,1.055-0.773,1.333-1.6c0.178,0,0.355,0,0.533,0c0.018,0.761,0.104,1.141,0.267,1.6c0.335,0.173,0.552,0.29,0.8,0.533
  c2.502-0.106,3.105-1.048,5.333-1.333c0.519,0.883,0.712,1.263,2.133,1.333c1.573-2.076,2.337-1.017,1.6-4.267
  c2.349-0.041,2.702-1.099,4.8-1.333c0.607,0.914,1.576,2.457,2.4,3.2c0.809,0.729,2.445,0.853,2.933,1.867
  c0.49,1.019-0.145,2.19,0.533,2.933C92.931,713.223,93.427,712.308,93.667,714.144z"/>
<path style="fill:#7F3FB2;stroke:#000000;stroke-width:1px;" d="M178.734,722.944c0.068,0.852,0.265,0.851,0,1.333
  c-0.558,1.666-2.156,1.559-4,1.867c-0.174,0.335-0.291,0.552-0.533,0.8c0.168,0.468,0.052,0.259,0.267,0.534
  c0.642,1.712,4.536,3.914,3.733,5.866c-0.473,1.4-1.392,1.447-1.6,3.2c0.598,0.292,1.214,0.402,1.866,0.8
  c0.911,0.556,1.132,1.881,2.134,2.4c0.54,0.357,1.922,0.458,2.667,0.533c0.855-0.823,2.189-1.506,3.2-2.133c0-0.355,0-0.711,0-1.067
  c0.725,0.002,1.226-0.01,1.6-0.267c2.489-0.825,2.473-3.071,4-4.8c0.646-0.732,1.721-1.155,2.4-1.867
  c0.533,0.089,1.067,0.178,1.6,0.267c0.639,1.35,1.309,3.346,2.4,4.267c0.622,0.525,1.684,0.39,2.134,1.067
  c0.943,1.417,1.099,2.471,2.667,3.2c1.03,0.479,1.58-0.078,2.4-0.267c1.632-0.376,2.381,0.531,3.2,0.8
  c2.504,0.822,4.448,0.023,4.8,2.933c0.395,0.644,0.095,1.163,0,2.133c-0.788,0.5-1.673,1.334-2.667,1.6
  c-1.826,0.488-2.79-0.501-4.267-0.267c-0.342,0.552-0.554,0.614-0.8,1.333c-0.214,0.315-0.206,0.448-0.267,1.067
  c-1.103,0.036-2.51,0.275-3.2,0.8c-1.519,0.453-3.309,2.161-3.467,4c0.35,0.349,0.873,0.801,0.533,1.066
  c-0.743,0.469-7.963,1.976-9.066,2.133c-0.797-2.146-1.581-0.822-2.934-1.867c-0.746-0.576-0.071-1.459-0.533-2.4
  c-0.5-1.016-1.533-0.623-1.867-2.133c0.69-0.504,1.149-1.096,1.333-2.133c-1.677-1.115-3.018-2.652-5.6-2.933
  c-0.597,0.822-1.789,1.092-2.933,1.333c-0.445-0.827-0.559-1.729-0.533-3.2c-0.089,0-0.178,0-0.267,0
  c-0.178-0.156-2.48-1.184-2.933-1.333c-0.372,0.535-0.359,0.551-1.067,0.8c0.084-1.612-0.132-2.043-0.267-3.733
  c-1.096-0.708-1.62-1.608-3.2-1.867c-0.094,0.082-3.024,1.102-3.2,1.067c-0.582-0.117-1.015-1.139-2.133-0.8
  c-0.671,0.203-0.203,0.877-1.067,0.533c-0.866-0.767-1.523-1.322-1.6-2.934c0.989-0.951,1.088-2.137,1.333-3.733
  c-1.446-0.623-1.188-2.894-2.133-4.533c-0.833-1.443-2.899-0.436-3.2-2.667c0.64-0.776,0.488-1.641,0.267-2.667
  c-1.626-0.819-1.92-1.52-4.267-1.6c-0.457,0.448-0.985,0.711-1.333,0.533c-0.918-0.287-1.301-0.693-1.6-1.6
  c1.542-1.055,3.589-2.827,4.8-4.267c0.178,0,0.355,0,0.533,0c0.025,3.903,2.114,3.173,4.267,4.8c0.729,0.551,0.943,1.761,1.6,2.4
  c-0.365,0.682-0.592,0.696-0.8,1.6c1.38,0.839,1.665,2.318,3.467,2.667c0.272-0.215,0.073-0.095,0.533-0.267
  c0.203-0.68,0.009-1.26,0-1.867c-0.007-0.513,0.916-1.269,1.067-1.6c1.186-2.597,0.199-1.371,2.133-3.2
  c1.226,0.42,1.927,1.517,2.933,2.133C173.188,721.988,176.074,722.719,178.734,722.944z"/>
<path style="fill:#7F3FB2;stroke:#000000;stroke-width:1px;" d="M174.467,744.456c-0.136,1.617,0.377,2.66,0.8,4.267
  c-0.79,0.362-1.146,1.32-1.867,1.6c-0.711,0-1.422,0-2.133,0c-0.989,0.46-0.723,1.529-2.133,1.867
  c-0.482-0.717-0.779-0.914-1.867-1.067c-0.299,0.766-0.046,0.491-0.8,0.8c-0.606-1.122-0.849-1.601-2.667-1.6
  c-0.272,0.214-0.073,0.094-0.533,0.267c-0.533,0.711-1.067,1.422-1.6,2.133c-0.631,1.738,0.217,2.458-1.333,3.2
  c-1.263,1.252-2.272,0.726-4,0.533c0,0.444,0,0.889,0,1.333c0.089,0,0.178,0,0.267,0c0,0.089,0,0.177,0,0.267
  c3.076,0.219,3.381,1.61,5.6,2.933c0,0.178,0,0.355,0,0.533c-1.227,0.917-1.128,2.567-2.933,2.934c-2.318-1.415-2.988,1.907-4,2.667
  c-1.217,0.914-2.829,0.33-4.267,1.867c-1.284-0.455-3.482-1.146-4.533,0.533c-0.858-0.555-1.811-0.74-2.4-1.6
  c-0.667-1.122,0.159-1.669-1.6-1.867c-0.395,0.719-0.446,0.805-1.333,1.066c-0.022-0.887-0.13-1.208-0.267-1.867
  c-2.489-0.32-1.744-2.435-4.267-2.667c0-0.8,0-1.6,0-2.4c-1.932-0.862-0.944-1.603-2.133-2.4c-0.229-0.173-0.838-0.357-1.067-0.534
  c0.089,0,0.178,0,0.267,0c1.047-1.156,2.955-0.932,3.2-2.933c-0.74-0.298-0.197-0.947,0-1.867c0.404-0.143,0.452-0.18,1.067-0.267
  c0.351,0.896,0.411,0.773,1.6,0.8c0.272-0.214,0.073-0.094,0.533-0.267c0-0.089,0-0.178,0-0.267c-0.178,0-0.356,0-0.533,0
  c-0.296-0.234,0.267-0.267,0.267-0.267c0.861-1.407,0.602-2.364,2.667-2.4c0,0,0.117,1.059,0.267,0.533c0-0.089,0-0.178,0-0.267
  c0.089,0,0.178,0,0.267,0c-0.302-0.412-0.289-0.225-0.533-0.8c1.111-0.843,1.333-1.6,1.333-1.6v-0.8c0,0,1.184-0.339,1.333-1.6
  c-0.769-0.489-0.962-0.646-1.067-1.867c0.267,0,0.533,0,0.8,0c0-0.445,0-0.889,0-1.333c-0.78-0.547-0.595-0.891-1.867-1.067
  c-0.516,1.013-1.125,1.643-1.866,2.4c-1.079-0.301-2.396-0.927-2.667-2.134c-0.214-0.314-0.206-0.448-0.267-1.066
  c0.089,0,0.178,0,0.267,0c0.231,0.318,0.219,0.3,0.533,0.533c0-0.267,0-0.533,0-0.8c-0.205-0.266-0.037-0.686-0.267-1.067
  c-0.409-0.679-1.716-1.165-2.133-1.867c0-0.355,0-0.711,0-1.066c-0.726-0.857-1.817-0.407-2.4-1.6
  c0.214-0.314,0.206-0.448,0.267-1.067c-0.267-0.089-0.533-0.178-0.8-0.267c-0.286-0.2-0.252-0.16-0.8-0.267c0-0.267,0-0.533,0-0.8
  c-0.85,0.135-0.779,0.232-1.333,0.533c0-0.267,0-0.533,0-0.8c1.132-0.608,2.539-3.229,2.667-4.8
  c-0.615-0.358-0.486-0.325-0.533-0.533c0.525-0.766,0.921-1.397,1.333-2.4c0.404,0.143,0.452,0.18,1.067,0.267
  c0.078-0.757,0.177-1.164,0.533-1.6c0.749-0.67,1.341-0.638,1.867-1.6c0.214,0.272,0.095,0.073,0.267,0.533
  c0.637,0.474,0.139,0.501,0.533,0.8c0.751-0.278,0.85,0.275,1.867,0.533c1.183-1.506,3.562-0.315,3.733-2.933
  c1.146-0.093,2.612-1.432,2.667-1.333c2.818,3.161,0.128,4.695,7.2,4.533c0,0.089,0,0.178,0,0.267c0.089,0,0.178,0,0.267,0
  c0.025,3.704,3.638,5.174,4.8,8.533c-0.61,0.709-0.385,0.774-0.267,1.866c-2.369,0.331-3.957,0.158-4,2.933
  c1.139,0.688,1.602,1.674,3.2,1.867c0.504-0.419,0.551-0.504,1.067-0.267c0.976,1.275,1.098,2.465,3.2,2.667
  c0.467-0.462,1.353-0.966,1.867-1.333c0.504,0.025,0.787,0.703,1.067,0.8c1.064,0.368,3.795-0.189,4.267,0
  c0.267,0.178,0.533,0.355,0.8,0.533c-0.414,0.664-0.794,0.673-0.533,1.333c0.321,1.525,1.639,1.566,2.4,2.667
  C173.475,744.663,173.467,744.552,174.467,744.456z"/>
<path style="fill:#7F3FB2;stroke:#000000;stroke-width:1px;" d="M130.468,723.21c0.584,0.24,0.385,0.23,0.8,0.533
  c-0.267,0.889-0.533,1.778-0.8,2.667c-0.468-0.168-0.259-0.051-0.533-0.267c-0.637-0.733-0.401-1.422-0.533-2.4
  C130,723.587,130.109,723.544,130.468,723.21z"/>
<path style="fill:#7F3FB2;stroke:#000000;stroke-width:1px;" d="M111.801,745.61c0.039-1.033,0.143-2.591-0.267-3.2
  c-0.46-1.184-1.303-1.227-1.6-2.667c1.159-0.768,1.987-1.572,3.733-1.867c0.545,0.826,1.098,1.226,2.4,1.333
  c0.362-0.336,0.471-0.364,1.067-0.533c1.098,1.677,2.539,4.324,5.067,4.533c0.509-1.055,1.133-1.615,1.867-2.4
  c0.355,0,0.711,0,1.067,0c1.408,1.386,2.458,1.227,2.4,4.267c-0.88,0.659-0.89,1.182-2.4,1.333c-0.948-0.48-0.974,0.272-1.6,0.533
  c-0.315,0.132-3.95-0.181-4.8,0c-0.384,0.712-0.532,1.126-0.533,2.4c-1.207,1.766,0.397,2.695,0.533,4.8
  c-0.814,0.712-0.362,1.154-1.867,1.333c-0.288-0.559-0.544-1.436-0.8-2.133c-2.243-0.039-3.681-0.348-5.867-0.8
  c-0.779-2.016-1.451-3.441-1.867-5.6c0.823-0.815,0.818-1.441,2.4-1.6C111.049,745.558,111.183,745.55,111.801,745.61z"/>
<path style="fill:#7F3FB2;stroke:#000000;stroke-width:1px;" d="M115.534,803.744c-0.8,0.089-1.6,0.178-2.4,0.267
  c-0.638,2.45-2.515,5.325-5.333,5.6c-0.089,0.978-0.177,1.956-0.267,2.933c-0.901,0.358-1.101,0.208-1.333,1.333
  c0.57,0.644-0.107,3.342,0,5.066c-0.781,0.252-0.936,0.471-1.333,1.067c-0.561-0.308-1.454-0.667-1.6-0.8
  c-0.317,0.286-0.439,0.534-0.8,0.8c0.027-1.787-0.317-2.633-2.133-2.667c-0.547,0.738-1.818,2.007-2.667,2.4
  c0-0.089,0-0.178,0-0.267c-2.399-1.905,0.126-2.357-4-2.934c-0.475,0.641-0.878,0.902-1.866,1.067c0-0.533,0-1.067,0-1.6
  c-0.952-0.548-1.505-1.339-2.667-1.6c-0.018,0.013-4.51,1.311-5.067,1.333c-0.288-0.275-1.721-0.771-1.867-1.067
  c0.089-0.622,0.178-1.245,0.267-1.867c-0.111-0.365-0.468-0.461-0.533-1.333c0.178,0,0.355,0,0.533,0
  c1.493-1.113,3.308,0.252,5.066,0.267c0.924-1.342,2.187-0.523,2.4-2.4c-0.267,0-0.533,0-0.8,0c0.019-1.222-0.085-2.32-0.267-3.2
  c1.643-0.963,2.323-2.647,3.733-3.733c0.303-0.233,1.134-0.246,1.333-0.533c0.374-0.538-0.13-1.426,0.267-1.867
  c1.354-1.505,3.546-1.521,3.733-4.267c-0.2-0.286-0.16-0.252-0.267-0.8c0.8-0.089,1.6-0.178,2.4-0.267
  c0.545-0.735,1.648-1.116,2.133-1.867c0.492-0.761,0.011-1.367,0.8-1.866c0.531-0.484,1.72-1.02,2.133-0.8
  c0.537,0.836,0.545,2.129,1.333,2.667c0.576,0.393,1.467-0.28,1.866,0.267c0.802,1.098-0.587,1.192,1.067,1.6
  c1.256-2.269,3.01-4.194,4.267-6.4c1.042,0.148,1.525-0.012,2.667-0.267c0.401,0.718,0.723,1.506,1.067,2.4
  c0.762,0.018,1.141,0.104,1.6,0.267c-0.151,0.753-0.128,0.935,0,1.867c1.916,1.032,3.858,1.528,5.333,2.934c0,0.089,0,0.178,0,0.267
  c-0.089,0-0.178,0-0.267,0c-0.224,0.637-0.107,0.438-0.533,0.8c0,0.089,0,0.178,0,0.267c-0.089,0-0.177,0-0.267,0
  c0-0.089,0-0.178,0-0.267c-0.698-0.663-0.508-0.931-1.867-1.066c-0.211,1.311-0.425,2.304-1.333,2.933
  c-0.262,0.143-0.759-0.126-1.333,0.267c-1.24,0.849-2.125,2.42-3.2,3.467C115.534,802.677,115.534,803.21,115.534,803.744z"/>
<path style="fill:#7F3FB2;stroke:#000000;stroke-width:1px;" d="M7.268,842.144c0.621,0.052,0.754,0.051,1.067,0.267
  c1.49,0.539,1.651,1.974,3.2,2.4c0.51,0.259,3.032,0.114,3.733,0c0,0.355,0,0.711,0,1.067c-0.882,0.514-0.855,0.961-0.8,2.4
  c0.667,0.655,1.75,2.11,2.133,2.934c-1.092,1.429,0.403,2.677,0,3.733c-0.286,0.2-0.252,0.16-0.8,0.267
  c-0.433-0.399-0.539-0.414-1.333-0.534c-1.192,1.751-2.852,2.942-5.867,2.934c-0.612-0.494-2.072-0.882-2.4-1.6
  c0-2.844,0-5.689,0-8.533C7.483,846.513,7.339,844.449,7.268,842.144z"/>
<path style="fill:#7F3FB2;stroke:#000000;stroke-width:1px;" d="M50.468,893.877c1.28,0.665,1.743,1.591,3.467,1.867
  c0.403-0.488,0.914-0.868,1.333-1.333c1.131,0.375,1.278,1.457,2.133,1.867c0.53,0.254,1.179-0.345,1.333-0.267
  c0.302,0.152,0.302,0.897,0.533,1.066c0.795,0.582,1.332-0.081,1.867,0.8c-0.881,0.259-1.101,0.493-2.4,0.533
  c-0.445-0.517-0.384-0.445-1.333-0.533c-0.551,0.831-4.259,2.959-5.333,3.2c-0.746-1.08-1.548-0.632-2.667-1.333
  c-1.025-1.108-0.95-2.861-1.333-4.267C48.92,895.198,49.832,894.448,50.468,893.877z"/>
<path style="fill:#7F3FB2;stroke:#000000;stroke-width:1px;" d="M52.868,928.81c0.444,0,0.889,0,1.333,0
  c0.688,1.134,1.854,2.652,2.134,4c-0.839,0.319-1.49,0.254-1.867,0.8c-0.089,0-0.178,0-0.267,0c0.202,0.702,0.32,0.636,0.533,1.333
  c-0.664,0.414-0.673,0.793-1.333,0.533c-0.826-0.588-2.099-2.813-2.133-4.267C51.962,930.554,52.429,929.729,52.868,928.81z"/>
<path style="fill:#7F3FB2;stroke:#000000;stroke-width:1px;" d="M97.934,671.744c0-0.267,0-0.533,0-0.8
  c1.306,0.044,2.429,0.48,2.933,0.267c1.595-0.559,0.887-1.185,1.333-2.667c1.109-0.446,1.436-0.007,1.6-1.333
  c1.236-1.582,0.157-2.361-0.267-3.467c0-1.067,0-2.133,0-3.2c-0.66-1.477-2.118-1.244-2.4-3.467c0.886-0.798,1.719-1.651,1.867-3.2
  c-0.595-0.437-0.802-0.456-0.533-1.067c0.261-0.756,0.853-0.83,1.067-1.333c0.339-0.8-0.345-1.293-0.267-1.867
  c0.042-0.307,0.438-1.136,0.533-1.6c-0.758-0.486-1.18-1.035-1.6-1.867c-1.259-0.116-2.309-0.817-3.2-1.067
  c-1.312-0.367-1.696,0.838-2.4,1.067c-1.741,0.564-3.303-0.524-4.533-0.8c-0.715,0.878-1.552,1.029-2.133,2.133
  c-0.624-0.105-1.443-0.165-1.6-0.267c-1.632-0.932-3.505-2.797-3.733-5.067c0.679-0.628,0.744-1.382,1.333-2.133
  c1.122-1.43,3.024-1.214,3.2-3.733c-0.915-0.962-0.732-2.356-0.8-4c-0.718-0.213-4.533-2.4-4.533-2.4
  c0.398-0.433,0.414-0.54,0.533-1.333c-1.158-0.597-1.845-1.746-2.667-2.667c-0.613,0.059-1.301,0.358-1.867,0.267
  c-0.28-0.045-0.474-0.642-1.066-0.533c-0.848,0.155-1.976,1.705-3.2,0.8c-0.931-0.688-0.174-2.208-0.8-3.2
  c-0.356-0.267-0.711-0.533-1.067-0.8c-0.251-0.556,0.345-1.143,0.267-1.333c-0.251-0.611-1.272-1.326-1.6-1.866
  c0.019-0.39,0.616-1.644,0.267-2.4c-0.325-0.704-1.463-0.857-1.866-1.6c0.753-0.723,0.062-1.252,0.533-2.4
  c0.376-0.915,1.76-2.284,2.133-3.2c0-0.711,0-1.422,0-2.133c0.705-1.725,2.06-2.41,2.133-5.067c3.753,0.46,9.335,3.33,12.8,4.533
  c0.889,0.089,1.778,0.178,2.667,0.267c3.58,1.11,7.723,2.539,11.2,3.733c2.485,0.853,4.861,0.67,6.933,1.866
  c1.251,0.723,2.19,2.198,3.2,3.2c1.389,1.377,3.936,2.155,4.8,4c0.089,0,0.178,0,0.267,0c0,0.089,0,0.178,0,0.267
  c-0.089,0-0.178,0-0.267,0c-1.224,1.534-4.049,2.665-4.533,4.8c0.975,0.472,2.073,1.269,2.667,2.133c0.823-0.519,0.915-0.77,2.4-0.8
  c1.052,1.58,2.74,2.854,4,4.267c2.509-0.589,2.054-1.323,4.8-1.066c0,0.355,0,0.711,0,1.066c0.972,0.437,4.062,3.279,4.267,4.533
  c-0.761,0.472-1.138,0.774-1.333,1.867c0.898,0.566,1.222,1.311,2.4,1.6c0.286,0.201,0.252,0.161,0.8,0.267
  c-0.313,1.109-2.327,2.214-1.6,4c0.267,0.656,0.831,0.507,1.067,1.6c0.8,0,1.6,0,2.4,0c0.351,0.513,1.368,0.897,1.6,1.333
  c0.18,0.337-0.026,1.402,0.267,2.133c0.613,0.322,1.538,0.627,2.378,1.026c1.346,0.639,3.16-2.332,4.482-1.109
  c1.656,1.531-2.998,3.749-2.594,4.617c0.131,0.281,0.583-0.021,0.8,1.333c-1.464,1.021-1.618,2.85-4,2.933
  c-0.18,1.286-1.399,2.809-0.8,4c0.449,1.927,1.248,1.506,2.667,2.4c0.384,0.573,0.297,1.949,0.267,2.933
  c-0.769,0.489-0.962,0.646-1.067,1.867c2.083,0.941,3.28,1.487,4.533,3.2c1.021-0.37,1.012-0.97,2.667-1.067
  c0.858,0.872,2.862,0.754,4,1.333c0.652,0.332,3.896,4.961,4,5.866c-0.678,0.388-0.301-0.058-0.533,0.8
  c1.138,1.023,1.705,2.537,3.733,2.667c1.142-0.561,2.491,1.38,4.267,1.6c0.425-0.6,0.437-0.559,0.8-0.533
  c0.762,0.889-0.162,3.612-0.267,5.333c0.797-0.006,1.389,0.252,1.6,1.6c-0.267,0-0.533,0-0.8,0c-0.099,0.553-0.065,0.513-0.267,0.8
  c-0.57,0.422-1.777,0.387-2.4,0.8c0.301,0.51,0.231,1.126,0,1.333c-0.284,0.207-0.985,0.397-1.333,0.533
  c-0.082,1.003-0.554,2.561-0.8,2.934c-0.587,0.628-1.239,1.554-1.867,2.133c-0.533,0.178-1.067,0.356-1.6,0.533
  c-0.671,0.805-0.198,2.351-1.067,2.933c-0.289,0.194-1.381-0.2-2.133,0.267c-0.632,0.392-0.91,1.4-1.6,1.867
  c-0.332-0.846-0.917-1.548-1.333-2.4c-0.622-0.089-1.245-0.178-1.867-0.267c-1,0.911-2.105,1.881-3.733,2.133
  c-0.43-0.617-0.389-0.627-1.333-0.8c-0.977,1.46-3.003,3.149-5.067,3.467c0,0.533,0,1.067,0,1.6c-0.662,0.39-1.061,0.852-1.6,1.333
  c0.089,1.066,0.177,2.133,0.266,3.2c-1.973,0.134-1.756,1.115-3.733,1.333c0.01-0.886-0.074-1.59-0.267-2.133
  c-1.164,0.612-1.49,1.568-2.934,1.867c-0.689-0.672-1.038-1-2.4-1.066c-0.619,1.287-2.117,1.593-2.667,2.933
  c-0.256,0.378-0.26,0.873-0.267,1.6c-1.852-0.183-3.82-0.953-4.8-0.267c-1.273,0.83-3.75,3.871-4,5.6
  c1.173,0.57,2.493,0.712,2.667,2.4c-0.243,0.249-0.355,0.468-0.533,0.8c-1.388,0.11-1.847,0.179-3.467,0c0-0.355,0-0.711,0-1.066
  c-0.835,0.091-1.251,0.277-1.867,0.533c-0.149,0.427-0.213,0.641-0.267,1.333c0.673,0.391,0.412,0.117,0.533,1.066
  c-0.089,0-0.178,0-0.267,0c-0.891-0.941-2.177-1.902-2.4-3.467c0.44-0.477,0.465-0.67,0.533-1.6c0.356,0,0.711,0,1.067,0
  c0.174-0.5,0.254-1.043,0.267-1.867c-0.2-0.286-0.16-0.252-0.267-0.8c-1.43,0.323-0.73,0.829-1.333,1.067
  c-0.533-0.178-1.067-0.356-1.6-0.534c-0.582,0.212-0.271,0.598-0.8,0.534c-0.408-0.539-0.663-1.122-1.067-1.6
  c-1.025,0.294-1.909,1.103-2.667,0.8c-1.56-0.549-1.593-1.627-2.4-2.933c-0.156-0.253-0.936-0.333-1.066-0.533
  c0-0.533,0-1.067,0-1.6c-0.573-0.975-2.754-0.764-3.467-1.6c-0.446-0.523,0.095-1.245-0.533-1.6c-1.01-0.571-0.796,0.708-1.6-0.533
  c1.123-1.221-0.072-2.172,0.8-3.2c0.268-0.316,0.988-0.267,1.333-0.533c0.865-0.668,0.632-1.827,1.333-2.667
  c0.231-0.277,1.057-0.321,1.333-0.533c-0.287-0.463-0.276-0.606,0-1.067c0.198-0.232,0.336-0.301,0.533-0.533
  c0.701,0.202,0.636,0.319,1.333,0.533c1.237-1.854,4.052-1.903,4.8-3.733c0.603-0.845,0.635-2.415,0.533-3.2
  c2.252,0.131,4.922-0.473,4.8-3.733c-1.524-1.106-1.304-3.525-2.4-5.067c-0.87-1.224-3.467-1.956-3.467-1.867
  c-1.763-0.034-2.43,0.389-2.667,1.867c0.201,0.286,0.16,0.252,0.267,0.8c-0.598,0.208-1.448,0.272-2.4,0.267
  c-0.43-0.618-0.389-0.627-1.333-0.8c0,0.267,0,0.533,0,0.8c-1.088,0.118-1.309,0.497-1.867,0.267c-0.504-0.484-0.646-0.705-0.8-1.6
  c0.267,0,0.533,0,0.8,0c0.136-1.167,0.527-1.67,0.8-2.667c0.633-0.249,1.773-0.469,2.133-1.067c0.492-0.885,0.567-2.665,1.333-4
  c0.739-1.287,2.279-1.379,2.667-3.2c-0.427-0.149-0.641-0.214-1.333-0.267c-0.314,0.214-0.448,0.206-1.067,0.267
  c0.016-0.775,0.257-0.37,0-0.8c-0.444,0.533-0.889,1.067-1.333,1.6c-0.548,1.526,0.833,1.974-1.333,2.4
  c-0.559-0.661-0.36-0.419-1.067-1.067c0.676-0.399,0.843-0.403,1.067-1.333c-0.528-0.217-1.88-0.443-2.4-0.8
  c0.215-0.272,0.095-0.073,0.267-0.533C97.255,673.868,98.341,671.597,97.934,671.744z"/>
<path style="fill:#7F3FB2;stroke:#000000;stroke-width:1px;" d="M155.801,698.677c0.533,0,1.067,0,1.6,0
  c0.434,0.845,0.85,1.033,1.067,2.133c-0.668,0.409-2.199,1.246-2.667,1.867c-0.334,0.444-0.151,0.979-0.533,1.333
  c-0.684,0.635-2.15,0.532-2.667,1.333c0.089,0,0.177,0,0.267,0c0,0.089,0,0.178,0,0.267c-0.089,0-0.178,0-0.267,0
  c-1.304,0.9-3.585-0.03-5.333,0.533c-0.466-1.064-1.019-0.569-1.333-1.867c0.089,0,0.178,0,0.267,0c0-0.089,0-0.178,0-0.267
  c2.337,0.593,1.926,1.55,5.067,1.6c0.908-1.623,1.682-2.018,2.933-3.2c0-0.178,0-0.355,0-0.533c0.34-0.312,1.369-0.437,1.6-0.8
  C156.196,700.456,155.764,699.053,155.801,698.677z"/>
</svg>
